<svg preserveAspectRatio="none" width="100%" height="100%" overflow="visible" style="display: block;" viewBox="0 0 38 38" fill="none" xmlns="http://www.w3.org/2000/svg">
<g id="shield-check-1" clip-path="url(#clip0_0_18)">
<g id="vector">
<path d="M18.8911 -0.059375C19.0517 -0.0592363 19.2122 -0.0590975 19.3776 -0.0589546C24.1162 -0.0454734 31.25 0.305513 34.8921 3.78577C35.6007 4.69485 35.6947 5.45188 35.689 6.56318C35.6901 6.71112 35.6911 6.85906 35.6923 7.01148C35.6952 7.50002 35.6946 7.98847 35.6937 8.47702C35.6944 8.81951 35.6952 9.162 35.6962 9.5045C35.6976 10.2235 35.6972 10.9425 35.6956 11.6615C35.6938 12.5742 35.697 13.4868 35.7016 14.3995C35.7046 15.1081 35.7045 15.8167 35.7036 16.5253C35.7036 16.8612 35.7045 17.1971 35.7065 17.5329C35.7376 23.6611 33.6451 28.6759 29.3436 33.0465C27.4196 34.9295 25.0947 36.1497 22.6417 37.2083C22.4561 37.2922 22.2706 37.3761 22.0795 37.4625C19.781 38.409 17.7432 38.2028 15.4802 37.2843C12.7422 36.1106 10.4104 34.6659 8.23333 32.6167C8.13965 32.5332 8.04597 32.4497 7.94945 32.3637C5.24804 29.8548 3.50217 26.1874 2.69167 22.6417C2.66377 22.5214 2.63587 22.4011 2.60713 22.2772C2.27307 20.5908 2.3199 18.8834 2.31624 17.1717C2.31482 16.8261 2.31338 16.4804 2.31191 16.1347C2.30931 15.4134 2.30808 14.6921 2.30762 13.9708C2.30677 13.0484 2.30078 12.126 2.29357 11.2036C2.28886 10.491 2.28772 9.77841 2.28756 9.06581C2.28689 8.72569 2.28493 8.38557 2.28162 8.04546C2.27735 7.56997 2.27812 7.09473 2.2801 6.61923C2.27775 6.4802 2.2754 6.34116 2.27298 6.19792C2.28722 4.99226 2.7449 4.25421 3.5526 3.38437C5.55438 1.86911 8.62268 1.20342 11.024 0.672917C11.236 0.62575 11.2359 0.62575 11.4522 0.577631C13.9339 0.0554489 16.3633 -0.0647177 18.8911 -0.059375ZM9.65833 3.64167C9.47117 3.69249 9.28401 3.74331 9.09118 3.79567C8.38982 4.00648 7.70375 4.25097 7.01615 4.5026C6.81638 4.57378 6.81638 4.57378 6.61258 4.6464C5.68502 4.96579 5.68502 4.96579 4.90833 5.54167C4.70232 6.12255 4.72879 6.70512 4.727 7.3158C4.72647 7.42972 4.72594 7.54364 4.72539 7.66101C4.72388 8.03816 4.72357 8.4153 4.7234 8.79245C4.7229 9.0573 4.72236 9.32215 4.72181 9.58699C4.72086 10.1439 4.72057 10.7008 4.72066 11.2577C4.72067 11.823 4.71959 12.3884 4.71741 12.9537C4.62597 18.4993 4.62597 18.4993 5.7 23.9083C5.75327 24.0781 5.80654 24.248 5.86143 24.4229C7.3219 28.634 10.6918 32.1563 14.6542 34.095C17.6757 35.523 17.6757 35.523 20.9 35.15C25.9885 33.1801 29.7498 29.8705 31.9833 24.8583C33.1761 21.8368 33.2747 18.715 33.2822 15.5111C33.2826 15.3796 33.2831 15.2481 33.2835 15.1127C33.2859 14.4198 33.2873 13.727 33.288 13.0341C33.2889 12.3207 33.2927 11.6073 33.2972 10.894C33.3002 10.3421 33.301 9.79021 33.3012 9.23832C33.3017 8.97514 33.303 8.71196 33.3051 8.4488C33.3078 8.08211 33.3075 7.71554 33.3064 7.34885C33.307 7.14071 33.3076 6.93257 33.3082 6.71813C33.2463 6.14013 33.1203 5.84471 32.775 5.38333C30.466 3.61276 26.6808 3.16879 23.9083 2.69167C23.7287 2.66064 23.5491 2.62962 23.3641 2.59766C18.7752 2.07437 14.0986 2.36384 9.65833 3.64167Z" fill="var(--fill-0, #001E50)"/>
<path d="M19.6333 7.125C20.0205 7.48991 20.0205 7.48991 20.2667 7.91667C20.2575 8.44681 20.2338 8.83259 19.9401 9.28291C19.4668 9.61782 18.9379 9.63544 18.3766 9.70781C16.4192 10.0123 14.7521 10.8042 13.4583 12.35C12.2324 14.2695 11.8513 16.3298 12.2943 18.5689C12.8949 20.3577 14.1291 21.9067 15.774 22.8396C17.6977 23.7004 19.6847 23.7753 21.6731 23.1259C23.1051 22.4818 24.6237 21.2084 25.235 19.7434C25.2968 19.5569 25.3587 19.3703 25.4224 19.1781C26.1364 17.0886 26.1364 17.0886 26.6 16.625C27.6973 16.5011 27.6973 16.5011 28.2724 16.9219C28.7591 17.98 28.3574 19.0365 28.0151 20.0984C27.2121 22.2237 25.6002 24.0928 23.5917 25.175C20.8429 26.3843 17.8752 26.5636 15.0472 25.4682C12.7441 24.4426 10.9224 22.4373 9.975 20.1083C9.92765 19.9951 9.8803 19.8818 9.83151 19.7651C9.02156 17.4065 9.28352 14.4644 10.3368 12.2362C11.6439 9.87683 13.7776 8.12858 16.338 7.31302C17.3917 7.05261 18.561 6.93118 19.6333 7.125Z" fill="var(--fill-0, #001E50)"/>
<path d="M27.8667 9.18333C28.2526 9.43073 28.2526 9.43073 28.5 9.81667C28.6089 10.3313 28.6089 10.3312 28.5 10.925C27.7431 11.9942 26.7043 12.9045 25.7817 13.8282C25.6286 13.9818 25.4755 14.1354 25.3225 14.2891C25.004 14.6084 24.6853 14.9275 24.3664 15.2463C23.9583 15.6544 23.5513 16.0635 23.1446 16.4729C22.8299 16.7894 22.5144 17.1052 22.1988 17.4207C21.9756 17.6443 21.753 17.8685 21.5305 18.0928C21.3947 18.2281 21.2588 18.3635 21.1188 18.503C20.9998 18.6222 20.8808 18.7414 20.7582 18.8643C20.2004 19.3565 19.7599 19.5228 19.0198 19.5344C18.8896 19.5389 18.7594 19.5434 18.6252 19.548C17.5515 19.36 16.7735 18.4147 16.0312 17.674C15.8717 17.5203 15.8717 17.5203 15.709 17.3635C15.1323 16.7903 14.7213 16.3435 14.5667 15.5167C14.7197 14.9045 14.8227 14.7654 15.3583 14.4083C15.921 14.309 16.2949 14.2943 16.7815 14.6174C17.1135 14.9049 17.4246 15.2043 17.7333 15.5167C17.8411 15.6224 17.9489 15.7281 18.0599 15.837C18.3232 16.0972 18.5836 16.3597 18.8417 16.625C19.3997 16.3869 19.7562 16.0647 20.1814 15.6354C20.3198 15.4964 20.4582 15.3575 20.6008 15.2143C20.7504 15.0626 20.9001 14.9108 21.0497 14.759C21.2041 14.6036 21.3587 14.4482 21.5133 14.2929C21.9194 13.8847 22.3246 13.4757 22.7295 13.0663C23.3786 12.4104 24.0287 11.7556 24.6794 11.1012C24.9066 10.8724 25.1333 10.6431 25.3599 10.4137C25.4973 10.2752 25.6347 10.1368 25.7762 9.99413C25.8974 9.87168 26.0185 9.74922 26.1434 9.62306C26.6923 9.10528 27.1247 9.11937 27.8667 9.18333Z" fill="var(--fill-0, #001E50)"/>
</g>
</g>
<defs>
<clipPath id="clip0_0_18">
<rect width="38" height="38" fill="white"/>
</clipPath>
</defs>
</svg>
