<svg preserveAspectRatio="none" width="100%" height="100%" overflow="visible" style="display: block;" viewBox="0 0 48 48" fill="none" xmlns="http://www.w3.org/2000/svg">
<g id="Time-Monthly-1 Streamline Ultimate">
<path id="Vector" fill-rule="evenodd" clip-rule="evenodd" d="M13.6375 6.02295C13.206 6.10815 12.8749 6.444 12.7812 6.89145C12.7534 7.02405 12.7302 7.3815 12.7297 7.686L12.729 8.23935L10.7693 8.25285L8.8095 8.2662L8.46645 8.37255C7.2429 8.7513 6.399 9.63 6.0882 10.8489L6.0015 11.1885V20.6265V30.0645L6.0882 30.4041C6.37335 31.5225 7.17285 32.4169 8.23005 32.8006C8.81505 33.013 8.7675 33.0114 13.9206 33L18.6765 32.9895L18.8715 32.8857C19.5774 32.5101 19.7119 31.5862 19.1377 31.0569C18.7962 30.7422 19.249 30.7689 13.8795 30.747L9.0825 30.7275L8.907 30.6364C8.6607 30.5086 8.4591 30.3018 8.35365 30.0687L8.2635 29.8695V20.6265V11.3835L8.3565 11.1775C8.41185 11.0551 8.5266 10.9024 8.63955 10.8009C8.9688 10.5049 8.96025 10.506 10.9614 10.506H12.729L12.7297 11.0617C12.7302 11.3674 12.7534 11.7259 12.7812 11.8585C12.9099 12.4729 13.4611 12.8367 14.0898 12.7222C14.4466 12.6573 14.7312 12.4329 14.8971 12.0855C14.9844 11.9027 14.9902 11.8471 14.9905 11.1982L14.991 10.506H19.4955H24V11.1621C24 11.9323 24.0375 12.0861 24.2949 12.3724C24.8433 12.9823 25.8138 12.8238 26.1594 12.0679C26.2296 11.9145 26.2425 11.7972 26.2551 11.1982L26.2695 10.506H28.0389C29.7117 10.506 29.8194 10.5102 30.0162 10.5838C30.2649 10.677 30.5302 10.9237 30.6451 11.169C30.7266 11.3427 30.7276 11.3827 30.747 15.0105C30.7687 19.1125 30.7453 18.7996 31.0569 19.1377C31.5862 19.7119 32.5101 19.5774 32.8857 18.8715L32.9895 18.6765V14.874V11.0715L32.8797 10.7205C32.5489 9.6636 31.8697 8.90475 30.8926 8.5002C30.3219 8.26395 30.1029 8.244 28.0741 8.244H26.2695L26.2551 7.55175C26.2425 6.9528 26.2296 6.8355 26.1594 6.68205C25.8138 5.9262 24.8433 5.76765 24.2949 6.37755C24.0375 6.6639 24 6.81765 24 7.5879V8.244H19.4955H14.991L14.9905 7.55175C14.9902 6.90285 14.9844 6.84735 14.8971 6.6645C14.7285 6.3117 14.4474 6.0933 14.0728 6.024C13.9479 6.0009 13.8357 5.98395 13.8235 5.98635C13.8114 5.9886 13.7277 6.0051 13.6375 6.02295ZM13.1986 14.8396C12.5157 14.9553 11.929 15.5585 11.8374 16.239C11.676 17.4384 12.694 18.3942 13.8678 18.1452C14.308 18.0517 14.7565 17.7189 14.9697 17.3275C15.6531 16.0717 14.6064 14.6013 13.1986 14.8396ZM19.2097 14.8351C18.7336 14.9062 18.2155 15.2956 17.9914 15.7506C17.6701 16.4035 17.7904 17.1526 18.3007 17.6766C18.8251 18.2149 19.6189 18.3388 20.3041 17.9893C20.544 17.8669 20.9058 17.4864 21.0205 17.2356C21.3232 16.5744 21.1966 15.8302 20.6944 15.3181C20.308 14.9242 19.7751 14.7508 19.2097 14.8351ZM25.2204 14.835C24.7422 14.9058 24.2188 15.2908 23.992 15.7389C23.7643 16.1886 23.7612 16.7889 23.9842 17.2447C24.1059 17.4933 24.4728 17.877 24.6991 17.9925C24.9163 18.1033 25.2661 18.189 25.5015 18.189C26.515 18.189 27.3199 17.256 27.165 16.2604C27.0178 15.3154 26.1706 14.6943 25.2204 14.835ZM13.0482 20.1219C12.4239 20.2899 11.91 20.8791 11.8327 21.5154C11.7645 22.0776 11.9431 22.5858 12.3432 22.9674C12.7906 23.394 13.3375 23.5276 13.977 23.3664C14.4748 23.2407 14.947 22.7761 15.1087 22.2531C15.5008 20.9833 14.3335 19.776 13.0482 20.1219ZM19.0479 20.1235C18.2376 20.3412 17.7007 21.1777 17.8353 22.0128C17.9499 22.7247 18.5445 23.3163 19.2448 23.4154C20.5879 23.6053 21.5877 22.2534 21.0205 21.0144C20.9058 20.7636 20.544 20.383 20.3041 20.2606C19.9231 20.0662 19.4521 20.0149 19.0479 20.1235ZM31.215 21.7639C29.5089 21.8832 27.8112 22.4443 26.3967 23.3565C25.2115 24.1207 24.1207 25.2115 23.3565 26.3967C20.7783 30.3948 21.3466 35.6694 24.7185 39.0369C26.3472 40.6635 28.3849 41.6461 30.747 41.9437C31.2243 42.0039 32.5317 42.0039 33.009 41.9437C35.3715 41.646 37.4005 40.6657 39.0331 39.0331C40.6657 37.4005 41.6493 35.3643 41.9433 33.009C42.0031 32.5287 42.0034 31.2213 41.9437 30.747C41.6833 28.6801 40.914 26.8977 39.6111 25.3431C37.5664 22.9032 34.3755 21.5428 31.215 21.7639ZM31.098 24.0408C30.1741 24.1416 29.2843 24.3966 28.4572 24.7975C27.5926 25.2166 26.9944 25.6419 26.3181 26.3181C25.6435 26.9928 25.2201 27.588 24.7987 28.4533C23.6124 30.8907 23.7682 33.7317 25.216 36.0661C25.8162 37.0336 26.766 37.97 27.783 38.5965C29.124 39.4226 30.8779 39.846 32.4375 39.7201C36.381 39.4018 39.4018 36.381 39.7201 32.4375C39.8254 31.1323 39.5577 29.7196 38.9712 28.485C37.8619 26.1499 35.6329 24.493 33.0675 24.0967C32.5848 24.022 31.5412 23.9925 31.098 24.0408ZM12.9109 25.4214C12.5173 25.5832 12.2695 25.7917 12.0417 26.1526C11.8917 26.3901 11.8221 26.6719 11.8264 27.0225C11.8326 27.5184 11.9778 27.8605 12.3265 28.2009C12.6705 28.5369 13.0223 28.6788 13.5118 28.6795C14.2674 28.6806 14.9406 28.1626 15.1303 27.4344C15.3585 26.5584 14.8519 25.6455 13.9932 25.3849C13.6875 25.2922 13.1838 25.3092 12.9109 25.4214ZM31.4964 26.8428C31.1853 26.9502 30.9473 27.184 30.8258 27.5017C30.7502 27.6997 30.747 27.7942 30.747 29.889C30.747 31.993 30.7498 32.0776 30.8271 32.284C30.9199 32.5321 31.2397 32.8533 31.4779 32.9376C31.5934 32.9786 32.104 32.9895 33.8865 32.9895H36.1485L36.324 32.8984C36.7422 32.6814 36.9615 32.3247 36.9633 31.8585C36.9646 31.518 36.8551 31.2789 36.5875 31.0383C36.2679 30.751 36.2391 30.747 34.525 30.747H33.013L33.0013 29.1772C32.9896 27.624 32.9884 27.6055 32.8986 27.4231C32.7745 27.1711 32.4664 26.9016 32.218 26.8279C31.959 26.7508 31.7497 26.7552 31.4964 26.8428Z" fill="var(--fill-0, #4CC7F4)"/>
</g>
</svg>
