<svg preserveAspectRatio="none" width="100%" height="100%" overflow="visible" style="display: block;" viewBox="0 0 48 48" fill="none" xmlns="http://www.w3.org/2000/svg">
<g id="Shipment-Truck Streamline Ultimate">
<path id="Vector" fill-rule="evenodd" clip-rule="evenodd" d="M6.89175 6.0222C6.5544 6.09 6.23295 6.35265 6.0888 6.67815C5.976 6.933 5.9802 7.3611 6.0978 7.5897C6.2082 7.80405 6.4275 8.0328 6.6255 8.14005L6.7815 8.2245L12.6933 8.244L18.6052 8.2635L18.7671 8.3757C18.951 8.5032 19.1781 8.82405 19.2922 9.1176C19.4803 9.6015 19.4731 9.2292 19.4746 18.5685L19.476 27.3524L13.1677 27.363L6.8595 27.3735L6.67815 27.4574C6.44415 27.5655 6.1905 27.8205 6.0888 28.0502C5.97555 28.3055 5.9778 28.722 6.0936 28.9614C6.2097 29.2013 6.42255 29.4119 6.66135 29.523L6.8595 29.6153L13.1677 29.6156L19.476 29.616V31.3824V33.1488L19.2976 33.1965C19.0056 33.2747 18.5035 33.515 18.1515 33.7452C17.3256 34.2852 16.6416 35.1732 16.3527 36.0803L16.2627 36.363H15.5586L14.8545 36.3629L14.7829 36.1193C14.4684 35.0487 13.5717 34.0007 12.5145 33.4679C11.5038 32.9586 10.1323 32.8641 9.0651 33.2301C8.2143 33.522 7.4274 34.0961 6.8823 34.8225C6.62025 35.1719 6.28245 35.8584 6.1605 36.2898C5.9733 36.9518 5.95695 37.9059 6.1215 38.5665C6.52305 40.1793 7.8138 41.4747 9.41595 41.8734C9.99375 42.0171 10.879 42.0296 11.4615 41.9022C12.0249 41.7789 12.7192 41.4606 13.1839 41.1125C13.9 40.5761 14.4631 39.8064 14.7612 38.9565L14.8707 38.6445L15.5647 38.6339L16.2586 38.6234L16.3503 38.9055C16.9006 40.6011 18.4212 41.8086 20.217 41.9759C22.4911 42.1878 24.5707 40.6482 25.0321 38.4114C25.4913 36.1854 24.2081 33.9554 22.0496 33.2286L21.7575 33.1302L21.7491 22.8614C21.7444 17.2136 21.7347 11.8554 21.7274 10.9545L21.7138 9.3165L21.5938 8.868C21.5277 8.6214 21.4099 8.2806 21.3321 8.11065C21.046 7.48695 20.5375 6.8424 20.0868 6.53235C19.8493 6.369 19.3209 6.12255 19.0665 6.05655C18.9116 6.01635 17.6577 6.0042 12.963 5.99775C9.7134 5.9931 6.9813 6.0042 6.89175 6.0222ZM25.9629 8.28135C25.6394 8.35845 25.3651 8.6034 25.21 8.9541C25.1308 9.1332 25.1307 9.1506 25.1308 21.1946L25.1311 33.2556L25.2232 33.4541C25.4184 33.8747 25.7845 34.1129 26.2387 34.115C26.7046 34.1171 27.0617 33.8975 27.2648 33.4841L27.3735 33.2625L27.3837 24.6923L27.394 16.122H29.6346H31.8751L31.8873 19.4468L31.8994 22.7715L31.9896 23.103C32.1862 23.826 32.6949 24.6821 33.1959 25.1331C33.5088 25.4148 33.942 25.7016 34.3146 25.8738C35.0946 26.2341 35.3385 26.2616 37.7776 26.2617L39.7578 26.262L39.7471 30.8738L39.7365 35.4855L39.6445 35.6889C39.5257 35.9514 39.243 36.2159 38.9916 36.2993C38.823 36.3554 38.6238 36.3627 37.518 36.3539L36.2392 36.3435L36.1278 36.0219C35.6665 34.6907 34.5589 33.6179 33.2235 33.209C32.7124 33.0525 32.4231 33.0096 31.8733 33.0093C30.4279 33.0084 29.1406 33.6536 28.2553 34.8225C27.4159 35.9312 27.1546 37.5423 27.5947 38.898C28.0674 40.3542 29.301 41.499 30.8055 41.8779C31.4616 42.0431 32.4193 42.027 33.0822 41.8395C33.49 41.7242 34.197 41.3829 34.5129 41.1489C35.2711 40.5873 35.8539 39.7965 36.1434 38.9366L36.2416 38.6445L37.7356 38.6222C39.1171 38.6013 39.2506 38.5934 39.5101 38.5154C40.1146 38.3336 40.5795 38.0615 40.9987 37.6437C41.566 37.0785 41.8888 36.4061 41.9782 35.6025C42.0319 35.1203 42.0315 21.861 41.9778 21.153C41.7667 18.3698 40.0791 15.8789 37.5915 14.6789C36.7078 14.2526 36.1611 14.0909 35.0073 13.9148C34.8946 13.8975 34.864 13.8632 34.7394 13.6145C33.3936 10.9292 31.5598 9.24735 29.2455 8.5758C28.7914 8.44395 28.42 8.37135 27.8415 8.3013C27.3556 8.2425 26.1786 8.23005 25.9629 8.28135ZM27.393 12.2025V13.86H29.8305C31.171 13.86 32.268 13.8452 32.268 13.827C32.268 13.7592 31.7199 12.9711 31.4598 12.6648C30.9111 12.0186 30.3132 11.5259 29.6533 11.1761C29.0688 10.8662 27.9898 10.545 27.5331 10.545H27.393V12.2025ZM9.15435 10.6242C8.80725 10.6938 8.52975 10.91 8.3547 11.247L8.2635 11.4225L8.2533 17.8061C8.2431 24.1475 8.24355 24.191 8.3226 24.4022C8.43075 24.6911 8.73975 24.9845 9.02535 25.0694C9.47295 25.2023 9.83415 25.1121 10.161 24.7857C10.5387 24.4085 10.5084 25.0422 10.4967 17.7777L10.4865 11.4225L10.3954 11.247C10.1511 10.7763 9.6501 10.5249 9.15435 10.6242ZM14.7627 10.6259C14.4177 10.6938 14.124 10.9356 13.9611 11.286L13.8795 11.4615V17.877V24.2925L13.9833 24.4875C14.1078 24.7215 14.2855 24.897 14.523 25.0203C14.7694 25.1483 15.2481 25.1496 15.4872 25.0229C15.7182 24.9003 15.9211 24.6852 16.03 24.4473L16.1229 24.2445L16.1127 17.814L16.1025 11.3835L16.018 11.2275C15.9306 11.066 15.7092 10.839 15.5334 10.7306C15.4483 10.6782 15.0262 10.5744 14.9545 10.5884C14.9424 10.5906 14.8561 10.6076 14.7627 10.6259ZM34.14 19.2336C34.14 22.6287 34.1368 22.5767 34.3656 23.0016C34.5106 23.2713 34.8525 23.6036 35.1439 23.7581C35.5752 23.987 35.706 23.9985 37.8397 23.9994L39.7651 24L39.745 22.5863C39.7243 21.1272 39.702 20.8781 39.5394 20.292C39.2575 19.2761 38.7853 18.4688 38.0541 17.7521C37.0525 16.7705 35.898 16.259 34.4227 16.1436L34.14 16.1214V19.2336ZM9.9252 35.3327C9.1569 35.5394 8.5692 36.1161 8.33745 36.8912C8.2365 37.2287 8.24265 37.7865 8.35125 38.1375C8.57565 38.8628 9.135 39.4221 9.8625 39.6485C10.3711 39.8067 11.0352 39.7482 11.5207 39.5021C11.9791 39.2699 12.4213 38.7708 12.604 38.2797C12.7344 37.9289 12.7659 37.3115 12.6717 36.9507C12.4668 36.1664 11.8384 35.531 11.0694 35.3306C10.7841 35.2563 10.2055 35.2574 9.9252 35.3327ZM20.0457 35.3304C19.4778 35.4863 18.88 35.9679 18.6277 36.4728C18.2761 37.1766 18.3176 38.0565 18.7325 38.6922C19.3092 39.5759 20.3021 39.9375 21.309 39.6305C21.6654 39.5219 21.961 39.3312 22.2499 39.0237C22.5507 38.7036 22.6897 38.4555 22.7919 38.0562C22.8828 37.7006 22.8888 37.3797 22.8115 37.0148C22.6437 36.2225 21.9883 35.5409 21.1902 35.3286C20.9271 35.2586 20.3038 35.2595 20.0457 35.3304ZM31.293 35.3331C30.7951 35.4653 30.3285 35.7981 30.0322 36.2327C29.0124 37.7286 30.072 39.7377 31.878 39.7323C32.8825 39.7293 33.7095 39.1217 34.0095 38.1659C34.1005 37.8759 34.1088 37.799 34.0918 37.4054C34.0777 37.0775 34.0506 36.9087 33.9837 36.7335C33.7231 36.051 33.1278 35.5094 32.4414 35.3306C32.1555 35.2562 31.5783 35.2574 31.293 35.3331Z" fill="var(--fill-0, #4CC7F4)"/>
</g>
</svg>
