<svg preserveAspectRatio="none" width="100%" height="100%" overflow="visible" style="display: block;" viewBox="0 0 48 48" fill="none" xmlns="http://www.w3.org/2000/svg">
<g id="Suply-Chain-Shipping-Fee-Included-Truck Streamline Ultimate">
<path id="Vector" fill-rule="evenodd" clip-rule="evenodd" d="M30.7665 6.16545C27.7005 6.37515 24.8638 8.0085 23.0926 10.584C22.2606 11.7938 21.6723 13.2978 21.445 14.796C21.3579 15.3713 21.3276 16.5369 21.3833 17.175C21.5927 19.5749 22.6829 21.8594 24.4197 23.5373C26.1951 25.2527 28.392 26.2221 30.858 26.3786C32.6145 26.4902 34.2991 26.1528 35.9167 25.3658C38.5959 24.0621 40.5835 21.6078 41.2935 18.7268C41.4924 17.9196 41.5525 17.4536 41.5767 16.5315C41.6227 14.7777 41.308 13.3376 40.537 11.7735C39.7302 10.137 38.4042 8.6706 36.8454 7.6908C35.0605 6.56895 32.8768 6.021 30.7665 6.16545ZM30.6885 8.4441C29.3244 8.57415 27.8846 9.13335 26.769 9.966C26.358 10.2729 25.6683 10.935 25.3541 11.3244C24.5913 12.27 24.0047 13.5065 23.7687 14.6664C23.4839 16.0665 23.582 17.5572 24.0465 18.8907C24.2204 19.3899 24.6264 20.2001 24.9192 20.6321C26.8315 23.4536 30.1797 24.7248 33.4797 23.8824C35.0059 23.4926 36.4717 22.5536 37.527 21.2895C39.7248 18.6567 39.9343 14.8344 38.0388 11.949C37.6125 11.3001 36.9076 10.5374 36.285 10.0511C34.7356 8.84115 32.6883 8.2533 30.6885 8.4441ZM35.1425 12.5879C34.7844 12.7214 34.7385 12.7766 32.4589 15.8154L30.2326 18.7833L29.0762 17.6331C28.44 17.0006 27.8474 16.4382 27.7593 16.3836C27.2544 16.07 26.577 16.2302 26.2334 16.7444C26.1053 16.9361 26.0895 16.9883 26.0746 17.2727C26.0466 17.8079 26.0292 17.7842 27.5804 19.3275C28.8117 20.5527 28.959 20.6864 29.2158 20.8131C29.371 20.8896 29.5979 20.973 29.7198 20.9984C30.0018 21.0569 30.6643 21.0275 30.9232 20.9448C31.1521 20.8718 31.5342 20.6441 31.7475 20.4536C31.9869 20.24 36.4978 14.2017 36.5511 14.0235C36.7666 13.3041 36.2804 12.5886 35.5479 12.5472C35.3871 12.5381 35.2349 12.5534 35.1425 12.5879ZM18.3645 18.2018C17.993 18.3476 17.7814 18.5741 17.5626 19.0607L17.4285 19.3589L15.3537 19.359C13.0791 19.359 12.7644 19.3802 11.9433 19.5884C9.6885 20.1599 7.82535 21.6771 6.798 23.7782C6.34935 24.6959 6.10095 25.616 6.0222 26.652C5.9691 27.3506 5.96865 36.1008 6.02175 36.5775C6.1776 37.9778 7.1127 39.081 8.48985 39.4892C8.7333 39.5612 8.89725 39.5745 9.726 39.5897C10.6279 39.606 10.6938 39.6024 10.9015 39.5243C11.055 39.4667 11.1768 39.3827 11.3037 39.2469C11.5438 38.9901 11.6113 38.8242 11.6122 38.4885C11.6136 38.0171 11.3719 37.6329 10.9587 37.4493C10.7785 37.3694 10.6794 37.3587 9.921 37.3382C9.2331 37.3194 9.0528 37.3026 8.9169 37.2446C8.70315 37.1531 8.37765 36.7976 8.31315 36.5852C8.2749 36.4589 8.2635 35.7578 8.2635 33.516V30.6105L13.4234 30.6017C16.8657 30.5958 18.6335 30.5793 18.7346 30.5522C18.9747 30.4875 19.2569 30.2387 19.3844 29.979L19.4955 29.7525L19.515 24.9555L19.5345 20.1585L19.6865 19.8546C19.818 19.5918 19.8384 19.5155 19.8383 19.2891C19.838 18.803 19.5339 18.3605 19.0983 18.2121C18.8877 18.1404 18.5339 18.1355 18.3645 18.2018ZM13.002 21.678C10.9842 22.0068 9.32925 23.3646 8.60685 25.284C8.36115 25.9368 8.2449 26.7347 8.2443 27.7733L8.244 28.329H12.7485H17.253V24.975V21.621L15.2737 21.6257C13.9209 21.6288 13.202 21.6455 13.002 21.678ZM40.6031 25.6785C40.2777 25.7597 39.9985 25.9962 39.849 26.3174L39.7567 26.5155L39.7564 29.249L39.756 31.9826L39.8754 32.2214C39.9945 32.4597 40.1548 32.6184 40.419 32.759C40.6293 32.8709 41.1243 32.8622 41.355 32.7425C41.6013 32.6147 41.8029 32.4078 41.9083 32.1747L41.9985 31.9755V29.2455C41.9985 26.5521 41.9974 26.5131 41.9163 26.3381C41.6847 25.8372 41.1143 25.5507 40.6031 25.6785ZM16.6875 32.8787C16.6446 32.8878 16.4692 32.9222 16.2976 32.9552C15.9076 33.0303 15.3669 33.2366 15.0105 33.4463C13.7172 34.2072 12.8968 35.4897 12.774 36.9423C12.5779 39.2604 14.0802 41.273 16.3755 41.7674C16.7994 41.8586 17.7024 41.858 18.1305 41.766C19.5023 41.4714 20.6195 40.6292 21.2373 39.4238C21.6278 38.6624 21.7577 38.0612 21.7262 37.1625C21.6978 36.3543 21.5246 35.7378 21.1454 35.0961C20.4605 33.9371 19.3203 33.143 18.0135 32.9147C17.694 32.8587 16.8843 32.8368 16.6875 32.8787ZM34.488 32.9111C32.2233 33.3402 30.6623 35.2758 30.7604 37.533C30.788 38.1696 30.8798 38.5625 31.1469 39.1868C31.5545 40.1394 32.3487 40.9491 33.3313 41.4138C35.7903 42.5769 38.7209 41.2973 39.5393 38.7032C40.3217 36.2232 38.8753 33.6471 36.3268 32.9816C35.8534 32.858 34.9509 32.8233 34.488 32.9111ZM16.6932 35.1768C16.0452 35.3337 15.4243 35.8769 15.1659 36.5132C14.9845 36.9594 14.9655 37.6224 15.1214 38.0622C15.3119 38.5997 15.7662 39.1227 16.2472 39.3584C17.1301 39.7905 18.1491 39.62 18.8298 38.9258C19.2941 38.4522 19.476 38.0051 19.476 37.3368C19.476 36.6836 19.2645 36.1916 18.7901 35.7408C18.3278 35.3018 17.8567 35.1135 17.2335 35.1188C17.0619 35.1203 16.8187 35.1464 16.6932 35.1768ZM34.686 35.1768C34.3006 35.2784 33.9888 35.4596 33.6918 35.7545C33.3576 36.0863 33.1905 36.3677 33.0864 36.7748C32.7645 38.0333 33.5358 39.2783 34.803 39.5459C36.1729 39.8352 37.4977 38.7494 37.4934 37.3406C37.4902 36.3353 36.7768 35.4233 35.799 35.1743C35.5099 35.1006 34.9699 35.1018 34.686 35.1768ZM23.7176 37.3796C23.3726 37.4625 23.0235 37.8017 22.9214 38.153C22.7696 38.675 23.0129 39.2277 23.5125 39.4965C23.667 39.5798 23.6934 39.5807 26.2023 39.5913L28.7363 39.6023L28.9796 39.4824C29.4038 39.2736 29.6165 38.9294 29.6156 38.4524C29.615 38.0318 29.3492 37.6257 28.953 37.4399C28.7808 37.359 28.7322 37.3574 26.3205 37.3511C24.9692 37.3475 23.7978 37.3602 23.7176 37.3796Z" fill="var(--fill-0, #4CC7F4)"/>
</g>
</svg>
