<svg preserveAspectRatio="none" width="100%" height="100%" overflow="visible" style="display: block;" viewBox="0 0 48 48" fill="none" xmlns="http://www.w3.org/2000/svg">
<g id="Amazon-Web-Service-Cost-Explorer Streamline Ultimate">
<path id="Vector" fill-rule="evenodd" clip-rule="evenodd" d="M10.4962 7.75365C10.2071 7.85685 9.92391 8.14005 9.82071 8.4291C9.77766 8.54985 9.76806 10.2862 9.76626 18.345L9.76416 28.1145L9.43851 28.2838C8.70426 28.666 8.12496 29.3524 7.86981 30.1425C7.73151 30.5706 7.69836 31.2535 7.79316 31.723C7.98411 32.6688 8.55786 33.4176 9.46821 33.9085L9.76206 34.0671L9.77331 35.7903C9.78366 37.3656 9.79056 37.5246 9.85506 37.6426C9.97551 37.8634 10.2053 38.0874 10.4086 38.1822L10.6036 38.2732H16.2781H21.9526L22.1476 38.1808C23.0128 37.7706 23.0128 36.5544 22.1476 36.1441L21.9526 36.0517L16.9898 36.0514L12.0271 36.051V35.043V34.0348L12.1919 33.9607C12.6421 33.7581 13.1483 33.3354 13.4561 32.9052C13.8346 32.376 14.0198 31.789 14.021 31.1158C14.0219 30.4941 13.916 30.0451 13.6576 29.5749L13.5307 29.3442L13.6889 29.1778C13.7759 29.0863 14.6063 28.1815 15.5342 27.1672C16.7533 25.8346 17.2391 25.3284 17.2859 25.3425C17.6981 25.4673 18.4261 25.4881 18.8839 25.3882C19.8377 25.1802 20.7262 24.4201 21.1013 23.4913C21.2647 23.0871 21.3166 22.7469 21.3025 22.1757L21.2897 21.6579L23.2918 20.2566L25.2938 18.8553L25.6151 19.029C26.0983 19.2901 26.4442 19.3708 27.0811 19.3708C27.7048 19.3708 28.0459 19.294 28.5158 19.0477C29.4488 18.5586 30.0469 17.7088 30.2183 16.6287L30.2401 16.4919L32.3819 15.9568L34.5238 15.4218L34.8097 15.7167C35.2669 16.1884 35.7569 16.4733 36.3536 16.6144C36.7403 16.7058 37.4674 16.6954 37.8646 16.5927C38.7451 16.3651 39.5189 15.7243 39.9167 14.8935C40.1135 14.4823 40.1857 14.1964 40.2121 13.7235C40.2659 12.7539 39.9709 11.9952 39.2716 11.3055C38.5771 10.6204 37.876 10.3519 36.91 10.4013C36.251 10.4349 35.8568 10.5613 35.3443 10.9036C34.6225 11.3859 34.1045 12.1534 33.9772 12.9297C33.9514 13.0873 33.9256 13.2229 33.92 13.2309C33.9145 13.2387 32.9411 13.4871 31.7572 13.7826L29.6045 14.32L29.3888 14.0869C29.0036 13.6708 28.4765 13.3504 27.9118 13.1887C27.4736 13.0635 26.686 13.0641 26.2448 13.1904C25.1611 13.5001 24.2549 14.4331 24.0151 15.4858C23.9407 15.8122 23.9207 16.425 23.9725 16.786L24.0035 17.0014L22.0853 18.3459C21.0302 19.0854 20.1356 19.7058 20.0974 19.7244C20.0488 19.7481 19.9945 19.7349 19.9177 19.6806C19.7273 19.5462 19.3478 19.3698 19.0457 19.2753C18.7969 19.1973 18.6724 19.1841 18.1891 19.1839C17.5664 19.1838 17.308 19.2334 16.8727 19.4364C16.1609 19.7682 15.5525 20.3943 15.2525 21.1039C15.0812 21.5091 15.017 21.9193 15.0412 22.4569C15.0649 22.9902 15.1312 23.2813 15.3137 23.6542L15.4403 23.913L13.7435 25.7674L12.0466 27.6219L12.0263 18.0987C12.0148 12.6327 11.9912 8.53395 11.9711 8.478C11.8699 8.196 11.599 7.9029 11.3251 7.77915C11.1184 7.68555 10.721 7.6734 10.4962 7.75365ZM36.8132 12.6795C36.7712 12.6901 36.6922 12.7264 36.6377 12.76C36.2704 12.9871 36.1228 13.3296 36.2143 13.7421C36.2533 13.918 36.2986 13.9941 36.4612 14.1574C36.6218 14.3187 36.6995 14.3658 36.8627 14.4007C37.5479 14.5477 38.1094 13.9434 37.9202 13.2625C37.8674 13.072 37.6361 12.8151 37.4356 12.7237C37.2877 12.6564 36.988 12.6351 36.8132 12.6795ZM26.6858 15.4507C26.0531 15.7794 26.0272 16.6461 26.6393 17.0058C26.7946 17.0971 26.8726 17.1165 27.0841 17.1165C27.3017 17.1165 27.3698 17.0985 27.5317 16.9984C28.1504 16.6159 28.1063 15.7384 27.4532 15.4342C27.1832 15.3085 26.9497 15.3135 26.6858 15.4507ZM28.2511 20.9412C28.1975 20.9503 27.9956 20.9772 27.8026 21.001C27.0221 21.0975 26.0354 21.4134 25.2406 21.8217C22.897 23.0256 21.2833 25.2973 20.9039 27.9265C20.8312 28.4307 20.8198 29.5437 20.882 30.046C21.2671 33.1489 23.3963 35.7697 26.3452 36.7698C28.7795 37.5952 31.4062 37.2414 33.5504 35.7988L33.9739 35.514L36.2702 37.8145C38.8168 40.3656 38.7403 40.3012 39.2296 40.3012C39.559 40.3012 39.8192 40.1929 40.0369 39.9654C40.3859 39.6004 40.4531 39.025 40.1953 38.6065C40.1422 38.5201 39.0743 37.4227 37.8224 36.168L35.5463 33.8865L35.7821 33.5355C36.4325 32.5675 36.9125 31.2598 37.0631 30.046C37.1252 29.5444 37.1138 28.4308 37.0414 27.9265C36.5323 24.3885 33.8201 21.6163 30.2791 21.0147C29.9278 20.955 28.4782 20.9023 28.2511 20.9412ZM17.8186 21.4993C17.2415 21.7639 17.1041 22.572 17.5693 22.9642C17.9635 23.2966 18.5152 23.2662 18.8419 22.8942C19.0012 22.7127 19.0588 22.5202 19.0405 22.2313C19.0282 22.0402 18.9997 21.9543 18.9004 21.81C18.6653 21.4683 18.1862 21.3306 17.8186 21.4993ZM28.1146 23.2398C25.4989 23.6571 23.5367 25.6339 23.1437 28.2478C23.0881 28.6186 23.0882 29.5221 23.144 29.8936C23.3314 31.1398 23.8691 32.2345 24.739 33.1402C26.8292 35.3163 30.2182 35.5539 32.5996 33.6909C33.7793 32.7681 34.5439 31.462 34.7879 29.9526C34.8551 29.5372 34.862 28.6519 34.8014 28.2478C34.4767 26.0884 33.0496 24.3094 31.0328 23.5503C30.1588 23.2213 29.0015 23.0982 28.1146 23.2398ZM10.5256 30.2751C9.98061 30.528 9.82626 31.2199 10.2139 31.6728C10.5427 32.0569 11.1748 32.0682 11.5277 31.6963C11.7698 31.4413 11.8325 31.0117 11.6753 30.6868C11.4782 30.2799 10.9348 30.0852 10.5256 30.2751Z" fill="var(--fill-0, #4CC7F4)"/>
</g>
</svg>
