<svg preserveAspectRatio="none" width="100%" height="100%" overflow="visible" style="display: block;" viewBox="0 0 32 32" fill="none" xmlns="http://www.w3.org/2000/svg">
<g id="Business-Deal-Handshake Streamline Ultimate">
<path id="Vector" fill-rule="evenodd" clip-rule="evenodd" d="M18.21 8.659C17.9596 8.6828 17.7072 8.7329 17.5056 8.7988C17.3804 8.8397 16.7086 9.1586 15.9771 9.5244L14.672 10.1771L14.5546 10.0964C14.2436 9.8824 13.802 9.717 13.3747 9.6545C13.0912 9.6131 12.6416 9.6355 12.347 9.7058C12.2046 9.7397 11.4008 10.0448 10.293 10.4855L8.473 11.2093L8.4061 11.0201C8.3075 10.741 8.1861 10.5584 7.9509 10.335C7.7201 10.1159 7.4721 9.9738 7.186 9.8966C7.0362 9.8562 6.8782 9.851 5.795 9.851C4.5995 9.851 4.5704 9.8522 4.4521 9.9069C4.3173 9.9692 4.1422 10.1317 4.0797 10.2526C3.9793 10.4469 3.9821 10.7856 4.0857 10.9536C4.158 11.0708 4.3093 11.2184 4.417 11.2767C4.5181 11.3314 4.5534 11.3334 5.684 11.346L6.8469 11.359L6.919 11.4311L6.991 11.5032L6.9988 14.6551C7.0041 16.785 6.9978 17.8372 6.9795 17.9003C6.9646 17.9516 6.9277 18.0159 6.8975 18.0433C6.8457 18.0902 6.7784 18.0937 5.6818 18.106C4.5503 18.1187 4.5184 18.1204 4.417 18.1757C4.1981 18.2952 4.0577 18.4829 4.0166 18.7111C3.9416 19.1272 4.1854 19.4935 4.5943 19.5792C4.7881 19.6199 6.6104 19.6275 6.9445 19.5891C7.3484 19.5426 7.7056 19.3719 7.978 19.0951L8.1071 18.964H8.9539H9.8007L11.3209 20.6727C13.0439 22.6095 13.2201 22.7994 13.443 22.9586C13.854 23.2524 14.4994 23.42 14.8392 23.3212C15.1507 23.2307 17.0703 21.7449 18.5842 20.4227L19.0753 19.9937L21.4702 19.5181C22.7873 19.2566 23.889 19.0425 23.9184 19.0423C23.9478 19.0421 24.0118 19.0833 24.0607 19.1337C24.288 19.3682 24.6698 19.5449 25.0413 19.5875C25.3511 19.623 27.1798 19.6217 27.3767 19.5859C27.7001 19.5271 27.9352 19.2938 27.9854 18.9818C28.0388 18.6495 27.8844 18.3402 27.583 18.1757C27.4816 18.1204 27.4497 18.1187 26.316 18.106L25.1531 18.093L25.081 18.0209L25.009 17.9488V14.726V11.5032L25.081 11.4311L25.1531 11.359L26.316 11.346C27.4466 11.3334 27.4819 11.3314 27.583 11.2767C27.6907 11.2184 27.842 11.0708 27.9143 10.9536C28.0179 10.7856 28.0207 10.4469 27.9203 10.2526C27.8578 10.1317 27.6827 9.9692 27.5479 9.9069C27.4296 9.8522 27.4005 9.851 26.205 9.851C25.1218 9.851 24.9638 9.8562 24.814 9.8966C24.5598 9.9652 24.287 10.1135 24.1004 10.2845L23.9333 10.4376L21.6502 9.6082C20.3944 9.152 19.2851 8.7598 19.185 8.7366C18.8474 8.6585 18.5034 8.6311 18.21 8.659ZM18.093 10.1956C17.9552 10.2263 17.6457 10.3702 16.819 10.7878C16.2184 11.0912 15.3974 11.5049 14.9946 11.7072C14.3349 12.0386 14.2498 12.0887 14.1366 12.2127C13.676 12.7176 13.9508 13.5343 14.622 13.6553C14.7056 13.6703 14.819 13.6721 14.895 13.6596C14.9665 13.6478 15.8265 13.3721 16.806 13.0469C18.8202 12.3783 18.7833 12.3867 19.0766 12.5303C19.3528 12.6655 19.4969 12.8982 19.4944 13.205C19.4914 13.5689 19.2887 13.8156 18.8773 13.9558C18.8337 13.9706 18.8361 13.9803 18.9056 14.0695C19.5688 14.9205 20.6453 16.318 20.7533 16.468C21.0295 16.8518 21.1527 17.1807 21.151 17.5304C21.1504 17.65 21.1313 17.8121 21.1085 17.8907C21.0856 17.9693 21.0723 18.039 21.0789 18.0456C21.0855 18.0522 21.6303 17.9498 22.2895 17.818L23.488 17.5783L23.4877 14.7287L23.4875 11.879L21.2111 11.0518C19.9591 10.5968 18.8565 10.208 18.7609 10.1878C18.5416 10.1413 18.3256 10.1438 18.093 10.1956ZM12.698 11.167C12.648 11.1804 11.6858 11.5566 10.5599 12.0032L8.5128 12.815L8.5124 15.1346L8.512 17.4541L9.4285 17.4616L10.345 17.469L10.475 17.5364C10.5841 17.593 10.8859 17.919 12.3525 19.5644C14.0824 21.5053 14.3545 21.798 14.4286 21.798C14.4984 21.798 15.8617 20.7492 16.689 20.059C17.6828 19.2299 18.4028 18.5818 19.2304 17.7714L19.5878 17.4214L19.4788 17.2762C19.4188 17.1964 18.9081 16.5343 18.3438 15.805C17.7795 15.0757 17.316 14.4763 17.3137 14.4729C17.3114 14.4696 16.9067 14.6015 16.4143 14.7661C15.2269 15.1629 15.1743 15.1762 14.791 15.1782C14.1606 15.1814 13.5964 14.9618 13.1527 14.5404C12.4031 13.8283 12.1887 12.7243 12.62 11.7965C12.727 11.5663 12.8392 11.3913 12.9791 11.2365L13.0681 11.138L12.9285 11.1403C12.8518 11.1416 12.748 11.1536 12.698 11.167Z" fill="var(--fill-0, white)"/>
</g>
</svg>
