<svg preserveAspectRatio="none" width="100%" height="100%" overflow="visible" style="display: block;" viewBox="0 0 38 36" fill="none" xmlns="http://www.w3.org/2000/svg">
<g id="vector">
<path d="M4.99504 15.2945C4.99419 15.3016 4.99535 15.3089 4.99838 15.3154C5.0014 15.3219 5.00616 15.3274 5.01206 15.3311C5.01797 15.3349 5.02475 15.3367 5.03158 15.3365C5.03841 15.3362 5.04498 15.3339 5.05047 15.3297C5.3398 15.1227 5.75372 14.8383 6.29225 14.4766C7.8128 13.4569 8.99123 15.4978 7.74153 16.383C7.30437 16.6914 6.09849 17.5168 4.12389 18.8592C4.0819 18.8879 4.03543 18.91 3.98608 18.9248C3.35252 19.1095 2.86309 18.9366 2.5178 18.4062C1.98983 17.5941 1.31984 16.5889 0.507824 15.3906C0.0073093 14.651 -0.290464 13.9948 0.427046 13.3337C0.833582 12.9581 1.3077 12.9175 1.8494 13.212C1.89837 13.2384 1.94064 13.2756 1.97294 13.3209L2.70312 14.3245C2.70894 14.3327 2.71709 14.3389 2.72648 14.3423C2.73586 14.3456 2.74604 14.3461 2.75567 14.3434C2.7653 14.3408 2.77391 14.3353 2.78037 14.3277C2.78682 14.32 2.79082 14.3105 2.79182 14.3005C2.82033 14.0444 2.86679 13.7952 2.9312 13.553C3.88155 9.94507 5.67717 6.95395 8.31807 4.57962C10.6432 2.48915 13.2921 1.11097 16.2645 0.445088C19.2782 -0.230396 22.258 -0.137023 25.2041 0.725205C27.5684 1.4167 29.7621 2.62467 31.7852 4.34913C34.1886 6.39799 35.9182 8.93398 36.9741 11.9571C37.9561 14.7695 38.2777 17.9548 37.7439 20.9833C37.0375 24.9978 35.2498 28.3741 32.3808 31.1124C29.6882 33.6809 26.3868 35.2661 22.4766 35.8679C22.0564 35.932 21.1361 35.9757 19.7159 35.9992C18.963 36.012 17.8696 35.8701 16.4356 35.5734C14.2509 35.121 12.187 34.2369 10.2441 32.9211C8.18608 31.5264 6.49605 29.7795 5.17402 27.6805C4.80655 27.0957 4.60909 26.726 4.58164 26.5713C4.46759 25.9198 4.9982 25.1835 5.70463 25.1675C6.19458 25.1568 6.56838 25.3739 6.82603 25.8189C8.97698 29.5229 12.5614 32.2648 16.7445 33.2044C16.8648 33.2311 17.3041 33.3015 18.0623 33.4157C18.5997 33.4968 19.0422 33.5432 19.3896 33.555C21.0791 33.6105 22.5495 33.4792 23.8008 33.1612C27.2252 32.2926 30.0202 30.5025 32.186 27.791C36.5195 22.3663 36.7888 14.571 32.7197 8.92705C30.2562 5.51121 26.9622 3.409 22.8378 2.6204C21.7908 2.42032 20.3288 2.35149 19.1995 2.44433C14.9399 2.79434 11.3755 4.57055 8.50656 7.77296C8.21829 8.09416 7.83656 8.61545 7.36139 9.33682C6.12911 11.2053 5.34033 13.1912 4.99504 15.2945Z" fill="var(--fill-0, #001E50)"/>
<path d="M15.6421 16.6791C15.6332 16.6908 15.6279 16.7048 15.6268 16.7194C15.6256 16.7341 15.6286 16.7488 15.6354 16.7618C15.6423 16.7747 15.6526 16.7855 15.6653 16.7926C15.678 16.7998 15.6925 16.8032 15.707 16.8024C16.4145 16.7714 17.1014 16.7693 17.7677 16.7959C19.0934 16.8488 19.4767 18.6031 18.2127 19.1057C18.0533 19.1697 17.7307 19.2018 17.245 19.2018C15.3992 19.2028 14.0444 19.2028 13.1807 19.2018C12.357 19.2002 11.7156 18.5119 11.9215 17.6827C11.9658 17.5056 12.1464 17.218 12.4632 16.82C13.5951 15.3986 14.7973 13.8811 16.0697 12.2676C16.4118 11.8339 16.7144 11.0848 16.5829 10.5421C16.4039 9.79141 15.5549 9.34642 14.885 9.74659C14.2514 10.1259 14.3385 10.5517 14.1864 11.1056C13.9948 11.8035 13.2456 12.1556 12.5788 11.8659C12.2852 11.7378 12.0661 11.4855 11.9215 11.1088C11.9036 11.061 11.8935 11.0113 11.8914 10.9615C11.8671 10.1633 12.0313 9.48941 12.384 8.93985C13.2509 7.59529 14.4795 7.03505 16.0697 7.25915C17.7265 7.49284 19.0047 9.09191 18.9825 10.7886C18.9677 11.9379 18.5749 12.9879 17.8041 13.9387C16.7028 15.2972 15.9821 16.2106 15.6421 16.6791Z" fill="var(--fill-0, #001E50)"/>
<path d="M26.1339 15.6451C26.1341 15.6375 26.1328 15.63 26.1301 15.6229C26.1275 15.6158 26.1234 15.6093 26.1183 15.6038C26.1131 15.5983 26.107 15.5939 26.1001 15.5908C26.0933 15.5877 26.0859 15.586 26.0784 15.5858C25.9802 15.5837 24.9813 15.588 23.0817 15.5986C22.5358 15.6018 22.1519 15.5298 21.9302 15.3826C21.2412 14.9264 21.3964 14.2109 21.3742 13.5498C21.2966 11.2448 22.3531 9.26959 24.2443 8.06108C24.6804 7.78257 25.1714 7.56488 25.7173 7.40801C26.1386 7.28743 26.6729 7.22286 27.3202 7.21433C27.7553 7.20899 28.0921 7.40214 28.3307 7.79377C28.4532 7.99225 28.5139 8.37962 28.5129 8.95586C28.5076 13.5893 28.5066 16.5612 28.5097 17.8716C28.5145 19.5731 26.1719 19.6115 26.1323 17.9084C26.1133 17.0942 26.1138 16.3398 26.1339 15.6451ZM26.1244 13.1448L26.1259 9.89545C26.1258 9.88207 26.1224 9.86892 26.116 9.85721C26.1096 9.84551 26.1003 9.83562 26.0891 9.82845C26.078 9.82129 26.0652 9.81707 26.052 9.81619C26.0387 9.81531 26.0255 9.8178 26.0135 9.82342C24.6196 10.4658 23.862 11.5511 23.7406 13.0792C23.7393 13.0938 23.741 13.1086 23.7458 13.1225C23.7505 13.1365 23.7581 13.1493 23.7681 13.1601C23.7781 13.171 23.7902 13.1796 23.8038 13.1855C23.8173 13.1914 23.8319 13.1945 23.8467 13.1944H26.0753C26.0883 13.1944 26.1008 13.1892 26.11 13.1799C26.1192 13.1706 26.1244 13.158 26.1244 13.1448Z" fill="var(--fill-0, #001E50)"/>
<path d="M20.1895 23.991C20.8938 23.991 21.7111 23.9904 22.6413 23.9894C22.6732 23.9889 22.7042 23.9794 22.7308 23.9618C22.7575 23.9442 22.7786 23.9194 22.7918 23.8901C23.3926 22.5541 24.3768 21.7986 25.7442 21.6236C26.1085 21.5766 26.3978 21.6076 26.6122 21.7164C27.5182 22.1758 27.5182 23.2787 26.6914 23.8357C26.6427 23.8696 26.5878 23.8931 26.5298 23.9045C25.7315 24.0566 24.9903 24.1702 24.9903 25.1947C24.9919 26.2175 25.7315 26.3311 26.5298 26.4832C26.5878 26.4947 26.6427 26.5181 26.6914 26.552C27.5182 27.1091 27.5182 28.2119 26.6122 28.6713C26.3978 28.7802 26.1085 28.8111 25.7442 28.7642C24.3768 28.5892 23.3926 27.8337 22.7918 26.4976C22.7786 26.4684 22.7575 26.4435 22.7308 26.4259C22.7042 26.4084 22.6732 26.3988 22.6413 26.3984C21.7111 26.3973 20.8938 26.3968 20.1895 26.3968C19.4851 26.3968 18.6673 26.3973 17.736 26.3984C17.7042 26.3988 17.6731 26.4084 17.6465 26.4259C17.6199 26.4435 17.5987 26.4684 17.5855 26.4976C16.9847 27.8337 16.0006 28.5892 14.6331 28.7642C14.2688 28.8111 13.9795 28.7802 13.7651 28.6713C12.8591 28.2119 12.8591 27.1091 13.6859 26.552C13.7352 26.5185 13.7907 26.4956 13.8491 26.4848C14.6458 26.3312 15.387 26.2175 15.387 25.1947C15.387 24.1718 14.6458 24.0582 13.8491 23.9045C13.7907 23.8938 13.7352 23.8709 13.6859 23.8373C12.8591 23.2803 12.8591 22.1774 13.7651 21.718C13.9795 21.6092 14.2688 21.5782 14.6331 21.6252C16.0006 21.8002 16.9847 22.5557 17.5855 23.8917C17.5989 23.9207 17.6202 23.9452 17.6468 23.9625C17.6734 23.9798 17.7043 23.9891 17.736 23.9894C18.6673 23.9904 19.4851 23.991 20.1895 23.991Z" fill="var(--fill-0, #001E50)"/>
</g>
</svg>
