<svg preserveAspectRatio="none" width="100%" height="100%" overflow="visible" style="display: block;" viewBox="0 0 48 48" fill="none" xmlns="http://www.w3.org/2000/svg">
<g id="Amazon-Web-Service-Cost-Explorer Streamline Ultimate">
<path id="Vector" fill-rule="evenodd" clip-rule="evenodd" d="M10.4961 7.75365C10.207 7.85685 9.92385 8.14005 9.82065 8.4291C9.7776 8.54985 9.768 10.2862 9.7662 18.345L9.7641 28.1145L9.43845 28.2838C8.7042 28.666 8.1249 29.3524 7.86975 30.1425C7.73145 30.5706 7.6983 31.2536 7.7931 31.7231C7.98405 32.6688 8.5578 33.4176 9.46815 33.9085L9.762 34.0671L9.77325 35.7903C9.7836 37.3656 9.7905 37.5246 9.855 37.6427C9.97545 37.8635 10.2052 38.0874 10.4085 38.1822L10.6035 38.2732H16.278H21.9525L22.1475 38.1808C23.0127 37.7706 23.0127 36.5544 22.1475 36.1441L21.9525 36.0518L16.9897 36.0514L12.027 36.051V35.043V34.0348L12.1918 33.9607C12.642 33.7581 13.1482 33.3354 13.456 32.9052C13.8345 32.376 14.0198 31.7891 14.021 31.1159C14.0219 30.4941 13.9159 30.0452 13.6575 29.5749L13.5306 29.3442L13.6888 29.1778C13.7758 29.0863 14.6063 28.1815 15.5342 27.1672C16.7532 25.8346 17.2391 25.3284 17.2859 25.3425C17.6981 25.4673 18.426 25.4881 18.8838 25.3882C19.8377 25.1802 20.7261 24.4202 21.1013 23.4914C21.2646 23.0871 21.3165 22.7469 21.3024 22.1757L21.2896 21.6579L23.2917 20.2566L25.2938 18.8553L25.6151 19.029C26.0982 19.2901 26.4441 19.3709 27.081 19.3709C27.7047 19.3709 28.0458 19.294 28.5157 19.0477C29.4487 18.5586 30.0468 17.7089 30.2183 16.6287L30.24 16.4919L32.3818 15.9568L34.5237 15.4218L34.8096 15.7167C35.2668 16.1884 35.7568 16.4733 36.3535 16.6145C36.7402 16.7058 37.4673 16.6955 37.8645 16.5927C38.745 16.3651 39.5188 15.7243 39.9166 14.8935C40.1134 14.4823 40.1856 14.1965 40.212 13.7235C40.2658 12.7539 39.9708 11.9952 39.2715 11.3055C38.577 10.6204 37.8759 10.3519 36.9099 10.4013C36.2509 10.4349 35.8567 10.5613 35.3442 10.9036C34.6224 11.3859 34.1044 12.1534 33.9771 12.9297C33.9513 13.0873 33.9255 13.2229 33.9199 13.2309C33.9144 13.2387 32.941 13.4871 31.7571 13.7826L29.6045 14.3201L29.3887 14.087C29.0035 13.6709 28.4764 13.3504 27.9117 13.1887C27.4735 13.0635 26.6859 13.0641 26.2448 13.1904C25.161 13.5001 24.2549 14.4332 24.015 15.4859C23.9406 15.8123 23.9206 16.425 23.9724 16.7861L24.0035 17.0015L22.0853 18.3459C21.0302 19.0854 20.1356 19.7058 20.0973 19.7244C20.0487 19.7481 19.9944 19.7349 19.9176 19.6806C19.7273 19.5462 19.3477 19.3698 19.0456 19.2753C18.7968 19.1973 18.6723 19.1841 18.189 19.1839C17.5664 19.1838 17.3079 19.2334 16.8726 19.4364C16.1609 19.7682 15.5525 20.3943 15.2525 21.1039C15.0812 21.5091 15.017 21.9194 15.0411 22.457C15.0648 22.9902 15.1311 23.2813 15.3136 23.6542L15.4402 23.913L13.7435 25.7674L12.0465 27.6219L12.0262 18.0987C12.0147 12.6327 11.9911 8.53395 11.971 8.478C11.8698 8.196 11.5989 7.9029 11.325 7.77915C11.1183 7.68555 10.7209 7.6734 10.4961 7.75365ZM36.8131 12.6795C36.7711 12.6901 36.6921 12.7264 36.6376 12.76C36.2703 12.9871 36.1227 13.3296 36.2142 13.7421C36.2532 13.918 36.2985 13.9941 36.4611 14.1575C36.6217 14.3187 36.6994 14.3658 36.8626 14.4008C37.5478 14.5478 38.1093 13.9434 37.9201 13.2625C37.8673 13.072 37.636 12.8151 37.4355 12.7237C37.2876 12.6564 36.9879 12.6351 36.8131 12.6795ZM26.6857 15.4507C26.053 15.7794 26.0271 16.6461 26.6392 17.0058C26.7945 17.0972 26.8725 17.1165 27.084 17.1165C27.3016 17.1165 27.3697 17.0985 27.5316 16.9985C28.1503 16.616 28.1063 15.7385 27.4532 15.4343C27.1832 15.3086 26.9496 15.3135 26.6857 15.4507ZM28.251 20.9412C28.1974 20.9504 27.9955 20.9772 27.8025 21.001C27.022 21.0975 26.0353 21.4134 25.2405 21.8217C22.8969 23.0256 21.2832 25.2973 20.9038 27.9265C20.8311 28.4307 20.8197 29.5437 20.8819 30.0461C21.267 33.149 23.3963 35.7698 26.3451 36.7698C28.7795 37.5953 31.4061 37.2414 33.5503 35.7989L33.9738 35.514L36.2701 37.8145C38.8167 40.3656 38.7402 40.3013 39.2295 40.3013C39.5589 40.3013 39.8191 40.193 40.0368 39.9654C40.3858 39.6005 40.453 39.025 40.1952 38.6065C40.1421 38.5201 39.0742 37.4227 37.8223 36.168L35.5462 33.8865L35.782 33.5355C36.4324 32.5676 36.9124 31.2599 37.063 30.0461C37.1251 29.5445 37.1137 28.4308 37.0413 27.9265C36.5322 24.3885 33.8201 21.6163 30.279 21.0147C29.9277 20.955 28.4781 20.9024 28.251 20.9412ZM17.8185 21.4994C17.2415 21.764 17.1041 22.572 17.5692 22.9642C17.9634 23.2966 18.5151 23.2662 18.8418 22.8942C19.0011 22.7127 19.0587 22.5202 19.0404 22.2313C19.0281 22.0402 18.9996 21.9543 18.9003 21.81C18.6652 21.4683 18.1862 21.3306 17.8185 21.4994ZM28.1145 23.2398C25.4988 23.6571 23.5367 25.6339 23.1437 28.2478C23.088 28.6186 23.0882 29.5221 23.144 29.8937C23.3313 31.1399 23.8691 32.2346 24.7389 33.1403C26.8292 35.3163 30.2181 35.5539 32.5995 33.6909C33.7792 32.7681 34.5438 31.462 34.7878 29.9526C34.855 29.5373 34.8619 28.6519 34.8013 28.2478C34.4766 26.0884 33.0495 24.3095 31.0327 23.5503C30.1587 23.2214 29.0015 23.0982 28.1145 23.2398ZM10.5255 30.2751C9.98055 30.528 9.8262 31.22 10.2138 31.6728C10.5426 32.057 11.1747 32.0682 11.5276 31.6963C11.7697 31.4413 11.8324 31.0117 11.6752 30.6868C11.4781 30.2799 10.9347 30.0852 10.5255 30.2751Z" fill="var(--fill-0, #001E50)"/>
</g>
</svg>
