<svg preserveAspectRatio="none" width="100%" height="100%" overflow="visible" style="display: block;" viewBox="0 0 48 48" fill="none" xmlns="http://www.w3.org/2000/svg">
<g id="accounting-document">
<path id="accounting-document_2" fill-rule="evenodd" clip-rule="evenodd" d="M9.77781 5.21044C8.9856 5.5061 8.17013 6.28306 7.7943 7.09981C7.51624 7.70428 7.50241 8.48679 7.50005 23.8248C7.49816 34.69 7.5516 40.1124 7.66415 40.5214C7.87729 41.2952 8.80908 42.3399 9.61764 42.7112C10.2105 42.9835 11.0299 43 24 43C36.9701 43 37.7895 42.9835 38.3824 42.7112C39.1909 42.3399 40.1227 41.2952 40.3359 40.5214C40.4464 40.1197 40.5017 36.0698 40.5 28.5014C40.4974 17.3591 40.4899 17.0703 40.1773 16.3751C39.7871 15.508 30.609 6.12611 29.5015 5.46266L28.7941 5.03891L19.5988 5.008C11.8335 4.98168 10.3063 5.01323 9.77781 5.21044ZM26.3587 11.7368C26.3592 14.3489 26.4272 16.3821 26.5263 16.7418C26.7394 17.5156 27.6712 18.5603 28.4798 18.9316C29.0408 19.1893 29.5955 19.2207 33.6275 19.2239L38.1466 19.2274V29.539V39.8508L37.7607 40.2398L37.375 40.629H24H10.625L10.2393 40.2398L9.85341 39.8508V23.9833V8.11583L10.2393 7.72679L10.625 7.3376H18.4915H26.3578L26.3587 11.7368ZM33.1953 12.4106L37.5944 16.8494H33.5408H29.4872L29.1014 16.4602L28.7155 16.0712V12.0214C28.7155 9.79403 28.7338 7.97172 28.7559 7.97172C28.7781 7.97172 30.7758 9.96921 33.1953 12.4106ZM17.0814 12.3808C16.8794 12.5456 16.6876 12.9283 16.6312 13.2793C16.5438 13.8212 16.4607 13.9147 15.8986 14.1037C14.4856 14.5788 13.4553 15.9233 13.4448 17.3058C13.4295 19.2799 14.9871 20.6993 17.4769 20.9811C18.7942 21.1301 19.5551 21.4617 19.7455 21.9703C20.0295 22.7285 19.0553 23.5061 17.8201 23.5071C16.9531 23.5079 16.5814 23.3481 15.8704 22.6696C14.9553 21.7961 13.7186 22.2087 13.7477 23.378C13.758 23.7993 13.9207 24.0532 14.5639 24.6525C15.0056 25.0642 15.6472 25.4857 15.9897 25.5892C16.5215 25.7498 16.6123 25.8418 16.6123 26.2191C16.6123 26.6928 17.1686 27.4374 17.5554 27.4816C18.4074 27.5789 18.9701 27.1116 18.9701 26.3071C18.9701 25.8296 19.03 25.7592 19.5768 25.594C21.3521 25.0575 22.5027 23.2403 22.1106 21.5924C21.7219 19.9579 20.1372 18.8187 18.0011 18.6381C16.634 18.5226 15.9278 18.1047 15.8564 17.3694C15.7995 16.7816 16.2169 16.4298 17.2486 16.196C18.1122 16.0002 18.9431 16.2437 19.7596 16.9317C20.4695 17.5298 20.9153 17.6145 21.4321 17.2494C22.4869 16.5043 21.5181 14.7757 19.64 14.0523C19.0636 13.8304 18.9701 13.7299 18.9701 13.3331C18.9701 12.7641 18.3456 12.0935 17.8157 12.0935C17.6053 12.0935 17.2749 12.2227 17.0814 12.3808ZM23.7642 27.5808C22.8831 27.809 22.567 29.0205 23.2306 29.6262C23.5418 29.9103 23.8677 29.9282 28.7155 29.9282C33.5634 29.9282 33.8893 29.9103 34.2005 29.6262C34.6502 29.2158 34.6503 28.263 34.2008 27.8522C33.8918 27.5701 33.5483 27.5485 28.9744 27.5249C26.2817 27.5109 23.9371 27.5361 23.7642 27.5808ZM15.411 34.7594C14.9842 34.9363 14.5689 35.5275 14.5689 35.9578C14.5689 36.4284 15.1089 36.9521 15.7079 37.0624C15.9893 37.1142 20.1908 37.1353 25.0447 37.1093C33.4666 37.0643 33.885 37.0483 34.2006 36.7601C34.6503 36.3495 34.6503 35.3967 34.2006 34.9861C33.8842 34.6973 33.4741 34.6827 24.8089 34.6519C19.8253 34.6342 15.5963 34.6827 15.411 34.7594Z" fill="var(--fill-0, #001E50)"/>
</g>
</svg>
