<svg preserveAspectRatio="none" width="100%" height="100%" overflow="visible" style="display: block;" viewBox="0 0 48 48" fill="none" xmlns="http://www.w3.org/2000/svg">
<g id="Nc-Content-Sign Streamline Ultimate">
<path id="Vector" fill-rule="evenodd" clip-rule="evenodd" d="M23.1603 6.3351C19.1799 6.50865 15.3288 8.06505 12.3195 10.7161C10.876 11.988 9.62835 13.5093 8.6823 15.151C7.2453 17.6449 6.4656 20.3217 6.3366 23.2045C6.1842 26.6121 6.98445 29.9025 8.6823 32.8489C11.2703 37.3401 15.7557 40.4932 20.8605 41.4096C22.8708 41.7705 25.1292 41.7705 27.1395 41.4096C32.243 40.4934 36.7317 37.3381 39.3176 32.8489C41.0141 29.9038 41.8096 26.638 41.6632 23.2188C41.5401 20.3437 40.7567 17.6491 39.3176 15.151C36.5438 10.3356 31.6107 7.086 26.0822 6.43185C25.6664 6.38265 23.9166 6.28005 23.844 6.3006C23.8334 6.3036 23.5257 6.31905 23.1603 6.3351ZM23.142 8.5989C20.3093 8.74515 17.5059 9.7101 15.186 11.3371C14.6997 11.6782 14.0688 12.1698 13.9801 12.2766C13.93 12.337 14.0852 12.5041 15.6231 14.0475C17.2068 15.6364 17.3261 15.7656 17.3891 15.9599C17.5179 16.3572 17.4201 16.8138 17.1423 17.1102C16.9411 17.3248 16.723 17.421 16.3939 17.44C15.8506 17.4715 15.8808 17.4945 13.9755 15.5928L12.3163 13.9369L12.1986 14.0641C11.4908 14.8296 10.5293 16.3468 9.96765 17.5845C8.93475 19.861 8.46615 22.3144 8.59635 24.7635C8.70675 26.8369 9.1437 28.6153 10.0034 30.4897C11.1674 33.0279 13.0916 35.2688 15.4737 36.8604C17.387 38.1386 19.7283 39.0115 22.0305 39.3051C23.204 39.4546 24.7961 39.4546 25.9695 39.3051C28.8171 38.9421 31.6053 37.7347 33.8027 35.9133L34.0698 35.6919L32.4138 34.0287C30.8705 32.4787 30.7521 32.3502 30.6744 32.1397C30.5198 31.7214 30.5928 31.3125 30.8792 30.9941C31.128 30.7173 31.3595 30.6129 31.722 30.6135C31.9242 30.6138 32.0627 30.6365 32.1705 30.6866C32.2742 30.7347 32.8854 31.3156 33.9896 32.4154C34.9608 33.3828 35.6705 34.0608 35.6957 34.0452C35.7582 34.0065 36.3077 33.3177 36.5844 32.931C37.3307 31.8885 37.9823 30.6546 38.4662 29.3676C39.4494 26.7529 39.6836 23.7637 39.1251 20.958C38.6841 18.7429 37.6989 16.5366 36.3557 14.7561C35.51 13.635 34.365 12.49 33.2439 11.6443C31.1756 10.0839 28.5665 9.02595 25.9695 8.6949C25.5303 8.63895 24.1217 8.55015 23.8635 8.56215C23.7992 8.56515 23.4746 8.58165 23.142 8.5989ZM23.7794 13.9002C23.4323 13.9698 23.1548 14.1859 22.9797 14.523C22.8948 14.6864 22.8876 14.7513 22.8759 15.4605L22.8633 16.2227L22.5249 16.2917C21.1911 16.5636 19.9203 17.3214 19.2045 18.2712C18.9158 18.6545 18.6048 19.2771 18.4956 19.6905C18.3935 20.0775 18.354 20.8917 18.4203 21.2428C18.5744 22.0575 18.9333 22.7458 19.5258 23.3629C20.3529 24.2247 21.4787 24.8038 22.7715 25.0329C22.9646 25.0671 23.4647 25.1125 23.883 25.134C24.3036 25.1554 24.8004 25.2048 24.9947 25.2444C26.0072 25.4505 26.8809 26.0356 27.2132 26.73C27.324 26.9614 27.3345 27.0174 27.3345 27.3735C27.3345 27.7314 27.3242 27.7852 27.2097 28.027C26.8535 28.779 25.8728 29.3877 24.741 29.5593C23.9564 29.6782 23.1474 29.614 22.512 29.3821C21.9489 29.1766 21.6126 28.9459 21.0555 28.3825C20.5194 27.8406 20.3982 27.7614 20.04 27.7192C19.4274 27.6472 18.813 28.2052 18.813 28.8334C18.813 29.2366 19.0697 29.6445 19.6974 30.2385C20.4902 30.9888 21.6497 31.5957 22.61 31.7628L22.8632 31.807L22.8759 32.5542C22.89 33.39 22.9181 33.4942 23.2094 33.7963C23.6166 34.2186 24.3834 34.2186 24.7907 33.7963C25.0805 33.4959 25.1093 33.3898 25.131 32.545L25.1505 31.7886L25.5407 31.7013C27.5333 31.2547 29.0547 29.9536 29.5067 28.3095C29.6307 27.8584 29.6309 26.8905 29.5073 26.4375C29.3928 26.0185 29.0811 25.3972 28.7943 25.0167C28.0731 24.0595 26.7878 23.3035 25.4159 23.0295C24.986 22.9435 24.7644 22.921 23.844 22.8693C22.8983 22.8162 22.2914 22.6398 21.6675 22.2369C21.3297 22.0188 20.9306 21.5971 20.79 21.31C20.6741 21.0729 20.6655 21.0274 20.6655 20.646C20.6655 20.2636 20.6741 20.2185 20.7941 19.965C20.8905 19.7613 20.9982 19.6203 21.2258 19.3995C21.8627 18.7818 22.7012 18.4564 23.805 18.399C25.1439 18.3291 26.2358 18.7818 27.0617 19.7491C27.2234 19.9386 27.3948 20.0928 27.5219 20.1631C27.7005 20.2623 27.7637 20.2755 28.056 20.2755C28.3452 20.2755 28.41 20.2621 28.563 20.1715C28.985 19.9218 29.1683 19.6155 29.1662 19.164C29.165 18.9193 29.147 18.8391 29.0564 18.6736C28.898 18.384 28.4585 17.8851 28.0877 17.5737C27.3095 16.9203 26.4651 16.4952 25.5143 16.278L25.1369 16.1917L25.1243 15.445C25.1124 14.7523 25.1049 14.6859 25.0205 14.523C24.7761 14.0523 24.2751 13.8009 23.7794 13.9002Z" fill="var(--fill-0, #4CC7F4)"/>
</g>
</svg>
