<svg preserveAspectRatio="none" width="100%" height="100%" overflow="visible" style="display: block;" viewBox="0 0 39 39" fill="none" xmlns="http://www.w3.org/2000/svg">
<g id="Refund-Money-Back-1 Streamline Ultimate">
<path id="Vector" fill-rule="evenodd" clip-rule="evenodd" d="M18.767 4.89267C15.5982 5.04514 12.6353 6.20356 10.1205 8.27348C9.69186 8.62631 8.62631 9.69187 8.27348 10.1205C6.42269 12.3691 5.3118 14.9453 4.97323 17.7736C4.90449 18.3485 4.8566 19.4712 4.89267 19.6618C4.97274 20.0841 5.29852 20.3769 5.72483 20.4099C6.10191 20.4392 6.46169 20.2216 6.61903 19.8693C6.68362 19.7247 6.69606 19.6241 6.72652 18.993C6.74554 18.6009 6.78246 18.1089 6.80842 17.8998C7.1147 15.438 8.16343 13.0695 9.78303 11.182C10.0765 10.8401 10.7355 10.177 11.087 9.87017C12.415 8.71077 13.8914 7.87264 15.5534 7.33456C18.2176 6.47181 21.0579 6.50337 23.7219 7.42499C26.2326 8.29372 28.447 9.97925 30.0107 12.2119C30.2474 12.5498 30.6341 13.1688 30.6748 13.275C30.6899 13.3145 30.5576 13.3209 29.7305 13.3213C28.7844 13.3215 28.766 13.3228 28.6102 13.3966C28.2773 13.5544 28.089 13.8532 28.0883 14.224C28.0877 14.601 28.2882 14.9075 28.6418 15.0701L28.8003 15.143L30.9534 15.1524C32.3924 15.1586 33.1807 15.1503 33.33 15.1272C33.6603 15.0763 33.9133 14.8885 34.056 14.5884C34.1233 14.4468 34.1238 14.4305 34.1238 12.1327C34.1238 10.3109 34.115 9.79473 34.0825 9.70283C34.0009 9.47298 33.7216 9.2012 33.4992 9.13526C33.4419 9.11832 33.3064 9.10394 33.198 9.10345C32.8622 9.10187 32.589 9.26616 32.402 9.58181L32.3176 9.72441L32.3017 11.0536L32.2859 12.3829L32.0994 12.0676C31.4419 10.9557 30.6477 9.95024 29.6844 9.01022C26.7786 6.1748 22.8575 4.69597 18.767 4.89267ZM19.2052 10.101C19.03 10.1662 18.8513 10.2989 18.7591 10.432C18.5968 10.6666 18.5811 10.767 18.5811 11.5663C18.5811 12.2733 18.5783 12.3069 18.5207 12.3069C18.4397 12.3069 17.8438 12.5158 17.6638 12.6074C17.0664 12.9112 16.4294 13.4818 16.0647 14.0399C15.7466 14.5268 15.5789 14.9385 15.4542 15.5391C15.3754 15.9194 15.3762 16.7243 15.4559 17.0905C15.6312 17.8959 15.9852 18.5744 16.5203 19.1307C17.3055 19.9473 18.1829 20.3386 19.4049 20.4174C20.0656 20.46 20.3329 20.5344 20.7239 20.7844C22.1068 21.6691 22.1263 23.6596 20.761 24.5956C20.4587 24.8029 20.0348 24.9433 19.6256 24.9717C19.2344 24.9988 18.9017 24.9262 18.486 24.7231C18.2096 24.5879 18.1127 24.5198 17.9129 24.3197C17.4661 23.8719 17.2197 23.2946 17.2187 22.6937C17.218 22.2111 16.7851 21.7815 16.2996 21.7815C16.0459 21.7815 15.8197 21.8855 15.636 22.0866C15.4156 22.3276 15.365 22.5075 15.3924 22.9532C15.482 24.4101 16.344 25.7134 17.6552 26.3746C17.9047 26.5004 18.4341 26.6931 18.5302 26.6931C18.5755 26.6931 18.5811 26.7757 18.5811 27.4365C18.5811 28.2883 18.6087 28.4212 18.8347 28.654C19.0406 28.8662 19.1874 28.9263 19.5 28.9263C19.807 28.9263 19.952 28.8689 20.1528 28.6683C20.3851 28.436 20.4019 28.3591 20.413 27.4773C20.4223 26.7405 20.4265 26.6931 20.4812 26.6931C20.5608 26.6931 21.1583 26.4831 21.3362 26.3926C21.9336 26.0888 22.5706 25.5182 22.9353 24.9601C23.2534 24.4732 23.4211 24.0615 23.5458 23.4609C23.6246 23.0806 23.6238 22.2757 23.5441 21.9095C23.3688 21.1041 23.0147 20.4256 22.4797 19.8693C21.6945 19.0527 20.8171 18.6614 19.5951 18.5826C18.9352 18.5401 18.667 18.4656 18.2778 18.2165C17.79 17.9045 17.4438 17.432 17.2916 16.8699C17.2178 16.5973 17.2178 16.0117 17.2916 15.7419C17.53 14.8711 18.1892 14.2484 19.063 14.0684C19.5695 13.9641 19.9993 14.0259 20.514 14.277C20.7907 14.4122 20.8872 14.4801 21.0871 14.6803C21.5338 15.1281 21.7803 15.7054 21.7813 16.3063C21.782 16.7889 22.2149 17.2185 22.7004 17.2185C22.9541 17.2185 23.1803 17.1145 23.364 16.9134C23.5829 16.674 23.635 16.4914 23.6083 16.0558C23.5187 14.5917 22.6583 13.2877 21.3448 12.6254C21.0978 12.5008 20.5662 12.3069 20.4717 12.3069C20.4294 12.3069 20.4216 12.2032 20.413 11.5227C20.4038 10.8021 20.3976 10.7266 20.3358 10.593C20.2539 10.4158 20.0826 10.2393 19.9032 10.1474C19.7335 10.0604 19.3775 10.0368 19.2052 10.101ZM32.8826 18.6454C32.6743 18.7279 32.4744 18.9213 32.381 19.1307C32.3164 19.2751 32.3039 19.3763 32.2731 20.007C32.2077 21.3441 32.0413 22.2861 31.6654 23.4466C31.1422 25.0629 30.3359 26.5007 29.215 27.8165C28.8736 28.2172 28.1034 28.9807 27.7071 29.3111C23.8476 32.5284 18.5199 33.1975 13.9705 31.0361C11.7246 29.9691 9.70161 28.1039 8.4463 25.9429C8.37366 25.8179 8.31431 25.7073 8.31431 25.6973C8.31431 25.6872 8.74563 25.6787 9.27286 25.6783C10.1678 25.6777 10.2409 25.6733 10.374 25.6133C10.9638 25.3468 11.1028 24.5634 10.6392 24.12C10.5718 24.0556 10.4453 23.97 10.3582 23.9299L10.1997 23.857L8.04655 23.8476C6.62135 23.8414 5.81782 23.8498 5.66999 23.8724C5.3012 23.9287 4.96872 24.215 4.90059 24.5349C4.88719 24.5978 4.87622 25.6687 4.87622 26.9149C4.87622 28.6977 4.88499 29.2054 4.91753 29.2972C4.99907 29.527 5.27841 29.7988 5.50083 29.8647C5.55811 29.8817 5.69363 29.8961 5.80198 29.8965C6.13775 29.8981 6.41099 29.7338 6.59795 29.4182L6.68241 29.2756L6.69825 27.9458L6.71409 26.616L6.91275 26.9525C8.91247 30.3388 12.2664 32.8142 16.0942 33.729C18.2591 34.2464 20.6908 34.2513 22.8438 33.7427C25.0622 33.2185 27.0723 32.214 28.8795 30.7265C29.3081 30.3737 30.3737 29.3081 30.7265 28.8795C32.5724 26.6369 33.6931 24.0378 34.0262 21.227C34.094 20.6538 34.1427 19.5193 34.1072 19.3346C34.0249 18.906 33.6938 18.6164 33.258 18.5923C33.0982 18.5833 33.0063 18.5963 32.8826 18.6454Z" fill="var(--fill-0, white)"/>
</g>
</svg>
