<svg preserveAspectRatio="none" width="100%" height="100%" overflow="visible" style="display: block;" viewBox="0 0 48 48" fill="none" xmlns="http://www.w3.org/2000/svg">
<g id="Fill-And-Sign Streamline Ultimate">
<path id="Vector" fill-rule="evenodd" clip-rule="evenodd" d="M21.4041 9.55275C20.1928 9.75645 19.0804 10.4517 18.375 11.4462C18.1413 11.7758 9.79605 26.2299 9.60705 26.6325C9.34755 27.1854 9.3555 27.0527 9.3555 30.864V34.3155L9.465 34.5384C9.72855 35.0751 10.3217 35.3235 10.8606 35.1231C11.1911 35.0003 16.7871 31.9779 17.0497 31.7805C17.1924 31.6733 17.3887 31.4862 17.4858 31.3647C17.7133 31.0801 26.2353 16.3193 26.4069 15.9125C27.1546 14.1396 26.7105 12.0587 25.3041 10.7453C24.267 9.77685 22.7785 9.32175 21.4041 9.55275ZM21.5576 11.8313C21.4047 11.8713 21.1737 11.9574 21.0444 12.0228C20.7822 12.1551 20.3856 12.5027 20.2199 12.7455C20.1602 12.833 18.2001 16.2128 15.8643 20.256L11.6175 27.6075L11.6069 29.8793C11.6006 31.2156 11.6108 32.151 11.6315 32.151C11.6508 32.151 12.5743 31.6655 13.6836 31.0721C15.4288 30.1383 15.7126 29.9742 15.7905 29.8533C16.029 29.4831 24.222 15.2531 24.314 15.0495C24.5961 14.4245 24.5655 13.6607 24.2318 12.9965C23.967 12.4697 23.3211 11.9723 22.695 11.8131C22.3841 11.7341 21.8987 11.7417 21.5576 11.8313ZM27.2742 25.0152C25.9647 25.1984 24.6891 26.043 23.6437 27.4194C22.0798 29.4788 21.244 31.9499 21.421 33.9921C21.4945 34.8404 21.7209 35.6708 22.0648 36.3536C22.1424 36.5079 22.206 36.6423 22.206 36.6525C22.206 36.6855 21.2618 36.9777 20.763 37.0989C19.4388 37.4208 18.63 37.4978 16.3365 37.52C14.2512 37.5402 14.2106 37.5449 13.9272 37.8009C13.7129 37.9946 13.6041 38.1794 13.5493 38.4429C13.4434 38.9529 13.7067 39.4623 14.1915 39.6857C14.3815 39.7733 14.4217 39.7758 15.771 39.7883C17.8396 39.8073 19.2399 39.7113 20.5416 39.461C21.5101 39.2748 22.5393 38.9735 23.3889 38.6277L23.7723 38.4717L24.0714 38.681C25.2288 39.4911 26.6259 39.8775 27.9692 39.759C29.2473 39.6462 30.2802 39.2522 31.605 38.3717C31.873 38.1933 32.2651 37.9041 32.476 37.7286C32.6871 37.5533 32.8649 37.4156 32.8712 37.4226C32.8775 37.4297 32.927 37.5233 32.9811 37.6305C33.3678 38.3963 34.1451 39.1034 34.9359 39.4091C35.8357 39.7568 36.3283 39.8048 38.82 39.7881C40.6518 39.776 40.7172 39.773 40.8904 39.6927C41.1295 39.5822 41.3439 39.3608 41.4624 39.102C41.5465 38.918 41.5572 38.8494 41.5421 38.5871C41.5163 38.1428 41.3264 37.8519 40.926 37.6437L40.7505 37.5525L38.586 37.5297C36.7391 37.5102 36.3854 37.4973 36.1748 37.4417C35.1287 37.1655 34.6773 36.4307 34.7457 35.115C34.7683 34.6769 34.7626 34.6053 34.6887 34.4085C34.5928 34.1538 34.3635 33.9074 34.1025 33.7788C33.8295 33.6444 33.45 33.6563 33.1456 33.8085C32.9058 33.9285 32.794 34.0467 32.424 34.5714C31.9983 35.1749 30.8195 36.2288 30.0255 36.7155C29.3876 37.1066 28.5707 37.412 27.939 37.4955C27.4208 37.5641 26.7903 37.488 26.2523 37.2923C26.0262 37.2099 25.9828 37.1687 26.082 37.1307C26.2185 37.0782 27.1855 36.258 27.6076 35.8365C28.7694 34.6766 29.6904 33.3647 30.4739 31.7538C31.0349 30.6002 31.23 29.8524 31.2303 28.8555C31.2306 28.173 31.1925 27.9143 31.0138 27.3807C30.6303 26.2358 29.7219 25.3662 28.6215 25.0904C28.257 24.999 27.6375 24.9645 27.2742 25.0152ZM27.365 27.297C26.5158 27.5258 25.6277 28.3551 24.8759 29.6216C23.6019 31.7679 23.3224 33.7025 24.0607 35.2656C24.1929 35.5455 24.2475 35.6252 24.2943 35.6072C24.4919 35.5314 25.3107 34.889 25.8098 34.4181C26.8365 33.4496 27.5856 32.4272 28.3134 31.0005C28.6996 30.2435 28.8544 29.8415 28.9368 29.382C29.1921 27.9578 28.4697 26.9994 27.365 27.297Z" fill="var(--fill-0, #4CC7F4)"/>
</g>
</svg>
