<svg preserveAspectRatio="none" width="100%" height="100%" overflow="visible" style="display: block;" viewBox="0 0 38 38" fill="none" xmlns="http://www.w3.org/2000/svg">
<g id="tools-wench-1" clip-path="url(#clip0_0_25)">
<path id="vector" d="M31.35 1.425C31.6854 1.84736 31.8417 2.06199 31.7832 2.60508C31.3182 4.2144 29.081 5.75227 27.9034 6.90281C27.594 7.20546 27.2862 7.50961 26.9785 7.814C26.884 7.90556 26.7895 7.99712 26.6921 8.09145C26.0088 8.7705 25.5382 9.38197 25.4323 10.3708C25.5133 11.1265 25.7149 11.6468 26.2833 12.162C26.9204 12.5402 27.4549 12.569 28.1833 12.5083C29.1673 12.0451 29.8321 11.3858 30.5787 10.6065C30.8233 10.3567 31.0679 10.1069 31.3126 9.85718C31.6941 9.46485 32.0749 9.0719 32.4549 8.67814C32.824 8.29664 33.1955 7.91761 33.5673 7.53877C33.6801 7.42036 33.793 7.30194 33.9092 7.17994C34.7039 6.37348 34.7039 6.37348 35.3615 6.16955C35.9289 6.17688 36.1446 6.27627 36.575 6.65C38.0569 8.94013 38.175 12.0773 37.6702 14.6842C37.2046 16.7553 36.263 18.5317 34.8333 20.1083C34.7225 20.232 34.6117 20.3557 34.4975 20.4831C32.5369 22.559 29.8521 23.8374 26.9983 23.9535C25.1244 23.9959 23.4768 23.8701 21.6917 23.275C21.6238 23.3435 21.5559 23.412 21.4859 23.4825C19.8289 25.1535 18.1702 26.8227 16.5095 28.49C15.7064 29.2964 14.9039 30.1033 14.1028 30.9116C13.4041 31.6167 12.7042 32.3206 12.003 33.0232C11.6323 33.3948 11.2622 33.7671 10.8932 34.1405C10.4798 34.5585 10.0644 34.9745 9.64851 35.39C9.52836 35.5125 9.40821 35.6349 9.28441 35.761C7.99208 37.0436 6.7816 37.8573 4.93802 37.8812C4.0416 37.8738 3.46283 37.8165 2.69167 37.3667C2.53165 37.2752 2.37163 37.1838 2.20677 37.0896C1.2249 36.3375 0.476467 35.4118 0.158333 34.2C0.00137151 32.8322 0.0627987 31.5865 0.791666 30.4C1.0532 30.088 1.31604 29.7903 1.59458 29.4945C1.67705 29.4061 1.75951 29.3177 1.84448 29.2266C2.89852 28.1076 3.99896 27.0346 5.09659 25.9587C5.76207 25.3055 6.42457 24.6494 7.08758 23.9937C7.9265 23.1643 8.76629 22.3359 9.60943 21.5108C10.296 20.8387 10.9795 20.1636 11.661 19.4863C11.9203 19.2298 12.1807 18.9744 12.4423 18.7201C12.8061 18.3663 13.1657 18.0087 13.5247 17.6499C13.6876 17.4942 13.6876 17.4942 13.8539 17.3353C14.1298 17.0551 14.3651 16.8043 14.5667 16.4667C14.5851 15.8699 14.5851 15.8699 14.4083 15.3583C14.3822 15.2436 14.3561 15.1289 14.3292 15.0107C14.303 14.9099 14.2769 14.8091 14.25 14.7052C13.5534 11.5707 14.1059 8.43745 15.6973 5.65671C16.2845 4.79563 16.9986 4.06075 17.7333 3.325C17.8376 3.21887 17.9419 3.11273 18.0494 3.00339C21.3059 -0.0780822 27.4876 -1.11854 31.35 1.425ZM18.4253 6.20863C16.9713 8.10509 16.3312 10.5115 16.5056 12.8788C16.622 13.7449 16.8091 14.5314 17.1198 15.3484C17.561 16.5094 17.561 16.5094 17.4167 17.1C16.6985 18.052 15.8117 18.8837 14.9666 19.7213C14.8373 19.8502 14.7079 19.9791 14.5746 20.1119C14.2958 20.3895 14.0168 20.667 13.7377 20.9443C13.2961 21.3831 12.8552 21.8225 12.4143 22.2621C11.1616 23.5109 9.908 24.7588 8.65371 26.0061C7.88485 26.7707 7.11683 27.536 6.34924 28.3019C6.05681 28.5933 5.76408 28.8845 5.47104 29.1753C5.06251 29.5808 4.65495 29.9873 4.24759 30.394C4.12611 30.5141 4.00462 30.6342 3.87946 30.7579C3.76871 30.8688 3.65797 30.9798 3.54387 31.0941C3.44753 31.19 3.35118 31.2858 3.25191 31.3846C2.70194 32.0215 2.63064 32.5623 2.65208 33.3799C2.73226 34.0789 3.05876 34.4219 3.57239 34.8729C4.2105 35.331 4.76567 35.4207 5.54167 35.3083C6.52834 34.9314 7.16187 34.2257 7.88806 33.4883C8.02513 33.3511 8.16221 33.2138 8.30344 33.0724C8.67751 32.6974 9.05051 32.3214 9.42308 31.9449C9.81359 31.5508 10.2055 31.1581 10.5973 30.7653C11.3386 30.0218 12.0787 29.2771 12.8184 28.5319C14.1445 27.1959 15.4726 25.8619 16.8011 24.5284C17.2673 24.0603 17.733 23.5917 18.1983 23.1227C18.5549 22.7634 18.9119 22.4046 19.2689 22.0457C19.398 21.9152 19.5272 21.7848 19.6602 21.6504C19.7778 21.5323 19.8955 21.4142 20.0167 21.2925C20.1191 21.1893 20.2215 21.0862 20.3269 20.9799C20.5833 20.7417 20.5833 20.7417 20.9 20.5833C21.7713 20.6262 22.5146 20.7887 23.3443 21.0583C25.681 21.7994 27.9618 21.5216 30.1724 20.4745C30.2998 20.4059 30.4271 20.3373 30.5583 20.2667C29.8686 19.4395 29.1406 18.6757 28.3714 17.9226C28.1334 17.6874 27.8955 17.4522 27.6576 17.2169C27.2871 16.8513 26.9162 16.486 26.5445 16.1216C26.1826 15.7664 25.8222 15.4097 25.462 15.0528C25.3521 14.9459 25.2422 14.839 25.129 14.7288C23.8952 13.5014 22.9786 12.2698 22.9089 10.4797C22.9788 7.91585 24.7113 6.43407 26.4318 4.75C26.6844 4.50176 26.9368 4.25327 27.1887 4.00433C27.4142 3.78169 27.6404 3.55982 27.8666 3.33799C28.2016 3.06549 28.2016 3.06549 28.1833 2.85C24.4903 1.94709 20.86 3.3821 18.4253 6.20863ZM34.6329 10.165C34.4751 10.326 34.3176 10.4875 34.1604 10.6492C33.9871 10.8253 33.8137 11.0013 33.6403 11.1773C33.3674 11.4551 33.0949 11.7331 32.8233 12.0121C30.4537 14.4432 30.4537 14.4432 29.1333 14.8833C29.373 15.4482 29.7041 15.8075 30.139 16.2366C30.2737 16.3703 30.4084 16.504 30.5472 16.6417C30.688 16.7799 30.8289 16.9181 30.974 17.0604C31.116 17.201 31.2581 17.3417 31.4044 17.4866C31.755 17.8334 32.1063 18.1795 32.4583 18.525C33.818 17.8822 34.4489 16.3086 34.988 14.9761C35.5009 13.4276 35.5487 11.4052 35.15 9.81667C34.9273 9.79828 34.9273 9.79828 34.6329 10.165Z" fill="var(--fill-0, #4CC7F4)"/>
</g>
<defs>
<clipPath id="clip0_0_25">
<rect width="38" height="38" fill="white"/>
</clipPath>
</defs>
</svg>
