<svg preserveAspectRatio="none" width="100%" height="100%" overflow="visible" style="display: block;" viewBox="0 0 72 72" fill="none" xmlns="http://www.w3.org/2000/svg">
<g id="Keyboard-Arrow-Right Streamline Ultimate">
<path id="Vector" fill-rule="evenodd" clip-rule="evenodd" d="M51.9705 28.0852C51.7869 28.1515 51.4978 28.4875 51.4404 28.701C51.3108 29.182 51.2302 29.0875 54.909 32.7667L58.3173 36.1755H34.8426C14.9027 36.1755 11.3384 36.1879 11.1726 36.2569C10.658 36.472 10.4726 37.1641 10.811 37.6076C10.9026 37.7278 11.0653 37.8625 11.1726 37.9075C11.3384 37.9766 14.8982 37.989 34.8118 37.989H58.2559L54.8845 41.3674C51.8976 44.3601 51.5052 44.7741 51.4469 44.9944C51.3324 45.4264 51.5282 45.837 51.9521 46.0548C52.13 46.1464 52.5305 46.1369 52.7193 46.0366C52.8061 45.9907 54.7776 44.0491 57.1001 41.7222C60.8004 38.0151 61.3276 37.4652 61.3615 37.2769C61.4506 36.7834 61.6077 36.9614 57.0985 32.4423C54.7767 30.1154 52.8061 28.1738 52.7193 28.1279C52.5647 28.0458 52.1449 28.0217 51.9705 28.0852Z" fill="var(--fill-0, white)"/>
</g>
</svg>
