<svg preserveAspectRatio="none" width="100%" height="100%" overflow="visible" style="display: block;" viewBox="0 0 32 32" fill="none" xmlns="http://www.w3.org/2000/svg">
<g id="Amazon-Web-Service-Cost-Explorer-Timer Streamline Ultimate">
<path id="Vector" fill-rule="evenodd" clip-rule="evenodd" d="M13.049 5.184C11.2883 5.2925 9.6478 5.9285 8.265 7.0387C7.9133 7.3211 7.2704 7.9674 6.9933 8.317C5.5245 10.1707 4.8933 12.5345 5.2506 14.843C5.6291 17.2882 7.107 19.4826 9.2303 20.7522C10.0186 21.2236 11.2596 21.7043 11.684 21.7028C11.961 21.7019 12.2558 21.5007 12.3554 21.2447C12.3844 21.17 12.8141 19.5178 13.3103 17.573C13.8064 15.6282 14.2197 14.0238 14.2287 14.0076C14.2377 13.9915 15.3682 13.0569 16.741 11.9307C18.1138 10.8046 19.2567 9.8661 19.2809 9.8451C19.3206 9.8105 19.3323 9.8188 19.4053 9.933C19.5414 10.1457 19.859 10.8007 19.9586 11.074C20.0106 11.2164 20.096 11.4793 20.1485 11.658C20.261 12.0413 20.2804 12.0825 20.4084 12.2101C20.5614 12.3625 20.7129 12.425 20.927 12.424C21.2645 12.4223 21.5235 12.2408 21.6435 11.9218C21.7143 11.7337 21.7002 11.5941 21.5638 11.1276C20.9216 8.9312 19.3759 7.0793 17.3307 6.0559C16.0145 5.3972 14.522 5.0933 13.049 5.184ZM12.412 6.7699C11.2662 6.9672 10.2167 7.4292 9.295 8.1419C8.954 8.4055 8.3219 9.0519 8.0504 9.4145C7.3877 10.2998 6.938 11.3389 6.759 12.399C6.616 13.2455 6.6396 14.2032 6.8245 15.0564C7.2485 17.0135 8.6104 18.7692 10.4133 19.683C10.6576 19.8068 11.117 20.0071 11.1292 19.9952C11.1316 19.9929 11.5089 18.5242 11.9677 16.7314L12.802 13.4717V10.0949V6.718L12.7435 6.7204C12.7113 6.7218 12.5621 6.744 12.412 6.7699ZM14.31 9.3429V11.9738L14.3695 11.9264C14.4274 11.8803 18.3401 8.6705 18.366 8.6479C18.3847 8.6315 18.0837 8.3577 17.777 8.1123C16.8895 7.4021 15.5997 6.8645 14.4595 6.7297L14.31 6.712V9.3429ZM18.7865 13.922C17.8417 14.0132 16.933 14.3592 16.1186 14.9379C15.8506 15.1283 15.335 15.615 15.1111 15.889C14.4699 16.6736 14.047 17.6648 13.9213 18.6773C13.8799 19.0117 13.8875 19.7541 13.9358 20.0903C14.1927 21.8756 15.3116 23.4164 16.9243 24.2055C18.669 25.0591 20.7258 24.9199 22.3416 23.8386L22.6382 23.6402L24.1616 25.1591C24.9995 25.9945 25.726 26.7022 25.776 26.7317C25.9059 26.8085 26.1382 26.8459 26.2972 26.8158C26.5044 26.7765 26.6363 26.691 26.764 26.513C26.8668 26.37 26.8955 26.2736 26.8965 26.0694C26.8979 25.7613 26.939 25.81 25.2398 24.1097L23.6915 22.5603L23.8532 22.3157C24.296 21.6457 24.6081 20.7935 24.7088 19.9787C24.7439 19.6947 24.7438 18.9606 24.7087 18.6773C24.6059 17.8495 24.2934 17.0034 23.8405 16.3276C22.7181 14.6528 20.7788 13.7297 18.7865 13.922ZM18.886 15.43C18.453 15.4786 17.9223 15.6371 17.521 15.8378C17.2527 15.972 16.8715 16.2473 16.6177 16.49C15.9713 17.1084 15.5618 17.8971 15.4293 18.7789C15.3921 19.0266 15.392 19.6289 15.4291 19.8761C15.5676 20.797 15.9952 21.6041 16.676 22.2294C17.7406 23.2072 19.2662 23.5108 20.6467 23.0196C22.0072 22.5355 22.9942 21.3131 23.2035 19.8528C23.2443 19.5683 23.2209 18.8098 23.1633 18.548C23.0686 18.1173 22.846 17.5654 22.6349 17.2375C22.2249 16.6009 21.5995 16.0573 20.9361 15.761C20.2989 15.4764 19.5504 15.3555 18.886 15.43ZM20.0494 16.3751C19.8369 16.4509 19.7232 16.5745 19.5093 16.9618C19.0164 17.8545 18.2848 18.6371 17.1706 19.4635C16.8336 19.7135 16.7152 19.9651 16.7824 20.2888C16.8161 20.4507 16.8546 20.5215 16.9861 20.6627C17.14 20.8279 17.2531 20.8738 17.508 20.8744C17.7745 20.8751 17.8186 20.8551 18.2399 20.5427C19.4044 19.679 20.2552 18.7356 20.8598 17.638C21.0273 17.3339 21.0703 17.1813 21.0436 16.9861C20.9912 16.6034 20.6919 16.3374 20.316 16.3394C20.223 16.3399 20.1031 16.3559 20.0494 16.3751Z" fill="var(--fill-0, #4CC7F4)"/>
</g>
</svg>
