<svg preserveAspectRatio="none" width="100%" height="100%" overflow="visible" style="display: block;" viewBox="0 0 32 32" fill="none" xmlns="http://www.w3.org/2000/svg">
<g id="Suply-Chain-Shipping-Fee-Included-Truck Streamline Ultimate">
<path id="Vector" fill-rule="evenodd" clip-rule="evenodd" d="M20.511 4.1103C18.467 4.2501 16.5759 5.339 15.3951 7.056C14.8404 7.8625 14.4482 8.8652 14.2967 9.864C14.2386 10.2475 14.2184 11.0246 14.2555 11.45C14.3951 13.0499 15.1219 14.5729 16.2798 15.6915C17.4634 16.8351 18.928 17.4814 20.572 17.5857C21.743 17.6601 22.8661 17.4352 23.9445 16.9105C25.7306 16.0414 27.0557 14.4052 27.529 12.4845C27.6616 11.9464 27.7017 11.6357 27.7178 11.021C27.7485 9.8518 27.5387 8.8917 27.0247 7.849C26.4868 6.758 25.6028 5.7804 24.5636 5.1272C23.3737 4.3793 21.9179 4.014 20.511 4.1103ZM20.459 5.6294C19.5496 5.7161 18.5897 6.0889 17.846 6.644C17.572 6.8486 17.1122 7.29 16.9027 7.5496C16.3942 8.18 16.0031 9.0043 15.8458 9.7776C15.6559 10.711 15.7213 11.7048 16.031 12.5938C16.1469 12.9266 16.4176 13.4667 16.6128 13.7547C17.8877 15.6357 20.1198 16.4832 22.3198 15.9216C23.3373 15.6617 24.3145 15.0357 25.018 14.193C26.4832 12.4378 26.6229 9.8896 25.3592 7.966C25.075 7.5334 24.6051 7.0249 24.19 6.7007C23.1571 5.8941 21.7922 5.5022 20.459 5.6294ZM23.4283 8.3919C23.1896 8.4809 23.159 8.5177 21.6393 10.5436L20.1551 12.5222L19.3841 11.7554C18.96 11.3337 18.5649 10.9588 18.5062 10.9224C18.1696 10.7133 17.718 10.8201 17.4889 11.1629C17.4035 11.2907 17.393 11.3255 17.3831 11.5151C17.3644 11.8719 17.3528 11.8561 18.3869 12.885C19.2078 13.7018 19.306 13.7909 19.4772 13.8754C19.5807 13.9264 19.7319 13.982 19.8132 13.9989C20.0012 14.0379 20.4429 14.0183 20.6155 13.9632C20.7681 13.9145 21.0228 13.7627 21.165 13.6357C21.3246 13.4933 24.3319 9.4678 24.3674 9.349C24.5111 8.8694 24.1869 8.3924 23.6986 8.3648C23.5914 8.3587 23.4899 8.3689 23.4283 8.3919ZM12.243 12.1345C11.9953 12.2317 11.8543 12.3827 11.7084 12.7071L11.619 12.9059L10.2358 12.906C8.7194 12.906 8.5096 12.9201 7.9622 13.0589C6.459 13.4399 5.2169 14.4514 4.532 15.8521C4.2329 16.4639 4.0673 17.0773 4.0148 17.768C3.9794 18.2337 3.9791 24.0672 4.0145 24.385C4.1184 25.3185 4.7418 26.054 5.6599 26.3261C5.8222 26.3741 5.9315 26.383 6.484 26.3931C7.0853 26.404 7.1292 26.4016 7.2677 26.3495C7.37 26.3111 7.4512 26.2551 7.5358 26.1646C7.6959 25.9934 7.7409 25.8828 7.7415 25.659C7.7424 25.3447 7.5813 25.0886 7.3058 24.9662C7.1857 24.9129 7.1196 24.9058 6.614 24.8921C6.1554 24.8796 6.0352 24.8684 5.9446 24.8297C5.8021 24.7687 5.5851 24.5317 5.5421 24.3901C5.5166 24.3059 5.509 23.8385 5.509 22.344V20.407L8.9489 20.4011C11.2438 20.3972 12.4223 20.3862 12.4897 20.3681C12.6498 20.325 12.8379 20.1591 12.9229 19.986L12.997 19.835L13.01 16.637L13.023 13.439L13.1243 13.2364C13.212 13.0612 13.2256 13.0103 13.2255 12.8594C13.2253 12.5353 13.0226 12.2403 12.7322 12.1414C12.5918 12.0936 12.3559 12.0903 12.243 12.1345ZM8.668 14.452C7.3228 14.6712 6.2195 15.5764 5.7379 16.856C5.5741 17.2912 5.4966 17.8231 5.4962 18.5155L5.496 18.886H8.499H11.502V16.65V14.414L10.1825 14.4171C9.2806 14.4192 8.8013 14.4303 8.668 14.452ZM27.0687 17.119C26.8518 17.1731 26.6657 17.3308 26.566 17.5449L26.5045 17.677L26.5043 19.4993L26.504 21.3217L26.5836 21.4809C26.663 21.6398 26.7699 21.7456 26.946 21.8393C27.0862 21.9139 27.4162 21.9081 27.57 21.8283C27.7342 21.7431 27.8686 21.6052 27.9389 21.4498L27.999 21.317V19.497C27.999 17.7014 27.9983 17.6754 27.9442 17.5587C27.7898 17.2248 27.4095 17.0338 27.0687 17.119ZM11.125 21.9191C11.0964 21.9252 10.9795 21.9481 10.8651 21.9701C10.6051 22.0202 10.2446 22.1577 10.007 22.2975C9.1448 22.8048 8.5979 23.6598 8.516 24.6282C8.3853 26.1736 9.3868 27.5153 10.917 27.8449C11.1996 27.9057 11.8016 27.9053 12.087 27.844C13.0015 27.6476 13.7463 27.0861 14.1582 26.2825C14.4185 25.7749 14.5051 25.3741 14.4841 24.775C14.4652 24.2362 14.3497 23.8252 14.0969 23.3974C13.6403 22.6247 12.8802 22.0953 12.009 21.9431C11.796 21.9058 11.2562 21.8912 11.125 21.9191ZM22.992 21.9407C21.4822 22.2268 20.4415 23.5172 20.5069 25.022C20.5253 25.4464 20.5865 25.7083 20.7646 26.1245C21.0363 26.7596 21.5658 27.2994 22.2209 27.6092C23.8602 28.3846 25.8139 27.5315 26.3595 25.8021C26.8811 24.1488 25.9169 22.4314 24.2179 21.9877C23.9023 21.9053 23.3006 21.8822 22.992 21.9407ZM11.1288 23.4512C10.6968 23.5558 10.2829 23.9179 10.1106 24.3421C9.9897 24.6396 9.977 25.0816 10.0809 25.3748C10.2079 25.7331 10.5108 26.0818 10.8315 26.2389C11.4201 26.527 12.0994 26.4133 12.5532 25.9505C12.8627 25.6348 12.984 25.3367 12.984 24.8912C12.984 24.4557 12.843 24.1277 12.5267 23.8272C12.2185 23.5345 11.9045 23.409 11.489 23.4125C11.3746 23.4135 11.2125 23.4309 11.1288 23.4512ZM23.124 23.4512C22.8671 23.5189 22.6592 23.6397 22.4612 23.8363C22.2384 24.0575 22.127 24.2451 22.0576 24.5165C21.843 25.3555 22.3572 26.1855 23.202 26.3639C24.1153 26.5568 24.9985 25.8329 24.9956 24.8937C24.9935 24.2235 24.5179 23.6155 23.866 23.4495C23.6733 23.4004 23.3133 23.4012 23.124 23.4512ZM15.8117 24.9197C15.5817 24.975 15.349 25.2011 15.2809 25.4353C15.1797 25.7833 15.3419 26.1518 15.675 26.331C15.778 26.3865 15.7956 26.3871 17.4682 26.3942L19.1575 26.4015L19.3197 26.3216C19.6025 26.1824 19.7443 25.9529 19.7437 25.6349C19.7433 25.3545 19.5661 25.0838 19.302 24.9599C19.1872 24.906 19.1548 24.9049 17.547 24.9007C16.6461 24.8983 15.8652 24.9068 15.8117 24.9197Z" fill="var(--fill-0, #4CC7F4)"/>
</g>
</svg>
