<svg preserveAspectRatio="none" width="100%" height="100%" overflow="visible" style="display: block;" viewBox="0 0 32 32" fill="none" xmlns="http://www.w3.org/2000/svg">
<g id="Greek-Script-2 Streamline Ultimate">
<path id="Vector" fill-rule="evenodd" clip-rule="evenodd" d="M6.527 4.2894C5.2709 4.5172 4.33 5.5726 4.256 6.8368C4.237 7.1617 4.2792 7.3103 4.4417 7.4911C4.6026 7.67 4.7618 7.7431 4.989 7.7422C5.2104 7.7413 5.3942 7.6688 5.5291 7.5289C5.6781 7.3744 5.7276 7.2506 5.755 6.9632C5.7934 6.5605 5.8799 6.3659 6.1317 6.1161C6.4393 5.811 6.8417 5.694 7.2692 5.7855C7.6915 5.8759 8.0587 6.2168 8.2035 6.653C8.2314 6.7372 8.2406 7.6117 8.2515 11.242C8.2643 15.4878 8.2675 15.7316 8.3115 15.8122C8.3371 15.8591 8.6185 16.2452 8.9368 16.6702C9.2551 17.0953 9.5241 17.4572 9.5347 17.4746C9.5467 17.4943 9.3318 17.8022 8.9674 18.2875C8.6448 18.7172 8.3547 19.1183 8.3229 19.1789L8.265 19.289L8.2581 22.265C8.2506 25.4713 8.2504 25.4663 8.3859 25.8603C8.6948 26.7587 9.3958 27.4121 10.3266 27.6693L10.579 27.739H18.002H25.425L25.6844 27.6675C26.869 27.341 27.6849 26.3342 27.7444 25.1254C27.7813 24.3743 27.5188 23.6661 26.9991 23.1152C26.7084 22.8071 26.4151 22.6084 26.0107 22.4457L25.763 22.346L25.75 17.5675L25.737 12.789L25.6756 12.672C25.6386 12.6014 25.3921 12.3314 25.0538 11.9909L24.4934 11.4269L25.0672 10.662C25.3828 10.2413 25.6626 9.8575 25.689 9.809C25.7342 9.7262 25.737 9.6284 25.7368 8.148L25.7365 6.575L25.6659 6.315C25.4014 5.3422 24.6611 4.6023 23.6824 4.3325L23.423 4.261L15.077 4.2567C7.9594 4.253 6.701 4.2578 6.527 4.2894ZM9.474 5.772C9.474 5.7811 9.5141 5.8895 9.5631 6.0128C9.7581 6.5034 9.7437 6.1307 9.7531 10.9416L9.7615 15.2562L10.4343 16.1546C10.8044 16.6487 11.1335 17.098 11.1656 17.153C11.2479 17.2937 11.2661 17.5934 11.2025 17.76C11.1754 17.8309 10.8658 18.2688 10.458 18.8128L9.76 19.7442V22.4713C9.76 25.1417 9.7611 25.2021 9.813 25.37C9.8836 25.5986 10.0502 25.8356 10.2461 25.9859C10.9942 26.5602 12.1211 26.1143 12.3208 25.165C12.3419 25.0649 12.3593 24.9351 12.3596 24.8767C12.3602 24.7249 12.2695 24.3911 12.1851 24.2343C12.0894 24.0566 11.8372 23.8041 11.6491 23.6975C11.3319 23.5178 11.2044 23.3165 11.2035 22.994C11.2031 22.8397 11.2157 22.7746 11.2637 22.682C11.3489 22.5178 11.4868 22.3834 11.6422 22.3131L11.775 22.253L18.0085 22.2462L24.242 22.2395V17.7749V13.3102L23.5544 12.6206C23.0569 12.1216 22.8523 11.8987 22.814 11.814C22.7432 11.6574 22.741 11.3504 22.8095 11.203C22.8361 11.1458 23.1698 10.6839 23.5511 10.1766L24.2443 9.2542L24.2366 7.9796C24.2291 6.7154 24.2285 6.7038 24.1687 6.5557C24.0419 6.2418 23.7559 5.9561 23.441 5.8288L23.293 5.769L16.3835 5.7623C12.5833 5.7585 9.474 5.763 9.474 5.772ZM13.1712 8.3315C12.9191 8.4575 12.7787 8.6645 12.7563 8.9432C12.7338 9.2231 12.8696 9.4887 13.114 9.643C13.2822 9.7492 13.4534 9.7648 14.349 9.7552C15.0606 9.7476 15.1951 9.74 15.2785 9.7025C15.4316 9.6336 15.548 9.533 15.6394 9.3907C15.7127 9.2764 15.7251 9.2318 15.7348 9.047C15.7491 8.7747 15.6869 8.6146 15.5023 8.4486C15.2891 8.2569 15.2574 8.252 14.2315 8.252H13.3303L13.1712 8.3315ZM17.7003 8.314C17.344 8.4807 17.1661 8.8761 17.2856 9.2357C17.3442 9.4122 17.5212 9.6061 17.6957 9.685L17.833 9.747H19.51H21.187L21.3066 9.6881C21.4513 9.6168 21.6015 9.4717 21.6765 9.331C21.7535 9.1863 21.7563 8.832 21.6815 8.681C21.6157 8.5479 21.4501 8.3823 21.317 8.3165C21.217 8.267 21.1476 8.2647 19.523 8.2584L17.833 8.2519L17.7003 8.314ZM13.2343 12.866C13.0379 12.9363 12.8391 13.1477 12.7782 13.3509C12.7379 13.4855 12.7434 13.6833 12.7914 13.8242C12.8479 13.9902 13.0289 14.1847 13.1977 14.261L13.335 14.323H17.235C20.9981 14.323 21.1395 14.3213 21.2625 14.2738C21.5352 14.1686 21.7193 13.9225 21.7399 13.6355C21.7621 13.324 21.6289 13.0702 21.3603 12.9123L21.239 12.841L17.287 12.8355C13.9727 12.8308 13.3188 12.8357 13.2343 12.866ZM13.2944 17.3613C13.0737 17.4212 12.863 17.6233 12.789 17.846C12.6724 18.1971 12.8332 18.5807 13.1732 18.7623L13.283 18.821H17.248H21.213L21.356 18.7404C21.5152 18.6507 21.6711 18.4668 21.7166 18.315C21.8252 17.9527 21.6469 17.5547 21.304 17.3939L21.187 17.339L17.3 17.334C14.2786 17.3302 13.3866 17.3362 13.2944 17.3613ZM13.634 23.7545C13.634 23.7581 13.658 23.824 13.6872 23.901C13.9393 24.5641 13.9162 25.3396 13.6239 26.0328L13.5348 26.244H19.351C25.7119 26.244 25.3091 26.2535 25.5985 26.096C25.7594 26.0085 26.0085 25.7594 26.096 25.5985C26.2829 25.2552 26.2913 24.8178 26.1183 24.4518C26.0274 24.2597 25.7867 24.0088 25.5953 23.9068C25.2816 23.7396 25.6503 23.7489 19.3605 23.7484C16.2109 23.7482 13.634 23.7509 13.634 23.7545Z" fill="var(--fill-0, #4CC7F4)"/>
</g>
</svg>
