<svg preserveAspectRatio="none" width="100%" height="100%" overflow="visible" style="display: block;" viewBox="0 0 32 32" fill="none" xmlns="http://www.w3.org/2000/svg">
<g id="Monetization-User-Laptop Streamline Ultimate">
<path id="Vector" fill-rule="evenodd" clip-rule="evenodd" d="M21.1049 4.0148C20.9402 4.0478 20.8012 4.1294 20.6851 4.2614C20.5229 4.4456 20.498 4.5513 20.498 5.055V5.4888L20.3061 5.5062C20.0412 5.5302 19.7684 5.6104 19.5367 5.7324C18.0158 6.5332 18.0304 8.682 19.562 9.4616C19.6406 9.5016 20.319 9.7253 21.0696 9.9586C21.82 10.192 22.4635 10.4047 22.4996 10.4314C22.6312 10.529 22.7169 10.6851 22.7287 10.8491C22.743 11.0464 22.7006 11.171 22.5713 11.3113C22.3919 11.5058 22.4329 11.502 20.5369 11.502C18.6571 11.502 18.7257 11.4954 18.4997 11.6986C18.3328 11.8487 18.2574 12.0225 18.2574 12.2572C18.2574 12.4746 18.3191 12.6251 18.47 12.776C18.6854 12.9914 18.7084 12.9959 19.6575 13.0054L20.4939 13.0138L20.5025 13.4864C20.5103 13.914 20.5166 13.9692 20.5683 14.066C20.6531 14.2247 20.749 14.3285 20.8842 14.408C20.9929 14.4719 21.0298 14.479 21.2526 14.479C21.489 14.479 21.5063 14.4751 21.6356 14.3921C21.9335 14.2009 22.006 14.011 22.006 13.4213V13.01H22.1211C22.4816 13.01 22.8851 12.9024 23.2023 12.7216C23.4355 12.5886 23.8229 12.2108 23.9522 11.9903C24.2944 11.4066 24.3412 10.6629 24.0736 10.0579C23.8764 9.612 23.4537 9.1864 23.0262 9.0031C22.9588 8.9742 22.301 8.7633 21.5643 8.5344C20.1338 8.0898 20.1008 8.076 19.9868 7.8749C19.8293 7.5969 19.9373 7.2264 20.22 7.0753C20.3284 7.0173 20.3373 7.0169 21.824 7.004C23.2765 6.9914 23.3223 6.9894 23.436 6.9361C23.6919 6.8162 23.878 6.5273 23.878 6.25C23.878 5.9727 23.6919 5.6838 23.436 5.5639C23.3284 5.5134 23.2663 5.5083 22.6646 5.5009L22.0102 5.4928L22.0015 5.0329C21.994 4.6317 21.9859 4.5579 21.9382 4.4547C21.7877 4.1291 21.4429 3.9471 21.1049 4.0148ZM10.9848 10.0237C9.3598 10.1936 7.8717 11.2256 7.1475 12.685C6.6441 13.6993 6.5001 14.8004 6.7292 15.8824C7.0881 17.5768 8.3367 18.9669 9.9865 19.5086C10.3027 19.6124 10.7848 19.718 10.9428 19.718C10.9913 19.718 11.0371 19.728 11.0447 19.7402C11.0522 19.7525 10.9479 19.7702 10.8128 19.7797C10.505 19.8013 10.0446 19.8803 9.656 19.9782C7.8652 20.4292 6.2783 21.5557 5.2536 23.1033C4.5027 24.2374 4.0959 25.4595 4.0154 26.8234C3.9801 27.4224 4.0115 27.5675 4.222 27.778C4.4071 27.9631 4.6285 28.0312 4.8885 27.9831C5.0544 27.9525 5.1266 27.9141 5.2707 27.7799C5.4505 27.6124 5.4737 27.5364 5.5129 26.985C5.5323 26.7133 5.5659 26.3857 5.5876 26.257C5.8012 24.9919 6.4499 23.7735 7.3731 22.9036C8.3363 21.996 9.5275 21.4443 10.852 21.2923C11.6218 21.204 12.3062 21.2601 13.127 21.4789C13.4603 21.5677 13.6404 21.5664 13.8293 21.474C14.4399 21.1752 14.3758 20.2953 13.7279 20.084C13.2892 19.941 12.6317 19.8107 12.1926 19.7798C12.0568 19.7703 11.9508 19.7541 11.9571 19.7439C11.9634 19.7337 12.0478 19.7172 12.1448 19.7073C12.5403 19.6668 13.044 19.524 13.4821 19.3282C15.1239 18.5946 16.2565 16.9763 16.3605 15.2157C16.4464 13.7594 15.9589 12.4543 14.9488 11.437C13.9062 10.387 12.4559 9.87 10.9848 10.0237ZM11.034 11.5418C10.3143 11.6423 9.584 12.0117 9.084 12.5282L8.941 12.6759L9.032 12.7535C9.2817 12.9663 9.8037 13.3057 10.137 13.4719C10.711 13.7582 11.4726 13.9879 12.152 14.0795C12.5107 14.1279 13.3206 14.1204 13.686 14.0654C14.0342 14.0129 14.2788 13.9619 14.5258 13.8903C14.7274 13.8318 14.7225 13.8573 14.5924 13.5406C14.3641 12.9853 13.8676 12.3953 13.3429 12.0559C12.6576 11.6126 11.8366 11.4298 11.034 11.5418ZM8.2037 14.1742C8.0123 15.0664 8.2184 16.0719 8.7432 16.8066C9.2347 17.4946 9.9147 17.9536 10.748 18.1598C10.9613 18.2126 11.0606 18.2211 11.476 18.222C12.0016 18.2231 12.2131 18.192 12.6061 18.0557C13.4044 17.7789 14.1026 17.1734 14.4853 16.4257C14.6277 16.1474 14.7568 15.7886 14.8016 15.5461C14.8172 15.462 14.8266 15.3899 14.8225 15.3859C14.8185 15.3818 14.6927 15.4061 14.5431 15.4398C12.4419 15.9131 10.2794 15.4772 8.4687 14.2153L8.2305 14.0492L8.2037 14.1742ZM17.872 18.2529C17.2329 18.3176 16.7219 18.6656 16.465 19.211C16.4246 19.2968 15.8478 20.9612 15.1832 22.9096C14.5186 24.858 13.9677 26.4639 13.9589 26.4781C13.9484 26.4951 12.8335 26.5041 10.727 26.5043L7.511 26.5045L7.3789 26.566C7.0986 26.6965 6.9425 26.939 6.9412 27.2459C6.9399 27.5574 7.1035 27.8104 7.3927 27.9442L7.511 27.999H16.247H24.983L25.1045 27.9386C25.2529 27.8648 25.396 27.7294 25.4613 27.601C25.5095 27.5063 27.8991 20.5169 27.9609 20.29C28.0075 20.1187 28.0022 19.7094 27.9507 19.51C27.8001 18.9262 27.3464 18.4729 26.738 18.2985C26.5764 18.2522 26.3807 18.2499 22.266 18.2469C19.8993 18.2451 17.9221 18.2478 17.872 18.2529ZM17.9062 19.775C17.8741 19.7905 17.8264 19.8603 17.7963 19.9357C17.7466 20.0605 15.558 26.4735 15.558 26.4944C15.558 26.4997 17.5154 26.504 19.9077 26.504H24.2574L25.3828 23.2042C26.5947 19.6506 26.5427 19.8292 26.3837 19.7688C26.2892 19.7328 17.9809 19.7389 17.9062 19.775ZM21.1526 21.7478C20.8659 21.8042 20.527 22.0572 20.3971 22.3119C19.9745 23.1403 20.6387 24.0871 21.5517 23.9578C22.0331 23.8896 22.433 23.4934 22.5003 23.0181C22.6111 22.2346 21.932 21.5944 21.1526 21.7478Z" fill="var(--fill-0, #4CC7F4)"/>
</g>
</svg>
