<svg preserveAspectRatio="none" width="100%" height="100%" overflow="visible" style="display: block;" viewBox="0 0 32 32" fill="none" xmlns="http://www.w3.org/2000/svg">
<g id="Truck Streamline Ultimate">
<path id="Vector" fill-rule="evenodd" clip-rule="evenodd" d="M11.697 4.0531C10.2497 4.2834 9.0971 5.2755 8.6683 6.66C8.4935 7.2245 8.5043 6.9151 8.4937 11.6775L8.4841 16L8.1406 16.0006C7.8012 16.0012 7.2908 16.0341 7.1015 16.0676L7.004 16.0848L7.0037 13.3189C7.0033 10.7187 7.0004 10.5389 6.9547 10.3173C6.7412 9.2828 5.814 8.5135 4.7791 8.5122C4.3366 8.5116 4.0069 8.8336 4.0065 9.2666C4.0061 9.686 4.286 9.965 4.7614 10.0192C4.8806 10.0328 5.0194 10.0671 5.0795 10.0978C5.2349 10.177 5.3821 10.3416 5.4429 10.5039C5.4953 10.644 5.496 10.6879 5.496 13.71V16.774L5.4292 16.8178C5.3012 16.9017 4.9678 17.2365 4.8066 17.443C4.3298 18.0541 4.0724 18.7266 4.0119 19.5193C3.9943 19.7505 3.9878 20.4807 3.9946 21.486C4.0061 23.201 4.0047 23.1814 4.1465 23.566C4.3429 24.0983 4.7907 24.5727 5.3257 24.8153L5.4912 24.8903L5.5023 25.5087C5.5119 26.0409 5.5214 26.156 5.5703 26.335C5.7784 27.0971 6.3576 27.6906 7.121 27.9242C7.3313 27.9885 7.3945 27.9958 7.745 27.9964C8.1905 27.9971 8.338 27.9668 8.6899 27.8024C9.3485 27.4948 9.8089 26.9153 9.9529 26.2126C9.9819 26.0712 9.994 25.8665 9.994 25.5171V25.022H16H22.006V25.5171C22.006 26.2137 22.0794 26.5306 22.3359 26.9423C22.5729 27.3224 22.899 27.6104 23.3101 27.8024C23.662 27.9668 23.8095 27.9971 24.255 27.9964C24.6055 27.9958 24.6687 27.9885 24.879 27.9242C25.6424 27.6906 26.2216 27.0971 26.4297 26.335C26.4786 26.156 26.4881 26.0409 26.4977 25.5087L26.5088 24.8903L26.6743 24.8153C27.2269 24.5648 27.6739 24.0808 27.8665 23.5247C27.9999 23.1392 27.999 23.1555 27.999 21.213C27.999 19.6052 27.9938 19.3657 27.9546 19.159C27.8266 18.4846 27.5907 17.953 27.1932 17.443C27.0323 17.2366 26.699 16.9018 26.5708 16.8178L26.504 16.774V13.71C26.504 10.6879 26.5047 10.644 26.5571 10.5039C26.6179 10.3416 26.7651 10.177 26.9205 10.0978C26.9806 10.0671 27.1194 10.0328 27.2386 10.0192C27.714 9.965 27.9939 9.686 27.9935 9.2666C27.9933 9.0377 27.9141 8.8577 27.7477 8.7081C27.5659 8.5446 27.4159 8.5008 27.1038 8.5201C26.0921 8.5826 25.252 9.3161 25.0453 10.3173C24.9996 10.5389 24.9967 10.7187 24.9963 13.3189L24.996 16.0848L24.8985 16.0676C24.7092 16.0341 24.1988 16.0012 23.8594 16.0006L23.5159 16L23.5063 11.6775C23.4978 7.8683 23.4918 7.3296 23.4555 7.141C23.1383 5.4919 21.9142 4.3019 20.277 4.0508C19.9474 4.0003 12.0157 4.0024 11.697 4.0531ZM11.8616 5.5483C11.1524 5.6696 10.4806 6.1947 10.1904 6.8545L10.1246 7.004H16H21.8754L21.8096 6.8545C21.5567 6.2794 20.9949 5.7891 20.367 5.5954L20.173 5.5355L16.078 5.5315C13.8258 5.5294 11.9284 5.5369 11.8616 5.5483ZM10.02 10.761V13.01H16H21.98V10.761V8.512H16H10.02V10.761ZM9.9885 15.7595C9.9817 16.8893 9.9769 17.0086 9.935 17.0852C9.8621 17.2185 9.7368 17.3482 9.6069 17.4245L9.487 17.495L8.447 17.5111C7.494 17.5259 7.3896 17.5319 7.199 17.5832C6.3964 17.7993 5.7813 18.4146 5.5722 19.211C5.5286 19.377 5.5146 19.5277 5.5031 19.9574L5.4887 20.4958L7.4488 20.5034L9.409 20.511L9.5446 20.5723C9.7113 20.6477 9.8917 20.8356 9.9541 20.999C10.0114 21.149 9.9997 21.454 9.9317 21.5851C9.8647 21.7142 9.7118 21.8727 9.5928 21.9364C9.4874 21.9928 9.4792 21.9931 7.498 22.006L5.509 22.019L5.5102 22.474C5.5113 22.8919 5.5163 22.9401 5.5716 23.0649C5.6456 23.2316 5.8076 23.3855 5.9785 23.4514C6.1041 23.4999 6.3323 23.501 16 23.501C25.6677 23.501 25.8959 23.4999 26.0215 23.4514C26.1924 23.3855 26.3544 23.2316 26.4284 23.0649C26.4837 22.9401 26.4887 22.8919 26.4898 22.474L26.491 22.019L24.502 22.006C22.5208 21.9931 22.5126 21.9928 22.4072 21.9364C22.2882 21.8727 22.1353 21.7142 22.0683 21.5851C22.0003 21.454 21.9886 21.149 22.0459 20.999C22.1083 20.8356 22.2887 20.6477 22.4554 20.5723L22.591 20.511L24.5512 20.5034L26.5113 20.4958L26.4969 19.9574C26.4854 19.5277 26.4714 19.377 26.4278 19.211C26.2186 18.4146 25.6036 17.7993 24.801 17.5832C24.6104 17.5319 24.5057 17.5259 23.553 17.511C22.628 17.4965 22.5037 17.4896 22.4288 17.4489C22.2957 17.3763 22.1659 17.2509 22.0895 17.1209L22.019 17.001L22.0115 15.7595L22.0041 14.518H16H9.9959L9.9885 15.7595ZM13.0759 16.0285C12.4324 16.124 11.9238 16.6195 11.8123 17.2595C11.7492 17.6224 11.7623 17.6755 12.3583 19.4636C12.7087 20.5149 12.939 21.1661 12.9964 21.2672C13.1606 21.5566 13.4619 21.8054 13.8048 21.9348L13.959 21.993H16H18.041L18.1952 21.9348C18.5381 21.8054 18.8394 21.5566 19.0036 21.2672C19.061 21.1661 19.2913 20.5149 19.6417 19.4636C20.2377 17.6755 20.2508 17.6224 20.1877 17.2595C20.0893 16.6945 19.6674 16.2271 19.1049 16.0599C18.9625 16.0176 18.7371 16.0138 16.091 16.0098C14.518 16.0074 13.1612 16.0158 13.0759 16.0285ZM13.3024 17.5405C13.309 17.5584 13.5335 18.2311 13.8013 19.0355L14.2883 20.498H16H17.7117L18.1987 19.0355C18.4665 18.2311 18.691 17.5584 18.6976 17.5405C18.7071 17.5146 18.1567 17.508 16 17.508C13.8433 17.508 13.2929 17.5146 13.3024 17.5405ZM7.0085 25.4965C7.0163 25.9261 7.0225 25.9811 7.0743 26.078C7.1674 26.2522 7.2565 26.3402 7.4252 26.4245C7.7007 26.5622 8.0058 26.5218 8.2386 26.3169C8.4542 26.1271 8.4717 26.0689 8.4815 25.5095L8.4901 25.022H7.7449H6.9999L7.0085 25.4965ZM23.5185 25.5095C23.5283 26.0689 23.5458 26.1271 23.7614 26.3169C23.9944 26.522 24.2993 26.5622 24.5755 26.4242C24.7612 26.3313 24.8723 26.2083 24.9445 26.0155C24.9882 25.899 24.996 25.8129 24.996 25.45V25.022H24.253H23.5099L23.5185 25.5095Z" fill="var(--fill-0, #4CC7F4)"/>
</g>
</svg>
