<svg preserveAspectRatio="none" width="100%" height="100%" overflow="visible" style="display: block;" viewBox="0 0 12.6667 12.6667" fill="none" xmlns="http://www.w3.org/2000/svg">
<path id="vector" d="M5.83333 9.5H6.83333V5.66667H5.83333V9.5ZM6.33333 4.52567C6.48589 4.52567 6.61378 4.47406 6.717 4.37083C6.82022 4.26761 6.87183 4.13972 6.87183 3.98717C6.87183 3.83461 6.82022 3.70672 6.717 3.6035C6.61378 3.50039 6.48589 3.44883 6.33333 3.44883C6.18078 3.44883 6.05289 3.50039 5.94967 3.6035C5.84644 3.70672 5.79483 3.83461 5.79483 3.98717C5.79483 4.13972 5.84644 4.26761 5.94967 4.37083C6.05289 4.47406 6.18078 4.52567 6.33333 4.52567ZM6.3345 12.6667C5.4585 12.6667 4.63511 12.5004 3.86433 12.168C3.09356 11.8356 2.42311 11.3844 1.853 10.8145C1.28289 10.2446 0.8315 9.57444 0.498833 8.804C0.166278 8.03356 0 7.21039 0 6.3345C0 5.4585 0.166222 4.63511 0.498667 3.86433C0.831111 3.09356 1.28228 2.42311 1.85217 1.853C2.42206 1.28289 3.09222 0.8315 3.86267 0.498833C4.63311 0.166278 5.45628 0 6.33217 0C7.20817 0 8.03156 0.166222 8.80233 0.498666C9.57311 0.831111 10.2436 1.28228 10.8137 1.85217C11.3838 2.42206 11.8352 3.09222 12.1678 3.86267C12.5004 4.63311 12.6667 5.45628 12.6667 6.33217C12.6667 7.20817 12.5004 8.03156 12.168 8.80233C11.8356 9.57311 11.3844 10.2436 10.8145 10.8137C10.2446 11.3838 9.57444 11.8352 8.804 12.1678C8.03356 12.5004 7.21039 12.6667 6.3345 12.6667ZM6.33333 11.6667C7.82222 11.6667 9.08333 11.15 10.1167 10.1167C11.15 9.08333 11.6667 7.82222 11.6667 6.33333C11.6667 4.84444 11.15 3.58333 10.1167 2.55C9.08333 1.51667 7.82222 1 6.33333 1C4.84444 1 3.58333 1.51667 2.55 2.55C1.51667 3.58333 1 4.84444 1 6.33333C1 7.82222 1.51667 9.08333 2.55 10.1167C3.58333 11.15 4.84444 11.6667 6.33333 11.6667Z" fill="var(--fill-0, #7F8F9A)"/>
</svg>
