<svg preserveAspectRatio="none" width="100%" height="100%" overflow="visible" style="display: block;" viewBox="0 0 32 32" fill="none" xmlns="http://www.w3.org/2000/svg">
<g id="Zero-Content-Sign Streamline Ultimate">
<path id="Vector" fill-rule="evenodd" clip-rule="evenodd" d="M15.4402 4.2234C12.7866 4.3391 10.2192 5.3767 8.213 7.1441C7.2507 7.992 6.4189 9.0062 5.7882 10.1007C4.8302 11.7633 4.3104 13.5478 4.2244 15.4697C4.1228 17.7414 4.6563 19.935 5.7882 21.8993C7.5135 24.8934 10.5038 26.9955 13.907 27.6064C15.2472 27.847 16.7528 27.847 18.093 27.6064C21.4953 26.9956 24.4878 24.8921 26.2117 21.8993C27.3427 19.9359 27.8731 17.7587 27.7755 15.4792C27.6934 13.5625 27.1711 11.7661 26.2117 10.1007C24.3625 6.8904 21.0738 4.724 17.3881 4.2879C17.1109 4.2551 15.9444 4.1867 15.896 4.2004C15.8889 4.2024 15.6838 4.2127 15.4402 4.2234ZM15.428 5.7326C13.1572 5.8499 10.9505 6.7473 9.24 8.2492C8.1213 9.2314 7.2407 10.4104 6.6451 11.723C5.9565 13.2407 5.6441 14.8763 5.7309 16.509C5.8045 17.8913 6.0958 19.0769 6.6689 20.3265C7.4449 22.0186 8.7277 23.5125 10.3158 24.5736C12.1159 25.7763 14.3194 26.3802 16.5005 26.2688C17.8745 26.1985 19.0756 25.9049 20.316 25.336C22.0191 24.5548 23.5106 23.2752 24.575 21.682C25.7757 19.8848 26.3801 17.6787 26.2688 15.4995C26.1985 14.1255 25.9049 12.9244 25.336 11.684C24.5552 9.9819 23.275 8.4893 21.6842 7.4264C20.4087 6.5743 18.8478 5.9923 17.313 5.7966C17.0202 5.7593 16.0811 5.7001 15.909 5.7081C15.8661 5.7101 15.6497 5.7211 15.428 5.7326ZM15.566 9.2685C14.1389 9.3957 12.8957 10.3851 12.4385 11.7577C12.2587 12.2975 12.269 12.0386 12.269 16C12.269 19.3556 12.2719 19.5886 12.3162 19.796C12.5536 20.9071 13.2068 21.7799 14.2139 22.3314C15.2308 22.8883 16.7692 22.8883 17.7861 22.3314C18.6519 21.8573 19.2495 21.1553 19.5572 20.251C19.7417 19.7086 19.731 19.9706 19.731 16C19.731 12.6476 19.7281 12.4112 19.6839 12.204C19.5126 11.4002 19.0853 10.6632 18.4985 10.1595C17.679 9.456 16.7224 9.1654 15.566 9.2685ZM15.598 10.7751C14.7715 10.9052 14.114 11.473 13.8381 12.295L13.777 12.477L13.7709 15.688C13.7663 18.1565 13.772 18.887 13.7954 18.847C13.8122 18.8184 14.6367 17.0926 15.6277 15.012L17.4294 11.229L17.3452 11.158C17.2153 11.0485 16.8674 10.8849 16.637 10.825C16.397 10.7626 15.8457 10.7361 15.598 10.7751ZM16.3915 16.9159L14.56 20.7641L14.6495 20.8385C14.7834 20.9498 15.128 21.1135 15.363 21.1776C15.6635 21.2594 16.3353 21.2598 16.6338 21.1783C17.3527 20.9822 17.9152 20.4398 18.1619 19.705L18.223 19.523L18.2301 16.845C18.234 15.3721 18.234 13.9196 18.2301 13.6173L18.223 13.0675L16.3915 16.9159Z" fill="var(--fill-0, white)"/>
</g>
</svg>
