<svg preserveAspectRatio="none" width="100%" height="100%" overflow="visible" style="display: block;" viewBox="0 0 32 32" fill="none" xmlns="http://www.w3.org/2000/svg">
<g id="Monitor-Cash Streamline Ultimate">
<path id="Vector" fill-rule="evenodd" clip-rule="evenodd" d="M7.433 4.0148C6.7852 4.0698 6.2141 4.2709 5.652 4.6419C5.3229 4.8591 4.8591 5.3229 4.6419 5.652C4.3469 6.0989 4.143 6.6008 4.0476 7.1144C4.0066 7.335 4.0021 7.7426 3.9941 12.009C3.9853 16.7256 3.9912 17.1063 4.0807 17.534C4.2875 18.5221 4.9353 19.4298 5.8151 19.9639C6.2132 20.2056 6.6438 20.3639 7.1301 20.4474C7.4076 20.495 7.5645 20.498 9.7626 20.498C11.3546 20.498 12.1 20.5066 12.1 20.5249C12.1 20.5566 11.6379 23.3449 11.6189 23.4277L11.6059 23.4844L10.7155 23.4927C9.8745 23.5005 9.8184 23.504 9.7067 23.5558C9.5338 23.6358 9.4077 23.758 9.3262 23.9245C9.2673 24.0448 9.2546 24.105 9.2559 24.2568C9.2586 24.5605 9.4172 24.8045 9.6961 24.934L9.8272 24.9949L11.1242 24.9967L12.4212 24.9986L12.5841 24.9184C12.7548 24.8344 12.8769 24.7079 12.9452 24.5445C12.9663 24.4939 13.1596 23.3902 13.3746 22.0917C13.7293 19.9497 13.7629 19.719 13.7378 19.6016C13.6849 19.3548 13.5356 19.1673 13.309 19.0629L13.179 19.003L10.254 18.9894L7.329 18.9757L7.1402 18.9177C6.7013 18.7828 6.3491 18.5511 6.0351 18.1908C5.702 17.8085 5.5277 17.3388 5.5153 16.79L5.509 16.507L9.812 16.494L14.115 16.481L14.219 16.4247C14.4757 16.2857 14.6207 16.0437 14.6212 15.753C14.6218 15.3745 14.3803 15.0825 14.0099 15.014C13.9058 14.9947 12.5523 14.986 9.6764 14.986H5.4943L5.5021 11.1965L5.5098 7.407L5.5683 7.199C5.7987 6.3804 6.3997 5.784 7.212 5.5678L7.433 5.509H16H24.567L24.788 5.5678C25.6004 5.784 26.2018 6.3808 26.4316 7.199L26.49 7.407L26.5035 11.4506L26.517 15.4942L26.6051 15.6316C26.8138 15.9567 27.1732 16.0797 27.5272 15.9472C27.7009 15.8822 27.8784 15.7017 27.9492 15.5183C27.9975 15.3929 27.999 15.2696 27.999 11.411C27.999 7.0816 28.0034 7.223 27.8509 6.705C27.4454 5.3288 26.3143 4.3149 24.8856 4.0472C24.6607 4.005 24.0925 4.0018 16.156 3.9985C11.4871 3.9965 7.5617 4.0039 7.433 4.0148ZM20.673 14.5175C20.0905 14.5743 19.4313 14.7189 18.9481 14.896C18.3203 15.1261 17.5165 15.5814 16.9983 16.0005C16.7346 16.2138 16.2138 16.7346 16.0005 16.9983C15.5814 17.5165 15.1261 18.3203 14.896 18.9481C14.7675 19.2988 14.6329 19.8394 14.5653 20.277C14.4909 20.7587 14.4852 21.6776 14.5536 22.149C14.8538 24.2162 15.9998 25.961 17.7585 27.0284C19.9684 28.3697 22.8135 28.3181 24.9445 26.8982C25.3988 26.5954 25.6697 26.3754 26.0226 26.0226C27.1985 24.8466 27.8803 23.334 27.9861 21.6658C28.2083 18.1658 25.713 15.0904 22.227 14.5679C21.8403 14.5099 21.0232 14.4834 20.673 14.5175ZM20.875 16.0169C20.8321 16.0219 20.6858 16.0387 20.55 16.0543C20.4142 16.0699 20.1493 16.1219 19.9614 16.1698C18.1128 16.6415 16.6748 18.0619 16.1843 19.9004C15.8608 21.1128 15.9787 22.3749 16.5216 23.5121C17.1329 24.7924 18.2368 25.7683 19.5827 26.2183C20.6777 26.5844 21.8259 26.5844 22.9217 26.2183C24.2436 25.7766 25.3488 24.8069 25.9596 23.553C26.9428 21.5346 26.5422 19.1349 24.957 17.547C24.0835 16.6719 22.9796 16.153 21.7237 16.027C21.4705 16.0016 21.0492 15.9966 20.875 16.0169ZM21.0017 16.7855C20.957 16.7999 20.8635 16.8546 20.7941 16.9072C20.6501 17.016 20.498 17.2768 20.498 17.4148V17.4991L20.2835 17.545C19.5642 17.6989 18.9408 18.2746 18.733 18.977C18.4919 19.7919 18.7445 20.6511 19.3844 21.1925C19.6164 21.3888 19.7656 21.459 21.005 21.954C21.6199 22.1996 22.1598 22.4284 22.2048 22.4626C22.4626 22.6579 22.4717 23.101 22.2229 23.3371C22.0655 23.4865 22.0521 23.488 20.8794 23.488C20.2579 23.488 19.7439 23.4992 19.663 23.5145C19.4776 23.5495 19.296 23.6756 19.1793 23.8503C19.0954 23.9758 19.0835 24.0144 19.073 24.1952C19.0586 24.4452 19.107 24.5908 19.2594 24.7562C19.4504 24.9633 19.5102 24.9815 20.0333 24.9915L20.4915 25.0001L20.5073 25.1151C20.5405 25.3579 20.7143 25.5791 20.9602 25.6916C21.0812 25.747 21.1288 25.7547 21.2874 25.7443C21.5022 25.7303 21.6336 25.6721 21.782 25.525C21.8948 25.4133 21.9692 25.2677 21.9946 25.1087L22.0116 25.0027L22.1934 24.9727C22.9754 24.8435 23.6644 24.1999 23.8563 23.4192C23.9286 23.1252 23.9345 22.6713 23.8693 22.422C23.7704 22.0435 23.4944 21.5847 23.2195 21.3416C22.9841 21.1333 22.7728 21.0319 21.5927 20.5606C20.7609 20.2285 20.4127 20.0772 20.3468 20.0193C20.0413 19.7511 20.1159 19.2362 20.485 19.0653C20.5807 19.021 20.6728 19.0171 21.642 19.0164C22.2417 19.0159 22.7666 19.004 22.8614 18.9886C23.176 18.9376 23.4388 18.6859 23.4863 18.3903C23.5433 18.0362 23.3787 17.7203 23.059 17.5697C22.9379 17.5127 22.8975 17.5085 22.4708 17.5083L22.0127 17.508L21.9952 17.3986C21.9347 17.0203 21.6236 16.7516 21.252 16.7569C21.159 16.7582 21.0464 16.7711 21.0017 16.7855Z" fill="var(--fill-0, #4CC7F4)"/>
</g>
</svg>
