<svg preserveAspectRatio="none" width="100%" height="100%" overflow="visible" style="display: block;" viewBox="0 0 32 32" fill="none" xmlns="http://www.w3.org/2000/svg">
<g id="Currency-Dollar-Increase Streamline Ultimate">
<path id="Vector" fill-rule="evenodd" clip-rule="evenodd" d="M13.9836 4.0143C12.7042 4.1015 11.4176 4.4912 10.3662 5.1098C8.9001 5.9725 7.7862 7.1802 7.0592 8.6956C6.5431 9.7714 6.2948 10.799 6.2587 12.009C6.1907 14.2871 7.0417 16.4458 8.642 18.055C9.0385 18.4536 9.5106 18.8487 9.7002 18.9405C9.8715 19.0235 10.1316 19.0178 10.3169 18.9272C10.6611 18.7588 10.8227 18.3883 10.7121 18.021C10.6594 17.8459 10.591 17.7647 10.2975 17.5285C9.9843 17.2767 9.4991 16.7972 9.2666 16.5097C8.4313 15.4772 7.9066 14.1814 7.7819 12.8428C7.7449 12.4458 7.7639 11.6901 7.8205 11.307C7.992 10.1468 8.4259 9.1122 9.1454 8.148C9.401 7.8054 10.0714 7.141 10.436 6.869C12.1525 5.5882 14.3407 5.182 16.3609 5.7692C18.5169 6.3957 20.1986 8.0127 20.9017 10.1351C21.1425 10.8618 21.2333 11.4366 21.2349 12.243C21.2359 12.7263 21.2262 12.8775 21.1725 13.218C21.0913 13.733 21.0918 13.8939 21.1749 14.0596C21.4097 14.5281 22.0116 14.63 22.3826 14.2641C22.5533 14.0958 22.6075 13.9133 22.6933 13.218C22.8568 11.8938 22.6753 10.494 22.1739 9.212C22.033 8.8519 21.7316 8.2575 21.5069 7.8968C20.1712 5.7523 17.9643 4.3524 15.4509 4.0553C15.0314 4.0058 14.3775 3.9875 13.9836 4.0143ZM14.193 7.8202C14.0348 7.8992 13.9792 7.9466 13.8729 8.0933C13.8212 8.1647 13.7849 8.2521 13.7746 8.3299C13.7656 8.3978 13.7507 8.4646 13.7416 8.4783C13.7325 8.4921 13.616 8.5285 13.4827 8.5593C13.0718 8.6542 12.6578 8.9061 12.3792 9.2307C11.6676 10.0598 11.7156 11.3011 12.4893 12.0747C12.7668 12.3522 12.9494 12.4456 14.167 12.9321C14.7819 13.1778 15.3235 13.4024 15.3706 13.4312C15.4176 13.46 15.4906 13.5437 15.5328 13.6173C15.6999 13.9086 15.5939 14.2867 15.3048 14.4304C15.2148 14.4751 15.1115 14.48 14.011 14.492C12.8315 14.5048 12.8133 14.5058 12.6947 14.5643C12.5285 14.6462 12.3907 14.7876 12.3142 14.9545C12.2583 15.0767 12.2512 15.1226 12.2613 15.2973C12.2785 15.5935 12.4051 15.7874 12.672 15.9262C12.7798 15.9822 12.8259 15.9876 13.2565 15.9952C13.7499 16.0039 13.7626 16.0073 13.7638 16.13C13.765 16.2452 13.8825 16.4534 14.0093 16.5651C14.3806 16.8919 14.9435 16.779 15.1664 16.3329C15.2102 16.2453 15.246 16.1348 15.246 16.0873C15.246 16.0138 15.2566 15.999 15.3175 15.9874C15.7195 15.9112 16.0064 15.7913 16.2898 15.5812C16.63 15.329 16.8752 14.9877 17.0164 14.57C17.0886 14.3562 17.1015 14.2774 17.1121 13.9839C17.1225 13.6975 17.1159 13.6105 17.0695 13.4249C16.9289 12.8623 16.5662 12.3793 16.0628 12.0843C16.0028 12.0492 15.4406 11.8148 14.8134 11.5633C14.1862 11.3119 13.6409 11.0834 13.6016 11.0554C13.5123 10.9919 13.4094 10.8175 13.3862 10.6902C13.3573 10.5324 13.4185 10.3389 13.5386 10.2087C13.7267 10.0046 13.6842 10.0107 14.986 10.0006C15.6224 9.9956 16.1861 9.9802 16.2389 9.9662C16.3937 9.9253 16.5827 9.7574 16.6669 9.586C16.7646 9.3868 16.771 9.1052 16.6815 8.9352C16.5918 8.765 16.4776 8.6505 16.3207 8.5737C16.1847 8.5072 16.1519 8.5028 15.7115 8.4912C15.2538 8.4792 15.246 8.478 15.246 8.4221C15.246 8.3157 15.1654 8.1283 15.0734 8.0209C14.9217 7.8436 14.7788 7.7758 14.5334 7.7648C14.3499 7.7565 14.3064 7.7636 14.193 7.8202ZM21.6732 16.0795C21.4911 16.1705 21.4007 16.2662 21.3096 16.4644C21.255 16.5832 21.2473 16.6312 21.2577 16.7894C21.2718 17.0065 21.3326 17.1411 21.4773 17.2759C21.727 17.5084 21.7236 17.508 23.3267 17.508H24.6709L22.7469 19.4328C21.6888 20.4914 20.7631 21.3991 20.6899 21.4498C20.4653 21.6053 20.2412 21.6736 19.913 21.6863L19.627 21.6974L16.611 20.8889C14.9522 20.4442 13.4839 20.0633 13.348 20.0424C12.5606 19.9211 11.7675 20.1261 11.099 20.6236C10.8936 20.7764 5.0008 26.6606 4.8845 26.829C4.5069 27.3755 4.9961 28.1195 5.6445 27.9849C5.7261 27.9679 5.8226 27.9359 5.859 27.9137C5.8953 27.8915 7.2822 26.5191 8.941 24.864C11.152 22.6579 12.0018 21.826 12.1249 21.7474C12.3719 21.5897 12.6021 21.5257 12.919 21.5264C13.1773 21.527 13.1986 21.5322 16.117 22.3155C17.7329 22.7492 19.1603 23.126 19.289 23.1527C19.7918 23.2571 20.4458 23.1992 20.9462 23.006C21.5126 22.7872 21.5384 22.7648 23.7545 20.5532L25.75 18.5618V19.9709C25.75 21.3237 25.7521 21.3857 25.8028 21.5212C25.839 21.618 25.8965 21.7006 25.9854 21.7838C26.1568 21.9441 26.2672 21.989 26.491 21.9893C26.8089 21.9896 27.0549 21.8343 27.1852 21.551L27.245 21.421L27.2521 19.0312C27.2601 16.3792 27.2681 16.5128 27.0881 16.2771C27.029 16.1997 26.9453 16.1337 26.8384 16.0803L26.6777 16H24.255H21.8323L21.6732 16.0795Z" fill="var(--fill-0, #4CC7F4)"/>
</g>
</svg>
