<svg preserveAspectRatio="none" width="100%" height="100%" overflow="visible" style="display: block;" viewBox="0 0 32 32" fill="none" xmlns="http://www.w3.org/2000/svg">
<g id="Briefcase Streamline Ultimate">
<path id="Vector" fill-rule="evenodd" clip-rule="evenodd" d="M13.751 4.7703C13.0931 4.8675 12.4947 5.2701 12.1459 5.8503C12.0418 6.0234 11.9411 6.2998 11.4935 7.641L10.9642 9.227L9.7381 9.2338L8.512 9.2405V8.881C8.512 8.3296 8.4593 8.1374 8.2554 7.9454C7.9708 7.6773 7.4678 7.697 7.207 7.9864C7.0239 8.1895 7.0179 8.2125 7.0085 8.7525L6.9999 9.24H6.5788C5.8817 9.24 5.5421 9.3028 5.1557 9.5031C4.5953 9.7937 4.2318 10.2948 4.0461 11.033C4.0071 11.1882 4.0026 11.8038 3.9943 18.093C3.9879 22.9246 3.9936 25.0665 4.0134 25.2624C4.0469 25.5939 4.1124 25.822 4.2513 26.0903C4.5264 26.6218 5.0115 26.9931 5.6664 27.1737L5.925 27.245L15.87 27.2527C22.8314 27.2581 25.8884 27.252 26.0596 27.2325C27.1272 27.1106 27.8553 26.3421 27.9869 25.198C28.0204 24.9069 28.0196 11.5431 27.9861 11.229C27.9512 10.9013 27.8996 10.7191 27.7655 10.449C27.5593 10.034 27.2406 9.716 26.8293 9.5149C26.4188 9.3143 26.0365 9.2404 25.4075 9.2402L25.0001 9.24L24.9915 8.7525C24.9821 8.2125 24.9761 8.1895 24.793 7.9864C24.5322 7.697 24.0292 7.6773 23.7446 7.9454C23.5407 8.1374 23.488 8.3296 23.488 8.881V9.2405L22.2617 9.2338L21.0354 9.227L20.5329 7.719C20.2565 6.8896 20.0056 6.1525 19.9754 6.081C19.8892 5.8772 19.6599 5.5489 19.4932 5.3904C19.2013 5.1132 18.8668 4.9225 18.483 4.8148C18.2756 4.7565 18.269 4.7564 16.091 4.7518C14.8898 4.7493 13.8368 4.7576 13.751 4.7703ZM13.907 6.274C13.7203 6.3206 13.55 6.4459 13.4423 6.6161C13.419 6.6529 13.2077 7.2584 12.9727 7.9616L12.5456 9.24H16H19.4544L19.0273 7.9616C18.7923 7.2584 18.581 6.6529 18.5577 6.6161C18.4803 6.4938 18.3805 6.4019 18.249 6.3321L18.119 6.263L16.052 6.2588C14.9151 6.2565 13.9499 6.2633 13.907 6.274ZM6.0208 10.7757C5.7665 10.8259 5.6058 11.0095 5.5353 11.33C5.4989 11.4957 5.4954 12.229 5.502 18.366C5.5079 23.9284 5.5157 25.2357 5.5433 25.3162C5.5912 25.4557 5.7495 25.6033 5.9285 25.6755L6.081 25.737H16.0397H25.9984L26.1277 25.6709C26.2985 25.5836 26.4096 25.4186 26.464 25.1711C26.5014 25.0012 26.5047 24.3195 26.498 18.132C26.4916 12.2616 26.4852 11.2668 26.4533 11.1815C26.399 11.0365 26.2464 10.893 26.0714 10.8224L25.919 10.761L16.026 10.7573C10.5849 10.7552 6.0825 10.7635 6.0208 10.7757ZM9.0567 14.5273C8.7188 14.6188 8.5074 14.8957 8.5074 15.247C8.5074 15.4794 8.5834 15.6539 8.7497 15.8034C8.9896 16.0191 8.2867 16 16 16C23.7133 16 23.0104 16.0191 23.2503 15.8034C23.4166 15.6539 23.4926 15.4794 23.4926 15.247C23.4926 14.9488 23.3438 14.7087 23.0782 14.5783L22.929 14.505L16.052 14.5001C10.6736 14.4963 9.1492 14.5022 9.0567 14.5273ZM9.019 20.5325C8.6824 20.6648 8.5074 20.9109 8.5074 21.252C8.5074 21.5551 8.6517 21.7871 8.9233 21.9205L9.071 21.993H16H22.929L23.0767 21.9205C23.3478 21.7873 23.4926 21.5551 23.4926 21.2532C23.4926 20.9487 23.3485 20.7152 23.072 20.5717L22.955 20.511L16.026 20.5064C10.757 20.5029 9.0783 20.5092 9.019 20.5325Z" fill="var(--fill-0, #4CC7F4)"/>
</g>
</svg>
