<svg preserveAspectRatio="none" width="100%" height="100%" overflow="visible" style="display: block;" viewBox="0 0 32 32" fill="none" xmlns="http://www.w3.org/2000/svg">
<g id="Shipment-Truck-1 Streamline Ultimate">
<path id="Vector" fill-rule="evenodd" clip-rule="evenodd" d="M8.3064 4.0282C7.7722 4.1756 7.5749 4.8292 7.9392 5.2442C7.9846 5.2958 8.0588 5.3607 8.1043 5.3884C8.1498 5.4161 8.5103 5.5459 8.9055 5.6768C9.7051 5.9417 9.778 5.982 9.9105 6.2334L9.981 6.367L9.9886 7.4265L9.9962 8.486L7.3756 8.4865C5.3317 8.487 4.7196 8.4945 4.5943 8.5208C4.1863 8.6063 3.9407 8.9743 4.0168 9.3861C4.0622 9.6315 4.2092 9.8197 4.443 9.9314C4.5717 9.9929 4.5814 9.9935 5.4115 9.9937L6.25 9.994V15.6217V21.2494L5.3855 21.2572C4.5562 21.2647 4.5168 21.2673 4.417 21.3213C4.1626 21.459 4.0061 21.72 4.0067 22.0054C4.0073 22.2998 4.1598 22.5441 4.4238 22.6737L4.573 22.747L10.6013 22.7538L16.6297 22.7606L16.6143 22.8448C16.6059 22.8911 16.5218 23.4496 16.4275 24.086C16.2365 25.375 16.2249 25.4159 16.0027 25.5868C15.7873 25.7525 15.8216 25.75 13.7473 25.75C11.9218 25.75 11.8639 25.7515 11.7268 25.8028C11.5672 25.8625 11.3703 26.0518 11.3009 26.212C11.2369 26.36 11.245 26.6423 11.3182 26.8089C11.3913 26.9753 11.5532 27.1294 11.7245 27.1954C11.8469 27.2427 11.9485 27.245 13.868 27.245C15.8734 27.245 15.884 27.2447 16.1017 27.1867C16.8508 26.987 17.4784 26.3928 17.6877 25.685C17.7174 25.5849 17.8554 24.7542 17.9945 23.839L18.2475 22.175L18.2556 20.8425L18.2638 19.51H20.0299H21.7959L24.0395 19.9795C25.2734 20.2377 26.3166 20.462 26.3577 20.478C26.5082 20.5364 26.504 20.4623 26.504 23.0535C26.504 25.762 26.4898 25.5832 26.7239 25.8173C26.8933 25.9867 27.0608 26.0478 27.307 26.0302C27.5098 26.0156 27.6494 25.9508 27.7799 25.8107C27.9147 25.6659 27.9525 25.5944 27.9839 25.4243C28.0221 25.2181 28.0226 20.7764 27.9846 20.4728C27.9039 19.8294 27.4602 19.2694 26.8613 19.0554C26.772 19.0235 25.7553 18.7997 24.6018 18.5582L22.5047 18.119L22.4929 17.131C22.4824 16.2471 22.4754 16.1178 22.4266 15.9031C22.187 14.8513 21.5667 13.9746 20.6795 13.4341C20.5868 13.3777 19.9824 13.0528 19.3364 12.7121L18.1618 12.0928L18.1179 11.9079C17.7482 10.3522 16.501 9.0787 14.9325 8.6554C14.4233 8.518 14.2894 8.5076 12.8475 8.4934L11.502 8.4801L11.5017 7.4105C11.5014 6.4535 11.496 6.3152 11.4508 6.0961C11.3169 5.447 10.8681 4.8671 10.2662 4.5656C10.0702 4.4673 8.7223 4.0221 8.564 4.0033C8.4962 3.9953 8.3878 4.0058 8.3064 4.0282ZM7.758 15.6228V21.252H9.2531H10.7481L10.7416 15.6295L10.735 10.007L9.2465 10.0003L7.758 9.9936V15.6228ZM12.256 15.623V21.252H14.5035H16.751L16.7526 17.1181C16.7537 14.4582 16.7447 12.8938 16.7275 12.7306C16.679 12.2696 16.6026 12.0031 16.4114 11.6277C16.1149 11.0455 15.6675 10.6061 15.077 10.3172C14.5337 10.0513 14.1639 9.9941 12.9905 9.994H12.256V15.623ZM18.262 15.935V18.002H19.627H20.992V17.2379C20.992 16.6531 20.9824 16.4227 20.9512 16.2564C20.9027 15.9982 20.7438 15.6114 20.5957 15.3912C20.4604 15.19 20.1583 14.8898 19.9699 14.7693C19.8202 14.6735 18.3087 13.868 18.2787 13.868C18.2695 13.868 18.262 14.7982 18.262 15.935ZM21.4686 22.0429C20.4875 22.2294 19.6692 22.8747 19.257 23.787C18.8908 24.5975 18.9257 25.6313 19.3453 26.4C19.7005 27.0509 20.2676 27.5533 20.927 27.8011C21.2197 27.9112 21.4059 27.954 21.72 27.9836C23.1413 28.1175 24.4812 27.2112 24.876 25.849C25.0718 25.1732 25.0268 24.4429 24.7498 23.8C24.5651 23.3713 24.1758 22.878 23.8 22.5965C23.4932 22.3667 23.0952 22.1804 22.6973 22.0803C22.4233 22.0114 21.7432 21.9907 21.4686 22.0429ZM21.6058 23.5536C21.2157 23.6607 20.8468 23.9635 20.6707 24.3212C20.3729 24.9261 20.473 25.5645 20.94 26.0392C21.2489 26.3532 21.5712 26.4887 22.006 26.4875C22.506 26.486 22.8986 26.288 23.2004 25.8851C23.3892 25.633 23.466 25.4112 23.4812 25.074C23.5019 24.6142 23.3862 24.3033 23.0708 23.9713C22.8704 23.7603 22.6409 23.6213 22.3816 23.5537C22.1952 23.5052 21.7824 23.5051 21.6058 23.5536ZM4.5587 24.276C4.2637 24.3591 4.0704 24.5685 4.014 24.8661C3.9853 25.0174 4.0213 25.4713 4.081 25.711C4.5441 27.5706 6.5983 28.5298 8.317 27.6888C8.9206 27.3935 9.3988 26.9171 9.7021 26.309C9.8737 25.9649 9.9942 25.4509 9.9937 25.0646C9.9935 24.7848 9.9339 24.6251 9.7697 24.4638C9.6218 24.3184 9.4708 24.2581 9.2521 24.2572C9.0098 24.2562 8.8122 24.3487 8.6686 24.5303C8.544 24.688 8.5205 24.7604 8.4878 25.087C8.4438 25.5265 8.3296 25.7777 8.0445 26.062C7.7522 26.3535 7.4235 26.4881 7.004 26.4881C6.5769 26.4881 6.2487 26.3525 5.9481 26.0519C5.6672 25.771 5.5356 25.4725 5.5059 25.0488C5.4872 24.7829 5.4165 24.6061 5.2721 24.4641C5.0876 24.2828 4.8019 24.2074 4.5587 24.276Z" fill="var(--fill-0, #4CC7F4)"/>
</g>
</svg>
