<svg preserveAspectRatio="none" width="100%" height="100%" overflow="visible" style="display: block;" viewBox="0 0 64 64" fill="none" xmlns="http://www.w3.org/2000/svg">
<g id="Style-Two-Pin-Marker Streamline Ultimate">
<path id="Vector" fill-rule="evenodd" clip-rule="evenodd" d="M30.934 9.4896C28.058 9.6448 25.1246 10.5472 22.6554 12.0362C18.9132 14.293 16.1404 17.7304 14.7642 21.8188C14.13 23.703 13.8718 25.1752 13.8174 27.2176C13.7062 31.3878 14.6454 35.4888 16.6156 39.436C18.6638 43.5396 21.7896 47.3204 25.838 50.5908C27.5734 51.9928 30.0744 53.6876 31.1538 54.1932C31.4204 54.3182 31.5152 54.3338 32 54.3338C32.6322 54.3338 32.7446 54.293 33.733 53.7036C37.2544 51.6034 40.8282 48.5544 43.445 45.418C46.14 42.1874 48.085 38.6318 49.1512 34.9856C50.3294 30.9572 50.5202 26.7006 49.6756 23.29C48.3062 17.7602 44.404 13.1728 39.1466 10.9122C37.8132 10.3388 36.0864 9.8542 34.626 9.6438C33.999 9.5536 32.1288 9.4178 31.818 9.44C31.7608 9.444 31.363 9.4664 30.934 9.4896ZM31.038 11.1C27.079 11.3198 23.353 12.9578 20.4666 15.7468C17.7562 18.366 16.0722 21.713 15.5392 25.54C15.361 26.8202 15.3856 28.959 15.5982 30.674C16.5092 38.025 20.8406 44.8514 28.0034 50.2256C29.7348 51.5244 31.6698 52.748 31.993 52.748C32.47 52.748 35.615 50.6226 37.6336 48.9358C40.3386 46.6756 42.6296 44.133 44.391 41.4362C47.235 37.0816 48.7086 32.0792 48.5722 27.242C48.5018 24.751 48.0024 22.6834 46.9266 20.43C44.5958 15.548 39.8216 12.0348 34.4566 11.2536C33.833 11.1626 32.1056 11.03 31.844 11.0528C31.801 11.0566 31.4384 11.0778 31.038 11.1ZM30.778 18.2252C27.1474 18.7432 24.1364 21.2164 23.0006 24.6136C21.849 28.0578 22.7036 31.7448 25.2536 34.3336C26.5944 35.6948 28.3078 36.6122 30.2344 37.001C30.7516 37.1054 30.984 37.1212 32 37.1212C33.2956 37.1212 33.8506 37.0436 34.8576 36.7224C37.7262 35.8072 40.0562 33.5234 40.9994 30.7024C42.151 27.2582 41.2964 23.5712 38.7464 20.9824C37.2922 19.5062 35.4048 18.551 33.3454 18.249C32.7482 18.1616 31.3176 18.1482 30.778 18.2252ZM30.804 19.859C27.8118 20.3684 25.4836 22.3372 24.5178 25.1754C23.9862 26.7374 23.9878 28.5812 24.522 30.154C25.6226 33.394 28.5972 35.5342 32 35.5342C34.1562 35.5342 36.1092 34.7114 37.6268 33.1638C38.1416 32.6388 38.3474 32.3786 38.71 31.794C39.9258 29.8334 40.2154 27.333 39.478 25.162C38.6078 22.6002 36.5228 20.6662 33.9258 20.012C32.9994 19.7788 31.6614 19.7132 30.804 19.859Z" fill="var(--fill-0, #4CC7F4)"/>
</g>
</svg>
