<svg preserveAspectRatio="none" width="100%" height="100%" overflow="visible" style="display: block;" viewBox="0 0 64 64" fill="none" xmlns="http://www.w3.org/2000/svg">
<g id="Professions-Man-Telecommunicator Streamline Ultimate">
<path id="Vector" fill-rule="evenodd" clip-rule="evenodd" d="M30.908 9.5674C30.3986 9.6274 29.6318 9.7654 29.1846 9.8774C26.8 10.4746 24.598 11.9422 23.1426 13.904C22.941 14.1756 22.687 14.5172 22.578 14.6628C22.4692 14.8084 22.38 14.947 22.38 14.9708C22.38 14.9946 22.289 15.1914 22.178 15.408C21.5916 16.5512 21.2696 17.5436 21.0548 18.8702C20.9578 19.4684 20.979 19.6618 21.1662 19.8844C21.4272 20.1944 21.7976 20.2798 22.1522 20.1116C22.4368 19.9766 22.5368 19.783 22.641 19.1662C22.7726 18.386 22.865 18.0156 23.084 17.388C23.3874 16.5184 23.3328 16.5556 23.7588 16.9262C25.821 18.7198 28.6076 20.1344 31.272 20.7402C32.8186 21.0918 33.4518 21.1578 35.276 21.1578C36.877 21.1578 37.2182 21.1322 38.396 20.9234C39.2548 20.7712 40.562 20.4328 41.113 20.22C41.196 20.188 41.204 20.2314 41.204 20.7168C41.204 22.6114 40.45 24.7068 39.2 26.2854C38.8058 26.7834 38.091 27.4876 37.573 27.8882C37.1008 28.2534 36.9604 28.4864 37.0062 28.8282C37.0682 29.2898 37.5398 29.6226 37.9684 29.5072C38.4222 29.385 39.7598 28.1908 40.4896 27.256C41.7494 25.6426 42.546 23.6834 42.7702 21.647C42.8072 21.3118 42.8186 20.7004 42.8002 20.04C42.7744 19.1094 42.7508 18.8868 42.6148 18.288C42.107 16.0536 41.13 14.2544 39.5862 12.7106C38.0046 11.129 35.8968 10.0542 33.612 9.6642C33.1392 9.5836 31.3222 9.5184 30.908 9.5674ZM30.8162 11.2018C29.0374 11.4262 27.3266 12.1564 25.94 13.2832C25.2654 13.8314 24.212 15.0248 24.2698 15.1752C24.3076 15.274 25.1188 15.9764 25.697 16.411C27.6422 17.8736 30.1484 18.9448 32.598 19.3604C34.3016 19.6496 36.2486 19.6496 37.954 19.3606C39.1218 19.1628 40.9218 18.6502 40.9798 18.499C41.0188 18.3978 40.7202 17.4244 40.469 16.8334C39.3222 14.1348 36.9946 12.1556 34.0884 11.4076C33.305 11.206 31.6218 11.1 30.8162 11.2018ZM17.752 21.953C17.652 22.0078 17.5174 22.1298 17.453 22.224C17.3382 22.392 17.336 22.4246 17.3362 23.9086C17.3364 25.5792 17.383 26.011 17.6496 26.811C18.2364 28.5714 19.5448 30.0238 21.21 30.7636C22.2642 31.2318 22.7796 31.3222 24.616 31.3604L26.098 31.3912L26.2204 31.7712C26.381 32.2698 26.7646 32.8458 27.2094 33.2556C27.9376 33.9268 28.5592 34.1858 29.53 34.2224C30.5572 34.2612 31.2804 34.0384 32 33.4616C32.9288 32.7174 33.405 31.7372 33.4032 30.5746C33.4014 29.5464 33.1072 28.7692 32.4558 28.0718C31.7194 27.2832 30.9342 26.914 29.894 26.8674C29.1526 26.8342 28.6988 26.9282 28.0482 27.2494C27.1818 27.6772 26.4586 28.5264 26.1722 29.4518L26.0838 29.738L25.129 29.7532C23.5004 29.7794 22.6608 29.657 21.8276 29.272C20.6458 28.726 19.7002 27.7132 19.2564 26.5182C18.9986 25.8244 18.989 25.7462 18.9548 24.07C18.9246 22.5854 18.9138 22.444 18.818 22.2814C18.6678 22.0264 18.4716 21.9006 18.1848 21.8756C18.0038 21.8596 17.8834 21.8812 17.752 21.953ZM29.118 28.5468C27.8214 28.96 27.2428 30.4502 27.9254 31.6174C28.1048 31.9242 28.5218 32.296 28.8686 32.4586C29.132 32.582 29.2284 32.598 29.712 32.598C30.2164 32.598 30.2838 32.5856 30.596 32.4358C31.0264 32.2292 31.3972 31.8584 31.6038 31.428C31.7538 31.1156 31.766 31.0486 31.766 30.5428C31.766 30.0298 31.7554 29.974 31.596 29.6506C31.3776 29.207 30.9258 28.7782 30.5068 28.6172C30.1144 28.4662 29.4724 28.4338 29.118 28.5468ZM22.9736 36.2892C22.7488 36.3556 21.9138 36.8232 21.1918 37.287C18.6518 38.9188 16.2906 41.427 14.8118 44.064C13.2184 46.905 12.4154 49.7638 12.2626 53.14C12.2242 53.9852 12.2662 54.1518 12.578 54.3894C12.8284 54.5806 13.2446 54.6008 13.471 54.4332C13.7924 54.1954 13.8346 54.0692 13.873 53.232C13.9656 51.2074 14.249 49.6168 14.807 47.99C16.2492 43.784 19.1124 40.2956 22.874 38.1618C23.8728 37.5952 23.9922 37.4746 23.9918 37.0336C23.9914 36.507 23.4864 36.1378 22.9736 36.2892ZM40.4304 36.2684C40.04 36.351 39.7798 36.7034 39.8146 37.1024C39.8468 37.4728 39.9926 37.6236 40.7104 38.0302C43.708 39.7274 45.9408 41.95 47.6148 44.903C49.0502 47.4354 49.8052 50.1142 49.9212 53.086C49.9396 53.5568 49.9822 53.9884 50.0194 54.0802C50.0554 54.1694 50.1718 54.3086 50.278 54.3894C50.4322 54.5072 50.5266 54.5372 50.7476 54.5394C51.0596 54.5424 51.2358 54.4428 51.441 54.1472C51.562 53.9728 51.5636 53.9558 51.5324 53.086C51.434 50.3398 50.8228 47.809 49.6652 45.3548C47.9354 41.6874 45.0178 38.5692 41.4748 36.6014C40.886 36.2742 40.6934 36.2128 40.4304 36.2684Z" fill="var(--fill-0, #4CC7F4)"/>
</g>
</svg>
