<svg preserveAspectRatio="none" width="100%" height="100%" overflow="visible" style="display: block;" viewBox="0 0 64 64" fill="none" xmlns="http://www.w3.org/2000/svg">
<g id="Tools-Wrench-Hold Streamline Ultimate">
<path id="Vector" fill-rule="evenodd" clip-rule="evenodd" d="M44.4292 9.49C42.3196 9.6772 40.288 10.6038 38.7418 12.084C36.0858 14.6266 35.1354 18.4096 36.2728 21.912C36.5826 22.8664 37.1784 23.9902 37.777 24.7496L38.0258 25.065L36.9494 26.1406L35.873 27.2162L34.9894 26.3288C33.748 25.0818 33.342 24.7948 32.4836 24.5566C31.9702 24.414 31.1436 24.4016 30.648 24.5286C30.1074 24.6672 29.4126 25.0434 29.0192 25.4106C28.1626 26.21 27.6536 27.4638 27.5948 28.92C27.5684 29.5688 27.5542 29.6588 27.4814 29.636C27.0156 29.4896 26.1852 29.4654 25.6346 29.582C25.2362 29.6664 24.748 29.8786 24.37 30.1316C24.0322 30.3578 14.7862 39.5896 14.4988 39.9876C13.974 40.7142 13.774 41.3976 13.8154 42.322C13.8466 43.0162 14.0102 43.577 14.3248 44.068C14.4514 44.2654 14.9618 44.8278 15.5728 45.4428L16.6066 46.4838L13.2998 49.7848C11.481 51.6006 9.9252 53.19 9.8424 53.3172C9.7528 53.455 9.692 53.6184 9.692 53.7218C9.692 54.2528 10.1738 54.649 10.689 54.5422C10.8294 54.513 11.5102 53.859 14.3062 51.0674L17.7504 47.6286L18.5702 48.4368C19.0212 48.8814 19.507 49.3278 19.65 49.4288C20.7128 50.1798 21.7402 50.5548 23.053 50.6708L23.706 50.7284L25.578 52.5914C27.1732 54.1788 27.4826 54.4638 27.671 54.5192C28.2586 54.6926 28.8112 54.1624 28.6734 53.5576C28.6334 53.3828 28.4124 53.1388 27.131 51.857C25.8762 50.6018 25.6516 50.355 25.7366 50.3248C26.3644 50.103 26.9446 49.7914 27.528 49.363C27.714 49.2264 29.1546 47.8202 30.7294 46.2384C33.762 43.192 33.8948 43.04 34.3368 42.114C34.7918 41.1612 34.9778 40.3316 34.9778 39.254C34.9778 38.2016 34.796 37.3658 34.3634 36.4296C34.0352 35.7192 33.638 35.192 32.7592 34.2994L31.9256 33.4528L33.8736 31.5044C34.945 30.4328 35.846 29.556 35.8758 29.556C35.9056 29.556 37.136 30.767 38.61 32.247C41.4682 35.117 41.6042 35.2746 41.9518 36.1148C42.3874 37.1684 42.3974 38.3684 41.9796 39.4218C41.7554 39.9868 41.5126 40.3664 41.0078 40.9416C40.4808 41.5418 40.2698 41.879 40.0784 42.4266C39.945 42.8084 39.9334 42.9028 39.9344 43.596C39.9354 44.2764 39.9494 44.3918 40.0774 44.7772C40.1596 45.0244 40.3268 45.3638 40.4746 45.5832C40.6618 45.8608 41.8728 47.1032 45.01 50.2356C48.8538 54.0736 49.3104 54.5128 49.49 54.5454C49.913 54.6218 50.3614 54.3232 50.4382 53.9142C50.5248 53.4524 50.6858 53.6334 46.093 49.03C43.7532 46.6848 41.7996 44.6876 41.7514 44.5916C41.4966 44.0846 41.4454 43.4536 41.6178 42.9522C41.7354 42.6108 41.8382 42.452 42.2458 41.984C42.9184 41.2116 43.3156 40.5414 43.5948 39.7076C44.2178 37.8484 43.8806 35.7734 42.6934 34.1598C42.505 33.904 41.3464 32.699 39.703 31.05L37.0202 28.358L38.0926 27.2858L39.165 26.2134L39.4938 26.4664C41.7582 28.2088 44.7508 28.858 47.47 28.1966C49.9544 27.5922 51.9506 26.1642 53.3472 23.992C53.63 23.552 54.0972 22.597 54.2318 22.1834C54.3808 21.7252 54.2648 21.3808 53.8866 21.158C53.717 21.0582 53.5914 21.053 50.694 21.028L47.678 21.002L47.3258 20.8352C46.4756 20.4324 46.0124 19.5672 46.1448 18.6298C46.239 17.9642 46.6976 17.3586 47.3368 17.0556L47.678 16.894L50.7292 16.868C53.7092 16.8426 53.7838 16.8396 53.924 16.7348C54.3352 16.4278 54.3926 16.1152 54.15 15.5048C53.2328 13.1966 51.583 11.43 49.3534 10.3688C48.2888 9.8622 47.2494 9.5834 46.0566 9.4846C45.3628 9.427 45.1298 9.4278 44.4292 9.49ZM44.526 11.098C40.8806 11.4772 38.0214 14.2324 37.4862 17.882C37.1972 19.8514 37.7548 22.0378 38.9528 23.634C41.4234 26.926 45.8934 27.801 49.401 25.679C50.4302 25.0564 51.4168 24.0762 52.0116 23.0852C52.1306 22.8868 52.228 22.7056 52.228 22.6822C52.228 22.659 51.216 22.6396 49.979 22.6392C47.4382 22.638 47.2748 22.6208 46.586 22.2802C45.625 21.805 44.9078 20.9556 44.6292 19.962C44.4656 19.3786 44.4656 18.5174 44.6292 17.934C44.91 16.9326 45.663 16.0534 46.6396 15.5862C47.286 15.277 47.4792 15.258 49.979 15.2568C51.216 15.2564 52.228 15.237 52.228 15.214C52.228 15.1908 52.1444 15.0328 52.0422 14.863C50.8764 12.9244 48.8058 11.5244 46.5866 11.1742C45.9524 11.0742 45.0694 11.0416 44.526 11.098ZM31.064 26.0882C30.2362 26.2772 29.688 26.8848 29.3404 27.9982C29.182 28.5062 29.168 29.5986 29.3132 30.128C29.4922 30.7798 29.7866 31.2838 30.3034 31.823L30.778 32.3182L32.7536 30.3394L34.7292 28.3604L33.8976 27.523C33.4402 27.0622 32.9548 26.5958 32.8192 26.4864C32.358 26.115 31.6502 25.9542 31.064 26.0882ZM25.89 31.189C25.348 31.3608 25.2796 31.4244 20.4972 36.204C16.0004 40.6982 15.7726 40.935 15.6092 41.282C15.4524 41.6154 15.4382 41.6874 15.44 42.14C15.4438 43.0528 15.3356 42.9072 18.0054 45.5894C19.2818 46.8716 20.4664 48.0214 20.638 48.1442C22.3688 49.3846 24.7332 49.3844 26.462 48.144C26.843 47.8706 32.2876 42.4154 32.506 42.088C33.4022 40.7456 33.6226 39.0336 33.0872 37.5712C32.9294 37.1404 32.6948 36.6934 32.4444 36.3462C32.146 35.9326 27.6604 31.4662 27.424 31.3474C26.9792 31.1236 26.313 31.0548 25.89 31.189Z" fill="var(--fill-0, #4CC7F4)"/>
</g>
</svg>
