<svg preserveAspectRatio="none" width="100%" height="100%" overflow="visible" style="display: block;" viewBox="0 0 43.0001 42.6915" fill="none" xmlns="http://www.w3.org/2000/svg">
<g id="g22564">
<path id="path21553" d="M21.5 42.6915C33.3912 42.6915 43.0001 33.1518 43.0001 21.3463C43.0001 9.54065 33.3912 0 21.5 0C9.60882 0 0 9.54065 0 21.3463C0 33.1518 9.60882 42.6915 21.5 42.6915ZM15.2838 30.9748C15.1637 30.9748 15.1037 30.8556 15.0436 30.7374L5.13461 10.9115C6.90618 8.22836 9.27812 5.9624 12.1314 4.38239L19.2482 20.1239C19.3682 20.4219 19.5484 20.4815 19.7885 20.4815H23.2116C23.4517 20.4815 23.6318 20.4219 23.7519 20.1239L30.8687 4.38239C33.722 5.9624 36.0939 8.22836 37.8665 10.9115L27.9565 30.7374C27.8964 30.8556 27.8364 30.9748 27.7163 30.9748C27.5952 30.9748 27.5362 30.8556 27.4752 30.7374L23.7519 22.2696C23.6318 21.9716 23.4517 21.912 23.2116 21.912H19.7885C19.5484 21.912 19.3682 21.9716 19.2482 22.2696L15.5239 30.7374C15.4639 30.8556 15.4038 30.9748 15.2838 30.9748ZM21.5 16.9639C21.38 16.9639 21.3199 16.8436 21.2599 16.7254L15.1342 3.07111C17.1164 2.35485 19.2777 1.96793 21.5 1.96793C23.7224 1.96793 25.8837 2.35485 27.8659 3.07111L21.7402 16.7254C21.6801 16.8436 21.6201 16.9639 21.5 16.9639ZM21.5 40.7236C10.8095 40.7236 2.04123 31.9588 2.04123 21.3463C2.04123 18.9611 2.46148 16.6951 3.27247 14.5787L14.6539 37.3251C14.8035 37.6252 14.9836 37.8616 15.3438 37.8616C15.704 37.8616 15.9024 37.6191 16.0347 37.3251L21.2599 25.669C21.3199 25.5498 21.38 25.4296 21.5 25.4296C21.6201 25.4296 21.6801 25.5498 21.7402 25.669L26.9654 37.3251C27.0966 37.6191 27.2961 37.8616 27.6563 37.8616C28.0165 37.8616 28.1966 37.6242 28.3462 37.3251L39.7276 14.5787C40.5386 16.6951 40.9588 18.9611 40.9588 21.3463C40.9588 31.9588 32.1905 40.7236 21.5 40.7236Z" fill="var(--fill-0, #001E50)"/>
</g>
</svg>
