<svg preserveAspectRatio="none" width="100%" height="100%" overflow="visible" style="display: block;" viewBox="0 0 24 24" fill="none" xmlns="http://www.w3.org/2000/svg">
<g id="Location-Target Streamline Ultimate">
<path id="Vector" d="M4.46652 12H6.97768Z" fill="var(--fill-0, #A1ADB5)"/>
<path id="Vector (Stroke)" d="M11.3747 19.5339V17.611C10.1071 17.4698 8.91716 16.9035 8.00656 15.9929C7.09597 15.0822 6.52949 13.8925 6.38839 12.6247H4.46652V11.3747H6.38937C6.53061 10.1071 7.09597 8.91715 8.00656 8.00656C8.91717 7.09594 10.107 6.52961 11.3747 6.38839V4.46652C11.3747 4.12143 11.6547 3.84167 11.9997 3.84152C12.3449 3.84152 12.6247 4.12134 12.6247 4.46652V6.38839C13.8925 6.52949 15.0822 7.09597 15.9929 8.00656C16.9035 8.91716 17.4698 10.1071 17.611 11.3747H19.5339C19.8788 11.3749 20.1588 11.6548 20.1589 11.9997C20.1589 12.3448 19.8789 12.6245 19.5339 12.6247H17.612C17.4709 13.8926 16.9036 15.0821 15.9929 15.9929C15.0822 16.9036 13.8926 17.4699 12.6247 17.611V19.5339C12.6245 19.8789 12.3448 20.1589 11.9997 20.1589C11.6548 20.1588 11.3749 19.8788 11.3747 19.5339ZM11.9997 7.60226C10.8336 7.60233 9.71494 8.06575 8.89035 8.89035C8.06575 9.71494 7.60233 10.8336 7.60226 11.9997C7.60226 13.1658 8.06586 14.2845 8.89035 15.1091C9.71494 15.9337 10.8336 16.3971 11.9997 16.3972C13.166 16.3972 14.2844 15.9338 15.1091 15.1091C15.9338 14.2844 16.3972 13.166 16.3972 11.9997C16.3971 10.8336 15.9337 9.71494 15.1091 8.89035C14.2845 8.06586 13.1658 7.60226 11.9997 7.60226ZM13.3835 11.9997C13.3834 11.6328 13.2377 11.2807 12.9782 11.0212C12.7187 10.7618 12.3666 10.6159 11.9997 10.6159C11.6328 10.616 11.2807 10.7617 11.0212 11.0212C10.7617 11.2807 10.616 11.6328 10.6159 11.9997C10.6159 12.3666 10.7618 12.7187 11.0212 12.9782C11.2807 13.2377 11.6328 13.3834 11.9997 13.3835C12.3668 13.3835 12.7187 13.2378 12.9782 12.9782C13.2378 12.7187 13.3835 12.3668 13.3835 11.9997ZM14.6335 11.9997C14.6335 12.6983 14.356 13.3681 13.862 13.862C13.3681 14.356 12.6983 14.6335 11.9997 14.6335C11.3013 14.6334 10.6313 14.3559 10.1374 13.862C9.64363 13.3681 9.36593 12.6982 9.36593 11.9997C9.36601 11.3013 9.64353 10.6313 10.1374 10.1374C10.6313 9.64353 11.3013 9.36601 11.9997 9.36593C12.6982 9.36593 13.3681 9.64363 13.862 10.1374C14.3559 10.6313 14.6334 11.3013 14.6335 11.9997Z" fill="var(--fill-0, #A1ADB5)"/>
</g>
</svg>
