<svg preserveAspectRatio="none" width="100%" height="100%" overflow="visible" style="display: block;" viewBox="0 0 19 19" fill="none" xmlns="http://www.w3.org/2000/svg">
<path id="vector" d="M18.8281 18.8281C18.6712 18.9841 18.4138 19.038 18.2181 18.973C18.1384 18.9471 18.0153 18.851 17.849 18.6847C15.3274 16.1622 13.6627 14.4967 12.8547 13.6882C12.8482 13.6816 12.8394 13.6777 12.83 13.6772C12.8206 13.6768 12.8114 13.6799 12.804 13.6859C11.4933 14.77 10.0247 15.378 8.39825 15.51C7.37642 15.5929 6.39314 15.4842 5.44841 15.1837C3.39524 14.531 1.6613 13.0395 0.751945 11.1084C0.260304 10.0655 0.00973145 8.96715 0.000226044 7.81335C-0.0156163 5.75472 0.801849 3.74362 2.27281 2.27272C3.74377 0.801024 5.75496 -0.0156154 7.81446 0.000226247C8.96831 0.00973126 10.0667 0.260294 11.1097 0.751915C13.0409 1.66123 14.5316 3.39589 15.1843 5.44897C15.4848 6.39367 15.5936 7.37691 15.5107 8.3987C15.3787 10.0251 14.7706 11.4936 13.6864 12.8043C13.6804 12.8116 13.6774 12.8209 13.6778 12.8303C13.6782 12.8397 13.6822 12.8485 13.6888 12.855C14.4968 13.6629 16.1621 15.3276 18.6847 17.8491C18.851 18.0154 18.9471 18.1384 18.973 18.2182C19.038 18.4138 18.9841 18.6712 18.8281 18.8281ZM14.351 7.7674C14.351 6.90291 14.1807 6.04688 13.8499 5.2482C13.519 4.44951 13.0341 3.7238 12.4228 3.11251C11.8115 2.50122 11.0858 2.01632 10.287 1.68549C9.48832 1.35467 8.63226 1.18439 7.76773 1.18439C6.02173 1.18439 4.34725 1.87796 3.11264 3.11251C1.87804 4.34707 1.18444 6.02148 1.18444 7.7674C1.18444 9.51333 1.87804 11.1877 3.11264 12.4223C4.34725 13.6569 6.02173 14.3504 7.76773 14.3504C8.63226 14.3504 9.48832 14.1801 10.287 13.8493C11.0858 13.5185 11.8115 13.0336 12.4228 12.4223C13.0341 11.811 13.519 11.0853 13.8499 10.2866C14.1807 9.48793 14.351 8.6319 14.351 7.7674Z" fill="var(--fill-0, #000E26)"/>
</svg>
