<svg preserveAspectRatio="none" width="100%" height="100%" overflow="visible" style="display: block;" viewBox="0 0 16 16" fill="none" xmlns="http://www.w3.org/2000/svg">
<g id="Location-Target Streamline Ultimate">
<path id="Vector" d="M6.66071 8C6.66071 8.3552 6.80182 8.69585 7.05298 8.94702C7.30415 9.19818 7.6448 9.33929 8 9.33929C8.3552 9.33929 8.69585 9.19818 8.94702 8.94702C9.19818 8.69585 9.33929 8.3552 9.33929 8C9.33929 7.6448 9.19818 7.30415 8.94702 7.05298C8.69585 6.80182 8.3552 6.66071 8 6.66071C7.6448 6.66071 7.30415 6.80182 7.05298 7.05298C6.80182 7.30415 6.66071 7.6448 6.66071 8Z" stroke="var(--stroke-0, #001E50)" stroke-width="1.25" stroke-linecap="round" stroke-linejoin="round"/>
<path id="Vector_2" d="M4.65179 8C4.65179 8.888 5.00454 9.73963 5.63245 10.3675C6.26037 10.9955 7.112 11.3482 8 11.3482C8.888 11.3482 9.73963 10.9955 10.3675 10.3675C10.9955 9.73963 11.3482 8.888 11.3482 8C11.3482 7.112 10.9955 6.26037 10.3675 5.63245C9.73963 5.00454 8.888 4.65179 8 4.65179C7.112 4.65179 6.26037 5.00454 5.63245 5.63245C5.00454 6.26037 4.65179 7.112 4.65179 8Z" stroke="var(--stroke-0, #001E50)" stroke-width="1.25" stroke-linecap="round" stroke-linejoin="round"/>
<path id="Vector_3" d="M8 2.97768V4.65179" stroke="var(--stroke-0, #001E50)" stroke-width="1.25" stroke-linecap="round" stroke-linejoin="round"/>
<path id="Vector_4" d="M2.97768 8H4.65179" stroke="var(--stroke-0, #001E50)" stroke-width="1.25" stroke-linecap="round" stroke-linejoin="round"/>
<path id="Vector_5" d="M8 13.0223V11.3482" stroke="var(--stroke-0, #001E50)" stroke-width="1.25" stroke-linecap="round" stroke-linejoin="round"/>
<path id="Vector_6" d="M13.0223 8H11.3482" stroke="var(--stroke-0, #001E50)" stroke-width="1.25" stroke-linecap="round" stroke-linejoin="round"/>
</g>
</svg>
