<svg preserveAspectRatio="none" width="100%" height="100%" overflow="visible" style="display: block;" viewBox="0 0 32 32" fill="none" xmlns="http://www.w3.org/2000/svg">
<g id="Gas-Load Streamline Ultimate">
<path id="Vector" fill-rule="evenodd" clip-rule="evenodd" d="M5.509 4.0151C4.7013 4.1059 4.1104 4.7178 4.0149 5.5627C3.9936 5.7507 3.9878 8.6441 3.9934 16.195L4.0011 26.569L4.0614 26.7638C4.1567 27.0716 4.2645 27.2504 4.494 27.4806C4.6586 27.6457 4.7499 27.7132 4.924 27.7983C5.3745 28.0185 4.6595 27.999 12.269 27.999C18.6821 27.999 19.0383 27.9966 19.2108 27.9524C19.8299 27.7938 20.2831 27.3253 20.4464 26.6753C20.4974 26.4723 20.498 26.3643 20.498 18.2318V9.994L20.8685 9.9945C21.4409 9.9954 21.661 10.0646 21.8406 10.3001C22.0056 10.5163 21.9917 9.8369 22.0065 18.392C22.0194 25.7781 22.0225 26.187 22.0667 26.335C22.0923 26.4208 22.165 26.5983 22.2282 26.7294C22.9074 28.1382 24.7925 28.437 25.8685 27.3065C26.069 27.0958 26.1726 26.9433 26.2957 26.6775C26.5074 26.2204 26.4893 26.654 26.4976 21.82L26.505 17.513L26.966 17.504C27.4089 17.4954 27.4328 17.4921 27.5747 17.4225C28.1316 17.149 28.1364 16.3681 27.583 16.0695C27.4902 16.0194 27.4306 16.0124 27.0305 16.0045C26.6326 15.9967 26.582 15.9908 26.5821 15.9523C26.5821 15.9285 26.6114 15.7997 26.6472 15.6661C26.788 15.1405 26.9564 14.8047 27.4592 14.0469C27.9613 13.2901 27.9557 13.2998 27.9863 13.1383C28.0545 12.7788 27.8523 12.4262 27.5008 12.292C27.3511 12.2348 27.0516 12.2528 26.907 12.3276C26.7472 12.4104 26.6734 12.5035 26.1916 13.231C25.5558 14.1911 25.2908 14.7606 25.1272 15.5186C24.9972 16.1208 24.9966 16.1486 24.9963 21.1628C24.996 26.3879 25.0101 26.0021 24.811 26.2283C24.6875 26.3685 24.5562 26.4431 24.3706 26.4783C24.2327 26.5044 24.0272 26.4754 23.904 26.4124C23.791 26.3547 23.6398 26.188 23.576 26.0511L23.5145 25.919L23.5143 18.3623C23.5141 13.3219 23.505 10.7178 23.487 10.5422C23.3991 9.686 22.8739 8.9774 22.0964 8.6661C21.7853 8.5415 21.5978 8.5115 21.0245 8.4941L20.498 8.4782V7.0018C20.498 5.3429 20.4944 5.302 20.3169 4.937C20.106 4.5031 19.73 4.2075 19.185 4.0472C19.0378 4.0038 18.6523 4.0011 12.36 3.9979C8.6921 3.9961 5.6091 4.0038 5.509 4.0151ZM5.652 5.53C5.5833 5.5534 5.5534 5.5833 5.53 5.652C5.5065 5.7207 5.4986 6.6299 5.4975 9.3635L5.496 12.984H12.243H18.99V9.3322C18.99 6.6189 18.9823 5.6634 18.9599 5.6143C18.9405 5.5719 18.8962 5.5388 18.8364 5.5222C18.6913 5.4819 5.7706 5.4895 5.652 5.53ZM8.889 7.0222C8.7641 7.0399 8.4772 7.1292 8.3128 7.2018C7.8568 7.4029 7.404 7.856 7.2017 8.3135C7.0475 8.6621 7.0186 8.8077 7.0178 9.24C7.0171 9.5827 7.0258 9.6733 7.0757 9.8456C7.319 10.685 7.9918 11.3006 8.8458 11.4652C9.0039 11.4957 9.5852 11.502 12.2388 11.5018C14.3345 11.5017 15.4994 11.4923 15.61 11.4745C16.1316 11.3908 16.6158 11.1126 16.9818 10.6863C17.1583 10.4807 17.386 10.0215 17.4476 9.747C17.5135 9.4532 17.5063 8.9614 17.432 8.681C17.2667 8.057 16.8312 7.5269 16.247 7.2388C15.7605 6.9987 16.1153 7.019 12.321 7.0149C10.4763 7.0129 8.9319 7.0162 8.889 7.0222ZM8.9687 8.5645C8.7007 8.6691 8.512 8.9522 8.512 9.2493C8.512 9.5331 8.6497 9.7621 8.9057 9.9038L9.045 9.981L12.2084 9.9879C15.3234 9.9947 15.374 9.994 15.5117 9.9425C15.6796 9.8797 15.8564 9.7149 15.9307 9.552C16.0039 9.3914 16.0037 9.1148 15.9303 8.9517C15.8605 8.7964 15.7135 8.6515 15.5477 8.5743L15.415 8.5125L12.256 8.5135C9.1999 8.5144 9.0928 8.5161 8.9687 8.5645ZM5.5133 14.5093C5.5038 14.5189 5.4966 17.166 5.4975 20.3918C5.4986 24.8646 5.5063 26.2786 5.53 26.348C5.5534 26.4167 5.5833 26.4466 5.652 26.47C5.7706 26.5105 18.6913 26.5181 18.8364 26.4778C18.8962 26.4612 18.9405 26.4281 18.9599 26.3857C18.9824 26.3362 18.99 24.8341 18.99 20.4058V14.492H12.2603C8.559 14.492 5.5229 14.4998 5.5133 14.5093Z" fill="var(--fill-0, #4CC7F4)"/>
</g>
</svg>
