<svg preserveAspectRatio="none" width="100%" height="100%" overflow="visible" style="display: block;" viewBox="0 0 32 32" fill="none" xmlns="http://www.w3.org/2000/svg">
<g id="Arrow-Thick-Down Streamline Ultimate">
<path id="Vector" fill-rule="evenodd" clip-rule="evenodd" d="M12.0207 4.0152C11.6842 4.0656 11.3894 4.227 11.1431 4.4957C10.9546 4.7014 10.8652 4.8642 10.7994 5.1212C10.7491 5.3178 10.748 5.4243 10.748 9.9072V14.492L9.2205 14.4922C7.4566 14.4924 7.3546 14.5016 7.02 14.6902C6.2775 15.1087 6.0237 16.1003 6.482 16.793C6.6874 17.1035 14.8105 27.4312 14.9725 27.5878C15.1504 27.7597 15.4175 27.9074 15.649 27.9615C15.7205 27.9783 15.8784 27.992 16 27.992C16.1215 27.992 16.2795 27.9783 16.351 27.9615C16.5825 27.9073 16.8496 27.7597 17.0274 27.5878C17.1836 27.4367 25.2967 17.1247 25.5172 16.7969C25.85 16.3022 25.8144 15.5724 25.4333 15.079C25.2205 14.8035 24.8286 14.5729 24.484 14.5204C24.3647 14.5023 23.7459 14.492 22.7745 14.492H21.252V9.9072C21.252 5.4187 21.2509 5.3181 21.2004 5.1205C21.0735 4.6243 20.6884 4.2279 20.16 4.0496C20.0234 4.0035 19.8414 4.0012 16.091 3.9975C13.9317 3.9954 12.1001 4.0034 12.0207 4.0152ZM12.2498 10.4685L12.243 15.441L12.188 15.558C12.1178 15.7074 11.9634 15.8618 11.814 15.932C11.699 15.9861 11.6644 15.9872 9.7321 16L7.7673 16.013L11.8698 21.239C14.1262 24.1133 15.9848 26.465 16 26.465C16.0152 26.465 17.8736 24.1133 20.1298 21.239L24.232 16.013L22.2675 16C20.3356 15.9872 20.301 15.9861 20.186 15.932C20.0366 15.8618 19.8822 15.7074 19.812 15.558L19.757 15.441L19.7502 10.4685L19.7435 5.496H16.0001H12.2566L12.2498 10.4685Z" fill="var(--fill-0, #4CC7F4)"/>
</g>
</svg>
