<svg preserveAspectRatio="none" width="100%" height="100%" overflow="visible" style="display: block;" viewBox="0 0 32 32" fill="none" xmlns="http://www.w3.org/2000/svg">
<g id="Gauge-Dashboard Streamline Ultimate">
<path id="Vector" fill-rule="evenodd" clip-rule="evenodd" d="M15.103 7.7863C13.5168 7.9306 12.1878 8.2972 10.787 8.9771C8.7667 9.9576 7.0587 11.4882 5.855 13.3967C5.4471 14.0436 5.0428 14.8582 4.7824 15.558C4.3017 16.8503 4.078 17.9452 4.0149 19.315C3.9816 20.0366 3.9809 21.9167 4.0137 22.2284C4.1167 23.2056 4.835 24.0039 5.7884 24.2008C5.9705 24.2384 6.9325 24.2423 16 24.2423C25.0675 24.2423 26.0295 24.2384 26.2116 24.2008C27.1672 24.0034 27.8755 23.2153 27.9855 22.227C28.0193 21.9235 28.0191 20.0511 27.9851 19.315C27.9221 17.9476 27.6951 16.8356 27.218 15.558C27.0872 15.2077 27.0495 15.1201 26.8216 14.635C25.6728 12.1907 23.6685 10.1688 21.213 8.9771C19.501 8.1462 17.7905 7.7513 15.948 7.7616C15.6119 7.7635 15.2317 7.7746 15.103 7.7863ZM15.272 9.2819C13.6901 9.4201 12.2679 9.8543 10.891 10.6194C9.536 11.3723 8.268 12.5313 7.3651 13.842C6.4593 15.1568 5.8462 16.7235 5.615 18.314C5.5232 18.9453 5.5105 19.2346 5.5097 20.706C5.5091 22.0336 5.5133 22.1844 5.5532 22.2725C5.6231 22.4268 5.7233 22.5423 5.8679 22.6351L6.0018 22.721L9.1251 22.7279L12.2484 22.7348L12.263 22.4809C12.2811 22.1661 12.3368 21.8916 12.4542 21.538C12.8616 20.3112 13.947 19.3514 15.2342 19.0796L15.4433 19.0354L16.5032 15.8555C17.2835 13.5144 17.5828 12.6484 17.6378 12.5725C17.7862 12.3675 18.0012 12.256 18.2476 12.256C18.5364 12.256 18.7969 12.4209 18.9264 12.6855C19.0678 12.9745 19.1088 12.8213 17.9996 16.1498C17.4546 17.7853 17.0129 19.1265 17.0179 19.1302C17.0229 19.1339 17.1206 19.1701 17.235 19.2105C17.941 19.4603 18.6302 19.9751 19.0458 20.5632C19.4518 21.1376 19.6993 21.8242 19.737 22.4809L19.7516 22.7348L22.8749 22.7279L25.9982 22.721L26.1321 22.6351C26.2767 22.5423 26.3769 22.4268 26.4468 22.2725C26.4867 22.1844 26.4909 22.0336 26.4902 20.706C26.4895 19.2341 26.4777 18.9674 26.3843 18.314C26.1292 16.5283 25.3707 14.7458 24.2711 13.348C22.8507 11.5425 20.995 10.2896 18.808 9.6597C17.8723 9.3902 17.1794 9.2915 16.143 9.28C15.7283 9.2755 15.3364 9.2763 15.272 9.2819ZM13.088 11.5393C12.7104 11.6445 12.4195 11.9253 12.2956 12.3042C12.2232 12.5254 12.2477 12.8701 12.3512 13.088C12.4509 13.2978 12.5766 13.4441 12.7638 13.5684C12.9934 13.7208 13.2559 13.7766 13.5496 13.7355C13.903 13.686 14.2347 13.4351 14.3951 13.0959C14.4654 12.9472 14.4802 12.8824 14.488 12.689C14.4986 12.4278 14.4667 12.2779 14.3592 12.0854C14.2714 11.9281 14.077 11.7312 13.9227 11.6436C13.6908 11.5119 13.3425 11.4683 13.088 11.5393ZM10.1805 14.5181C9.859 14.5661 9.495 14.8463 9.3539 15.1544C9.159 15.5801 9.2458 16.0749 9.5745 16.4124C9.9241 16.7713 10.4533 16.8539 10.9101 16.6209C11.0708 16.5389 11.3112 16.2856 11.3885 16.1167C11.5914 15.6735 11.5077 15.1825 11.171 14.8403C10.9121 14.5773 10.5574 14.4619 10.1805 14.5181ZM21.4096 14.5215C21.126 14.5686 20.8018 14.7992 20.6471 15.064C20.4618 15.3811 20.4546 15.8161 20.629 16.1579C20.706 16.3088 20.9618 16.5534 21.1275 16.6345C21.9378 17.0309 22.8613 16.3536 22.7343 15.456C22.6682 14.9888 22.2792 14.5945 21.8081 14.5174C21.6339 14.4889 21.6048 14.4891 21.4096 14.5215ZM8.772 18.2558C8.3892 18.285 8.0248 18.543 7.8554 18.9049C7.7044 19.2274 7.7279 19.6674 7.9116 19.957C8.1284 20.2989 8.4824 20.498 8.8736 20.498C9.369 20.498 9.7956 20.1814 9.9544 19.6958C10.0228 19.4867 10.0015 19.131 9.9085 18.9289C9.7008 18.4776 9.2628 18.2182 8.772 18.2558ZM22.799 18.297C22.5287 18.3864 22.2479 18.6147 22.1342 18.8375C21.9566 19.1857 21.9617 19.6217 22.1472 19.9382C22.3517 20.2872 22.7194 20.4983 23.1216 20.4977C23.4558 20.4972 23.692 20.3968 23.9319 20.1531C24.1656 19.9157 24.2547 19.6693 24.2375 19.3087C24.2286 19.1221 24.2118 19.0486 24.1463 18.9087C24.0403 18.6821 23.8222 18.4639 23.5949 18.3571C23.4438 18.2861 23.3915 18.2755 23.163 18.2695C22.9991 18.2652 22.8645 18.2754 22.799 18.297ZM15.792 20.5144C15.2678 20.5965 14.9616 20.7182 14.622 20.9794C14.1431 21.3476 13.8199 21.9385 13.7724 22.5325L13.7563 22.734H15.9962H18.236V22.6159C18.236 22.326 18.0939 21.8816 17.8936 21.5449C17.7828 21.3587 17.4357 21.0048 17.2373 20.8757C17.0383 20.7462 16.738 20.6203 16.4978 20.5656C16.3099 20.5229 15.919 20.4945 15.792 20.5144Z" fill="var(--fill-0, #4CC7F4)"/>
</g>
</svg>
