<svg preserveAspectRatio="none" width="100%" height="100%" overflow="visible" style="display: block;" viewBox="0 0 32 32" fill="none" xmlns="http://www.w3.org/2000/svg">
<g id="Car-Engine-5 Streamline Ultimate">
<path id="Vector" fill-rule="evenodd" clip-rule="evenodd" d="M9.7954 4.2995C9.6933 4.3263 9.5471 4.38 9.4704 4.4188C9.2404 4.5353 5.1308 6.8999 4.9729 7.0066C4.3272 7.4429 4.0662 8.3686 4.3861 9.0875C4.446 9.2221 7.1489 13.9461 7.3854 14.3295C7.5601 14.6127 7.7618 14.7309 8.0678 14.7295C8.2634 14.7285 8.2969 14.7138 8.9309 14.3486L9.4594 14.0442L9.4983 14.1027C9.5197 14.1349 9.9998 14.9669 10.5652 15.9516L11.5933 17.7419L11.3977 17.9439C10.9949 18.3598 10.8009 18.9282 10.8763 19.4707C10.9411 19.9368 11.15 20.3397 11.4796 20.6347C11.6916 20.8245 11.7648 20.9478 11.7657 21.1174C11.7667 21.3052 11.728 21.3704 11.4373 21.6713C11.2166 21.8997 11.1476 21.991 11.0624 22.1671C10.7116 22.8928 10.8264 23.6966 11.3664 24.295C11.442 24.3787 11.5824 24.4993 11.6784 24.563C12.1823 24.8971 12.7631 24.9751 13.361 24.7889C13.5999 24.7145 13.6314 24.7104 13.7488 24.7386C13.8401 24.7605 13.9074 24.8001 13.9845 24.8772C14.0825 24.9751 14.0988 25.0112 14.1619 25.27C14.2446 25.6096 14.3403 25.8138 14.5313 26.0578C14.7512 26.3388 15.055 26.5517 15.415 26.677C15.6055 26.7433 15.6547 26.7494 16 26.7494C16.3453 26.7494 16.3945 26.7433 16.585 26.677C16.945 26.5517 17.2488 26.3388 17.4687 26.0578C17.6534 25.8218 17.7543 25.6119 17.8295 25.3074C17.9179 24.9492 17.9652 24.8718 18.1549 24.7757C18.2817 24.7115 18.4268 24.7188 18.678 24.8021C18.873 24.8668 18.9387 24.8756 19.237 24.8772C19.5223 24.8787 19.6052 24.8695 19.7691 24.8181C20.2857 24.6558 20.6463 24.3686 20.9003 23.917C21.1565 23.4615 21.2021 22.9167 21.0275 22.3963C20.9328 22.114 20.807 21.923 20.5206 21.6268C20.3637 21.4646 20.2607 21.3358 20.2502 21.2888C20.2408 21.2471 20.228 21.1936 20.2216 21.1699C20.2152 21.1462 20.2243 21.0702 20.2417 21.0009C20.2684 20.8947 20.3086 20.8404 20.4986 20.654C20.9548 20.2064 21.1258 19.8198 21.1255 19.237C21.1253 18.91 21.0863 18.7322 20.9524 18.4483L20.8625 18.2577L21.2009 17.858C21.387 17.6382 21.5484 17.4526 21.5596 17.4457C21.5708 17.4388 21.7918 17.6123 22.0508 17.8311C22.5982 18.2938 22.6471 18.3267 22.838 18.3616C23.1378 18.4164 23.359 18.3209 23.624 18.0221C23.8114 17.8107 27.1791 13.8356 27.3687 13.602C27.8823 12.9689 27.8726 12.0555 27.3452 11.4057C27.258 11.2983 23.51 8.1084 23.2595 7.9285C22.6282 7.4749 21.6943 7.5454 21.1253 8.0896C20.8453 8.3573 17.1334 12.7553 17.0656 12.8996C17.0232 12.99 17.008 13.0703 17.0081 13.2046C17.0083 13.5334 17.0716 13.6177 17.7436 14.1844L18.1809 14.5532L18.1137 14.6331C18.0767 14.677 17.8305 14.9674 17.5665 15.2783L17.0865 15.8436L17.0177 15.7951C16.8908 15.7057 16.6821 15.6119 16.4898 15.558C16.2719 15.4969 15.814 15.4832 15.5993 15.5314C15.5291 15.5472 15.4633 15.5509 15.4529 15.5395C15.4209 15.5044 13.3199 11.8334 13.3277 11.8261C13.3317 11.8222 13.5807 11.6769 13.881 11.5031C14.1813 11.3293 14.4652 11.1502 14.5119 11.1051C14.7269 10.8973 14.7921 10.5394 14.6647 10.267C14.6053 10.1401 11.7844 5.221 11.6529 5.015C11.2755 4.4242 10.4836 4.1191 9.7954 4.2995ZM10.098 5.7905C9.7581 5.969 5.8588 8.2259 5.8145 8.2698C5.7812 8.3028 5.756 8.3594 5.756 8.4015C5.756 8.4514 6.1669 9.1909 7.0244 10.6841C7.7221 11.899 8.3013 12.9066 8.3116 12.9233C8.3247 12.9445 8.3875 12.9215 8.5187 12.8474L8.707 12.7411V12.5051C8.707 12.3046 8.7168 12.2498 8.772 12.1414C8.8077 12.0713 8.8838 11.9749 8.941 11.9271C9.0493 11.8368 11.4367 10.4523 11.6797 10.3389C11.9317 10.2213 12.2308 10.263 12.4756 10.4497L12.566 10.5187L12.7608 10.4079C12.8679 10.3469 12.9517 10.2903 12.947 10.282C12.7479 9.9327 10.4284 5.8991 10.4062 5.8635C10.3433 5.7628 10.2106 5.7314 10.098 5.7905ZM22.207 9.154C22.1624 9.1656 18.834 13.0692 18.834 13.1099C18.834 13.1291 19.0734 13.3441 19.1371 13.3821C19.1536 13.392 19.2286 13.3682 19.3037 13.3292C19.4949 13.23 19.7792 13.2269 19.9594 13.322C20.1006 13.3965 22.2986 15.2514 22.4513 15.4249C22.6194 15.6159 22.6676 15.8639 22.5884 16.1305L22.5469 16.2705L22.6989 16.4076C22.7826 16.4831 22.8654 16.5421 22.8829 16.5389C22.9305 16.5301 26.2175 12.6425 26.2348 12.5745C26.243 12.5423 26.2426 12.4879 26.234 12.4537C26.2207 12.4006 24.803 11.1821 22.6235 9.3505C22.3761 9.1426 22.3315 9.1216 22.207 9.154ZM11.099 12.3988C10.7142 12.6218 10.5022 12.7594 10.5043 12.7847C10.5078 12.8272 13.0742 17.3152 13.1294 17.3755C13.1752 17.4254 13.5214 17.5332 13.6373 17.5337C13.8502 17.5344 14.051 17.3774 14.1156 17.1597C14.1367 17.0887 14.154 17.0147 14.154 16.9954C14.154 16.976 14.1846 16.8677 14.222 16.7546L14.2899 16.549L13.0099 14.318C12.3059 13.0909 11.7225 12.0792 11.7135 12.0697C11.7044 12.0601 11.4279 12.2083 11.099 12.3988ZM18.8109 16.1418L17.8965 17.2218L17.9336 17.2934C17.9827 17.3884 18.0484 17.4455 18.1646 17.494C18.301 17.551 18.4272 17.5433 18.665 17.4636C18.8469 17.4026 18.9203 17.3931 19.25 17.3876L19.627 17.3813L20.1427 16.7751C20.4264 16.4418 20.6924 16.1265 20.7339 16.0746L20.8094 15.9803L20.3222 15.57C20.0542 15.3444 19.8103 15.1377 19.7801 15.1107L19.7253 15.0618L18.8109 16.1418ZM15.9004 17.0144C15.8528 17.0254 15.7809 17.0658 15.7406 17.1044C15.6695 17.1725 15.6552 17.2108 15.5721 17.5546C15.4505 18.0575 15.0508 18.5567 14.57 18.806C14.2234 18.9858 14.0378 19.029 13.621 19.0271C13.3031 19.0257 13.2282 19.0166 13.0291 18.9557C12.751 18.8707 12.654 18.8685 12.5393 18.9448C12.4147 19.0279 12.3505 19.169 12.374 19.3081C12.3897 19.4012 12.4266 19.4515 12.6171 19.6394C12.8582 19.8774 12.9999 20.0719 13.1052 20.3097C13.3145 20.7824 13.3309 21.3873 13.1468 21.8494C13.0191 22.1699 12.8829 22.3649 12.5841 22.655C12.3732 22.8597 12.3325 22.9665 12.399 23.1406C12.4885 23.3751 12.6462 23.424 12.9811 23.3213C14.1603 22.9596 15.3157 23.6082 15.5947 24.7886C15.6653 25.0875 15.7015 25.1538 15.8265 25.2131C15.9929 25.2921 16.2159 25.2435 16.304 25.109C16.326 25.0754 16.3716 24.9312 16.4053 24.7886C16.5863 24.0227 17.1686 23.4375 17.9161 23.2699C18.2849 23.1873 18.6177 23.2123 19.134 23.3615C19.4227 23.4449 19.678 23.2129 19.6133 22.9261C19.597 22.8537 19.5379 22.7769 19.377 22.6193C18.9973 22.2472 18.7909 21.8462 18.733 21.3685C18.6542 20.7186 18.9115 20.0381 19.3922 19.6247C19.5623 19.4785 19.6211 19.3822 19.6211 19.25C19.6211 18.9695 19.3358 18.806 19.0529 18.9242C18.8989 18.9885 18.5872 19.042 18.366 19.042C17.4161 19.042 16.6291 18.4135 16.3982 17.4705C16.3629 17.3267 16.3173 17.1829 16.2968 17.151C16.2274 17.0432 16.0467 16.9809 15.9004 17.0144ZM15.6227 19.9468C15.3073 20.0558 15.0181 20.3165 14.8753 20.6205C14.8028 20.7749 14.7911 20.8302 14.7823 21.0623C14.7695 21.3983 14.8291 21.6164 14.9954 21.8424C15.2703 22.2158 15.6602 22.3976 16.1119 22.363C16.7161 22.3166 17.1946 21.8381 17.241 21.2339C17.2856 20.6518 16.9313 20.1185 16.3876 19.9493C16.1804 19.8848 15.8055 19.8835 15.6227 19.9468Z" fill="var(--fill-0, #4CC7F4)"/>
</g>
</svg>
