<svg preserveAspectRatio="none" width="100%" height="100%" overflow="visible" style="display: block;" viewBox="0 0 32 32" fill="none" xmlns="http://www.w3.org/2000/svg">
<g id="Shipment-Truck Streamline Ultimate">
<path id="Vector" fill-rule="evenodd" clip-rule="evenodd" d="M4.5945 4.0148C4.3696 4.06 4.1553 4.2351 4.0592 4.4521C3.984 4.622 3.9868 4.9074 4.0652 5.0598C4.1388 5.2027 4.285 5.3552 4.417 5.4267L4.521 5.483L8.4622 5.496L12.4035 5.509L12.5114 5.5838C12.634 5.6688 12.7854 5.8827 12.8615 6.0784C12.9869 6.401 12.9821 6.1528 12.9831 12.379L12.984 18.2349L8.7785 18.242L4.573 18.249L4.4521 18.3049C4.2961 18.377 4.127 18.547 4.0592 18.7001C3.9837 18.8703 3.9852 19.148 4.0624 19.3076C4.1398 19.4675 4.2817 19.6079 4.4409 19.682L4.573 19.7435L8.7785 19.7437L12.984 19.744V20.9216V22.0992L12.8651 22.131C12.6704 22.1831 12.3357 22.3433 12.101 22.4968C11.5504 22.8568 11.0944 23.4488 10.9018 24.0535L10.8418 24.242H10.3724L9.903 24.2419L9.8553 24.0795C9.6456 23.3658 9.0478 22.6671 8.343 22.3119C7.6692 21.9724 6.7549 21.9094 6.0434 22.1534C5.4762 22.348 4.9516 22.7307 4.5882 23.215C4.4135 23.4479 4.1883 23.9056 4.107 24.1932C3.9822 24.6345 3.9713 25.2706 4.081 25.711C4.3487 26.7862 5.2092 27.6498 6.2773 27.9156C6.6625 28.0114 7.2527 28.0197 7.641 27.9348C8.0166 27.8526 8.4795 27.6404 8.7893 27.4083C9.2667 27.0507 9.6421 26.5376 9.8408 25.971L9.9138 25.763L10.3765 25.7559L10.8391 25.7489L10.9002 25.937C11.2671 27.0674 12.2808 27.8724 13.478 27.9839C14.9941 28.1252 16.3805 27.0988 16.6881 25.6076C16.9942 24.1236 16.1387 22.6369 14.6997 22.1524L14.505 22.0868L14.4994 15.2409C14.4963 11.4757 14.4898 7.9036 14.4849 7.303L14.4759 6.211L14.3959 5.912C14.3518 5.7476 14.2733 5.5204 14.2214 5.4071C14.0307 4.9913 13.6917 4.5616 13.3912 4.3549C13.2329 4.246 12.8806 4.0817 12.711 4.0377C12.6077 4.0109 11.7718 4.0028 8.642 3.9985C6.4756 3.9954 4.6542 4.0028 4.5945 4.0148ZM17.3086 5.5209C17.0929 5.5723 16.9101 5.7356 16.8067 5.9694C16.7539 6.0888 16.7538 6.1004 16.7539 14.1297L16.7541 22.1704L16.8155 22.3027C16.9456 22.5831 17.1897 22.7419 17.4925 22.7433C17.8031 22.7447 18.0411 22.5983 18.1765 22.3227L18.249 22.175L18.2558 16.4615L18.2627 10.748H19.7564H21.2501L21.2582 12.9645L21.2663 15.181L21.3264 15.402C21.4575 15.884 21.7966 16.4547 22.1306 16.7554C22.3392 16.9432 22.628 17.1344 22.8764 17.2492C23.3964 17.4894 23.559 17.5077 25.1851 17.5078L26.5052 17.508L26.4981 20.5825L26.491 23.657L26.4297 23.7926C26.3505 23.9676 26.162 24.1439 25.9944 24.1995C25.882 24.2369 25.7492 24.2418 25.012 24.2359L24.1595 24.229L24.0852 24.0146C23.7777 23.1271 23.0393 22.4119 22.149 22.1393C21.8083 22.035 21.6154 22.0064 21.2489 22.0062C20.2853 22.0056 19.4271 22.4357 18.8369 23.215C18.2773 23.9541 18.1031 25.0282 18.3965 25.932C18.7116 26.9028 19.534 27.666 20.537 27.9186C20.9744 28.0287 21.6129 28.018 22.0548 27.893C22.3267 27.8161 22.798 27.5886 23.0086 27.4326C23.5141 27.0582 23.9026 26.531 24.0956 25.9577L24.1611 25.763L25.1571 25.7481C26.0781 25.7342 26.1671 25.7289 26.3401 25.6769C26.7431 25.5557 27.053 25.3743 27.3325 25.0958C27.7107 24.719 27.9259 24.2707 27.9855 23.735C28.0213 23.4135 28.021 14.574 27.9852 14.102C27.8445 12.2465 26.7194 10.5859 25.061 9.7859C24.4719 9.5017 24.1074 9.3939 23.3382 9.2765C23.2631 9.265 23.2427 9.2421 23.1596 9.0763C22.2624 7.2861 21.0399 6.1649 19.497 5.7172C19.1943 5.6293 18.9467 5.5809 18.561 5.5342C18.2371 5.495 17.4524 5.4867 17.3086 5.5209ZM18.262 8.135V9.24H19.887C20.7807 9.24 21.512 9.2301 21.512 9.218C21.512 9.1728 21.1466 8.6474 20.9732 8.4432C20.6074 8.0124 20.2088 7.6839 19.7689 7.4507C19.3792 7.2441 18.6599 7.03 18.3554 7.03H18.262V8.135ZM6.1029 7.0828C5.8715 7.1292 5.6865 7.2733 5.5698 7.498L5.509 7.615L5.5022 11.8707C5.4954 16.0983 5.4957 16.1273 5.5484 16.2681C5.6205 16.4607 5.8265 16.6563 6.0169 16.7129C6.3153 16.8015 6.5561 16.7414 6.774 16.5238C7.0258 16.2723 7.0056 16.6948 6.9978 11.8518L6.991 7.615L6.9303 7.498C6.7674 7.1842 6.4334 7.0166 6.1029 7.0828ZM9.8418 7.0839C9.6118 7.1292 9.416 7.2904 9.3074 7.524L9.253 7.641V11.918V16.195L9.3222 16.325C9.4052 16.481 9.5237 16.598 9.682 16.6802C9.8463 16.7655 10.1654 16.7664 10.3248 16.6819C10.4788 16.6002 10.6141 16.4568 10.6867 16.2982L10.7486 16.163L10.7418 11.876L10.735 7.589L10.6787 7.485C10.6204 7.3773 10.4728 7.226 10.3556 7.1537C10.2989 7.1188 10.0175 7.0496 9.9697 7.0589C9.9616 7.0604 9.9041 7.0717 9.8418 7.0839ZM22.76 12.8224C22.76 15.0858 22.7579 15.0511 22.9104 15.3344C23.0071 15.5142 23.235 15.7357 23.4293 15.8387C23.7168 15.9913 23.804 15.999 25.2265 15.9996L26.5101 16L26.4967 15.0575C26.4829 14.0848 26.468 13.9187 26.3596 13.528C26.1717 12.8507 25.8569 12.3125 25.3694 11.8347C24.7017 11.1803 23.932 10.8393 22.9485 10.7624L22.76 10.7476V12.8224ZM6.6168 23.5551C6.1046 23.6929 5.7128 24.0774 5.5583 24.5941C5.491 24.8191 5.4951 25.191 5.5675 25.425C5.7171 25.9085 6.09 26.2814 6.575 26.4323C6.9141 26.5378 7.3568 26.4988 7.6805 26.3347C7.9861 26.1799 8.2809 25.8472 8.4027 25.5198C8.4896 25.2859 8.5106 24.8743 8.4478 24.6338C8.3112 24.1109 7.8923 23.6873 7.3796 23.5537C7.1894 23.5042 6.8037 23.5049 6.6168 23.5551ZM13.3638 23.5536C12.9852 23.6575 12.5867 23.9786 12.4185 24.3152C12.1841 24.7844 12.2117 25.371 12.4883 25.7948C12.8728 26.3839 13.5347 26.625 14.206 26.4203C14.4436 26.3479 14.6407 26.2208 14.8333 26.0158C15.0338 25.8024 15.1265 25.637 15.1946 25.3708C15.2552 25.1337 15.2592 24.9198 15.2077 24.6765C15.0958 24.1483 14.6589 23.6939 14.1268 23.5524C13.9514 23.5057 13.5359 23.5063 13.3638 23.5536ZM20.862 23.5554C20.5301 23.6435 20.219 23.8654 20.0215 24.1551C19.3416 25.1524 20.048 26.4918 21.252 26.4882C21.9217 26.4862 22.473 26.0811 22.673 25.4439C22.7337 25.2506 22.7392 25.1993 22.7279 24.9369C22.7185 24.7183 22.7004 24.6058 22.6558 24.489C22.4821 24.034 22.0852 23.6729 21.6276 23.5537C21.437 23.5041 21.0522 23.5049 20.862 23.5554Z" fill="var(--fill-0, #4CC7F4)"/>
</g>
</svg>
