<svg preserveAspectRatio="none" width="100%" height="100%" overflow="visible" style="display: block;" viewBox="0 0 38.3092 38" fill="none" xmlns="http://www.w3.org/2000/svg">
<g id="g22564">
<path id="path21553" d="M19.1546 38C29.7486 38 38.3091 29.5087 38.3091 19.0004C38.3091 8.4922 29.7486 0 19.1546 0C8.56059 0 0 8.4922 0 19.0004C0 29.5087 8.56059 38 19.1546 38ZM13.6164 27.5709C13.5095 27.5709 13.456 27.4648 13.4025 27.3596L4.57447 9.71244C6.15278 7.32412 8.26596 5.30718 10.8079 3.9008L17.1484 17.9124C17.2553 18.1777 17.4158 18.2307 17.6297 18.2307H20.6794C20.8933 18.2307 21.0538 18.1777 21.1608 17.9124L27.5012 3.9008C30.0432 5.30718 32.1564 7.32412 33.7356 9.71244L24.9067 27.3596C24.8532 27.4648 24.7997 27.5709 24.6927 27.5709C24.5848 27.5709 24.5322 27.4648 24.4779 27.3596L21.1608 19.8223C21.0538 19.5571 20.8933 19.504 20.6794 19.504H17.6297C17.4158 19.504 17.2553 19.5571 17.1484 19.8223L13.8304 27.3596C13.7769 27.4648 13.7234 27.5709 13.6164 27.5709ZM19.1546 15.0996C19.0476 15.0996 18.9941 14.9926 18.9406 14.8874L13.4832 2.73362C15.2491 2.09607 17.1747 1.75167 19.1546 1.75167C21.1345 1.75167 23.06 2.09607 24.826 2.73362L19.3685 14.8874C19.315 14.9926 19.2615 15.0996 19.1546 15.0996ZM19.1546 36.2483C9.63032 36.2483 1.81855 28.4467 1.81855 19.0004C1.81855 16.8774 2.19295 14.8605 2.91548 12.9766L13.0553 33.2234C13.1885 33.4904 13.349 33.7008 13.6699 33.7008C13.9908 33.7008 14.1676 33.485 14.2855 33.2234L18.9406 22.8482C18.9941 22.7421 19.0476 22.6351 19.1546 22.6351C19.2615 22.6351 19.315 22.7421 19.3685 22.8482L24.0237 33.2234C24.1406 33.485 24.3183 33.7008 24.6392 33.7008C24.9601 33.7008 25.1206 33.4895 25.2539 33.2234L35.3937 12.9766C36.1162 14.8605 36.4906 16.8774 36.4906 19.0004C36.4906 28.4467 28.6788 36.2483 19.1546 36.2483Z" fill="var(--fill-0, white)"/>
</g>
</svg>
