<svg preserveAspectRatio="none" width="100%" height="100%" overflow="visible" style="display: block;" viewBox="0 0 30.3351 30.3679" fill="none" xmlns="http://www.w3.org/2000/svg">
<g id="Zero-Content-Sign Streamline Ultimate">
<path id="Vector" fill-rule="evenodd" clip-rule="evenodd" d="M14.4158 4.69944C12.5566 4.84739 10.902 5.411 9.38776 6.412C5.67161 8.86839 3.90924 13.3832 4.9758 17.7144C5.94643 21.6556 9.15323 24.7139 13.1341 25.4949C15.4353 25.9464 17.8101 25.6214 19.8928 24.5701C22.7604 23.1225 24.8318 20.4061 25.4553 17.2753C25.9216 14.9339 25.6042 12.5594 24.5435 10.4536C22.9771 7.34373 19.9431 5.19377 16.5108 4.76141C15.8255 4.67505 15.0205 4.65123 14.4158 4.69944ZM14.5637 5.45313C13.188 5.56331 12.0372 5.87041 10.8881 6.43411C8.11406 7.79469 6.14133 10.3991 5.59369 13.4238C5.47529 14.0777 5.44571 14.4293 5.44571 15.184C5.44571 16.1263 5.5134 16.6931 5.72992 17.565C6.3041 19.8771 7.73734 21.9186 9.73282 23.2672C11.5529 24.4971 13.801 25.0848 15.9562 24.8939C16.6214 24.835 16.9362 24.7831 17.546 24.6315C18.6221 24.3641 19.6905 23.8859 20.6146 23.2581C23.2981 21.435 24.9029 18.4134 24.9029 15.184C24.9029 14.8124 24.858 14.1784 24.8049 13.8022C24.4933 11.5931 23.393 9.51152 21.7366 7.99778C20.201 6.5944 18.3428 5.7477 16.252 5.49859C15.9348 5.46082 14.8367 5.43121 14.5637 5.45313ZM14.8198 9.31242C13.4819 9.42887 12.3834 10.4136 12.0945 11.7554C12.0524 11.9512 12.0497 12.162 12.0497 15.184C12.0497 18.206 12.0524 18.4167 12.0945 18.6125C12.2982 19.5587 12.894 20.3287 13.747 20.7482C14.2224 20.9822 14.5832 21.0618 15.1675 21.0618C15.7519 21.0618 16.1127 20.9822 16.5881 20.7482C17.3265 20.3851 17.8767 19.7568 18.1362 18.9805C18.3006 18.4889 18.2978 18.5538 18.2973 15.178C18.2968 11.6894 18.3036 11.8164 18.0859 11.2444C17.8215 10.55 17.2756 9.95784 16.5881 9.61971C16.0518 9.35589 15.4742 9.25558 14.8198 9.31242ZM14.8718 10.0781C14.0817 10.1573 13.4119 10.6172 13.0592 11.3225C12.9845 11.4718 12.8989 11.6827 12.8688 11.7913L12.8141 11.9887L12.807 15.0729C12.8022 17.1441 12.8083 18.2139 12.8258 18.3299C12.8546 18.5212 12.9479 18.8604 12.9717 18.8604C12.9802 18.8604 13.8568 17.0319 14.9198 14.7969L16.8526 10.7335L16.7148 10.608C16.2745 10.2074 15.5783 10.0073 14.8718 10.0781ZM15.408 15.5554L13.471 19.6292L13.5707 19.7197C14.049 20.1543 14.7114 20.3582 15.4248 20.2905C15.9997 20.236 16.4602 20.0241 16.8526 19.6334C17.1381 19.3492 17.3518 18.9807 17.4654 18.5766L17.521 18.3792L17.5286 15.3073C17.534 13.1226 17.5283 12.1793 17.5085 12.0409C17.4808 11.847 17.3974 11.5372 17.3631 11.5008C17.3533 11.4903 16.4735 13.3148 15.408 15.5554Z" fill="var(--fill-0, #4CC7F4)"/>
</g>
</svg>
