<svg preserveAspectRatio="none" width="100%" height="100%" overflow="visible" style="display: block;" viewBox="0 0 30.3351 30.3679" fill="none" xmlns="http://www.w3.org/2000/svg">
<g id="Shield-Check-1 Streamline Ultimate">
<path id="Vector" fill-rule="evenodd" clip-rule="evenodd" d="M14.0033 4.50252C12.2243 4.58736 10.4176 4.91799 8.74143 5.46557C7.87299 5.74922 6.95735 6.11478 6.67229 6.29157C6.41454 6.45138 6.16987 6.72451 6.03402 7.00427C5.84016 7.40314 5.85088 7.14757 5.85116 11.3802C5.85135 15.2263 5.85751 15.5294 5.95022 16.2381C6.31434 19.0236 7.74672 21.6377 9.88288 23.4152C11.0533 24.3891 12.0131 24.9166 13.893 25.6195C14.5065 25.8489 14.9407 25.9186 15.4448 25.8685C15.9015 25.8231 16.0951 25.763 17.2502 25.308C18.7721 24.7086 20.0453 23.8776 21.1707 22.7489C22.0827 21.8345 22.7679 20.8767 23.3262 19.7363C23.9186 18.5265 24.2663 17.3182 24.4268 15.9119C24.4686 15.5453 24.4719 15.2309 24.4719 11.5076C24.4719 8.23047 24.4658 7.47327 24.4387 7.36233C24.4204 7.28764 24.3556 7.12223 24.2946 6.99478C24.2013 6.79957 24.1499 6.72897 23.9705 6.54885C23.7263 6.30391 23.617 6.23748 23.1112 6.02699C20.2828 4.84957 17.2771 4.34651 14.0033 4.50252ZM14.0758 5.26628C11.8774 5.36972 9.77093 5.82941 7.72407 6.65248C7.48679 6.74785 7.23036 6.85727 7.15415 6.89552C6.91933 7.01338 6.74311 7.22358 6.66395 7.48C6.61598 7.63573 6.61494 7.71498 6.61523 11.3682C6.61532 13.5989 6.62537 15.2414 6.64006 15.4554C6.77505 17.4123 7.44479 19.2921 8.56975 20.8713C9.24945 21.8255 10.1682 22.7356 11.131 23.4082C11.6783 23.7906 12.4423 24.2127 13.0355 24.4606C13.5022 24.6555 14.4406 25.0094 14.6252 25.0601C14.8908 25.1329 15.4459 25.1324 15.7134 25.0592C15.9103 25.0052 16.8922 24.6325 17.3338 24.4441C20.9828 22.8873 23.4451 19.3891 23.6959 15.406C23.7143 15.1138 23.7206 13.7734 23.7154 11.2608L23.7078 7.54738L23.6503 7.40465C23.5752 7.21846 23.3605 6.98577 23.1797 6.89457C22.9381 6.77281 22.0482 6.42633 21.5265 6.25105C19.1871 5.46481 16.7378 5.14101 14.0758 5.26628ZM14.613 8.63731C12.7767 8.86535 11.2757 9.9324 10.4842 11.5723C10.1483 12.2682 9.98849 12.9904 9.98801 13.8146C9.98735 14.998 10.3426 16.0419 11.0693 16.9908C12.5642 18.9432 15.2876 19.5648 17.4903 18.4564C18.9444 17.7247 19.9474 16.4017 20.2679 14.7927C20.3296 14.4828 20.3298 14.4582 20.2719 14.3303C20.1565 14.076 19.7688 14.047 19.6155 14.2812C19.5933 14.3152 19.5491 14.4739 19.5172 14.6339C19.2823 15.8151 18.6092 16.8325 17.6255 17.4939C17.1611 17.8061 16.5032 18.0703 15.9316 18.1741C15.5853 18.2369 14.9037 18.2489 14.5637 18.1981C12.8088 17.9359 11.3895 16.6982 10.9183 15.0191C10.7822 14.5344 10.7681 14.4195 10.7686 13.8022C10.7691 13.1831 10.7849 13.0564 10.9205 12.5809C11.3105 11.2134 12.3548 10.1056 13.701 9.63138C14.1103 9.48723 14.6334 9.38616 14.9763 9.38502C15.242 9.38417 15.3378 9.35447 15.4448 9.23983C15.531 9.14749 15.5372 9.13041 15.5372 8.98853C15.5372 8.84163 15.5335 8.83242 15.4296 8.72851L15.3219 8.6207L15.0044 8.6244C14.8298 8.62639 14.6536 8.63218 14.613 8.63731ZM19.8639 9.83029C19.8153 9.84529 19.0381 10.6063 17.5341 12.1113C15.2853 14.3618 15.2769 14.3697 15.1776 14.3697C15.0797 14.3697 15.0647 14.3565 14.3648 13.6528C13.9726 13.2585 13.6137 12.9121 13.5672 12.8831C13.3957 12.7762 13.1507 12.8342 13.0438 13.0071C12.9842 13.1035 12.9777 13.3076 13.0318 13.385C13.0517 13.4132 13.41 13.7815 13.8281 14.2034C14.7372 15.1205 14.7399 15.1223 15.168 15.1223C15.6369 15.1223 15.4261 15.3004 17.9966 12.7319C19.2204 11.5089 20.2513 10.4657 20.2873 10.4137C20.4083 10.2394 20.357 9.97644 20.1824 9.87566C20.0874 9.8208 19.9554 9.80201 19.8639 9.83029Z" fill="var(--fill-0, #4CC7F4)"/>
</g>
</svg>
