<svg preserveAspectRatio="xMidYMid meet" width="100%" height="100%" overflow="visible" style="display: block;" viewBox="0 0 36 36" fill="none" xmlns="http://www.w3.org/2000/svg">
<g id="accounting-document">
<path id="accounting-document_2" fill-rule="evenodd" clip-rule="evenodd" d="M7.33336 3.90783C6.7392 4.12957 6.12759 4.71229 5.84572 5.32485C5.63718 5.77821 5.6268 6.36509 5.62504 17.8686C5.62362 26.0175 5.6637 30.0843 5.74811 30.391C5.90797 30.9714 6.60681 31.7549 7.21323 32.0334C7.6579 32.2376 8.27245 32.25 18 32.25C27.7276 32.25 28.3421 32.2376 28.7868 32.0334C29.3932 31.7549 30.092 30.9714 30.2519 30.391C30.3348 30.0897 30.3763 27.0524 30.375 21.3761C30.3731 13.0193 30.3674 12.8027 30.1329 12.2813C29.8404 11.631 22.9567 4.59458 22.1261 4.097L21.5956 3.77918L14.6991 3.756C8.8751 3.73626 7.7297 3.75992 7.33336 3.90783ZM19.769 8.80262C19.7694 10.7617 19.8204 12.2866 19.8947 12.5563C20.0546 13.1367 20.7534 13.9202 21.3598 14.1987C21.7806 14.392 22.1966 14.4156 25.2207 14.4179L28.6099 14.4205V22.1543V29.8881L28.3205 30.1799L28.0312 30.4718H18H7.96877L7.67948 30.1799L7.39006 29.8881V17.9875V6.08687L7.67948 5.7951L7.96877 5.5032H13.8686H19.7683L19.769 8.80262ZM24.8965 9.30793L28.1958 12.6371H25.1556H22.1154L21.8261 12.3452L21.5367 12.0534V9.01604C21.5367 7.34552 21.5503 5.97879 21.5669 5.97879C21.5836 5.97879 23.0818 7.47691 24.8965 9.30793ZM12.811 9.28558C12.6595 9.40924 12.5157 9.69626 12.4734 9.9595C12.4079 10.3659 12.3455 10.436 11.9239 10.5778C10.8642 10.9341 10.0915 11.9425 10.0836 12.9794C10.0721 14.4599 11.2403 15.5245 13.1076 15.7358C14.0957 15.8476 14.6664 16.0963 14.8091 16.4777C15.0221 17.0464 14.2915 17.6296 13.3651 17.6303C12.7148 17.6309 12.436 17.5111 11.9028 17.0022C11.2165 16.347 10.2889 16.6565 10.3107 17.5335C10.3185 17.8494 10.4405 18.0399 10.9229 18.4894C11.2542 18.7981 11.7354 19.1143 11.9923 19.1919C12.3911 19.3124 12.4593 19.3813 12.4593 19.6643C12.4593 20.0196 12.8765 20.578 13.1666 20.6112C13.8055 20.6842 14.2276 20.3337 14.2276 19.7303C14.2276 19.3722 14.2725 19.3194 14.6826 19.1955C16.0141 18.7931 16.877 17.4302 16.583 16.1943C16.2914 14.9684 15.1029 14.114 13.5008 13.9786C12.4755 13.8919 11.9459 13.5785 11.8923 13.0271C11.8497 12.5862 12.1626 12.3224 12.9365 12.147C13.5841 12.0001 14.2073 12.1828 14.8197 12.6988C15.3521 13.1474 15.6864 13.2109 16.0741 12.9371C16.8652 12.3782 16.1385 11.0818 14.73 10.5392C14.2977 10.3728 14.2276 10.2974 14.2276 9.9998C14.2276 9.57308 13.7592 9.07014 13.3618 9.07014C13.204 9.07014 12.9562 9.16704 12.811 9.28558ZM17.8232 20.6856C17.1623 20.8567 16.9252 21.7653 17.4229 22.2197C17.6564 22.4327 17.9007 22.4462 21.5367 22.4462C25.1726 22.4462 25.4169 22.4327 25.6504 22.2197C25.9876 21.9118 25.9878 21.1972 25.6506 20.8892C25.4188 20.6775 25.1612 20.6614 21.7308 20.6437C19.7113 20.6332 17.9528 20.6521 17.8232 20.6856ZM11.5582 26.0696C11.2382 26.2023 10.9267 26.6456 10.9267 26.9683C10.9267 27.3213 11.3317 27.714 11.7809 27.7968C11.9919 27.8357 15.1431 27.8515 18.7835 27.832C25.0999 27.7982 25.4138 27.7862 25.6505 27.5701C25.9878 27.2621 25.9878 26.5475 25.6505 26.2396C25.4132 26.023 25.1056 26.012 18.6067 25.989C14.869 25.9756 11.6972 26.012 11.5582 26.0696Z" fill="var(--fill-0, #4CC7F4)"/>
</g>
</svg>
