<svg preserveAspectRatio="none" width="100%" height="100%" overflow="visible" style="display: block;" viewBox="0 0 36 36" fill="none" xmlns="http://www.w3.org/2000/svg">
<g id="Amazon-Web-Service-Cost-Explorer Streamline Ultimate">
<path id="Vector" fill-rule="evenodd" clip-rule="evenodd" d="M7.87207 5.81524C7.65529 5.89264 7.44289 6.10504 7.36549 6.32182C7.3332 6.41239 7.326 7.71469 7.32465 13.7587L7.32307 21.0859L7.07884 21.2129C6.52815 21.4995 6.09367 22.0143 5.90231 22.6069C5.79859 22.9279 5.77372 23.4402 5.84482 23.7923C5.98804 24.5016 6.41835 25.0632 7.10111 25.4314L7.3215 25.5503L7.32994 26.8427C7.3377 28.0242 7.34287 28.1435 7.39125 28.232C7.48159 28.3976 7.65394 28.5655 7.80637 28.6366L7.95262 28.7049H12.2085H16.4644L16.6106 28.6356C17.2595 28.3279 17.2595 27.4158 16.6106 27.1081L16.4644 27.0388L12.7423 27.0386L9.02025 27.0383V26.2822V25.5261L9.14389 25.4706C9.4815 25.3186 9.86119 25.0016 10.092 24.6789C10.3759 24.282 10.5148 23.8418 10.5157 23.3369C10.5164 22.8706 10.437 22.5339 10.2431 22.1812L10.1479 22.0082L10.2666 21.8834C10.3319 21.8148 10.9547 21.1362 11.6506 20.3754C12.5649 19.376 12.9293 18.9963 12.9644 19.0069C13.2735 19.1005 13.8195 19.1161 14.1628 19.0412C14.8782 18.8851 15.5446 18.3151 15.8259 17.6185C15.9485 17.3153 15.9874 17.0602 15.9768 16.6318L15.9672 16.2434L17.4688 15.1925L18.9703 14.1415L19.2113 14.2717C19.5737 14.4676 19.8331 14.5281 20.3107 14.5281C20.7785 14.5281 21.0343 14.4705 21.3868 14.2858C22.0866 13.9189 22.5351 13.2816 22.6637 12.4715L22.68 12.3689L24.2864 11.9676L25.8928 11.5663L26.1072 11.7875C26.4501 12.1413 26.8176 12.355 27.2652 12.4608C27.5552 12.5294 28.1005 12.5216 28.3984 12.4445C29.0587 12.2739 29.6391 11.7933 29.9375 11.1701C30.0851 10.8618 30.1392 10.6473 30.159 10.2926C30.1994 9.56543 29.9781 8.9964 29.4536 8.47912C28.9327 7.96534 28.4069 7.76396 27.6824 7.80097C27.1882 7.82617 26.8926 7.92101 26.5081 8.17774C25.9668 8.53942 25.5783 9.11509 25.4828 9.69727C25.4635 9.81551 25.4441 9.91721 25.44 9.92317C25.4358 9.92902 24.7058 10.1153 23.8178 10.3369L22.2033 10.74L22.0416 10.5652C21.7527 10.2531 21.3573 10.0128 20.9338 9.89156C20.6052 9.79762 20.0144 9.79807 19.6836 9.8928C18.8707 10.1251 18.1911 10.8249 18.0113 11.6144C17.9555 11.8592 17.9405 12.3188 17.9793 12.5895L18.0026 12.7511L16.5639 13.7594C15.7726 14.3141 15.1017 14.7794 15.073 14.7933C15.0365 14.8111 14.9958 14.8012 14.9382 14.7605C14.7954 14.6597 14.5108 14.5273 14.2842 14.4565C14.0976 14.398 14.0042 14.3881 13.6418 14.388C13.1748 14.3878 12.9809 14.4251 12.6545 14.5773C12.1206 14.8261 11.6643 15.2957 11.4393 15.828C11.3109 16.1318 11.2627 16.4395 11.2808 16.8427C11.2986 17.2427 11.3483 17.461 11.4852 17.7407L11.5802 17.9348L10.3076 19.3256L9.03487 20.7164L9.01969 13.574C9.01102 9.47452 8.99336 6.40046 8.97829 6.3585C8.90235 6.147 8.69917 5.92717 8.49375 5.83436C8.33872 5.76416 8.04071 5.75505 7.87207 5.81524ZM27.6099 9.50962C27.5784 9.51761 27.5191 9.54484 27.4782 9.57004C27.2027 9.74036 27.092 9.9972 27.1606 10.3066C27.1899 10.4385 27.2239 10.4956 27.3458 10.6181C27.4663 10.739 27.5246 10.7744 27.647 10.8006C28.1609 10.9108 28.582 10.4575 28.4401 9.94691C28.4005 9.80404 28.227 9.61132 28.0766 9.54281C27.9657 9.4923 27.7409 9.47632 27.6099 9.50962ZM20.0143 11.5881C19.5398 11.8345 19.5203 12.4846 19.9794 12.7544C20.0959 12.8229 20.1544 12.8374 20.313 12.8374C20.4762 12.8374 20.5273 12.8239 20.6487 12.7488C21.1128 12.462 21.0797 11.8038 20.5899 11.5757C20.3874 11.4814 20.2122 11.4851 20.0143 11.5881ZM21.1882 15.7059C21.1481 15.7128 20.9967 15.7329 20.8519 15.7508C20.2665 15.8231 19.5265 16.0601 18.9304 16.3663C17.1727 17.2692 15.9624 18.973 15.6779 20.9449C15.6233 21.323 15.6148 22.1578 15.6615 22.5345C15.9502 24.8617 17.5472 26.8273 19.7588 27.5774C21.5846 28.1964 23.5546 27.9311 25.1628 26.8491L25.4803 26.6355L27.2026 28.3609C29.1125 30.2742 29.0551 30.2259 29.4221 30.2259C29.6692 30.2259 29.8644 30.1447 30.0276 29.9741C30.2894 29.7003 30.3398 29.2688 30.1464 28.9549C30.1066 28.8901 29.3057 28.0671 28.3668 27.126L26.6597 25.4149L26.8365 25.1516C27.3243 24.4257 27.6843 23.4449 27.7973 22.5345C27.8439 22.1583 27.8353 21.3231 27.781 20.9449C27.3991 18.2914 25.365 16.2123 22.7093 15.761C22.4458 15.7162 21.3586 15.6768 21.1882 15.7059ZM13.3639 16.1245C12.9311 16.323 12.828 16.929 13.1769 17.2232C13.4725 17.4725 13.8863 17.4497 14.1314 17.1707C14.2508 17.0345 14.294 16.8902 14.2803 16.6735C14.2711 16.5302 14.2497 16.4657 14.1752 16.3575C13.9989 16.1012 13.6396 15.998 13.3639 16.1245ZM21.0859 17.4299C19.1241 17.7428 17.6525 19.2255 17.3577 21.1859C17.316 21.464 17.3161 22.1416 17.358 22.4202C17.4985 23.3549 17.9018 24.1759 18.5542 24.8552C20.1219 26.4872 22.6636 26.6654 24.4496 25.2682C25.3344 24.5761 25.9078 23.5965 26.0909 22.4645C26.1413 22.1529 26.1465 21.489 26.101 21.1859C25.8574 19.5663 24.7871 18.2321 23.2746 17.6627C22.619 17.416 21.7511 17.3237 21.0859 17.4299ZM7.89412 22.7063C7.48541 22.896 7.36965 23.415 7.66035 23.7546C7.90695 24.0427 8.38102 24.0511 8.64574 23.7723C8.82731 23.581 8.87434 23.2588 8.75644 23.0151C8.60861 22.7099 8.20102 22.5639 7.89412 22.7063Z" fill="var(--fill-0, #4CC7F4)"/>
</g>
</svg>
