<svg preserveAspectRatio="none" width="100%" height="100%" overflow="visible" style="display: block;" viewBox="0 0 45.5026 45.5519" fill="none" xmlns="http://www.w3.org/2000/svg">
<g id="Calendar-Cash Streamline Ultimate">
<path id="Vector" fill-rule="evenodd" clip-rule="evenodd" d="M15.2818 6.79649C15.1613 6.85727 15.0944 6.92432 15.0336 7.04489C14.9507 7.20944 14.9504 7.21613 14.9504 9.03323V10.8564L11.8726 10.8673C9.07109 10.8771 8.77489 10.8839 8.57297 10.9429C7.68112 11.2032 7.05703 11.8664 6.80691 12.82L6.72443 13.1346V24.8671C6.72443 36.0979 6.72728 36.6119 6.79197 36.8878C7.01309 37.8317 7.67515 38.4712 8.72086 38.751C8.97155 38.8181 9.4142 38.8202 22.7698 38.8202C35.9933 38.8202 36.5717 38.8173 36.8479 38.7526C37.7744 38.5351 38.4188 37.8794 38.6929 36.8751L38.7782 36.5625V24.8116V13.0606L38.6947 12.746C38.5808 12.3165 38.4147 12.0061 38.1394 11.7076C37.8792 11.4254 37.5695 11.2149 37.1947 11.0654C36.6816 10.8609 36.6378 10.8584 33.4696 10.8584H30.5522L30.5513 9.03565C30.5506 7.3182 30.5465 7.20389 30.4795 7.05628C30.3646 6.80275 30.0584 6.66296 29.8032 6.74723C29.7344 6.77001 29.6209 6.84759 29.5512 6.91948L29.4245 7.05044L29.4143 8.95437L29.4041 10.8584H22.7513H16.0985L16.0883 8.95479L16.0781 7.05115L15.9671 6.93314C15.8457 6.80403 15.6664 6.71321 15.5325 6.71321C15.4854 6.71321 15.3725 6.75065 15.2818 6.79649ZM8.88723 12.0566C8.50102 12.1631 8.23213 12.3831 8.05595 12.7367C7.85659 13.1367 7.85332 13.1925 7.85261 16.2713L7.85204 19.1119H22.7527H37.6534L37.6427 16.1047L37.6321 13.0976L37.5435 12.8774C37.3818 12.4755 37.0321 12.1915 36.5366 12.0596C36.3726 12.0159 35.8347 12.0066 33.4468 12.0062L30.5556 12.0058L30.5446 13.3474C30.5347 14.5745 30.5278 14.6987 30.4654 14.8018C30.2427 15.1699 29.7018 15.1743 29.4799 14.8096C29.41 14.6952 29.4063 14.6209 29.4062 13.3474L29.4061 12.0058H22.7513H16.0965L16.0964 13.3474C16.0963 14.6209 16.0926 14.6952 16.0227 14.8096C15.8008 15.1743 15.2599 15.1699 15.0372 14.8018C14.9748 14.6987 14.9681 14.5745 14.958 13.3474L14.947 12.0058L12.0003 12.0082C9.7778 12.0102 9.01264 12.022 8.88723 12.0566ZM7.86086 28.4109L7.87053 36.5625L7.95371 36.7833C8.107 37.1901 8.38968 37.4405 8.86419 37.59L9.12754 37.6729H22.8068C36.2484 37.6729 36.4898 37.6716 36.705 37.601C37.115 37.4664 37.3861 37.1762 37.5485 36.6978L37.6321 36.4515L37.6417 28.3554L37.6514 20.2592H22.7512H7.85105L7.86086 28.4109ZM22.6077 23.2577C22.5389 23.2736 22.4247 23.3446 22.354 23.4155C22.2151 23.5545 22.1642 23.724 22.1613 24.0568L22.1598 24.2457L21.8732 24.2701C21.7157 24.2834 21.4951 24.3186 21.3834 24.3482C20.855 24.488 20.2781 24.9146 19.9813 25.3851C19.5422 26.0812 19.4866 27.0302 19.8434 27.7401C20.0901 28.2308 20.4469 28.5999 20.8885 28.8211C20.9925 28.8732 21.7079 29.168 22.4783 29.4762C23.2486 29.7844 23.9752 30.0878 24.0928 30.1502C24.3469 30.2852 24.5023 30.4524 24.6331 30.7316C24.713 30.9023 24.7292 30.99 24.7292 31.2515C24.7292 31.5144 24.7132 31.6004 24.6314 31.775C24.5121 32.0298 24.298 32.2508 24.0373 32.3883L23.8419 32.4913L22.1716 32.5098C20.5497 32.5278 20.4984 32.5306 20.397 32.6058C20.0364 32.8735 20.0348 33.3641 20.3941 33.5833C20.5048 33.6509 20.5815 33.6569 21.3319 33.657L22.1494 33.6572L22.1689 33.9705C22.191 34.3261 22.259 34.4787 22.4538 34.6101C22.6215 34.7232 22.8811 34.7232 23.0488 34.6101C23.2427 34.4792 23.3116 34.3258 23.3334 33.9752L23.3526 33.6667L23.6898 33.6478C24.6225 33.5951 25.466 32.9332 25.7724 32.013C25.8598 31.7504 25.8721 31.6557 25.8725 31.233C25.8732 30.6848 25.815 30.4594 25.5624 30.0301C25.1691 29.3625 24.9674 29.2371 23.0629 28.4762C22.2306 28.1438 21.4866 27.8405 21.4095 27.8022C21.2237 27.7097 20.9929 27.4671 20.8718 27.2371C20.7857 27.0735 20.7736 27.0079 20.7735 26.6991C20.7734 26.3896 20.7856 26.3225 20.8757 26.1387C21.0006 25.8844 21.2442 25.6524 21.5249 25.5207L21.7346 25.4222L23.3815 25.4037C24.8881 25.3868 25.0371 25.3795 25.1302 25.3185C25.4687 25.0961 25.4564 24.6128 25.1056 24.3523C25.0082 24.28 24.9459 24.2742 24.1721 24.2637L23.3428 24.2524L23.3413 24.0601C23.3384 23.7308 23.2878 23.5577 23.1537 23.4192C23.0428 23.3046 22.9908 23.279 22.7883 23.2393C22.7578 23.2333 22.6765 23.2416 22.6077 23.2577Z" fill="var(--fill-0, #4CC7F4)"/>
</g>
</svg>
