<svg preserveAspectRatio="none" width="100%" height="100%" overflow="visible" style="display: block;" viewBox="0 0 36 36" fill="none" xmlns="http://www.w3.org/2000/svg">
<g id="Nc-Content-Sign Streamline Ultimate">
<path id="Vector" fill-rule="evenodd" clip-rule="evenodd" d="M17.3702 4.75132C14.3849 4.88149 11.4966 6.04879 9.23962 8.03711C8.15704 8.991 7.22126 10.132 6.51173 11.3633C5.43398 13.2337 4.8492 15.2413 4.75245 17.4034C4.63815 19.9591 5.23834 22.4269 6.51173 24.6367C8.45269 28.0051 11.8168 30.3699 15.6454 31.0572C17.1531 31.3279 18.8469 31.3279 20.3546 31.0572C24.1822 30.37 27.5488 28.0036 29.4882 24.6367C30.7605 22.4279 31.3572 19.9785 31.2474 17.4141C31.1551 15.2578 30.5675 13.2369 29.4882 11.3633C27.4078 7.7517 23.708 5.3145 19.5616 4.82389C19.2498 4.78699 17.9375 4.71004 17.883 4.72545C17.875 4.7277 17.6443 4.73929 17.3702 4.75132ZM17.3565 6.44917C15.2319 6.55886 13.1294 7.28257 11.3895 8.50286C11.0248 8.75869 10.5516 9.12735 10.4851 9.20745C10.4475 9.25279 10.5639 9.37811 11.7173 10.5356C12.9051 11.7273 12.9945 11.8242 13.0418 11.9699C13.1384 12.2679 13.0651 12.6103 12.8567 12.8326C12.7059 12.9936 12.5423 13.0657 12.2955 13.08C11.888 13.1037 11.9106 13.1209 10.4816 11.6946L9.23726 10.4527L9.14895 10.5481C8.61806 11.1222 7.89694 12.2601 7.47574 13.1884C6.70106 14.8958 6.34961 16.7358 6.44726 18.5726C6.53006 20.1277 6.85778 21.4615 7.50251 22.8673C8.37551 24.7709 9.81866 26.4516 11.6053 27.6453C13.0402 28.6039 14.7962 29.2587 16.5229 29.4788C17.403 29.591 18.597 29.591 19.4771 29.4788C21.6128 29.2066 23.704 28.3011 25.352 26.935L25.5524 26.7689L24.3104 25.5215C23.1528 24.3591 23.0641 24.2626 23.0058 24.1048C22.8898 23.791 22.9446 23.4844 23.1594 23.2455C23.346 23.038 23.5196 22.9597 23.7915 22.9601C23.9432 22.9603 24.047 22.9773 24.1279 23.0149C24.2056 23.051 24.6641 23.4867 25.4922 24.3116C26.2206 25.0371 26.7528 25.5456 26.7717 25.5339C26.8187 25.5049 27.2307 24.9883 27.4383 24.6982C27.998 23.9164 28.4867 22.9909 28.8496 22.0257C29.5871 20.0647 29.7627 17.8228 29.3438 15.7185C29.0131 14.0572 28.2742 12.4024 27.2667 11.0671C26.6325 10.2262 25.7738 9.36754 24.9329 8.73326C23.3817 7.56292 21.4248 6.76946 19.4771 6.52117C19.1477 6.47921 18.0912 6.41261 17.8976 6.42161C17.8494 6.42386 17.6059 6.43624 17.3565 6.44917ZM17.8345 10.4251C17.5742 10.4773 17.3661 10.6395 17.2348 10.8923C17.1711 11.0148 17.1657 11.0635 17.1569 11.5954L17.1475 12.167L16.8937 12.2187C15.8933 12.4227 14.9402 12.9911 14.4034 13.7034C14.1868 13.9908 13.9536 14.4578 13.8717 14.7679C13.7951 15.0581 13.7655 15.6688 13.8152 15.9321C13.9308 16.5431 14.2 17.0594 14.6444 17.5222C15.2647 18.1685 16.109 18.6029 17.0786 18.7747C17.2234 18.8003 17.5985 18.8344 17.9123 18.8505C18.2277 18.8666 18.6003 18.9036 18.746 18.9333C19.5054 19.0879 20.1607 19.5267 20.4099 20.0475C20.493 20.2211 20.5009 20.263 20.5009 20.5301C20.5009 20.7985 20.4931 20.8389 20.4073 21.0203C20.1401 21.5842 19.4046 22.0408 18.5558 22.1695C17.9673 22.2587 17.3606 22.2105 16.884 22.0366C16.4617 21.8825 16.2095 21.7095 15.7916 21.2869C15.3896 20.8804 15.2987 20.821 15.03 20.7894C14.5706 20.7354 14.1098 21.1539 14.1098 21.6251C14.1098 21.9275 14.3022 22.2334 14.7731 22.6789C15.3676 23.2416 16.2372 23.6968 16.9575 23.8221L17.1474 23.8553L17.1569 24.4157C17.1675 25.0425 17.1885 25.1207 17.407 25.3473C17.7125 25.6639 18.2876 25.6639 18.593 25.3473C18.8103 25.1219 18.8319 25.0424 18.8483 24.4088L18.8629 23.8414L19.1555 23.776C20.6499 23.4411 21.791 22.4652 22.13 21.2321C22.223 20.8938 22.2231 20.1679 22.1304 19.8281C22.0446 19.5139 21.8108 19.0479 21.5957 18.7625C21.0548 18.0447 20.0908 17.4777 19.0619 17.2721C18.7395 17.2077 18.5733 17.1908 17.883 17.152C17.1737 17.1121 16.7185 16.9798 16.2506 16.6777C15.9973 16.5141 15.6979 16.1979 15.5925 15.9825C15.5055 15.8047 15.4991 15.7706 15.4991 15.4845C15.4991 15.1977 15.5055 15.1639 15.5955 14.9737C15.6679 14.821 15.7487 14.7152 15.9193 14.5496C16.397 14.0863 17.0259 13.8423 17.8538 13.7992C18.8579 13.7468 19.6768 14.0863 20.2962 14.8119C20.4175 14.9539 20.5461 15.0696 20.6414 15.1224C20.7754 15.1967 20.8227 15.2066 21.042 15.2066C21.2589 15.2066 21.3075 15.1966 21.4223 15.1287C21.7387 14.9413 21.8762 14.7116 21.8746 14.373C21.8737 14.1895 21.8602 14.1293 21.7923 14.0052C21.6735 13.788 21.3438 13.4138 21.0657 13.1803C20.4821 12.6902 19.8488 12.3714 19.1357 12.2085L18.8526 12.1438L18.8432 11.5838C18.8343 11.0643 18.8287 11.0144 18.7653 10.8923C18.5821 10.5392 18.2063 10.3507 17.8345 10.4251Z" fill="var(--fill-0, #4CC7F4)"/>
</g>
</svg>
