<svg preserveAspectRatio="xMidYMid meet" width="100%" height="100%" overflow="visible" style="display: block;" viewBox="0 0 24 24" fill="none" xmlns="http://www.w3.org/2000/svg">
<g id="tools-wench-1" clip-path="url(#clip0_0_12)">
<path id="vector" d="M19.8 0.9C20.0118 1.16675 20.1105 1.30231 20.0736 1.64531C19.7799 2.66173 18.3669 3.63302 17.6232 4.35967C17.4278 4.55082 17.2334 4.74291 17.0391 4.93516C16.9794 4.99298 16.9197 5.05081 16.8582 5.11039C16.4266 5.53926 16.1294 5.92545 16.0625 6.55C16.1136 7.02724 16.241 7.3559 16.6 7.68125C17.0023 7.92013 17.3399 7.93834 17.8 7.9C18.4214 7.60745 18.8414 7.19105 19.3129 6.69883C19.4674 6.54106 19.6219 6.38331 19.7764 6.22559C20.0173 5.9778 20.2578 5.72962 20.4978 5.48093C20.7309 5.23998 20.9656 5.00059 21.2004 4.76133C21.2717 4.68654 21.3429 4.61175 21.4163 4.5347C21.9182 4.02535 21.9182 4.02535 22.3336 3.89656C22.6919 3.90119 22.8282 3.96396 23.1 4.2C24.0359 5.6464 24.1105 7.62777 23.7917 9.27422C23.4976 10.5823 22.9029 11.7042 22 12.7C21.93 12.7781 21.86 12.8562 21.7879 12.9367C20.5496 14.2478 18.854 15.0552 17.0516 15.1285C15.868 15.1553 14.8275 15.0758 13.7 14.7C13.6571 14.7433 13.6142 14.7865 13.57 14.8311C12.5235 15.8864 11.4759 16.9407 10.427 17.9937C9.91981 18.503 9.41297 19.0126 8.90703 19.5231C8.46574 19.9684 8.02373 20.413 7.58087 20.8568C7.34669 21.0915 7.11297 21.3266 6.87989 21.5624C6.6188 21.8264 6.35645 22.0891 6.0938 22.3516C6.01791 22.4289 5.94203 22.5063 5.86384 22.5859C5.04763 23.396 4.28312 23.9099 3.11875 23.925C2.55259 23.9203 2.18705 23.8841 1.7 23.6C1.59894 23.5423 1.49787 23.4845 1.39375 23.425C0.77362 22.95 0.300926 22.3653 0.0999995 21.6C0.000866206 20.7361 0.0396624 19.9494 0.5 19.2C0.665181 19.0029 0.831183 18.8149 1.0071 18.6281C1.05919 18.5723 1.11127 18.5164 1.16493 18.4589C1.83064 17.7522 2.52566 17.0745 3.2189 16.395C3.6392 15.9824 4.05763 15.568 4.47637 15.1539C5.00621 14.6301 5.53661 14.1069 6.06912 13.5857C6.50276 13.1613 6.93444 12.7349 7.36485 12.3072C7.52861 12.1451 7.69309 11.9838 7.85828 11.8232C8.08804 11.5997 8.3152 11.3739 8.54192 11.1473C8.64483 11.049 8.64483 11.049 8.74981 10.9486C8.92406 10.7716 9.07268 10.6132 9.2 10.4C9.21162 10.0231 9.21162 10.0231 9.1 9.7C9.0835 9.62756 9.067 9.55511 9.05 9.48047C9.0335 9.41679 9.017 9.35311 9 9.2875C8.56007 7.30782 8.909 5.32892 9.91406 3.57266C10.2849 3.02882 10.736 2.56468 11.2 2.1C11.2659 2.03297 11.3317 1.96594 11.3996 1.89688C13.4564 -0.0493151 17.3606 -0.706446 19.8 0.9ZM11.6371 3.92124C10.7187 5.11901 10.3144 6.63886 10.4246 8.13399C10.4981 8.68102 10.6163 9.17771 10.8125 9.69375C11.0912 10.427 11.0912 10.427 11 10.8C10.5464 11.4013 9.98636 11.9266 9.45261 12.4556C9.3709 12.537 9.28919 12.6184 9.205 12.7022C9.02893 12.8776 8.85274 13.0529 8.67646 13.228C8.39757 13.5051 8.11904 13.7826 7.84062 14.0602C7.04946 14.849 6.25769 15.6372 5.4655 16.4249C4.97991 16.9078 4.49484 17.3912 4.01005 17.8749C3.82535 18.0589 3.64047 18.2428 3.4554 18.4265C3.19737 18.6826 2.93997 18.9393 2.68269 19.1962C2.60596 19.272 2.52924 19.3479 2.45018 19.426C2.38024 19.4961 2.3103 19.5662 2.23824 19.6384C2.17739 19.6989 2.11654 19.7595 2.05384 19.8218C1.70649 20.2241 1.66146 20.5657 1.675 21.082C1.72564 21.5235 1.93185 21.7402 2.25625 22.025C2.65926 22.3143 3.0099 22.371 3.5 22.3C4.12316 22.0619 4.52329 21.6162 4.98193 21.1505C5.06851 21.0638 5.15508 20.9772 5.24428 20.8878C5.48053 20.651 5.71611 20.4135 5.95142 20.1757C6.19806 19.9268 6.44559 19.6788 6.69305 19.4307C7.16122 18.9611 7.62866 18.4908 8.09581 18.0201C8.93336 17.1764 9.77214 16.3339 10.6112 15.4916C10.9056 15.196 11.1998 14.9 11.4936 14.6038C11.7189 14.3769 11.9444 14.1503 12.1698 13.9236C12.2514 13.8412 12.3329 13.7588 12.417 13.6739C12.4913 13.5993 12.5656 13.5247 12.6421 13.4479C12.7068 13.3827 12.7714 13.3176 12.8381 13.2505C13 13.1 13 13.1 13.2 13C13.7503 13.0271 14.2198 13.1297 14.7438 13.3C16.2196 13.768 17.6601 13.5926 19.0563 12.9313C19.1367 12.8879 19.2171 12.8446 19.3 12.8C18.8644 12.2776 18.4046 11.7952 17.9188 11.3195C17.7685 11.171 17.6182 11.0224 17.468 10.8738C17.234 10.6429 16.9997 10.4122 16.7649 10.1821C16.5364 9.95776 16.3087 9.73247 16.0813 9.50703C16.0119 9.4395 15.9425 9.37197 15.871 9.3024C15.0917 8.52723 14.5128 7.74936 14.4688 6.61875C14.5129 4.99949 15.6072 4.06362 16.6938 3C16.8533 2.84321 17.0127 2.68628 17.1718 2.52905C17.3142 2.38844 17.4571 2.24831 17.6 2.1082C17.8115 1.9361 17.8115 1.9361 17.8 1.8C15.4676 1.22974 13.1747 2.13606 11.6371 3.92124ZM21.8734 6.41997C21.7738 6.52171 21.6743 6.62367 21.575 6.72578C21.4655 6.83701 21.356 6.94821 21.2465 7.05938C21.0741 7.23479 20.902 7.41041 20.7305 7.58662C19.2339 9.12203 19.2339 9.12203 18.4 9.4C18.5514 9.75677 18.7605 9.98371 19.0352 10.2547C19.1202 10.3391 19.2053 10.4236 19.293 10.5105C19.3819 10.5978 19.4709 10.6851 19.5625 10.775C19.6522 10.8638 19.7419 10.9526 19.8344 11.0441C20.0558 11.2632 20.2777 11.4818 20.5 11.7C21.3587 11.294 21.7572 10.3002 22.0977 9.45859C22.4217 8.48056 22.4518 7.20329 22.2 6.2C22.0593 6.18839 22.0593 6.18839 21.8734 6.41997Z" fill="var(--fill-0, #4CC7F4)"/>
</g>
<defs>
<clipPath id="clip0_0_12">
<rect width="24" height="24" fill="white"/>
</clipPath>
</defs>
</svg>
