<svg preserveAspectRatio="none" width="100%" height="100%" overflow="visible" style="display: block;" viewBox="0 0 36 36" fill="none" xmlns="http://www.w3.org/2000/svg">
<g id="Time-Monthly-1 Streamline Ultimate">
<path id="Vector" fill-rule="evenodd" clip-rule="evenodd" d="M10.2282 4.51721C9.9045 4.58111 9.65621 4.833 9.5859 5.16859C9.56509 5.26804 9.54765 5.53612 9.54731 5.7645L9.54675 6.17951L8.07694 6.18964L6.60712 6.19965L6.34984 6.27941C5.43217 6.56347 4.79925 7.2225 4.56615 8.13667L4.50112 8.39137V15.4699V22.5484L4.56615 22.8031C4.78001 23.6419 5.37964 24.3127 6.17254 24.6005C6.61129 24.7598 6.57562 24.7585 10.4404 24.75L14.0074 24.7421L14.1536 24.6643C14.683 24.3826 14.784 23.6897 14.3533 23.2927C14.0971 23.0566 14.4368 23.0767 10.4096 23.0602L6.81187 23.0456L6.68025 22.9773C6.49552 22.8815 6.34432 22.7263 6.26524 22.5515L6.19762 22.4021V15.4699V8.53762L6.26737 8.38316C6.30889 8.29136 6.39495 8.17684 6.47966 8.10067C6.7266 7.87871 6.72019 7.8795 8.22105 7.8795H9.54675L9.54731 8.29631C9.54765 8.52559 9.56509 8.79446 9.5859 8.89391C9.68242 9.35471 10.0959 9.62752 10.5673 9.54169C10.835 9.49297 11.0484 9.32467 11.1728 9.06412C11.2383 8.92699 11.2427 8.88536 11.2429 8.39869L11.2432 7.8795H14.6216H18V8.37157C18 8.94926 18.0281 9.06457 18.2212 9.27934C18.6325 9.73676 19.3603 9.61785 19.6195 9.05096C19.6722 8.93587 19.6819 8.8479 19.6913 8.39869L19.7021 7.8795H21.0292C22.2838 7.8795 22.3645 7.88265 22.5121 7.93789C22.6987 8.00775 22.8977 8.19281 22.9839 8.37675C23.0449 8.50702 23.0457 8.53706 23.0602 11.2579C23.0766 14.3344 23.059 14.0997 23.2927 14.3533C23.6897 14.784 24.3826 14.683 24.6643 14.1536L24.7421 14.0074V11.1555V8.30362L24.6598 8.04037C24.4117 7.2477 23.9023 6.67856 23.1695 6.37515C22.7414 6.19796 22.5772 6.183 21.0556 6.183H19.7021L19.6913 5.66381C19.6819 5.2146 19.6722 5.12662 19.6195 5.01154C19.3603 4.44465 18.6325 4.32574 18.2212 4.78316C18.0281 4.99792 18 5.11324 18 5.69092V6.183H14.6216H11.2432L11.2429 5.66381C11.2427 5.17714 11.2383 5.13551 11.1728 4.99837C11.0464 4.73377 10.8355 4.56997 10.5546 4.518C10.4609 4.50067 10.3768 4.48796 10.3677 4.48976C10.3585 4.49145 10.2958 4.50382 10.2282 4.51721ZM9.89899 11.1297C9.38677 11.2165 8.94679 11.6688 8.87805 12.1792C8.757 13.0788 9.52054 13.7956 10.4008 13.6089C10.731 13.5388 11.0674 13.2892 11.2273 12.9957C11.7398 12.0538 10.9548 10.951 9.89899 11.1297ZM14.4073 11.1264C14.0502 11.1797 13.6617 11.4717 13.4936 11.8129C13.2526 12.3027 13.3428 12.8645 13.7256 13.2574C14.1189 13.6612 14.7142 13.7541 15.2281 13.492C15.408 13.4002 15.6793 13.1148 15.7654 12.9267C15.9924 12.4308 15.8975 11.8727 15.5208 11.4886C15.231 11.1932 14.8313 11.0631 14.4073 11.1264ZM18.9153 11.1262C18.5566 11.1793 18.1641 11.4681 17.994 11.8042C17.8233 12.1414 17.8209 12.5917 17.9882 12.9336C18.0794 13.12 18.3546 13.4077 18.5244 13.4944C18.6873 13.5775 18.9496 13.6417 19.1261 13.6417C19.8863 13.6417 20.49 12.942 20.3737 12.1953C20.2634 11.4866 19.628 11.0207 18.9153 11.1262ZM9.78615 15.0914C9.31792 15.2174 8.9325 15.6593 8.87456 16.1365C8.82337 16.5582 8.95736 16.9393 9.2574 17.2255C9.59299 17.5455 10.0032 17.6457 10.4827 17.5248C10.8561 17.4305 11.2103 17.0821 11.3316 16.6898C11.6256 15.7375 10.7502 14.832 9.78615 15.0914ZM14.2859 15.0927C13.6782 15.2559 13.2756 15.8833 13.3765 16.5096C13.4624 17.0435 13.9084 17.4872 14.4336 17.5616C15.441 17.704 16.1908 16.69 15.7654 15.7608C15.6793 15.5727 15.408 15.2873 15.2281 15.1955C14.9424 15.0497 14.5891 15.0112 14.2859 15.0927ZM23.4112 16.323C22.1317 16.4124 20.8584 16.8333 19.7975 17.5174C18.9087 18.0906 18.0906 18.9087 17.5174 19.7975C15.5837 22.7961 16.01 26.752 18.5389 29.2777C19.7604 30.4976 21.2887 31.2346 23.0602 31.4578C23.4182 31.5029 24.3988 31.5029 24.7567 31.4578C26.5286 31.2345 28.0504 30.4993 29.2749 29.2749C30.4993 28.0504 31.237 26.5232 31.4575 24.7567C31.5024 24.3965 31.5026 23.416 31.4578 23.0602C31.2625 21.5101 30.6855 20.1733 29.7083 19.0073C28.1748 17.1774 25.7816 16.1571 23.4112 16.323ZM23.3235 18.0306C22.6306 18.1062 21.9633 18.2974 21.3429 18.5982C20.6945 18.9125 20.2458 19.2314 19.7386 19.7386C19.2327 20.2446 18.9151 20.691 18.5991 21.34C17.7093 23.168 17.8262 25.2988 18.912 27.0496C19.3621 27.7752 20.0745 28.4775 20.8372 28.9474C21.843 29.5669 23.1585 29.8845 24.3281 29.7901C27.2857 29.5514 29.5514 27.2857 29.7901 24.3281C29.8691 23.3493 29.6683 22.2897 29.2284 21.3637C28.3965 19.6125 26.7247 18.3698 24.8006 18.0726C24.4386 18.0165 23.6559 17.9944 23.3235 18.0306ZM9.68321 19.066C9.38801 19.1874 9.20216 19.3438 9.03127 19.6145C8.91877 19.7926 8.86657 20.004 8.86984 20.2669C8.87445 20.6388 8.98335 20.8954 9.24491 21.1507C9.50287 21.4027 9.76669 21.5091 10.1339 21.5097C10.7005 21.5104 11.2054 21.122 11.3478 20.5758C11.5189 19.9188 11.139 19.2341 10.4949 19.0387C10.2656 18.9692 9.88785 18.9819 9.68321 19.066ZM23.6223 20.1321C23.389 20.2126 23.2104 20.388 23.1193 20.6263C23.0626 20.7748 23.0602 20.8457 23.0602 22.4167C23.0602 23.9948 23.0624 24.0582 23.1203 24.213C23.19 24.3991 23.4298 24.64 23.6085 24.7032C23.6951 24.7339 24.078 24.7421 25.4149 24.7421H27.1114L27.243 24.6738C27.5566 24.511 27.7211 24.2435 27.7225 23.8939C27.7235 23.6385 27.6414 23.4592 27.4407 23.2787C27.2009 23.0633 27.1793 23.0602 25.8938 23.0602H24.7598L24.751 21.8829C24.7422 20.718 24.7413 20.7042 24.6739 20.5674C24.5809 20.3784 24.3498 20.1762 24.1635 20.121C23.9692 20.0631 23.8123 20.0664 23.6223 20.1321Z" fill="var(--fill-0, #4CC7F4)"/>
</g>
</svg>
