<svg preserveAspectRatio="none" width="100%" height="100%" overflow="visible" style="display: block;" viewBox="0 0 45.5026 45.5519" fill="none" xmlns="http://www.w3.org/2000/svg">
<g id="Currency-Dollar Streamline Ultimate">
<path id="Vector" fill-rule="evenodd" clip-rule="evenodd" d="M22.5026 6.79065C22.4136 6.83478 22.3102 6.92631 22.2623 7.00346L22.1783 7.13884L22.1674 8.99864L22.1565 10.8584L21.4095 10.8586C20.6027 10.8587 20.213 10.9037 19.6816 11.0582C18.8278 11.3061 18.1024 11.7416 17.4592 12.3918C15.9133 13.9547 15.5532 16.3948 16.5685 18.4272C17.1688 19.6289 18.1341 20.6145 19.7567 21.6826C20.4022 22.1075 21.0101 22.4644 22.5609 23.3283C24.6014 24.4649 25.2844 24.8908 26.1157 25.5445C26.584 25.9129 27.2258 26.5707 27.5149 26.9787C28.5708 28.469 28.6388 30.3618 27.6876 31.7876C27.1619 32.5757 26.3339 33.1669 25.3939 33.4256L25.025 33.5271L20.6966 33.5459L16.368 33.5646L16.2375 33.6643C15.8936 33.9269 15.9135 34.3598 16.281 34.6102L16.4033 34.6935H19.2799H22.1565L22.1674 36.5533L22.1783 38.4131L22.2629 38.5493C22.3519 38.6927 22.5983 38.8387 22.7513 38.8387C22.9043 38.8387 23.1507 38.6927 23.2397 38.5493L23.3243 38.4131L23.3354 36.5533L23.3467 34.6935L24.0933 34.6933C24.5718 34.6932 24.96 34.6737 25.174 34.639C28.2116 34.1457 30.1061 31.2106 29.3313 28.1981C29.0255 27.0093 28.2954 25.8951 27.2143 24.9676C26.2386 24.1306 25.4146 23.6014 22.9417 22.2236C20.9012 21.087 20.2182 20.6611 19.387 20.0074C18.9186 19.639 18.2768 18.9812 17.9877 18.5732C17.0783 17.2895 16.8921 15.6583 17.5017 14.3126C17.7526 13.7585 18.2215 13.182 18.7442 12.7846C19.0829 12.5272 19.6553 12.251 20.1087 12.1265L20.4776 12.025L24.806 12.0062L29.1346 11.9873L29.2651 11.8876C29.609 11.625 29.5891 11.1921 29.2216 10.9417L29.0993 10.8584H26.223H23.3467L23.3354 8.99864L23.3243 7.13884L23.2397 7.00261C23.15 6.85827 22.904 6.71321 22.7489 6.71321C22.6994 6.71321 22.5886 6.74809 22.5026 6.79065Z" fill="var(--fill-0, #4CC7F4)"/>
</g>
</svg>
