<svg preserveAspectRatio="xMidYMid meet" width="100%" height="100%" overflow="visible" style="display: block;" viewBox="0 0 28.5 28.5" fill="none" xmlns="http://www.w3.org/2000/svg">
<g id="shield-check-1" clip-path="url(#clip0_0_10)">
<g id="vector">
<path d="M14.1684 -0.0445312C14.2888 -0.0444272 14.4092 -0.0443232 14.5332 -0.044216C18.0871 -0.0341051 23.4375 0.229134 26.1691 2.83933C26.7005 3.52113 26.771 4.08891 26.7667 4.92238C26.7675 5.03334 26.7684 5.14429 26.7692 5.25861C26.7714 5.62501 26.7709 5.99136 26.7702 6.35776C26.7708 6.61463 26.7714 6.8715 26.7721 7.12837C26.7732 7.66762 26.7729 8.20685 26.7717 8.7461C26.7704 9.43064 26.7727 10.1151 26.7762 10.7996C26.7784 11.3311 26.7784 11.8625 26.7777 12.3939C26.7777 12.6459 26.7784 12.8978 26.7799 13.1497C26.8032 17.7458 25.2338 21.5069 22.0077 24.7849C20.5647 26.1971 18.821 27.1122 16.9812 27.9062C16.8421 27.9692 16.703 28.0321 16.5596 28.0969C14.8357 28.8067 13.3074 28.6521 11.6102 27.9632C9.55667 27.0829 7.80781 25.9994 6.175 24.4625C6.10474 24.3999 6.03448 24.3373 5.96209 24.2728C3.93603 22.3911 2.62663 19.6406 2.01875 16.9813C1.99783 16.891 1.9769 16.8008 1.95535 16.7079C1.70481 15.4431 1.73992 14.1625 1.73718 12.8788C1.73612 12.6195 1.73503 12.3603 1.73393 12.101C1.73198 11.56 1.73106 11.0191 1.73072 10.4781C1.73008 9.78627 1.72559 9.0945 1.72018 8.40267C1.71664 7.86823 1.71579 7.33381 1.71567 6.79936C1.71517 6.54427 1.7137 6.28918 1.71121 6.0341C1.70801 5.67748 1.70859 5.32105 1.71008 4.96442C1.70831 4.86015 1.70655 4.75587 1.70474 4.64844C1.71542 3.74419 2.05868 3.19066 2.66445 2.53828C4.16578 1.40183 6.46701 0.902562 8.26797 0.504688C8.42696 0.469313 8.42696 0.469313 8.58917 0.433223C10.4504 0.0415867 12.2725 -0.0485383 14.1684 -0.0445312ZM7.24375 2.73125C7.10338 2.76937 6.96301 2.80748 6.81838 2.84675C6.29236 3.00486 5.77781 3.18822 5.26211 3.37695C5.11229 3.43034 5.11229 3.43034 4.95944 3.4848C4.26376 3.72434 4.26376 3.72434 3.68125 4.15625C3.52674 4.59192 3.54659 5.02884 3.54525 5.48685C3.54485 5.57229 3.54445 5.65773 3.54404 5.74576C3.54291 6.02862 3.54268 6.31147 3.54255 6.59434C3.54217 6.79297 3.54177 6.99161 3.54136 7.19025C3.54064 7.60792 3.54043 8.02558 3.5405 8.44325C3.5405 8.86727 3.53969 9.29128 3.53806 9.71529C3.46948 13.8745 3.46948 13.8745 4.275 17.9313C4.31495 18.0586 4.35491 18.186 4.39607 18.3172C5.49142 21.4755 8.01882 24.1172 10.9906 25.5712C13.2568 26.6422 13.2568 26.6422 15.675 26.3625C19.4914 24.8851 22.3124 22.4029 23.9875 18.6438C24.8821 16.3776 24.956 14.0363 24.9616 11.6333C24.962 11.5347 24.9623 11.4361 24.9626 11.3345C24.9644 10.8149 24.9655 10.2952 24.966 9.77557C24.9667 9.24052 24.9696 8.70551 24.9729 8.17047C24.9751 7.75656 24.9757 7.34265 24.9759 6.92874C24.9763 6.73136 24.9772 6.53397 24.9788 6.3366C24.9808 6.06158 24.9806 5.78666 24.9798 5.51164C24.9803 5.35554 24.9807 5.19943 24.9811 5.0386C24.9347 4.6051 24.8402 4.38353 24.5812 4.0375C22.8495 2.70957 20.0106 2.37659 17.9312 2.01875C17.7965 1.99548 17.6618 1.97221 17.523 1.94824C14.0814 1.55577 10.5739 1.77288 7.24375 2.73125Z" fill="var(--fill-0, #4CC7F4)"/>
<path d="M14.725 5.34375C15.0154 5.61743 15.0154 5.61743 15.2 5.9375C15.1931 6.33511 15.1754 6.62444 14.9551 6.96218C14.6001 7.21336 14.2035 7.22658 13.7824 7.28086C12.3144 7.50925 11.0641 8.10314 10.0938 9.2625C9.17429 10.7021 8.88849 12.2474 9.22075 13.9267C9.67115 15.2683 10.5968 16.43 11.8305 17.1297C13.2733 17.7753 14.7635 17.8315 16.2548 17.3445C17.3288 16.8613 18.4678 15.9063 18.9262 14.8076C18.9726 14.6677 19.019 14.5277 19.0668 14.3836C19.6023 12.8164 19.6023 12.8164 19.95 12.4688C20.773 12.3758 20.773 12.3758 21.2043 12.6914C21.5693 13.485 21.2681 14.2774 21.0113 15.0738C20.4091 16.6678 19.2002 18.0696 17.6938 18.8812C15.6322 19.7882 13.4064 19.9227 11.2854 19.1011C9.55806 18.3319 8.19178 16.828 7.48125 15.0812C7.44574 14.9963 7.41022 14.9113 7.37363 14.8238C6.76617 13.0549 6.96264 10.8483 7.75261 9.17715C8.73295 7.40762 10.3332 6.09643 12.2535 5.48477C13.0438 5.28946 13.9207 5.19839 14.725 5.34375Z" fill="var(--fill-0, #4CC7F4)"/>
<path d="M20.9 6.8875C21.1895 7.07305 21.1895 7.07305 21.375 7.3625C21.4566 7.74844 21.4566 7.74844 21.375 8.19375C20.8073 8.99565 20.0282 9.67838 19.3363 10.3711C19.2215 10.4864 19.1067 10.6016 18.9918 10.7168C18.753 10.9563 18.514 11.1956 18.2748 11.4347C17.9687 11.7408 17.6635 12.0476 17.3585 12.3547C17.1224 12.5921 16.8858 12.8289 16.6491 13.0656C16.4817 13.2332 16.3148 13.4014 16.1479 13.5696C16.046 13.6711 15.9441 13.7726 15.8391 13.8772C15.7499 13.9667 15.6606 14.0561 15.5686 14.1482C15.1503 14.5174 14.8199 14.6421 14.2648 14.6508C14.1672 14.6541 14.0695 14.6575 13.9689 14.661C13.1636 14.52 12.5801 13.8111 12.0234 13.2555C11.9038 13.1402 11.9038 13.1402 11.7818 13.0226C11.3493 12.5927 11.0409 12.2577 10.925 11.6375C11.0398 11.1783 11.1171 11.074 11.5187 10.8063C11.9408 10.7318 12.2212 10.7207 12.5861 10.963C12.8351 11.1787 13.0684 11.4032 13.3 11.6375C13.3808 11.7168 13.4616 11.7961 13.5449 11.8778C13.7424 12.0729 13.9377 12.2698 14.1313 12.4688C14.5498 12.2902 14.8171 12.0486 15.136 11.7265C15.2399 11.6223 15.3437 11.5181 15.4506 11.4108C15.5628 11.2969 15.675 11.1831 15.7873 11.0693C15.9031 10.9527 16.019 10.8362 16.135 10.7197C16.4395 10.4136 16.7434 10.1067 17.0471 9.79975C17.5339 9.30781 18.0216 8.81668 18.5096 8.32592C18.68 8.15431 18.8499 7.9823 19.0199 7.81025C19.1229 7.70641 19.226 7.60258 19.3322 7.4956C19.423 7.40376 19.5139 7.31192 19.6075 7.21729C20.0192 6.82896 20.3435 6.83952 20.9 6.8875Z" fill="var(--fill-0, #4CC7F4)"/>
</g>
</g>
<defs>
<clipPath id="clip0_0_10">
<rect width="28.5" height="28.5" fill="white"/>
</clipPath>
</defs>
</svg>
