<svg preserveAspectRatio="none" width="100%" height="100%" overflow="visible" style="display: block;" viewBox="0 0 45.5026 45.5519" fill="none" xmlns="http://www.w3.org/2000/svg">
<g id="Baseline-Chart Streamline Ultimate">
<path id="Vector" fill-rule="evenodd" clip-rule="evenodd" d="M37.7367 8.67636C37.6723 8.69002 37.5775 8.73273 37.526 8.7713C37.4745 8.80974 35.8487 10.9981 33.9132 13.6343C31.9777 16.2704 30.3076 18.5294 30.2019 18.6542C29.9677 18.9311 29.6184 19.247 29.3459 19.4279C28.6143 19.9142 27.5953 20.1708 26.7609 20.0793C26.5586 20.0571 24.8457 19.7214 22.9546 19.3337C21.0636 18.9458 19.3666 18.6041 19.1836 18.5742C18.7535 18.5042 17.9826 18.5049 17.5454 18.5759C16.7849 18.6993 15.8914 19.0779 15.2832 19.5339C14.6599 20.0013 14.523 20.1758 10.7504 25.3112C8.7766 27.9982 7.1422 30.2331 7.1186 30.2775C7.04778 30.4107 7.06627 30.6907 7.15528 30.8351C7.23961 30.9716 7.47139 31.1018 7.63022 31.1018C7.68098 31.1018 7.78933 31.0715 7.87067 31.0345C8.00234 30.9746 8.41741 30.424 11.6026 26.085C14.6952 21.8723 15.2375 21.152 15.5583 20.8312C16.0994 20.2901 16.6461 19.9786 17.4153 19.7732C17.7779 19.6766 18.5975 19.6383 18.9665 19.7011C19.1063 19.7248 20.7596 20.0582 22.6404 20.442C24.5214 20.8258 26.1684 21.1573 26.3005 21.1789C26.7787 21.2568 27.231 21.2665 27.7054 21.2088C29.0152 21.0498 30.1569 20.4532 31.0086 19.4826C31.1929 19.2726 38.3069 9.60875 38.384 9.46369C38.4504 9.33871 38.4356 9.07807 38.3546 8.94511C38.2275 8.73629 37.9741 8.62597 37.7367 8.67636ZM7.37085 35.2062C6.97057 35.419 6.97057 36.0035 7.37085 36.2163C7.49001 36.2798 7.61017 36.2849 8.97965 36.2849C10.3491 36.2849 10.4693 36.2798 10.5885 36.2163C10.9887 36.0035 10.9887 35.419 10.5885 35.2062C10.4693 35.1427 10.3491 35.1376 8.97965 35.1376C7.61017 35.1376 7.49001 35.1427 7.37085 35.2062ZM14.2334 35.2209C13.8592 35.4373 13.8575 35.9762 14.2304 36.1948L14.3879 36.2874L15.905 36.2768C17.3712 36.2667 17.4256 36.2639 17.5242 36.1901C17.713 36.0489 17.7762 35.9291 17.7762 35.7113C17.7762 35.4935 17.713 35.3736 17.5242 35.2324C17.4255 35.1587 17.3722 35.1558 15.8997 35.1469C14.38 35.1375 14.3771 35.1376 14.2334 35.2209ZM21.1242 35.2209C20.9198 35.3601 20.8473 35.4885 20.8473 35.7113C20.8473 35.9254 20.913 36.0491 21.1018 36.1901C21.2011 36.2643 21.2462 36.2664 22.7513 36.2664C24.2564 36.2664 24.3015 36.2643 24.4008 36.1901C24.5896 36.0491 24.6553 35.9254 24.6553 35.7113C24.6553 35.4885 24.5828 35.3601 24.3784 35.2209C24.2566 35.1379 24.251 35.1376 22.7513 35.1376C21.2516 35.1376 21.246 35.1379 21.1242 35.2209ZM28.0548 35.1897C27.5975 35.3891 27.6179 36.0683 28.0868 36.2455C28.1539 36.271 28.7103 36.2849 29.6548 36.2849H31.1187L31.2742 36.1937C31.6451 35.9762 31.6422 35.4355 31.2692 35.2214C31.1266 35.1397 31.1098 35.1389 29.6464 35.1397C28.4996 35.1403 28.1422 35.1516 28.0548 35.1897ZM34.9141 35.2062C34.7195 35.3097 34.619 35.4817 34.619 35.7113C34.619 35.9409 34.7195 36.1128 34.9141 36.2163C35.0333 36.2798 35.1535 36.2849 36.5229 36.2849C38.173 36.2849 38.1664 36.2859 38.3438 36.0259C38.5248 35.7604 38.4213 35.3601 38.1318 35.2062C38.0126 35.1427 37.8924 35.1376 36.5229 35.1376C35.1535 35.1376 35.0333 35.1427 34.9141 35.2062Z" fill="var(--fill-0, #4CC7F4)"/>
</g>
</svg>
