<svg preserveAspectRatio="none" width="100%" height="100%" overflow="visible" style="display: block;" viewBox="0 0 798.374 478" fill="none" xmlns="http://www.w3.org/2000/svg">
<g id="vectors">
<g id="vectors_2">
<mask id="path-1-inside-1_0_17" fill="white">
<path d="M70.9486 49.1797C64.7414 56.7308 57.0533 60.8703 47.4328 61.3984C32.7085 62.2067 18.6197 50.4308 16.1024 35.9159C13.2896 19.6975 25.2398 0.525382 45.9849 0.00852728C60.5748 -0.354972 73.9684 10.9476 76.5343 25.3434C76.7653 26.6397 76.9848 27.938 77.2826 29.6567C78.6326 29.6567 79.9136 29.6566 81.1946 29.6568C104.922 29.6604 128.649 29.7265 152.376 29.6173C157.358 29.5944 161.244 31.2794 164.739 34.7798C180.409 50.4768 196.196 66.0577 211.942 81.6788C217.738 87.4284 223.535 93.1763 229.34 98.9166C230.194 99.7612 231.095 100.559 231.877 101.287C235.819 100.303 235.819 100.303 239.155 101.812C240.531 100.574 241.952 99.296 243.516 97.8893C244.441 99.5634 243.277 100.043 242.694 100.684C241.377 102.131 240.054 103.28 240.558 105.772C241.073 108.315 237.934 111.076 235.297 111.057C232.443 111.035 229.825 108.254 230.039 105.368C230.102 104.51 230.452 103.674 230.711 102.674C230.182 102.059 229.659 101.359 229.045 100.75C216.829 88.6195 204.605 76.4975 192.378 64.3791C182.581 54.6697 172.754 44.9897 162.991 35.2464C160.436 32.697 157.55 31.2892 153.877 31.2977C129.268 31.3545 104.657 31.349 80.0473 31.3724C79.2856 31.3732 78.5239 31.4681 77.3407 31.5473C76.7079 37.8521 74.8239 43.7765 70.9486 49.1797ZM35.7614 57.8206C41.1169 60.1705 46.8534 60.2099 52.3586 59.386C55.8942 58.8568 59.3871 56.8366 62.4937 54.8505C77.7209 45.1158 79.7955 23.375 66.888 10.2809C54.9676 -1.81189 35.4903 -1.08705 24.4949 11.5682C11.9239 26.0369 16.1091 49.7346 35.7614 57.8206ZM238.016 103.299C237.457 102.962 236.938 102.49 236.333 102.315C234.849 101.884 233.489 102.249 232.494 103.457C231.504 104.659 231.367 106.024 232.055 107.452C232.767 108.932 234.025 109.426 235.558 109.388C238.468 109.317 239.523 107.156 238.016 103.299Z"/>
<path d="M719.769 136.44C715.075 136.752 710.839 135.212 706.949 132.855C700.128 128.722 695.678 122.759 693.989 114.868C693.714 113.583 693.46 112.294 693.155 110.806C691.528 110.806 689.91 110.807 688.293 110.806C680.791 110.802 673.289 110.879 665.79 110.762C661.606 110.697 658.47 112.244 655.751 115.453C650.334 121.846 644.647 128.009 639.076 134.271C638.494 134.925 637.939 135.603 637.296 136.358C638.411 139.277 639.077 142.174 635.931 144.323C633.903 145.708 631.719 145.575 629.822 144.012C627.699 142.263 627.447 140.242 628.965 136.312C624.854 129.165 620.242 122.171 615.056 115.607C609.797 108.951 604.387 102.382 598.612 96.176C592.974 90.1177 586.791 84.5666 580.848 78.7928C580.976 78.6129 581.104 78.4329 581.232 78.2529C581.829 78.5579 582.518 78.7575 583.01 79.1833C596.923 91.2066 609.375 104.57 619.91 119.668C623.064 124.188 626.057 128.821 629.133 133.395C629.497 133.935 629.925 134.433 630.263 134.872C632.209 134.872 634.028 134.872 636.364 134.872C639.556 131.362 643.119 127.47 646.65 123.549C649.676 120.189 652.685 116.813 655.663 113.411C658.227 110.482 661.439 109.14 665.306 109.152C673.469 109.177 681.632 109.151 689.795 109.146C690.875 109.146 691.954 109.146 693.172 109.146C693.799 99.9524 697.303 92.4693 704.422 86.9345C709.659 82.8627 715.661 81.019 722.311 81.1934C736.843 81.5745 748.321 94.7383 748.771 108.074C749.258 122.494 738.457 134.652 725.312 136.162C725.038 135.655 725.035 135.38 725.258 135.001C726.127 134.736 726.77 134.581 727.411 134.415C738.809 131.457 746.435 122.225 747.052 110.639C747.68 98.8532 740.792 88.3097 729.83 84.2769C717.241 79.6453 702.756 85.9644 697.298 98.4698C692.203 110.141 696.129 124.076 706.426 130.737C710.48 133.36 714.976 134.78 719.755 135.54C719.762 135.96 719.766 136.2 719.769 136.44ZM633.766 136.26C633.113 136.325 632.409 136.257 631.815 136.48C629.993 137.165 629.197 138.758 629.565 140.736C629.89 142.485 631.231 143.588 633.072 143.618C634.915 143.648 636.49 142.381 636.788 140.508C637.113 138.466 636.136 137.136 633.766 136.26Z"/>
<path d="M757.44 370.43C764.864 366.782 772.531 365.63 780.392 368.743C791.395 373.099 797.699 381.394 798.325 393.101C798.942 404.638 793.77 413.488 783.421 419.083C768.012 427.415 748.237 418.052 744.187 400.69C743.941 399.635 743.688 398.581 743.366 397.224C742.117 397.224 740.926 397.224 739.735 397.224C703.566 397.216 667.397 397.217 631.228 397.172C629.26 397.17 627.79 397.524 626.397 399.18C624.328 401.639 622.164 401.47 618.16 398.985C617.668 398.474 617.449 398.17 617.183 397.604C617.075 396.449 617.014 395.557 616.996 394.507C617.04 394.35 617.091 394.027 617.233 393.954C617.589 393.766 617.687 393.589 617.766 393.178C618.3 392.544 618.74 392.08 619.421 391.513C621.649 390.317 623.648 390.23 625.725 391.497C625.983 391.769 626.178 391.88 626.473 392.109C626.709 392.387 626.863 392.523 627.134 392.884C627.577 393.905 627.923 394.68 628.232 395.369C637.293 396.101 740.71 395.77 743.42 394.976C743.468 394.494 743.544 393.96 743.569 393.424C743.918 386.011 747.023 379.864 752.16 374.638C752.692 374.097 753.139 373.473 753.589 372.896C753.554 372.905 753.622 372.93 753.834 372.889C754.587 372.37 755.127 371.894 755.836 371.375C756.483 371.031 756.961 370.731 757.44 370.43ZM792.91 408.445C793.825 406.324 795.004 404.276 795.611 402.071C798.28 392.384 796.446 383.587 789.354 376.368C782.256 369.142 773.425 366.973 763.764 369.712C751.154 373.288 744.083 384.936 745.414 397.647C746.769 410.579 757.418 420.017 769.774 420.403C779.458 420.705 787.087 416.796 792.91 408.445ZM619.037 396.192C619.533 397.012 619.865 398.03 620.56 398.612C622.071 399.876 624.368 399.484 625.565 397.968C626.779 396.431 626.611 394.257 625.171 392.874C623.742 391.5 621.538 391.484 620.173 393.041C619.573 393.726 619.387 394.774 619.037 396.192Z"/>
<path d="M117.802 218.381C114.473 216.204 113.349 213.337 115.277 209.5C111.262 205.456 107.313 201.476 103.362 197.499C101.652 195.778 99.9177 194.08 98.2276 192.34C96.3681 190.426 94.0917 189.308 91.4656 189.292C81.3213 189.232 71.1764 189.283 61.0317 189.309C60.722 189.309 60.4126 189.485 60.1202 189.573C58.0936 207.824 43.513 216.802 29.8185 215.155C17.9566 213.729 7.60127 202.403 7.08624 189.969C6.52074 176.316 16.1167 164.419 29.7937 162.03C37.6197 160.663 44.4228 163.268 50.2905 168.281C56.0696 173.218 59.0423 179.769 59.9633 187.599C61.255 187.599 62.3305 187.597 63.4059 187.6C72.0075 187.621 80.6108 187.754 89.2101 187.622C93.8368 187.551 97.458 189.107 100.626 192.497C105.216 197.408 110.102 202.044 114.85 206.809C115.731 207.693 116.488 208.286 117.99 207.893C121.133 207.072 123.802 208.71 124.67 211.618C125.393 214.042 123.923 216.697 121.141 217.932C120.642 218.154 120.087 218.248 119.12 218.477C118.388 218.496 118.095 218.439 117.802 218.381ZM17.4067 207.862C17.9322 208.264 18.4454 208.683 18.9848 209.065C32.9709 218.979 51.9501 212.486 56.9147 196.092C60.313 184.87 55.6207 172.585 45.7426 166.84C35.6416 160.967 23.2528 162.789 15.2724 171.543C5.70551 182.037 6.81961 198.479 17.4067 207.862ZM121.915 215.959C122.319 215.443 122.841 214.98 123.105 214.4C123.837 212.791 123.375 211.127 121.993 209.957C120.78 208.931 118.978 208.78 117.685 209.596C116.207 210.527 115.443 212.328 115.875 213.862C116.321 215.446 117.822 216.641 119.547 216.652C120.189 216.656 120.833 216.395 121.915 215.959Z"/>
<path d="M38.2187 383.474C30.695 385.44 23.3886 385.044 16.3175 381.588C0.0375905 373.632 -5.05639 353.227 5.59463 338.528C15.2777 325.164 33.088 322.044 46.3126 331.642C53.7442 337.036 57.864 344.523 58.666 353.744C58.7136 354.29 58.7476 354.838 58.7972 355.385C58.807 355.492 58.8598 355.596 58.9724 355.955C79.9129 355.955 100.935 355.955 121.968 355.955C124.312 354.275 123.951 351.816 123.96 349.239C124.46 350.006 124.959 350.774 125.561 351.699C125.985 351.723 126.522 351.814 127.048 351.773C129.553 351.58 131.313 352.69 132.387 354.88C133.501 357.149 132.917 359.17 131.251 360.941C130.876 361.338 130.413 361.652 129.588 362.176C128.455 362.476 127.724 362.605 126.992 362.734C126.025 362.164 125.057 361.594 123.832 360.758C123.205 359.977 122.836 359.463 122.411 358.716C122.09 358.333 121.826 358.182 121.291 357.95C119.724 357.876 118.427 357.886 117.13 357.896C99.2053 357.843 81.2809 357.791 62.7908 357.73C61.0735 357.889 59.9219 358.058 58.6767 358.391C58.5905 358.683 58.5979 358.809 58.5415 359.163C58.3549 360.326 58.2322 361.261 58.1095 362.196C55.8776 369.366 52.032 375.398 45.4042 379.953C42.7737 381.284 40.4962 382.379 38.2187 383.474ZM56.945 357.126C56.9377 356.355 56.945 355.583 56.9209 354.812C56.4706 340.41 45.5751 328.79 31.5613 327.76C17.2443 326.709 4.37458 336.878 2.01601 351.107C0.151597 362.354 4.91298 372.879 14.5792 378.877C24.2523 384.879 36.3202 384.539 45.4052 378.047C52.393 373.054 56.1212 366.239 56.945 357.126ZM126.355 360.737C127.002 360.79 127.672 360.975 128.294 360.872C130.534 360.504 131.927 358.38 131.371 356.31C130.759 354.029 128.403 352.838 126.214 353.702C124.195 354.498 123.328 356.801 124.383 358.854C124.714 359.498 125.374 359.974 126.355 360.737Z"/>
<path d="M398.5 23.2677C402.549 22.8281 406.589 22.221 410.65 21.9804C422.333 21.2884 434.003 21.4492 445.694 22.2759C472.144 24.1464 497.462 30.6382 521.843 40.8024C530.172 44.2747 538.102 48.7081 546.199 52.7321C546.712 52.9871 547.096 53.5006 547.757 54.0854C546.06 54.8749 545.165 53.8081 544.192 53.3411C536.238 49.5266 528.462 45.2956 520.338 41.8944C501.443 33.9843 481.835 28.4827 461.513 25.6105C449.036 23.8469 436.499 22.9176 423.911 23.1709C415.646 23.3372 407.391 24.0277 398.825 24.2596C398.512 23.7798 398.506 23.5238 398.5 23.2677Z"/>
<path d="M652.103 182.716C657.232 198.054 660.931 213.478 663.16 229.227C664.861 241.245 665.75 253.34 665.471 265.495C665.453 266.297 665.249 267.094 665.023 268.623C664.336 267.594 663.892 267.222 663.85 266.809C663.728 265.607 663.741 264.389 663.746 263.177C663.851 238.406 660.121 214.2 652.901 190.532C649.101 178.075 644.438 165.936 638.723 154.216C638.279 153.305 637.954 152.335 637.316 150.755C640.425 152.829 644.745 162.476 652.103 182.716Z"/>
<path d="M394.568 24.894C390.446 25.593 386.327 26.3075 382.202 26.988C365.828 29.6899 349.969 34.2608 334.473 40.1446C332.309 40.9659 330.184 41.8859 328.017 42.6956C327.588 42.8556 327.049 42.7187 326.473 42.7187C326.664 41.0941 327.975 41.0214 328.898 40.6467C339.531 36.3321 350.354 32.5791 361.489 29.7655C372.185 27.063 382.943 24.7002 394.255 23.9209C394.557 24.3849 394.563 24.6395 394.568 24.894Z"/>
<path d="M223.332 122.795C213.41 136.131 205.244 150.215 198.651 165.216C198.253 166.121 198.127 167.442 196.57 167.313C197.31 159.688 220.694 120.556 226.602 117.286C226.272 119.657 224.435 120.892 223.332 122.795Z"/>
<path d="M666.674 275.282C669.11 277.595 669.614 279.222 668.684 281.181C667.741 283.164 665.449 284.405 663.559 283.956C661.264 283.41 659.605 281.358 659.721 279.207C659.846 276.882 661.822 274.842 664.22 274.715C664.954 274.676 665.707 274.995 666.674 275.282Z"/>
<path d="M313.99 49.191C311.471 50.4194 309.162 51.5476 306.531 52.8324C307.174 50.4025 311.847 47.7759 315.881 47.4209C315.076 48.2202 314.638 48.6555 313.99 49.191Z"/>
<path d="M258.02 84.0634C258.709 83.6548 259.232 83.3922 259.967 83.0234C259.366 85.2804 256.034 88.4228 252.68 90.1564C252.743 88.5144 252.743 88.5144 258.02 84.0634Z"/>
<path d="M275.506 72.3034C273.467 73.6106 272.008 75.4532 269.563 76.0179C270.276 73.8071 274.231 70.7503 277.447 69.7979C277.744 71.2925 276.363 71.4866 275.506 72.3034Z"/>
<path d="M295.054 59.3707C292.425 60.7901 290.289 62.6872 287.184 63.644C288.433 61.3 292.391 58.6989 295.807 57.7939C295.571 58.4081 295.41 58.8263 295.054 59.3707Z"/>
<path d="M116.273 328.355C116.018 325.906 114.401 323.884 115.393 321.169C115.981 321.679 116.651 321.972 116.771 322.414C117.358 324.589 117.823 326.798 118.265 329.008C118.332 329.343 118.049 329.748 117.753 330.658C117.098 329.705 116.719 329.153 116.273 328.355Z"/>
<path d="M226.5 155.5C228.014 156.216 227 155.5 227.548 155.998C225.168 160.267 225.168 160.267 224.115 160.566C224 160.5 224 160.5 224 160C224 159.5 226.115 155.472 226.5 155.5Z"/>
<path d="M114.13 311.667C115.223 314.256 115.586 317.195 115.151 319.074C114.765 318.791 114.226 318.603 114.167 318.317C113.756 316.324 113.415 314.314 113.142 312.298C113.112 312.077 113.654 311.779 114.13 311.667Z"/>
<path d="M117.816 334.359C117.865 333.651 117.974 333.184 118.112 332.592C120.005 334.244 120.755 336.352 120.452 339.001C118.19 338.287 118.665 336.055 117.816 334.359Z"/>
<path d="M252.816 120.456C253.791 117.615 255.741 115.63 258.489 113.516C257.794 116.123 255.737 118.658 253.034 120.431C252.808 120.448 252.816 120.456 252.816 120.456Z"/>
<path d="M112.684 308.658C112.658 306.198 111.015 303.974 112.168 301.496C113.918 303.497 114.327 306.849 113.185 308.836C113.157 308.884 112.978 308.846 112.684 308.658Z"/>
<path d="M272.918 100.432C274.495 98.1749 276.33 96.4549 279.133 95.3799C277.548 98.0524 274.744 100.347 272.918 100.432Z"/>
<path d="M112.119 288.951C111.994 289.56 111.866 289.932 111.604 290.691C110.366 288.678 110.454 287.018 110.952 284.96C112.549 286.133 111.847 287.563 112.119 288.951Z"/>
<path d="M457.036 49.4437C455.994 49.1055 455.213 48.8084 453.754 48.2535C456.363 47.4404 458.166 47.1549 460.012 48.7123C459.237 49.9595 458.173 49.3885 457.036 49.4437Z"/>
<path d="M299.721 450.237C298.529 449.328 296.677 449.406 296.625 447.144C298.814 447.703 300.668 448.211 301.798 450.823C300.882 450.584 300.404 450.459 299.721 450.237Z"/>
<path d="M267.963 428.839C266.412 427.522 264.308 426.988 263.57 424.887C266.037 424.945 267.891 426.598 267.963 428.839Z"/>
<path d="M112.025 269.956C112.219 271.69 112.957 273.365 111.125 274.686C109.867 273.105 110.246 271.5 110.757 269.926C110.81 269.762 111.479 269.799 112.025 269.956Z"/>
<path d="M438.494 45.7285C440.009 45.9593 441.272 46.2192 443.06 46.587C440.902 48.2815 439.112 47.218 437.18 47.019C437.534 46.5985 437.889 46.1781 438.494 45.7285Z"/>
<path d="M409.282 478C408.48 477.729 407.93 477.465 407.067 477.05C408.928 475.684 410.489 476.084 412.309 476.555C411.709 478.125 410.581 477.986 409.282 478Z"/>
<path d="M113.067 257.465C112.795 258.334 112.533 258.93 112.159 259.78C110.702 257.202 110.768 256.611 112.828 254.138C112.93 255.403 113.003 256.298 113.067 257.465Z"/>
<path d="M286.148 91.3471C285.613 91.5041 285.253 91.538 284.578 91.6016C285.637 89.1846 287.663 88.6047 289.421 87.6465C289.282 89.6418 287.599 90.2548 286.148 91.3471Z"/>
<path d="M413.576 47.3489C412.618 46.6192 412.369 45.9052 413.576 45.7245C414.802 45.5409 416.078 45.6839 417.694 45.6839C416.781 48.0595 415.151 47.3903 413.576 47.3489Z"/>
<path d="M385.122 476.537C384.757 476.014 384.628 475.582 384.5 475.15C386.071 474.794 387.657 474.358 389.057 476.003C387.905 477.318 386.547 476.522 385.122 476.537Z"/>
<path d="M373.388 50.8005C374.737 50.5746 375.84 50.4104 377.377 50.1816C376.262 53.1472 373.843 51.464 372.758 52.8871C371.822 51.5904 372.296 51.1536 373.388 50.8005Z"/>
<path d="M390.11 47.6621C391.205 47.7077 392.04 47.7623 392.99 47.8245C391.759 49.7239 391.759 49.7239 388.34 49.2185C388.069 47.9486 389.006 47.8547 390.11 47.6621Z"/>
<path d="M621.061 211.157C621.239 212.29 621.396 213.175 621.553 214.06C619.69 212.738 619.183 211.017 619.281 208.908C620.87 208.93 620.943 209.929 621.061 211.157Z"/>
<path d="M252.812 120.444C251.974 122.401 251.257 124.469 248.383 125.151C248.968 122.611 250.723 121.601 252.596 120.479C252.824 120.456 252.816 120.448 252.812 120.444Z"/>
<path d="M397.482 47.0174C398.904 46.7995 400.079 46.631 401.264 46.4609C401.32 48.2072 401.32 48.2072 396.539 48.3926C396.818 47.8604 397.025 47.4636 397.482 47.0174Z"/>
<path d="M112.113 251.835C112.363 250.074 111.568 248.034 113.817 246.76C114.18 248.659 113.789 250.186 113.389 251.686C113.337 251.881 112.669 251.912 112.113 251.835Z"/>
<path d="M274.368 431.982C274.951 432.624 275.516 433.33 274.496 433.551C273.226 433.826 271.426 432.012 270.84 429.715C272.191 430.575 273.189 431.21 274.368 431.982Z"/>
<path d="M384.432 50.2475C382.969 50.5421 381.724 50.7159 380.195 50.9291C381.37 48.7666 383.507 48.3231 384.902 49.5857C384.945 49.6249 384.739 49.94 384.432 50.2475Z"/>
<path d="M249.325 411.756C247.918 410.577 246.728 409.364 245.16 407.767C248.104 408.224 249.363 409.534 249.325 411.756Z"/>
<path d="M279.679 437.854C278.546 436.948 277.614 436.139 276.379 435.069C279.132 434.991 279.588 435.299 281.15 438.035C280.63 438.001 280.255 437.976 279.679 437.854Z"/>
<path d="M114.798 240.138C114.747 241.781 114.54 243.219 114.267 245.12C112.466 242.492 112.684 241.136 114.798 240.138Z"/>
<path d="M319.491 69.2957C320.255 69.1641 320.808 69.1338 321.362 69.1035C321.445 69.3331 321.529 69.5627 321.612 69.7922C320.315 70.5469 319.017 71.3016 317.507 72.1795C316.857 70.0286 318.444 69.9905 319.491 69.2957Z"/>
<path d="M329.415 66.5082C328.802 66.6079 328.404 66.608 327.766 66.608C328.465 64.4176 330.299 64.3859 331.91 63.5898C332.452 65.8594 330.551 65.7248 329.415 66.5082Z"/>
<path d="M111.039 294.983C111.401 294.584 111.726 294.456 112.05 294.327C112.531 295.903 113.46 297.442 112.464 299.347C110.196 298.5 111.364 296.593 111.039 294.983Z"/>
<path d="M233.088 146.967C232.653 147.215 232.367 147.293 231.719 147.471C232.327 145.171 233.285 143.532 235.044 142.447C235.267 142.582 235.489 142.718 235.712 142.853C234.887 144.168 234.062 145.482 233.088 146.967Z"/>
<path d="M447.542 46.3477C448.714 46.6594 449.634 46.9549 451.051 47.4101C448.903 48.6039 447.36 48.5293 445.441 47.0841C446.263 46.7495 446.777 46.5405 447.542 46.3477Z"/>
<path d="M116.795 225.796C117.186 227.441 117.285 228.984 115.961 230.62C115.112 228.61 115.88 227.166 116.795 225.796Z"/>
<path d="M623.086 227.14C623.173 226.417 623.271 225.941 623.519 224.74C624.612 226.858 625.404 228.245 624.533 230.287C623.37 229.466 623.149 228.472 623.086 227.14Z"/>
<path d="M241.649 134.151C241.043 131.882 243.102 131.297 244.127 129.703C244.589 131.748 244.589 131.748 241.649 134.151Z"/>
<path d="M336.956 61.629C337.852 61.4351 338.525 61.309 339.614 61.1045C338.586 63.2078 336.908 63.3503 335.403 64.0403C334.536 62.3218 335.943 62.1946 336.956 61.629Z"/>
<path d="M360.998 55.2496C359.623 55.6989 358.432 55.9921 356.938 56.3604C357.899 54.3382 359.936 53.4703 361.252 54.2062C361.36 54.2671 361.212 54.7869 360.998 55.2496Z"/>
<path d="M263.909 109.746C262.817 110.77 261.879 111.632 260.625 112.783C260.972 110.271 261.661 109.491 264.684 107.978C264.397 108.72 264.229 109.153 263.909 109.746Z"/>
<path d="M349.574 58.0067C350.573 56.1212 352.072 56.0753 354.097 56.5052C352.78 58.1811 351.394 58.6933 349.574 58.0067Z"/>
<path d="M313.277 74.2948C312.319 74.6854 311.565 74.972 310.34 75.4376C311.271 72.8883 312.894 72.5552 314.484 72.168C314.639 72.3759 314.794 72.5837 314.948 72.7915C314.459 73.258 313.97 73.7244 313.277 74.2948Z"/>
<path d="M307.162 454.106C305.772 453.433 304.302 453.123 303.855 450.664C305.626 451.689 306.862 452.404 308.097 453.12C307.86 453.465 307.622 453.809 307.162 454.106Z"/>
<path d="M378.566 475.562C378.008 475.46 377.676 475.438 377.39 475.313C377.236 475.245 377.16 475 376.867 474.566C378.67 473.926 380.196 473.899 381.971 475.199C380.749 476.433 379.762 475.843 378.566 475.562Z"/>
<path d="M368.796 53.2376C367.29 53.6837 365.956 53.9649 364.156 54.3443C366.051 51.8946 367.092 51.7144 368.796 53.2376Z"/>
<path d="M481.338 54.1572C480.541 53.7823 479.983 53.4357 479.098 52.8859C482.066 52.4318 482.972 52.7617 483.812 54.5839C482.948 54.4298 482.263 54.3077 481.338 54.1572Z"/>
<path d="M241.547 402.197C242.908 403.046 244.294 403.758 244.013 405.979C242.435 404.893 240.521 404.57 241.547 402.197Z"/>
<path d="M626.166 237.414C625.479 238.45 624.818 237.959 624.711 237.365C624.481 236.094 624.537 234.771 624.477 233.469C624.734 233.438 624.991 233.406 625.249 233.374C625.564 234.642 625.879 235.91 626.166 237.414Z"/>
<path d="M490.117 56.5596C489.031 56.004 487.612 56.2626 487.531 54.7057C489.862 54.5819 489.991 54.6277 491.898 56.3854C491.236 56.497 490.787 56.5729 490.117 56.5596Z"/>
<path d="M472.446 51.9884C471.982 51.5873 471.738 51.2824 471.422 50.8876C474.195 50.4251 475.023 50.7239 475.862 52.5903C474.699 52.4063 473.683 52.2454 472.446 51.9884Z"/>
<path d="M121.491 341.908C122.443 343.286 123.19 344.54 122.645 346.184C120.491 344.522 120.145 343.316 121.491 341.908Z"/>
<path d="M116.057 232.908C115.928 234.512 116.338 236.239 114.098 237.4C114.557 235.414 113.386 233.451 116.057 232.908Z"/>
<path d="M260.498 420.627C261.098 421.37 261.526 421.95 262.168 422.822C259.666 423.088 258.912 421.713 257.875 419.553C259.079 420 259.702 420.232 260.498 420.627Z"/>
<path d="M112.424 263.097C112.207 264.578 112.989 266.172 110.637 267.292C110.839 265.078 110.987 263.444 111.136 261.81C111.324 261.772 111.511 261.733 111.699 261.694C111.94 262.071 112.181 262.448 112.424 263.097Z"/>
<path d="M229.867 149.275C230.338 148.881 230.68 148.669 231.289 148.291C231.533 150.667 230.196 151.695 229.122 152.877C228.852 152.746 228.582 152.616 228.313 152.485C228.787 151.476 229.262 150.467 229.867 149.275Z"/>
<path d="M294.945 84.6917C293.899 86.0852 292.78 87.1505 290.98 86.9149C292.152 85.8598 292.504 83.5275 294.945 84.6917Z"/>
<path d="M269.958 102.718C270.735 105.236 268.217 105.144 267.275 106.401C266.474 103.984 268.704 103.784 269.958 102.718Z"/>
<path d="M220.637 166.007C221.342 164.629 222.052 163.466 223.014 161.891C223.439 164.949 222.776 165.941 220.637 166.007Z"/>
<path d="M357.57 470.539C358.244 470.835 358.686 471.047 359.587 471.476C357.333 472.623 355.944 471.645 354.117 470.887C355.34 469.785 356.347 470.175 357.57 470.539Z"/>
<path d="M499.193 57.9801C499.339 58.4841 499.313 58.8406 499.287 59.1972C497.904 58.8918 496.418 58.7966 495.281 57.3922C496.866 56.4794 497.918 57.3446 499.193 57.9801Z"/>
<path d="M622.98 222.136C621.361 221.005 621.696 219.637 622.297 218.216C623.008 219.424 624.165 220.507 622.98 222.136Z"/>
<path d="M304.09 78.9399C304.339 76.8925 305.72 76.4017 307.723 76.0986C307.131 78.1488 305.75 78.6983 304.09 78.9399Z"/>
<path d="M117.727 218.634C118.093 218.437 118.386 218.494 118.902 218.58C118.912 220.131 119.226 221.857 117.473 223.037C116.522 221.45 117.363 220.18 117.727 218.634Z"/>
<path d="M448.699 473.8C449.261 471.309 450.972 472.431 453.155 472.319C451.507 473.73 450.299 474.106 448.699 473.8Z"/>
<path d="M335.099 464.013C335.716 464.253 336.119 464.392 336.523 464.532C334.189 465.757 332.864 465.196 332.066 463.065C333.006 463.348 333.945 463.63 335.099 464.013Z"/>
<path d="M290.07 444.263C290.16 443.795 290.357 443.303 290.481 443.321C292.035 443.546 293.251 444.224 293.351 446.348C292.282 445.724 291.213 445.1 290.07 444.263Z"/>
<path d="M233.471 394.064C232.714 393.061 232.13 392.204 231.547 391.348C233.47 391.109 234.312 392.194 234.783 393.448C235.102 394.299 234.459 394.585 233.471 394.064Z"/>
<path d="M297.739 81.7976C298.96 80.8741 299.904 79.7191 302.128 80.6177C300.394 81.7049 299.106 82.5125 297.328 83.6271C297.474 82.6884 297.529 82.3299 297.739 81.7976Z"/>
<path d="M313.117 456.921C312.35 456.407 311.802 455.985 310.82 455.229C313.084 454.944 314.42 455.439 315.591 456.762C314.834 457.928 314.072 457.336 313.117 456.921Z"/>
<path d="M320.966 460.226C319.756 459.704 318.782 459.202 317.809 458.7C319.528 457.785 320.74 458.421 321.87 459.293C321.885 459.304 321.435 459.915 320.966 460.226Z"/>
<path d="M239.389 138.094C238.676 138.71 238.12 139.156 237.105 139.969C237.389 137.734 238.213 136.62 240.326 135.48C239.932 136.712 239.739 137.318 239.389 138.094Z"/>
<path d="M429.427 45.6706C430.893 45.6608 432.102 45.697 433.31 45.7332C433.305 46.0065 433.3 46.2799 433.295 46.5532C431.937 47.3025 430.464 47.0861 428.988 46.6651C428.96 46.6573 429.105 46.0462 429.427 45.6706Z"/>
<path d="M407.151 46.2334C408.083 46.3429 408.752 46.4554 409.422 46.5679C407.996 47.9092 406.503 47.6321 404.871 47.3626C405.123 45.9212 406.164 46.3824 407.151 46.2334Z"/>
<path d="M362.348 472.222C363.708 472.061 365.05 472.142 366.818 472.249C364.687 473.819 364.592 473.815 362.348 472.222Z"/>
<path d="M725.036 135.106C725.039 135.381 725.042 135.656 725.045 136.136C723.48 136.411 721.915 136.479 720.062 136.494C719.77 136.2 719.766 135.961 720.049 135.495C721.902 135.215 723.469 135.161 725.036 135.106Z"/>
<path d="M286.918 441.956C285.334 441.61 283.968 441.051 283.332 439.148C285.508 439.095 286.481 440.185 286.918 441.956Z"/>
<path d="M425.066 45.8729C423.957 47.9568 422.353 46.7399 420.117 46.6414C421.996 45.1784 423.471 45.6579 425.066 45.8729Z"/>
<path d="M351.165 469.578C349.485 470.54 348.177 470.045 346.797 468.595C348.676 467.825 349.925 468.574 351.165 469.578Z"/>
<path d="M342.099 466.286C342.697 466.774 343.064 467.2 343.598 467.817C340.644 467.697 340.644 467.697 339.57 465.857C340.48 466.002 341.175 466.113 342.099 466.286Z"/>
<path d="M371.215 473.104C372.213 473.441 372.979 473.692 373.745 473.944C372.173 474.919 370.762 475.211 369.258 473.348C370.072 473.193 370.527 473.107 371.215 473.104Z"/>
<path d="M442.524 474.976C441.722 475.089 441.145 475.125 440.195 475.185C441.437 472.92 443.02 473.744 444.356 473.575C444.429 473.804 444.501 474.033 444.574 474.262C443.966 474.475 443.358 474.687 442.524 474.976Z"/>
<path d="M394.968 477.395C393.169 477.268 393.169 477.268 391.836 476.207C393.414 475.432 394.754 476.237 396.935 476.212C395.916 476.914 395.569 477.153 394.968 477.395Z"/>
<path d="M428.594 476.081C427.317 476.629 426.017 476.938 424.492 477.301C425.29 475.289 425.29 475.289 428.594 476.081Z"/>
<path d="M464.369 48.9873C465.706 49.24 466.801 49.5306 467.896 49.8212C467.835 50.0853 467.774 50.3493 467.712 50.6133C466.314 51.0502 464.964 50.9533 463.767 49.8005C463.7 49.736 463.998 49.2924 464.369 48.9873Z"/>
<path d="M254.314 416.937C253.23 415.922 252.343 415.011 251.168 413.804C253.429 414.003 254.863 415.109 255.238 416.624C255.256 416.698 254.766 416.899 254.314 416.937Z"/>
<path d="M110.336 280.619C110.423 279.449 110.512 278.562 110.601 277.674C112.12 279.247 112.019 280.809 111.055 283.226C110.665 281.961 110.501 281.431 110.336 280.619Z"/>
<path d="M229.155 385.874C229.65 386.735 229.992 387.42 230.334 388.105C230.071 388.269 229.808 388.432 229.546 388.596C228.672 387.517 227.799 386.438 226.926 385.359C227.074 385.168 227.222 384.977 227.37 384.786C227.914 385.09 228.458 385.394 229.155 385.874Z"/>
<path d="M327.419 463.023C326.534 462.502 325.86 462.077 324.887 461.462C326.662 460.54 327.912 461.321 328.642 462.093C329.379 462.874 328.659 463.414 327.419 463.023Z"/>
<path d="M434.358 474.845C435.234 474.889 435.856 474.941 436.91 475.028C435.39 476.621 433.998 475.89 432.74 476.077C432.686 475.865 432.632 475.652 432.578 475.44C433.087 475.244 433.595 475.048 434.358 474.845Z"/>
<path d="M345.767 59.061C345.285 61.0154 343.962 60.9159 342.188 60.5181C343.141 59.1098 344.242 58.7693 345.767 59.061Z"/>
<path d="M402.927 477.489C402.023 477.465 401.377 477.454 400.737 477.384C400.546 477.364 400.373 477.181 399.984 476.948C401.394 475.607 402.728 476.075 404.792 476.792C403.856 477.193 403.522 477.336 402.927 477.489Z"/>
<path d="M419.829 477.198C418.454 477.351 417.288 477.351 415.816 477.351C417.647 475.751 418.467 475.743 419.829 477.198Z"/>
<path d="M223.893 381.111C223.562 380.274 223.363 379.627 223.164 378.981C223.391 378.862 223.619 378.744 223.846 378.626C224.479 379.558 225.111 380.489 225.744 381.421C225.576 381.591 225.408 381.762 225.24 381.932C224.835 381.722 224.43 381.511 223.893 381.111Z"/>
<path d="M626.651 265.392C628.425 266.083 627.469 267.262 627.327 268.854C626.084 267.636 626.432 266.576 626.651 265.392Z"/>
<path d="M238.839 398.672C238.561 399.104 237.963 399.54 237.919 399.49C237.308 398.791 236.771 398.026 236.059 397.063C237.797 396.545 238.195 397.659 238.839 398.672Z"/>
<path d="M394.812 24.918C394.559 24.6381 394.554 24.3836 394.547 23.9379C395.699 23.5661 396.852 23.3854 398.253 23.2363C398.507 23.524 398.513 23.7801 398.52 24.2283C397.367 24.5947 396.213 24.769 394.812 24.918Z"/>
<path d="M280.816 93.4195C281.398 93.1069 281.827 92.9421 282.257 92.7773C282.397 92.9763 282.536 93.1753 282.675 93.3743C282.034 93.9868 281.392 94.5994 280.751 95.2119C280.564 95.0809 280.378 94.9498 280.191 94.8188C280.349 94.4016 280.507 93.9844 280.816 93.4195Z"/>
<path d="M245.613 127.771C246.1 127.218 246.54 126.883 247.168 126.405C246.966 128.886 246.966 128.886 245.613 127.771Z"/>
<path d="M323.855 68.0173C324.36 67.0036 324.964 66.5046 326.163 67.172C325.568 68.0787 325.249 69.1372 323.855 68.0173Z"/>
</mask>
<path d="M70.9486 49.1797C64.7414 56.7308 57.0533 60.8703 47.4328 61.3984C32.7085 62.2067 18.6197 50.4308 16.1024 35.9159C13.2896 19.6975 25.2398 0.525382 45.9849 0.00852728C60.5748 -0.354972 73.9684 10.9476 76.5343 25.3434C76.7653 26.6397 76.9848 27.938 77.2826 29.6567C78.6326 29.6567 79.9136 29.6566 81.1946 29.6568C104.922 29.6604 128.649 29.7265 152.376 29.6173C157.358 29.5944 161.244 31.2794 164.739 34.7798C180.409 50.4768 196.196 66.0577 211.942 81.6788C217.738 87.4284 223.535 93.1763 229.34 98.9166C230.194 99.7612 231.095 100.559 231.877 101.287C235.819 100.303 235.819 100.303 239.155 101.812C240.531 100.574 241.952 99.296 243.516 97.8893C244.441 99.5634 243.277 100.043 242.694 100.684C241.377 102.131 240.054 103.28 240.558 105.772C241.073 108.315 237.934 111.076 235.297 111.057C232.443 111.035 229.825 108.254 230.039 105.368C230.102 104.51 230.452 103.674 230.711 102.674C230.182 102.059 229.659 101.359 229.045 100.75C216.829 88.6195 204.605 76.4975 192.378 64.3791C182.581 54.6697 172.754 44.9897 162.991 35.2464C160.436 32.697 157.55 31.2892 153.877 31.2977C129.268 31.3545 104.657 31.349 80.0473 31.3724C79.2856 31.3732 78.5239 31.4681 77.3407 31.5473C76.7079 37.8521 74.8239 43.7765 70.9486 49.1797ZM35.7614 57.8206C41.1169 60.1705 46.8534 60.2099 52.3586 59.386C55.8942 58.8568 59.3871 56.8366 62.4937 54.8505C77.7209 45.1158 79.7955 23.375 66.888 10.2809C54.9676 -1.81189 35.4903 -1.08705 24.4949 11.5682C11.9239 26.0369 16.1091 49.7346 35.7614 57.8206ZM238.016 103.299C237.457 102.962 236.938 102.49 236.333 102.315C234.849 101.884 233.489 102.249 232.494 103.457C231.504 104.659 231.367 106.024 232.055 107.452C232.767 108.932 234.025 109.426 235.558 109.388C238.468 109.317 239.523 107.156 238.016 103.299Z" fill="var(--fill-0, #4CC7F4)"/>
<path d="M719.769 136.44C715.075 136.752 710.839 135.212 706.949 132.855C700.128 128.722 695.678 122.759 693.989 114.868C693.714 113.583 693.46 112.294 693.155 110.806C691.528 110.806 689.91 110.807 688.293 110.806C680.791 110.802 673.289 110.879 665.79 110.762C661.606 110.697 658.47 112.244 655.751 115.453C650.334 121.846 644.647 128.009 639.076 134.271C638.494 134.925 637.939 135.603 637.296 136.358C638.411 139.277 639.077 142.174 635.931 144.323C633.903 145.708 631.719 145.575 629.822 144.012C627.699 142.263 627.447 140.242 628.965 136.312C624.854 129.165 620.242 122.171 615.056 115.607C609.797 108.951 604.387 102.382 598.612 96.176C592.974 90.1177 586.791 84.5666 580.848 78.7928C580.976 78.6129 581.104 78.4329 581.232 78.2529C581.829 78.5579 582.518 78.7575 583.01 79.1833C596.923 91.2066 609.375 104.57 619.91 119.668C623.064 124.188 626.057 128.821 629.133 133.395C629.497 133.935 629.925 134.433 630.263 134.872C632.209 134.872 634.028 134.872 636.364 134.872C639.556 131.362 643.119 127.47 646.65 123.549C649.676 120.189 652.685 116.813 655.663 113.411C658.227 110.482 661.439 109.14 665.306 109.152C673.469 109.177 681.632 109.151 689.795 109.146C690.875 109.146 691.954 109.146 693.172 109.146C693.799 99.9524 697.303 92.4693 704.422 86.9345C709.659 82.8627 715.661 81.019 722.311 81.1934C736.843 81.5745 748.321 94.7383 748.771 108.074C749.258 122.494 738.457 134.652 725.312 136.162C725.038 135.655 725.035 135.38 725.258 135.001C726.127 134.736 726.77 134.581 727.411 134.415C738.809 131.457 746.435 122.225 747.052 110.639C747.68 98.8532 740.792 88.3097 729.83 84.2769C717.241 79.6453 702.756 85.9644 697.298 98.4698C692.203 110.141 696.129 124.076 706.426 130.737C710.48 133.36 714.976 134.78 719.755 135.54C719.762 135.96 719.766 136.2 719.769 136.44ZM633.766 136.26C633.113 136.325 632.409 136.257 631.815 136.48C629.993 137.165 629.197 138.758 629.565 140.736C629.89 142.485 631.231 143.588 633.072 143.618C634.915 143.648 636.49 142.381 636.788 140.508C637.113 138.466 636.136 137.136 633.766 136.26Z" fill="var(--fill-0, #4CC7F4)"/>
<path d="M757.44 370.43C764.864 366.782 772.531 365.63 780.392 368.743C791.395 373.099 797.699 381.394 798.325 393.101C798.942 404.638 793.77 413.488 783.421 419.083C768.012 427.415 748.237 418.052 744.187 400.69C743.941 399.635 743.688 398.581 743.366 397.224C742.117 397.224 740.926 397.224 739.735 397.224C703.566 397.216 667.397 397.217 631.228 397.172C629.26 397.17 627.79 397.524 626.397 399.18C624.328 401.639 622.164 401.47 618.16 398.985C617.668 398.474 617.449 398.17 617.183 397.604C617.075 396.449 617.014 395.557 616.996 394.507C617.04 394.35 617.091 394.027 617.233 393.954C617.589 393.766 617.687 393.589 617.766 393.178C618.3 392.544 618.74 392.08 619.421 391.513C621.649 390.317 623.648 390.23 625.725 391.497C625.983 391.769 626.178 391.88 626.473 392.109C626.709 392.387 626.863 392.523 627.134 392.884C627.577 393.905 627.923 394.68 628.232 395.369C637.293 396.101 740.71 395.77 743.42 394.976C743.468 394.494 743.544 393.96 743.569 393.424C743.918 386.011 747.023 379.864 752.16 374.638C752.692 374.097 753.139 373.473 753.589 372.896C753.554 372.905 753.622 372.93 753.834 372.889C754.587 372.37 755.127 371.894 755.836 371.375C756.483 371.031 756.961 370.731 757.44 370.43ZM792.91 408.445C793.825 406.324 795.004 404.276 795.611 402.071C798.28 392.384 796.446 383.587 789.354 376.368C782.256 369.142 773.425 366.973 763.764 369.712C751.154 373.288 744.083 384.936 745.414 397.647C746.769 410.579 757.418 420.017 769.774 420.403C779.458 420.705 787.087 416.796 792.91 408.445ZM619.037 396.192C619.533 397.012 619.865 398.03 620.56 398.612C622.071 399.876 624.368 399.484 625.565 397.968C626.779 396.431 626.611 394.257 625.171 392.874C623.742 391.5 621.538 391.484 620.173 393.041C619.573 393.726 619.387 394.774 619.037 396.192Z" fill="var(--fill-0, #4CC7F4)"/>
<path d="M117.802 218.381C114.473 216.204 113.349 213.337 115.277 209.5C111.262 205.456 107.313 201.476 103.362 197.499C101.652 195.778 99.9177 194.08 98.2276 192.34C96.3681 190.426 94.0917 189.308 91.4656 189.292C81.3213 189.232 71.1764 189.283 61.0317 189.309C60.722 189.309 60.4126 189.485 60.1202 189.573C58.0936 207.824 43.513 216.802 29.8185 215.155C17.9566 213.729 7.60127 202.403 7.08624 189.969C6.52074 176.316 16.1167 164.419 29.7937 162.03C37.6197 160.663 44.4228 163.268 50.2905 168.281C56.0696 173.218 59.0423 179.769 59.9633 187.599C61.255 187.599 62.3305 187.597 63.4059 187.6C72.0075 187.621 80.6108 187.754 89.2101 187.622C93.8368 187.551 97.458 189.107 100.626 192.497C105.216 197.408 110.102 202.044 114.85 206.809C115.731 207.693 116.488 208.286 117.99 207.893C121.133 207.072 123.802 208.71 124.67 211.618C125.393 214.042 123.923 216.697 121.141 217.932C120.642 218.154 120.087 218.248 119.12 218.477C118.388 218.496 118.095 218.439 117.802 218.381ZM17.4067 207.862C17.9322 208.264 18.4454 208.683 18.9848 209.065C32.9709 218.979 51.9501 212.486 56.9147 196.092C60.313 184.87 55.6207 172.585 45.7426 166.84C35.6416 160.967 23.2528 162.789 15.2724 171.543C5.70551 182.037 6.81961 198.479 17.4067 207.862ZM121.915 215.959C122.319 215.443 122.841 214.98 123.105 214.4C123.837 212.791 123.375 211.127 121.993 209.957C120.78 208.931 118.978 208.78 117.685 209.596C116.207 210.527 115.443 212.328 115.875 213.862C116.321 215.446 117.822 216.641 119.547 216.652C120.189 216.656 120.833 216.395 121.915 215.959Z" fill="var(--fill-0, #4CC7F4)"/>
<path d="M38.2187 383.474C30.695 385.44 23.3886 385.044 16.3175 381.588C0.0375905 373.632 -5.05639 353.227 5.59463 338.528C15.2777 325.164 33.088 322.044 46.3126 331.642C53.7442 337.036 57.864 344.523 58.666 353.744C58.7136 354.29 58.7476 354.838 58.7972 355.385C58.807 355.492 58.8598 355.596 58.9724 355.955C79.9129 355.955 100.935 355.955 121.968 355.955C124.312 354.275 123.951 351.816 123.96 349.239C124.46 350.006 124.959 350.774 125.561 351.699C125.985 351.723 126.522 351.814 127.048 351.773C129.553 351.58 131.313 352.69 132.387 354.88C133.501 357.149 132.917 359.17 131.251 360.941C130.876 361.338 130.413 361.652 129.588 362.176C128.455 362.476 127.724 362.605 126.992 362.734C126.025 362.164 125.057 361.594 123.832 360.758C123.205 359.977 122.836 359.463 122.411 358.716C122.09 358.333 121.826 358.182 121.291 357.95C119.724 357.876 118.427 357.886 117.13 357.896C99.2053 357.843 81.2809 357.791 62.7908 357.73C61.0735 357.889 59.9219 358.058 58.6767 358.391C58.5905 358.683 58.5979 358.809 58.5415 359.163C58.3549 360.326 58.2322 361.261 58.1095 362.196C55.8776 369.366 52.032 375.398 45.4042 379.953C42.7737 381.284 40.4962 382.379 38.2187 383.474ZM56.945 357.126C56.9377 356.355 56.945 355.583 56.9209 354.812C56.4706 340.41 45.5751 328.79 31.5613 327.76C17.2443 326.709 4.37458 336.878 2.01601 351.107C0.151597 362.354 4.91298 372.879 14.5792 378.877C24.2523 384.879 36.3202 384.539 45.4052 378.047C52.393 373.054 56.1212 366.239 56.945 357.126ZM126.355 360.737C127.002 360.79 127.672 360.975 128.294 360.872C130.534 360.504 131.927 358.38 131.371 356.31C130.759 354.029 128.403 352.838 126.214 353.702C124.195 354.498 123.328 356.801 124.383 358.854C124.714 359.498 125.374 359.974 126.355 360.737Z" fill="var(--fill-0, #4CC7F4)"/>
<path d="M398.5 23.2677C402.549 22.8281 406.589 22.221 410.65 21.9804C422.333 21.2884 434.003 21.4492 445.694 22.2759C472.144 24.1464 497.462 30.6382 521.843 40.8024C530.172 44.2747 538.102 48.7081 546.199 52.7321C546.712 52.9871 547.096 53.5006 547.757 54.0854C546.06 54.8749 545.165 53.8081 544.192 53.3411C536.238 49.5266 528.462 45.2956 520.338 41.8944C501.443 33.9843 481.835 28.4827 461.513 25.6105C449.036 23.8469 436.499 22.9176 423.911 23.1709C415.646 23.3372 407.391 24.0277 398.825 24.2596C398.512 23.7798 398.506 23.5238 398.5 23.2677Z" fill="var(--fill-0, #4CC7F4)"/>
<path d="M652.103 182.716C657.232 198.054 660.931 213.478 663.16 229.227C664.861 241.245 665.75 253.34 665.471 265.495C665.453 266.297 665.249 267.094 665.023 268.623C664.336 267.594 663.892 267.222 663.85 266.809C663.728 265.607 663.741 264.389 663.746 263.177C663.851 238.406 660.121 214.2 652.901 190.532C649.101 178.075 644.438 165.936 638.723 154.216C638.279 153.305 637.954 152.335 637.316 150.755C640.425 152.829 644.745 162.476 652.103 182.716Z" fill="var(--fill-0, #4CC7F4)"/>
<path d="M394.568 24.894C390.446 25.593 386.327 26.3075 382.202 26.988C365.828 29.6899 349.969 34.2608 334.473 40.1446C332.309 40.9659 330.184 41.8859 328.017 42.6956C327.588 42.8556 327.049 42.7187 326.473 42.7187C326.664 41.0941 327.975 41.0214 328.898 40.6467C339.531 36.3321 350.354 32.5791 361.489 29.7655C372.185 27.063 382.943 24.7002 394.255 23.9209C394.557 24.3849 394.563 24.6395 394.568 24.894Z" fill="var(--fill-0, #4CC7F4)"/>
<path d="M223.332 122.795C213.41 136.131 205.244 150.215 198.651 165.216C198.253 166.121 198.127 167.442 196.57 167.313C197.31 159.688 220.694 120.556 226.602 117.286C226.272 119.657 224.435 120.892 223.332 122.795Z" fill="var(--fill-0, #4CC7F4)"/>
<path d="M666.674 275.282C669.11 277.595 669.614 279.222 668.684 281.181C667.741 283.164 665.449 284.405 663.559 283.956C661.264 283.41 659.605 281.358 659.721 279.207C659.846 276.882 661.822 274.842 664.22 274.715C664.954 274.676 665.707 274.995 666.674 275.282Z" fill="var(--fill-0, #4CC7F4)"/>
<path d="M313.99 49.191C311.471 50.4194 309.162 51.5476 306.531 52.8324C307.174 50.4025 311.847 47.7759 315.881 47.4209C315.076 48.2202 314.638 48.6555 313.99 49.191Z" fill="var(--fill-0, #4CC7F4)"/>
<path d="M258.02 84.0634C258.709 83.6548 259.232 83.3922 259.967 83.0234C259.366 85.2804 256.034 88.4228 252.68 90.1564C252.743 88.5144 252.743 88.5144 258.02 84.0634Z" fill="var(--fill-0, #4CC7F4)"/>
<path d="M275.506 72.3034C273.467 73.6106 272.008 75.4532 269.563 76.0179C270.276 73.8071 274.231 70.7503 277.447 69.7979C277.744 71.2925 276.363 71.4866 275.506 72.3034Z" fill="var(--fill-0, #4CC7F4)"/>
<path d="M295.054 59.3707C292.425 60.7901 290.289 62.6872 287.184 63.644C288.433 61.3 292.391 58.6989 295.807 57.7939C295.571 58.4081 295.41 58.8263 295.054 59.3707Z" fill="var(--fill-0, #4CC7F4)"/>
<path d="M116.273 328.355C116.018 325.906 114.401 323.884 115.393 321.169C115.981 321.679 116.651 321.972 116.771 322.414C117.358 324.589 117.823 326.798 118.265 329.008C118.332 329.343 118.049 329.748 117.753 330.658C117.098 329.705 116.719 329.153 116.273 328.355Z" fill="var(--fill-0, #4CC7F4)"/>
<path d="M226.5 155.5C228.014 156.216 227 155.5 227.548 155.998C225.168 160.267 225.168 160.267 224.115 160.566C224 160.5 224 160.5 224 160C224 159.5 226.115 155.472 226.5 155.5Z" fill="var(--fill-0, #4CC7F4)"/>
<path d="M114.13 311.667C115.223 314.256 115.586 317.195 115.151 319.074C114.765 318.791 114.226 318.603 114.167 318.317C113.756 316.324 113.415 314.314 113.142 312.298C113.112 312.077 113.654 311.779 114.13 311.667Z" fill="var(--fill-0, #4CC7F4)"/>
<path d="M117.816 334.359C117.865 333.651 117.974 333.184 118.112 332.592C120.005 334.244 120.755 336.352 120.452 339.001C118.19 338.287 118.665 336.055 117.816 334.359Z" fill="var(--fill-0, #4CC7F4)"/>
<path d="M252.816 120.456C253.791 117.615 255.741 115.63 258.489 113.516C257.794 116.123 255.737 118.658 253.034 120.431C252.808 120.448 252.816 120.456 252.816 120.456Z" fill="var(--fill-0, #4CC7F4)"/>
<path d="M112.684 308.658C112.658 306.198 111.015 303.974 112.168 301.496C113.918 303.497 114.327 306.849 113.185 308.836C113.157 308.884 112.978 308.846 112.684 308.658Z" fill="var(--fill-0, #4CC7F4)"/>
<path d="M272.918 100.432C274.495 98.1749 276.33 96.4549 279.133 95.3799C277.548 98.0524 274.744 100.347 272.918 100.432Z" fill="var(--fill-0, #4CC7F4)"/>
<path d="M112.119 288.951C111.994 289.56 111.866 289.932 111.604 290.691C110.366 288.678 110.454 287.018 110.952 284.96C112.549 286.133 111.847 287.563 112.119 288.951Z" fill="var(--fill-0, #4CC7F4)"/>
<path d="M457.036 49.4437C455.994 49.1055 455.213 48.8084 453.754 48.2535C456.363 47.4404 458.166 47.1549 460.012 48.7123C459.237 49.9595 458.173 49.3885 457.036 49.4437Z" fill="var(--fill-0, #4CC7F4)"/>
<path d="M299.721 450.237C298.529 449.328 296.677 449.406 296.625 447.144C298.814 447.703 300.668 448.211 301.798 450.823C300.882 450.584 300.404 450.459 299.721 450.237Z" fill="var(--fill-0, #4CC7F4)"/>
<path d="M267.963 428.839C266.412 427.522 264.308 426.988 263.57 424.887C266.037 424.945 267.891 426.598 267.963 428.839Z" fill="var(--fill-0, #4CC7F4)"/>
<path d="M112.025 269.956C112.219 271.69 112.957 273.365 111.125 274.686C109.867 273.105 110.246 271.5 110.757 269.926C110.81 269.762 111.479 269.799 112.025 269.956Z" fill="var(--fill-0, #4CC7F4)"/>
<path d="M438.494 45.7285C440.009 45.9593 441.272 46.2192 443.06 46.587C440.902 48.2815 439.112 47.218 437.18 47.019C437.534 46.5985 437.889 46.1781 438.494 45.7285Z" fill="var(--fill-0, #4CC7F4)"/>
<path d="M409.282 478C408.48 477.729 407.93 477.465 407.067 477.05C408.928 475.684 410.489 476.084 412.309 476.555C411.709 478.125 410.581 477.986 409.282 478Z" fill="var(--fill-0, #4CC7F4)"/>
<path d="M113.067 257.465C112.795 258.334 112.533 258.93 112.159 259.78C110.702 257.202 110.768 256.611 112.828 254.138C112.93 255.403 113.003 256.298 113.067 257.465Z" fill="var(--fill-0, #4CC7F4)"/>
<path d="M286.148 91.3471C285.613 91.5041 285.253 91.538 284.578 91.6016C285.637 89.1846 287.663 88.6047 289.421 87.6465C289.282 89.6418 287.599 90.2548 286.148 91.3471Z" fill="var(--fill-0, #4CC7F4)"/>
<path d="M413.576 47.3489C412.618 46.6192 412.369 45.9052 413.576 45.7245C414.802 45.5409 416.078 45.6839 417.694 45.6839C416.781 48.0595 415.151 47.3903 413.576 47.3489Z" fill="var(--fill-0, #4CC7F4)"/>
<path d="M385.122 476.537C384.757 476.014 384.628 475.582 384.5 475.15C386.071 474.794 387.657 474.358 389.057 476.003C387.905 477.318 386.547 476.522 385.122 476.537Z" fill="var(--fill-0, #4CC7F4)"/>
<path d="M373.388 50.8005C374.737 50.5746 375.84 50.4104 377.377 50.1816C376.262 53.1472 373.843 51.464 372.758 52.8871C371.822 51.5904 372.296 51.1536 373.388 50.8005Z" fill="var(--fill-0, #4CC7F4)"/>
<path d="M390.11 47.6621C391.205 47.7077 392.04 47.7623 392.99 47.8245C391.759 49.7239 391.759 49.7239 388.34 49.2185C388.069 47.9486 389.006 47.8547 390.11 47.6621Z" fill="var(--fill-0, #4CC7F4)"/>
<path d="M621.061 211.157C621.239 212.29 621.396 213.175 621.553 214.06C619.69 212.738 619.183 211.017 619.281 208.908C620.87 208.93 620.943 209.929 621.061 211.157Z" fill="var(--fill-0, #4CC7F4)"/>
<path d="M252.812 120.444C251.974 122.401 251.257 124.469 248.383 125.151C248.968 122.611 250.723 121.601 252.596 120.479C252.824 120.456 252.816 120.448 252.812 120.444Z" fill="var(--fill-0, #4CC7F4)"/>
<path d="M397.482 47.0174C398.904 46.7995 400.079 46.631 401.264 46.4609C401.32 48.2072 401.32 48.2072 396.539 48.3926C396.818 47.8604 397.025 47.4636 397.482 47.0174Z" fill="var(--fill-0, #4CC7F4)"/>
<path d="M112.113 251.835C112.363 250.074 111.568 248.034 113.817 246.76C114.18 248.659 113.789 250.186 113.389 251.686C113.337 251.881 112.669 251.912 112.113 251.835Z" fill="var(--fill-0, #4CC7F4)"/>
<path d="M274.368 431.982C274.951 432.624 275.516 433.33 274.496 433.551C273.226 433.826 271.426 432.012 270.84 429.715C272.191 430.575 273.189 431.21 274.368 431.982Z" fill="var(--fill-0, #4CC7F4)"/>
<path d="M384.432 50.2475C382.969 50.5421 381.724 50.7159 380.195 50.9291C381.37 48.7666 383.507 48.3231 384.902 49.5857C384.945 49.6249 384.739 49.94 384.432 50.2475Z" fill="var(--fill-0, #4CC7F4)"/>
<path d="M249.325 411.756C247.918 410.577 246.728 409.364 245.16 407.767C248.104 408.224 249.363 409.534 249.325 411.756Z" fill="var(--fill-0, #4CC7F4)"/>
<path d="M279.679 437.854C278.546 436.948 277.614 436.139 276.379 435.069C279.132 434.991 279.588 435.299 281.15 438.035C280.63 438.001 280.255 437.976 279.679 437.854Z" fill="var(--fill-0, #4CC7F4)"/>
<path d="M114.798 240.138C114.747 241.781 114.54 243.219 114.267 245.12C112.466 242.492 112.684 241.136 114.798 240.138Z" fill="var(--fill-0, #4CC7F4)"/>
<path d="M319.491 69.2957C320.255 69.1641 320.808 69.1338 321.362 69.1035C321.445 69.3331 321.529 69.5627 321.612 69.7922C320.315 70.5469 319.017 71.3016 317.507 72.1795C316.857 70.0286 318.444 69.9905 319.491 69.2957Z" fill="var(--fill-0, #4CC7F4)"/>
<path d="M329.415 66.5082C328.802 66.6079 328.404 66.608 327.766 66.608C328.465 64.4176 330.299 64.3859 331.91 63.5898C332.452 65.8594 330.551 65.7248 329.415 66.5082Z" fill="var(--fill-0, #4CC7F4)"/>
<path d="M111.039 294.983C111.401 294.584 111.726 294.456 112.05 294.327C112.531 295.903 113.46 297.442 112.464 299.347C110.196 298.5 111.364 296.593 111.039 294.983Z" fill="var(--fill-0, #4CC7F4)"/>
<path d="M233.088 146.967C232.653 147.215 232.367 147.293 231.719 147.471C232.327 145.171 233.285 143.532 235.044 142.447C235.267 142.582 235.489 142.718 235.712 142.853C234.887 144.168 234.062 145.482 233.088 146.967Z" fill="var(--fill-0, #4CC7F4)"/>
<path d="M447.542 46.3477C448.714 46.6594 449.634 46.9549 451.051 47.4101C448.903 48.6039 447.36 48.5293 445.441 47.0841C446.263 46.7495 446.777 46.5405 447.542 46.3477Z" fill="var(--fill-0, #4CC7F4)"/>
<path d="M116.795 225.796C117.186 227.441 117.285 228.984 115.961 230.62C115.112 228.61 115.88 227.166 116.795 225.796Z" fill="var(--fill-0, #4CC7F4)"/>
<path d="M623.086 227.14C623.173 226.417 623.271 225.941 623.519 224.74C624.612 226.858 625.404 228.245 624.533 230.287C623.37 229.466 623.149 228.472 623.086 227.14Z" fill="var(--fill-0, #4CC7F4)"/>
<path d="M241.649 134.151C241.043 131.882 243.102 131.297 244.127 129.703C244.589 131.748 244.589 131.748 241.649 134.151Z" fill="var(--fill-0, #4CC7F4)"/>
<path d="M336.956 61.629C337.852 61.4351 338.525 61.309 339.614 61.1045C338.586 63.2078 336.908 63.3503 335.403 64.0403C334.536 62.3218 335.943 62.1946 336.956 61.629Z" fill="var(--fill-0, #4CC7F4)"/>
<path d="M360.998 55.2496C359.623 55.6989 358.432 55.9921 356.938 56.3604C357.899 54.3382 359.936 53.4703 361.252 54.2062C361.36 54.2671 361.212 54.7869 360.998 55.2496Z" fill="var(--fill-0, #4CC7F4)"/>
<path d="M263.909 109.746C262.817 110.77 261.879 111.632 260.625 112.783C260.972 110.271 261.661 109.491 264.684 107.978C264.397 108.72 264.229 109.153 263.909 109.746Z" fill="var(--fill-0, #4CC7F4)"/>
<path d="M349.574 58.0067C350.573 56.1212 352.072 56.0753 354.097 56.5052C352.78 58.1811 351.394 58.6933 349.574 58.0067Z" fill="var(--fill-0, #4CC7F4)"/>
<path d="M313.277 74.2948C312.319 74.6854 311.565 74.972 310.34 75.4376C311.271 72.8883 312.894 72.5552 314.484 72.168C314.639 72.3759 314.794 72.5837 314.948 72.7915C314.459 73.258 313.97 73.7244 313.277 74.2948Z" fill="var(--fill-0, #4CC7F4)"/>
<path d="M307.162 454.106C305.772 453.433 304.302 453.123 303.855 450.664C305.626 451.689 306.862 452.404 308.097 453.12C307.86 453.465 307.622 453.809 307.162 454.106Z" fill="var(--fill-0, #4CC7F4)"/>
<path d="M378.566 475.562C378.008 475.46 377.676 475.438 377.39 475.313C377.236 475.245 377.16 475 376.867 474.566C378.67 473.926 380.196 473.899 381.971 475.199C380.749 476.433 379.762 475.843 378.566 475.562Z" fill="var(--fill-0, #4CC7F4)"/>
<path d="M368.796 53.2376C367.29 53.6837 365.956 53.9649 364.156 54.3443C366.051 51.8946 367.092 51.7144 368.796 53.2376Z" fill="var(--fill-0, #4CC7F4)"/>
<path d="M481.338 54.1572C480.541 53.7823 479.983 53.4357 479.098 52.8859C482.066 52.4318 482.972 52.7617 483.812 54.5839C482.948 54.4298 482.263 54.3077 481.338 54.1572Z" fill="var(--fill-0, #4CC7F4)"/>
<path d="M241.547 402.197C242.908 403.046 244.294 403.758 244.013 405.979C242.435 404.893 240.521 404.57 241.547 402.197Z" fill="var(--fill-0, #4CC7F4)"/>
<path d="M626.166 237.414C625.479 238.45 624.818 237.959 624.711 237.365C624.481 236.094 624.537 234.771 624.477 233.469C624.734 233.438 624.991 233.406 625.249 233.374C625.564 234.642 625.879 235.91 626.166 237.414Z" fill="var(--fill-0, #4CC7F4)"/>
<path d="M490.117 56.5596C489.031 56.004 487.612 56.2626 487.531 54.7057C489.862 54.5819 489.991 54.6277 491.898 56.3854C491.236 56.497 490.787 56.5729 490.117 56.5596Z" fill="var(--fill-0, #4CC7F4)"/>
<path d="M472.446 51.9884C471.982 51.5873 471.738 51.2824 471.422 50.8876C474.195 50.4251 475.023 50.7239 475.862 52.5903C474.699 52.4063 473.683 52.2454 472.446 51.9884Z" fill="var(--fill-0, #4CC7F4)"/>
<path d="M121.491 341.908C122.443 343.286 123.19 344.54 122.645 346.184C120.491 344.522 120.145 343.316 121.491 341.908Z" fill="var(--fill-0, #4CC7F4)"/>
<path d="M116.057 232.908C115.928 234.512 116.338 236.239 114.098 237.4C114.557 235.414 113.386 233.451 116.057 232.908Z" fill="var(--fill-0, #4CC7F4)"/>
<path d="M260.498 420.627C261.098 421.37 261.526 421.95 262.168 422.822C259.666 423.088 258.912 421.713 257.875 419.553C259.079 420 259.702 420.232 260.498 420.627Z" fill="var(--fill-0, #4CC7F4)"/>
<path d="M112.424 263.097C112.207 264.578 112.989 266.172 110.637 267.292C110.839 265.078 110.987 263.444 111.136 261.81C111.324 261.772 111.511 261.733 111.699 261.694C111.94 262.071 112.181 262.448 112.424 263.097Z" fill="var(--fill-0, #4CC7F4)"/>
<path d="M229.867 149.275C230.338 148.881 230.68 148.669 231.289 148.291C231.533 150.667 230.196 151.695 229.122 152.877C228.852 152.746 228.582 152.616 228.313 152.485C228.787 151.476 229.262 150.467 229.867 149.275Z" fill="var(--fill-0, #4CC7F4)"/>
<path d="M294.945 84.6917C293.899 86.0852 292.78 87.1505 290.98 86.9149C292.152 85.8598 292.504 83.5275 294.945 84.6917Z" fill="var(--fill-0, #4CC7F4)"/>
<path d="M269.958 102.718C270.735 105.236 268.217 105.144 267.275 106.401C266.474 103.984 268.704 103.784 269.958 102.718Z" fill="var(--fill-0, #4CC7F4)"/>
<path d="M220.637 166.007C221.342 164.629 222.052 163.466 223.014 161.891C223.439 164.949 222.776 165.941 220.637 166.007Z" fill="var(--fill-0, #4CC7F4)"/>
<path d="M357.57 470.539C358.244 470.835 358.686 471.047 359.587 471.476C357.333 472.623 355.944 471.645 354.117 470.887C355.34 469.785 356.347 470.175 357.57 470.539Z" fill="var(--fill-0, #4CC7F4)"/>
<path d="M499.193 57.9801C499.339 58.4841 499.313 58.8406 499.287 59.1972C497.904 58.8918 496.418 58.7966 495.281 57.3922C496.866 56.4794 497.918 57.3446 499.193 57.9801Z" fill="var(--fill-0, #4CC7F4)"/>
<path d="M622.98 222.136C621.361 221.005 621.696 219.637 622.297 218.216C623.008 219.424 624.165 220.507 622.98 222.136Z" fill="var(--fill-0, #4CC7F4)"/>
<path d="M304.09 78.9399C304.339 76.8925 305.72 76.4017 307.723 76.0986C307.131 78.1488 305.75 78.6983 304.09 78.9399Z" fill="var(--fill-0, #4CC7F4)"/>
<path d="M117.727 218.634C118.093 218.437 118.386 218.494 118.902 218.58C118.912 220.131 119.226 221.857 117.473 223.037C116.522 221.45 117.363 220.18 117.727 218.634Z" fill="var(--fill-0, #4CC7F4)"/>
<path d="M448.699 473.8C449.261 471.309 450.972 472.431 453.155 472.319C451.507 473.73 450.299 474.106 448.699 473.8Z" fill="var(--fill-0, #4CC7F4)"/>
<path d="M335.099 464.013C335.716 464.253 336.119 464.392 336.523 464.532C334.189 465.757 332.864 465.196 332.066 463.065C333.006 463.348 333.945 463.63 335.099 464.013Z" fill="var(--fill-0, #4CC7F4)"/>
<path d="M290.07 444.263C290.16 443.795 290.357 443.303 290.481 443.321C292.035 443.546 293.251 444.224 293.351 446.348C292.282 445.724 291.213 445.1 290.07 444.263Z" fill="var(--fill-0, #4CC7F4)"/>
<path d="M233.471 394.064C232.714 393.061 232.13 392.204 231.547 391.348C233.47 391.109 234.312 392.194 234.783 393.448C235.102 394.299 234.459 394.585 233.471 394.064Z" fill="var(--fill-0, #4CC7F4)"/>
<path d="M297.739 81.7976C298.96 80.8741 299.904 79.7191 302.128 80.6177C300.394 81.7049 299.106 82.5125 297.328 83.6271C297.474 82.6884 297.529 82.3299 297.739 81.7976Z" fill="var(--fill-0, #4CC7F4)"/>
<path d="M313.117 456.921C312.35 456.407 311.802 455.985 310.82 455.229C313.084 454.944 314.42 455.439 315.591 456.762C314.834 457.928 314.072 457.336 313.117 456.921Z" fill="var(--fill-0, #4CC7F4)"/>
<path d="M320.966 460.226C319.756 459.704 318.782 459.202 317.809 458.7C319.528 457.785 320.74 458.421 321.87 459.293C321.885 459.304 321.435 459.915 320.966 460.226Z" fill="var(--fill-0, #4CC7F4)"/>
<path d="M239.389 138.094C238.676 138.71 238.12 139.156 237.105 139.969C237.389 137.734 238.213 136.62 240.326 135.48C239.932 136.712 239.739 137.318 239.389 138.094Z" fill="var(--fill-0, #4CC7F4)"/>
<path d="M429.427 45.6706C430.893 45.6608 432.102 45.697 433.31 45.7332C433.305 46.0065 433.3 46.2799 433.295 46.5532C431.937 47.3025 430.464 47.0861 428.988 46.6651C428.96 46.6573 429.105 46.0462 429.427 45.6706Z" fill="var(--fill-0, #4CC7F4)"/>
<path d="M407.151 46.2334C408.083 46.3429 408.752 46.4554 409.422 46.5679C407.996 47.9092 406.503 47.6321 404.871 47.3626C405.123 45.9212 406.164 46.3824 407.151 46.2334Z" fill="var(--fill-0, #4CC7F4)"/>
<path d="M362.348 472.222C363.708 472.061 365.05 472.142 366.818 472.249C364.687 473.819 364.592 473.815 362.348 472.222Z" fill="var(--fill-0, #4CC7F4)"/>
<path d="M725.036 135.106C725.039 135.381 725.042 135.656 725.045 136.136C723.48 136.411 721.915 136.479 720.062 136.494C719.77 136.2 719.766 135.961 720.049 135.495C721.902 135.215 723.469 135.161 725.036 135.106Z" fill="var(--fill-0, #4CC7F4)"/>
<path d="M286.918 441.956C285.334 441.61 283.968 441.051 283.332 439.148C285.508 439.095 286.481 440.185 286.918 441.956Z" fill="var(--fill-0, #4CC7F4)"/>
<path d="M425.066 45.8729C423.957 47.9568 422.353 46.7399 420.117 46.6414C421.996 45.1784 423.471 45.6579 425.066 45.8729Z" fill="var(--fill-0, #4CC7F4)"/>
<path d="M351.165 469.578C349.485 470.54 348.177 470.045 346.797 468.595C348.676 467.825 349.925 468.574 351.165 469.578Z" fill="var(--fill-0, #4CC7F4)"/>
<path d="M342.099 466.286C342.697 466.774 343.064 467.2 343.598 467.817C340.644 467.697 340.644 467.697 339.57 465.857C340.48 466.002 341.175 466.113 342.099 466.286Z" fill="var(--fill-0, #4CC7F4)"/>
<path d="M371.215 473.104C372.213 473.441 372.979 473.692 373.745 473.944C372.173 474.919 370.762 475.211 369.258 473.348C370.072 473.193 370.527 473.107 371.215 473.104Z" fill="var(--fill-0, #4CC7F4)"/>
<path d="M442.524 474.976C441.722 475.089 441.145 475.125 440.195 475.185C441.437 472.92 443.02 473.744 444.356 473.575C444.429 473.804 444.501 474.033 444.574 474.262C443.966 474.475 443.358 474.687 442.524 474.976Z" fill="var(--fill-0, #4CC7F4)"/>
<path d="M394.968 477.395C393.169 477.268 393.169 477.268 391.836 476.207C393.414 475.432 394.754 476.237 396.935 476.212C395.916 476.914 395.569 477.153 394.968 477.395Z" fill="var(--fill-0, #4CC7F4)"/>
<path d="M428.594 476.081C427.317 476.629 426.017 476.938 424.492 477.301C425.29 475.289 425.29 475.289 428.594 476.081Z" fill="var(--fill-0, #4CC7F4)"/>
<path d="M464.369 48.9873C465.706 49.24 466.801 49.5306 467.896 49.8212C467.835 50.0853 467.774 50.3493 467.712 50.6133C466.314 51.0502 464.964 50.9533 463.767 49.8005C463.7 49.736 463.998 49.2924 464.369 48.9873Z" fill="var(--fill-0, #4CC7F4)"/>
<path d="M254.314 416.937C253.23 415.922 252.343 415.011 251.168 413.804C253.429 414.003 254.863 415.109 255.238 416.624C255.256 416.698 254.766 416.899 254.314 416.937Z" fill="var(--fill-0, #4CC7F4)"/>
<path d="M110.336 280.619C110.423 279.449 110.512 278.562 110.601 277.674C112.12 279.247 112.019 280.809 111.055 283.226C110.665 281.961 110.501 281.431 110.336 280.619Z" fill="var(--fill-0, #4CC7F4)"/>
<path d="M229.155 385.874C229.65 386.735 229.992 387.42 230.334 388.105C230.071 388.269 229.808 388.432 229.546 388.596C228.672 387.517 227.799 386.438 226.926 385.359C227.074 385.168 227.222 384.977 227.37 384.786C227.914 385.09 228.458 385.394 229.155 385.874Z" fill="var(--fill-0, #4CC7F4)"/>
<path d="M327.419 463.023C326.534 462.502 325.86 462.077 324.887 461.462C326.662 460.54 327.912 461.321 328.642 462.093C329.379 462.874 328.659 463.414 327.419 463.023Z" fill="var(--fill-0, #4CC7F4)"/>
<path d="M434.358 474.845C435.234 474.889 435.856 474.941 436.91 475.028C435.39 476.621 433.998 475.89 432.74 476.077C432.686 475.865 432.632 475.652 432.578 475.44C433.087 475.244 433.595 475.048 434.358 474.845Z" fill="var(--fill-0, #4CC7F4)"/>
<path d="M345.767 59.061C345.285 61.0154 343.962 60.9159 342.188 60.5181C343.141 59.1098 344.242 58.7693 345.767 59.061Z" fill="var(--fill-0, #4CC7F4)"/>
<path d="M402.927 477.489C402.023 477.465 401.377 477.454 400.737 477.384C400.546 477.364 400.373 477.181 399.984 476.948C401.394 475.607 402.728 476.075 404.792 476.792C403.856 477.193 403.522 477.336 402.927 477.489Z" fill="var(--fill-0, #4CC7F4)"/>
<path d="M419.829 477.198C418.454 477.351 417.288 477.351 415.816 477.351C417.647 475.751 418.467 475.743 419.829 477.198Z" fill="var(--fill-0, #4CC7F4)"/>
<path d="M223.893 381.111C223.562 380.274 223.363 379.627 223.164 378.981C223.391 378.862 223.619 378.744 223.846 378.626C224.479 379.558 225.111 380.489 225.744 381.421C225.576 381.591 225.408 381.762 225.24 381.932C224.835 381.722 224.43 381.511 223.893 381.111Z" fill="var(--fill-0, #4CC7F4)"/>
<path d="M626.651 265.392C628.425 266.083 627.469 267.262 627.327 268.854C626.084 267.636 626.432 266.576 626.651 265.392Z" fill="var(--fill-0, #4CC7F4)"/>
<path d="M238.839 398.672C238.561 399.104 237.963 399.54 237.919 399.49C237.308 398.791 236.771 398.026 236.059 397.063C237.797 396.545 238.195 397.659 238.839 398.672Z" fill="var(--fill-0, #4CC7F4)"/>
<path d="M394.812 24.918C394.559 24.6381 394.554 24.3836 394.547 23.9379C395.699 23.5661 396.852 23.3854 398.253 23.2363C398.507 23.524 398.513 23.7801 398.52 24.2283C397.367 24.5947 396.213 24.769 394.812 24.918Z" fill="var(--fill-0, #4CC7F4)"/>
<path d="M280.816 93.4195C281.398 93.1069 281.827 92.9421 282.257 92.7773C282.397 92.9763 282.536 93.1753 282.675 93.3743C282.034 93.9868 281.392 94.5994 280.751 95.2119C280.564 95.0809 280.378 94.9498 280.191 94.8188C280.349 94.4016 280.507 93.9844 280.816 93.4195Z" fill="var(--fill-0, #4CC7F4)"/>
<path d="M245.613 127.771C246.1 127.218 246.54 126.883 247.168 126.405C246.966 128.886 246.966 128.886 245.613 127.771Z" fill="var(--fill-0, #4CC7F4)"/>
<path d="M323.855 68.0173C324.36 67.0036 324.964 66.5046 326.163 67.172C325.568 68.0787 325.249 69.1372 323.855 68.0173Z" fill="var(--fill-0, #4CC7F4)"/>
<path d="M70.9486 49.1797C64.7414 56.7308 57.0533 60.8703 47.4328 61.3984C32.7085 62.2067 18.6197 50.4308 16.1024 35.9159C13.2896 19.6975 25.2398 0.525382 45.9849 0.00852728C60.5748 -0.354972 73.9684 10.9476 76.5343 25.3434C76.7653 26.6397 76.9848 27.938 77.2826 29.6567C78.6326 29.6567 79.9136 29.6566 81.1946 29.6568C104.922 29.6604 128.649 29.7265 152.376 29.6173C157.358 29.5944 161.244 31.2794 164.739 34.7798C180.409 50.4768 196.196 66.0577 211.942 81.6788C217.738 87.4284 223.535 93.1763 229.34 98.9166C230.194 99.7612 231.095 100.559 231.877 101.287C235.819 100.303 235.819 100.303 239.155 101.812C240.531 100.574 241.952 99.296 243.516 97.8893C244.441 99.5634 243.277 100.043 242.694 100.684C241.377 102.131 240.054 103.28 240.558 105.772C241.073 108.315 237.934 111.076 235.297 111.057C232.443 111.035 229.825 108.254 230.039 105.368C230.102 104.51 230.452 103.674 230.711 102.674C230.182 102.059 229.659 101.359 229.045 100.75C216.829 88.6195 204.605 76.4975 192.378 64.3791C182.581 54.6697 172.754 44.9897 162.991 35.2464C160.436 32.697 157.55 31.2892 153.877 31.2977C129.268 31.3545 104.657 31.349 80.0473 31.3724C79.2856 31.3732 78.5239 31.4681 77.3407 31.5473C76.7079 37.8521 74.8239 43.7765 70.9486 49.1797ZM35.7614 57.8206C41.1169 60.1705 46.8534 60.2099 52.3586 59.386C55.8942 58.8568 59.3871 56.8366 62.4937 54.8505C77.7209 45.1158 79.7955 23.375 66.888 10.2809C54.9676 -1.81189 35.4903 -1.08705 24.4949 11.5682C11.9239 26.0369 16.1091 49.7346 35.7614 57.8206ZM238.016 103.299C237.457 102.962 236.938 102.49 236.333 102.315C234.849 101.884 233.489 102.249 232.494 103.457C231.504 104.659 231.367 106.024 232.055 107.452C232.767 108.932 234.025 109.426 235.558 109.388C238.468 109.317 239.523 107.156 238.016 103.299Z" stroke="var(--stroke-0, #4CC7F4)" stroke-width="0.8" mask="url(#path-1-inside-1_0_17)"/>
<path d="M719.769 136.44C715.075 136.752 710.839 135.212 706.949 132.855C700.128 128.722 695.678 122.759 693.989 114.868C693.714 113.583 693.46 112.294 693.155 110.806C691.528 110.806 689.91 110.807 688.293 110.806C680.791 110.802 673.289 110.879 665.79 110.762C661.606 110.697 658.47 112.244 655.751 115.453C650.334 121.846 644.647 128.009 639.076 134.271C638.494 134.925 637.939 135.603 637.296 136.358C638.411 139.277 639.077 142.174 635.931 144.323C633.903 145.708 631.719 145.575 629.822 144.012C627.699 142.263 627.447 140.242 628.965 136.312C624.854 129.165 620.242 122.171 615.056 115.607C609.797 108.951 604.387 102.382 598.612 96.176C592.974 90.1177 586.791 84.5666 580.848 78.7928C580.976 78.6129 581.104 78.4329 581.232 78.2529C581.829 78.5579 582.518 78.7575 583.01 79.1833C596.923 91.2066 609.375 104.57 619.91 119.668C623.064 124.188 626.057 128.821 629.133 133.395C629.497 133.935 629.925 134.433 630.263 134.872C632.209 134.872 634.028 134.872 636.364 134.872C639.556 131.362 643.119 127.47 646.65 123.549C649.676 120.189 652.685 116.813 655.663 113.411C658.227 110.482 661.439 109.14 665.306 109.152C673.469 109.177 681.632 109.151 689.795 109.146C690.875 109.146 691.954 109.146 693.172 109.146C693.799 99.9524 697.303 92.4693 704.422 86.9345C709.659 82.8627 715.661 81.019 722.311 81.1934C736.843 81.5745 748.321 94.7383 748.771 108.074C749.258 122.494 738.457 134.652 725.312 136.162C725.038 135.655 725.035 135.38 725.258 135.001C726.127 134.736 726.77 134.581 727.411 134.415C738.809 131.457 746.435 122.225 747.052 110.639C747.68 98.8532 740.792 88.3097 729.83 84.2769C717.241 79.6453 702.756 85.9644 697.298 98.4698C692.203 110.141 696.129 124.076 706.426 130.737C710.48 133.36 714.976 134.78 719.755 135.54C719.762 135.96 719.766 136.2 719.769 136.44ZM633.766 136.26C633.113 136.325 632.409 136.257 631.815 136.48C629.993 137.165 629.197 138.758 629.565 140.736C629.89 142.485 631.231 143.588 633.072 143.618C634.915 143.648 636.49 142.381 636.788 140.508C637.113 138.466 636.136 137.136 633.766 136.26Z" stroke="var(--stroke-0, #4CC7F4)" stroke-width="0.8" mask="url(#path-1-inside-1_0_17)"/>
<path d="M757.44 370.43C764.864 366.782 772.531 365.63 780.392 368.743C791.395 373.099 797.699 381.394 798.325 393.101C798.942 404.638 793.77 413.488 783.421 419.083C768.012 427.415 748.237 418.052 744.187 400.69C743.941 399.635 743.688 398.581 743.366 397.224C742.117 397.224 740.926 397.224 739.735 397.224C703.566 397.216 667.397 397.217 631.228 397.172C629.26 397.17 627.79 397.524 626.397 399.18C624.328 401.639 622.164 401.47 618.16 398.985C617.668 398.474 617.449 398.17 617.183 397.604C617.075 396.449 617.014 395.557 616.996 394.507C617.04 394.35 617.091 394.027 617.233 393.954C617.589 393.766 617.687 393.589 617.766 393.178C618.3 392.544 618.74 392.08 619.421 391.513C621.649 390.317 623.648 390.23 625.725 391.497C625.983 391.769 626.178 391.88 626.473 392.109C626.709 392.387 626.863 392.523 627.134 392.884C627.577 393.905 627.923 394.68 628.232 395.369C637.293 396.101 740.71 395.77 743.42 394.976C743.468 394.494 743.544 393.96 743.569 393.424C743.918 386.011 747.023 379.864 752.16 374.638C752.692 374.097 753.139 373.473 753.589 372.896C753.554 372.905 753.622 372.93 753.834 372.889C754.587 372.37 755.127 371.894 755.836 371.375C756.483 371.031 756.961 370.731 757.44 370.43ZM792.91 408.445C793.825 406.324 795.004 404.276 795.611 402.071C798.28 392.384 796.446 383.587 789.354 376.368C782.256 369.142 773.425 366.973 763.764 369.712C751.154 373.288 744.083 384.936 745.414 397.647C746.769 410.579 757.418 420.017 769.774 420.403C779.458 420.705 787.087 416.796 792.91 408.445ZM619.037 396.192C619.533 397.012 619.865 398.03 620.56 398.612C622.071 399.876 624.368 399.484 625.565 397.968C626.779 396.431 626.611 394.257 625.171 392.874C623.742 391.5 621.538 391.484 620.173 393.041C619.573 393.726 619.387 394.774 619.037 396.192Z" stroke="var(--stroke-0, #4CC7F4)" stroke-width="0.8" mask="url(#path-1-inside-1_0_17)"/>
<path d="M117.802 218.381C114.473 216.204 113.349 213.337 115.277 209.5C111.262 205.456 107.313 201.476 103.362 197.499C101.652 195.778 99.9177 194.08 98.2276 192.34C96.3681 190.426 94.0917 189.308 91.4656 189.292C81.3213 189.232 71.1764 189.283 61.0317 189.309C60.722 189.309 60.4126 189.485 60.1202 189.573C58.0936 207.824 43.513 216.802 29.8185 215.155C17.9566 213.729 7.60127 202.403 7.08624 189.969C6.52074 176.316 16.1167 164.419 29.7937 162.03C37.6197 160.663 44.4228 163.268 50.2905 168.281C56.0696 173.218 59.0423 179.769 59.9633 187.599C61.255 187.599 62.3305 187.597 63.4059 187.6C72.0075 187.621 80.6108 187.754 89.2101 187.622C93.8368 187.551 97.458 189.107 100.626 192.497C105.216 197.408 110.102 202.044 114.85 206.809C115.731 207.693 116.488 208.286 117.99 207.893C121.133 207.072 123.802 208.71 124.67 211.618C125.393 214.042 123.923 216.697 121.141 217.932C120.642 218.154 120.087 218.248 119.12 218.477C118.388 218.496 118.095 218.439 117.802 218.381ZM17.4067 207.862C17.9322 208.264 18.4454 208.683 18.9848 209.065C32.9709 218.979 51.9501 212.486 56.9147 196.092C60.313 184.87 55.6207 172.585 45.7426 166.84C35.6416 160.967 23.2528 162.789 15.2724 171.543C5.70551 182.037 6.81961 198.479 17.4067 207.862ZM121.915 215.959C122.319 215.443 122.841 214.98 123.105 214.4C123.837 212.791 123.375 211.127 121.993 209.957C120.78 208.931 118.978 208.78 117.685 209.596C116.207 210.527 115.443 212.328 115.875 213.862C116.321 215.446 117.822 216.641 119.547 216.652C120.189 216.656 120.833 216.395 121.915 215.959Z" stroke="var(--stroke-0, #4CC7F4)" stroke-width="0.8" mask="url(#path-1-inside-1_0_17)"/>
<path d="M38.2187 383.474C30.695 385.44 23.3886 385.044 16.3175 381.588C0.0375905 373.632 -5.05639 353.227 5.59463 338.528C15.2777 325.164 33.088 322.044 46.3126 331.642C53.7442 337.036 57.864 344.523 58.666 353.744C58.7136 354.29 58.7476 354.838 58.7972 355.385C58.807 355.492 58.8598 355.596 58.9724 355.955C79.9129 355.955 100.935 355.955 121.968 355.955C124.312 354.275 123.951 351.816 123.96 349.239C124.46 350.006 124.959 350.774 125.561 351.699C125.985 351.723 126.522 351.814 127.048 351.773C129.553 351.58 131.313 352.69 132.387 354.88C133.501 357.149 132.917 359.17 131.251 360.941C130.876 361.338 130.413 361.652 129.588 362.176C128.455 362.476 127.724 362.605 126.992 362.734C126.025 362.164 125.057 361.594 123.832 360.758C123.205 359.977 122.836 359.463 122.411 358.716C122.09 358.333 121.826 358.182 121.291 357.95C119.724 357.876 118.427 357.886 117.13 357.896C99.2053 357.843 81.2809 357.791 62.7908 357.73C61.0735 357.889 59.9219 358.058 58.6767 358.391C58.5905 358.683 58.5979 358.809 58.5415 359.163C58.3549 360.326 58.2322 361.261 58.1095 362.196C55.8776 369.366 52.032 375.398 45.4042 379.953C42.7737 381.284 40.4962 382.379 38.2187 383.474ZM56.945 357.126C56.9377 356.355 56.945 355.583 56.9209 354.812C56.4706 340.41 45.5751 328.79 31.5613 327.76C17.2443 326.709 4.37458 336.878 2.01601 351.107C0.151597 362.354 4.91298 372.879 14.5792 378.877C24.2523 384.879 36.3202 384.539 45.4052 378.047C52.393 373.054 56.1212 366.239 56.945 357.126ZM126.355 360.737C127.002 360.79 127.672 360.975 128.294 360.872C130.534 360.504 131.927 358.38 131.371 356.31C130.759 354.029 128.403 352.838 126.214 353.702C124.195 354.498 123.328 356.801 124.383 358.854C124.714 359.498 125.374 359.974 126.355 360.737Z" stroke="var(--stroke-0, #4CC7F4)" stroke-width="0.8" mask="url(#path-1-inside-1_0_17)"/>
<path d="M398.5 23.2677C402.549 22.8281 406.589 22.221 410.65 21.9804C422.333 21.2884 434.003 21.4492 445.694 22.2759C472.144 24.1464 497.462 30.6382 521.843 40.8024C530.172 44.2747 538.102 48.7081 546.199 52.7321C546.712 52.9871 547.096 53.5006 547.757 54.0854C546.06 54.8749 545.165 53.8081 544.192 53.3411C536.238 49.5266 528.462 45.2956 520.338 41.8944C501.443 33.9843 481.835 28.4827 461.513 25.6105C449.036 23.8469 436.499 22.9176 423.911 23.1709C415.646 23.3372 407.391 24.0277 398.825 24.2596C398.512 23.7798 398.506 23.5238 398.5 23.2677Z" stroke="var(--stroke-0, #4CC7F4)" stroke-width="0.8" mask="url(#path-1-inside-1_0_17)"/>
<path d="M652.103 182.716C657.232 198.054 660.931 213.478 663.16 229.227C664.861 241.245 665.75 253.34 665.471 265.495C665.453 266.297 665.249 267.094 665.023 268.623C664.336 267.594 663.892 267.222 663.85 266.809C663.728 265.607 663.741 264.389 663.746 263.177C663.851 238.406 660.121 214.2 652.901 190.532C649.101 178.075 644.438 165.936 638.723 154.216C638.279 153.305 637.954 152.335 637.316 150.755C640.425 152.829 644.745 162.476 652.103 182.716Z" stroke="var(--stroke-0, #4CC7F4)" stroke-width="0.8" mask="url(#path-1-inside-1_0_17)"/>
<path d="M394.568 24.894C390.446 25.593 386.327 26.3075 382.202 26.988C365.828 29.6899 349.969 34.2608 334.473 40.1446C332.309 40.9659 330.184 41.8859 328.017 42.6956C327.588 42.8556 327.049 42.7187 326.473 42.7187C326.664 41.0941 327.975 41.0214 328.898 40.6467C339.531 36.3321 350.354 32.5791 361.489 29.7655C372.185 27.063 382.943 24.7002 394.255 23.9209C394.557 24.3849 394.563 24.6395 394.568 24.894Z" stroke="var(--stroke-0, #4CC7F4)" stroke-width="0.8" mask="url(#path-1-inside-1_0_17)"/>
<path d="M223.332 122.795C213.41 136.131 205.244 150.215 198.651 165.216C198.253 166.121 198.127 167.442 196.57 167.313C197.31 159.688 220.694 120.556 226.602 117.286C226.272 119.657 224.435 120.892 223.332 122.795Z" stroke="var(--stroke-0, #4CC7F4)" stroke-width="0.8" mask="url(#path-1-inside-1_0_17)"/>
<path d="M666.674 275.282C669.11 277.595 669.614 279.222 668.684 281.181C667.741 283.164 665.449 284.405 663.559 283.956C661.264 283.41 659.605 281.358 659.721 279.207C659.846 276.882 661.822 274.842 664.22 274.715C664.954 274.676 665.707 274.995 666.674 275.282Z" stroke="var(--stroke-0, #4CC7F4)" stroke-width="0.8" mask="url(#path-1-inside-1_0_17)"/>
<path d="M313.99 49.191C311.471 50.4194 309.162 51.5476 306.531 52.8324C307.174 50.4025 311.847 47.7759 315.881 47.4209C315.076 48.2202 314.638 48.6555 313.99 49.191Z" stroke="var(--stroke-0, #4CC7F4)" stroke-width="0.8" mask="url(#path-1-inside-1_0_17)"/>
<path d="M258.02 84.0634C258.709 83.6548 259.232 83.3922 259.967 83.0234C259.366 85.2804 256.034 88.4228 252.68 90.1564C252.743 88.5144 252.743 88.5144 258.02 84.0634Z" stroke="var(--stroke-0, #4CC7F4)" stroke-width="0.8" mask="url(#path-1-inside-1_0_17)"/>
<path d="M275.506 72.3034C273.467 73.6106 272.008 75.4532 269.563 76.0179C270.276 73.8071 274.231 70.7503 277.447 69.7979C277.744 71.2925 276.363 71.4866 275.506 72.3034Z" stroke="var(--stroke-0, #4CC7F4)" stroke-width="0.8" mask="url(#path-1-inside-1_0_17)"/>
<path d="M295.054 59.3707C292.425 60.7901 290.289 62.6872 287.184 63.644C288.433 61.3 292.391 58.6989 295.807 57.7939C295.571 58.4081 295.41 58.8263 295.054 59.3707Z" stroke="var(--stroke-0, #4CC7F4)" stroke-width="0.8" mask="url(#path-1-inside-1_0_17)"/>
<path d="M116.273 328.355C116.018 325.906 114.401 323.884 115.393 321.169C115.981 321.679 116.651 321.972 116.771 322.414C117.358 324.589 117.823 326.798 118.265 329.008C118.332 329.343 118.049 329.748 117.753 330.658C117.098 329.705 116.719 329.153 116.273 328.355Z" stroke="var(--stroke-0, #4CC7F4)" stroke-width="0.8" mask="url(#path-1-inside-1_0_17)"/>
<path d="M226.5 155.5C228.014 156.216 227 155.5 227.548 155.998C225.168 160.267 225.168 160.267 224.115 160.566C224 160.5 224 160.5 224 160C224 159.5 226.115 155.472 226.5 155.5Z" stroke="var(--stroke-0, #4CC7F4)" stroke-width="0.8" mask="url(#path-1-inside-1_0_17)"/>
<path d="M114.13 311.667C115.223 314.256 115.586 317.195 115.151 319.074C114.765 318.791 114.226 318.603 114.167 318.317C113.756 316.324 113.415 314.314 113.142 312.298C113.112 312.077 113.654 311.779 114.13 311.667Z" stroke="var(--stroke-0, #4CC7F4)" stroke-width="0.8" mask="url(#path-1-inside-1_0_17)"/>
<path d="M117.816 334.359C117.865 333.651 117.974 333.184 118.112 332.592C120.005 334.244 120.755 336.352 120.452 339.001C118.19 338.287 118.665 336.055 117.816 334.359Z" stroke="var(--stroke-0, #4CC7F4)" stroke-width="0.8" mask="url(#path-1-inside-1_0_17)"/>
<path d="M252.816 120.456C253.791 117.615 255.741 115.63 258.489 113.516C257.794 116.123 255.737 118.658 253.034 120.431C252.808 120.448 252.816 120.456 252.816 120.456Z" stroke="var(--stroke-0, #4CC7F4)" stroke-width="0.8" mask="url(#path-1-inside-1_0_17)"/>
<path d="M112.684 308.658C112.658 306.198 111.015 303.974 112.168 301.496C113.918 303.497 114.327 306.849 113.185 308.836C113.157 308.884 112.978 308.846 112.684 308.658Z" stroke="var(--stroke-0, #4CC7F4)" stroke-width="0.8" mask="url(#path-1-inside-1_0_17)"/>
<path d="M272.918 100.432C274.495 98.1749 276.33 96.4549 279.133 95.3799C277.548 98.0524 274.744 100.347 272.918 100.432Z" stroke="var(--stroke-0, #4CC7F4)" stroke-width="0.8" mask="url(#path-1-inside-1_0_17)"/>
<path d="M112.119 288.951C111.994 289.56 111.866 289.932 111.604 290.691C110.366 288.678 110.454 287.018 110.952 284.96C112.549 286.133 111.847 287.563 112.119 288.951Z" stroke="var(--stroke-0, #4CC7F4)" stroke-width="0.8" mask="url(#path-1-inside-1_0_17)"/>
<path d="M457.036 49.4437C455.994 49.1055 455.213 48.8084 453.754 48.2535C456.363 47.4404 458.166 47.1549 460.012 48.7123C459.237 49.9595 458.173 49.3885 457.036 49.4437Z" stroke="var(--stroke-0, #4CC7F4)" stroke-width="0.8" mask="url(#path-1-inside-1_0_17)"/>
<path d="M299.721 450.237C298.529 449.328 296.677 449.406 296.625 447.144C298.814 447.703 300.668 448.211 301.798 450.823C300.882 450.584 300.404 450.459 299.721 450.237Z" stroke="var(--stroke-0, #4CC7F4)" stroke-width="0.8" mask="url(#path-1-inside-1_0_17)"/>
<path d="M267.963 428.839C266.412 427.522 264.308 426.988 263.57 424.887C266.037 424.945 267.891 426.598 267.963 428.839Z" stroke="var(--stroke-0, #4CC7F4)" stroke-width="0.8" mask="url(#path-1-inside-1_0_17)"/>
<path d="M112.025 269.956C112.219 271.69 112.957 273.365 111.125 274.686C109.867 273.105 110.246 271.5 110.757 269.926C110.81 269.762 111.479 269.799 112.025 269.956Z" stroke="var(--stroke-0, #4CC7F4)" stroke-width="0.8" mask="url(#path-1-inside-1_0_17)"/>
<path d="M438.494 45.7285C440.009 45.9593 441.272 46.2192 443.06 46.587C440.902 48.2815 439.112 47.218 437.18 47.019C437.534 46.5985 437.889 46.1781 438.494 45.7285Z" stroke="var(--stroke-0, #4CC7F4)" stroke-width="0.8" mask="url(#path-1-inside-1_0_17)"/>
<path d="M409.282 478C408.48 477.729 407.93 477.465 407.067 477.05C408.928 475.684 410.489 476.084 412.309 476.555C411.709 478.125 410.581 477.986 409.282 478Z" stroke="var(--stroke-0, #4CC7F4)" stroke-width="0.8" mask="url(#path-1-inside-1_0_17)"/>
<path d="M113.067 257.465C112.795 258.334 112.533 258.93 112.159 259.78C110.702 257.202 110.768 256.611 112.828 254.138C112.93 255.403 113.003 256.298 113.067 257.465Z" stroke="var(--stroke-0, #4CC7F4)" stroke-width="0.8" mask="url(#path-1-inside-1_0_17)"/>
<path d="M286.148 91.3471C285.613 91.5041 285.253 91.538 284.578 91.6016C285.637 89.1846 287.663 88.6047 289.421 87.6465C289.282 89.6418 287.599 90.2548 286.148 91.3471Z" stroke="var(--stroke-0, #4CC7F4)" stroke-width="0.8" mask="url(#path-1-inside-1_0_17)"/>
<path d="M413.576 47.3489C412.618 46.6192 412.369 45.9052 413.576 45.7245C414.802 45.5409 416.078 45.6839 417.694 45.6839C416.781 48.0595 415.151 47.3903 413.576 47.3489Z" stroke="var(--stroke-0, #4CC7F4)" stroke-width="0.8" mask="url(#path-1-inside-1_0_17)"/>
<path d="M385.122 476.537C384.757 476.014 384.628 475.582 384.5 475.15C386.071 474.794 387.657 474.358 389.057 476.003C387.905 477.318 386.547 476.522 385.122 476.537Z" stroke="var(--stroke-0, #4CC7F4)" stroke-width="0.8" mask="url(#path-1-inside-1_0_17)"/>
<path d="M373.388 50.8005C374.737 50.5746 375.84 50.4104 377.377 50.1816C376.262 53.1472 373.843 51.464 372.758 52.8871C371.822 51.5904 372.296 51.1536 373.388 50.8005Z" stroke="var(--stroke-0, #4CC7F4)" stroke-width="0.8" mask="url(#path-1-inside-1_0_17)"/>
<path d="M390.11 47.6621C391.205 47.7077 392.04 47.7623 392.99 47.8245C391.759 49.7239 391.759 49.7239 388.34 49.2185C388.069 47.9486 389.006 47.8547 390.11 47.6621Z" stroke="var(--stroke-0, #4CC7F4)" stroke-width="0.8" mask="url(#path-1-inside-1_0_17)"/>
<path d="M621.061 211.157C621.239 212.29 621.396 213.175 621.553 214.06C619.69 212.738 619.183 211.017 619.281 208.908C620.87 208.93 620.943 209.929 621.061 211.157Z" stroke="var(--stroke-0, #4CC7F4)" stroke-width="0.8" mask="url(#path-1-inside-1_0_17)"/>
<path d="M252.812 120.444C251.974 122.401 251.257 124.469 248.383 125.151C248.968 122.611 250.723 121.601 252.596 120.479C252.824 120.456 252.816 120.448 252.812 120.444Z" stroke="var(--stroke-0, #4CC7F4)" stroke-width="0.8" mask="url(#path-1-inside-1_0_17)"/>
<path d="M397.482 47.0174C398.904 46.7995 400.079 46.631 401.264 46.4609C401.32 48.2072 401.32 48.2072 396.539 48.3926C396.818 47.8604 397.025 47.4636 397.482 47.0174Z" stroke="var(--stroke-0, #4CC7F4)" stroke-width="0.8" mask="url(#path-1-inside-1_0_17)"/>
<path d="M112.113 251.835C112.363 250.074 111.568 248.034 113.817 246.76C114.18 248.659 113.789 250.186 113.389 251.686C113.337 251.881 112.669 251.912 112.113 251.835Z" stroke="var(--stroke-0, #4CC7F4)" stroke-width="0.8" mask="url(#path-1-inside-1_0_17)"/>
<path d="M274.368 431.982C274.951 432.624 275.516 433.33 274.496 433.551C273.226 433.826 271.426 432.012 270.84 429.715C272.191 430.575 273.189 431.21 274.368 431.982Z" stroke="var(--stroke-0, #4CC7F4)" stroke-width="0.8" mask="url(#path-1-inside-1_0_17)"/>
<path d="M384.432 50.2475C382.969 50.5421 381.724 50.7159 380.195 50.9291C381.37 48.7666 383.507 48.3231 384.902 49.5857C384.945 49.6249 384.739 49.94 384.432 50.2475Z" stroke="var(--stroke-0, #4CC7F4)" stroke-width="0.8" mask="url(#path-1-inside-1_0_17)"/>
<path d="M249.325 411.756C247.918 410.577 246.728 409.364 245.16 407.767C248.104 408.224 249.363 409.534 249.325 411.756Z" stroke="var(--stroke-0, #4CC7F4)" stroke-width="0.8" mask="url(#path-1-inside-1_0_17)"/>
<path d="M279.679 437.854C278.546 436.948 277.614 436.139 276.379 435.069C279.132 434.991 279.588 435.299 281.15 438.035C280.63 438.001 280.255 437.976 279.679 437.854Z" stroke="var(--stroke-0, #4CC7F4)" stroke-width="0.8" mask="url(#path-1-inside-1_0_17)"/>
<path d="M114.798 240.138C114.747 241.781 114.54 243.219 114.267 245.12C112.466 242.492 112.684 241.136 114.798 240.138Z" stroke="var(--stroke-0, #4CC7F4)" stroke-width="0.8" mask="url(#path-1-inside-1_0_17)"/>
<path d="M319.491 69.2957C320.255 69.1641 320.808 69.1338 321.362 69.1035C321.445 69.3331 321.529 69.5627 321.612 69.7922C320.315 70.5469 319.017 71.3016 317.507 72.1795C316.857 70.0286 318.444 69.9905 319.491 69.2957Z" stroke="var(--stroke-0, #4CC7F4)" stroke-width="0.8" mask="url(#path-1-inside-1_0_17)"/>
<path d="M329.415 66.5082C328.802 66.6079 328.404 66.608 327.766 66.608C328.465 64.4176 330.299 64.3859 331.91 63.5898C332.452 65.8594 330.551 65.7248 329.415 66.5082Z" stroke="var(--stroke-0, #4CC7F4)" stroke-width="0.8" mask="url(#path-1-inside-1_0_17)"/>
<path d="M111.039 294.983C111.401 294.584 111.726 294.456 112.05 294.327C112.531 295.903 113.46 297.442 112.464 299.347C110.196 298.5 111.364 296.593 111.039 294.983Z" stroke="var(--stroke-0, #4CC7F4)" stroke-width="0.8" mask="url(#path-1-inside-1_0_17)"/>
<path d="M233.088 146.967C232.653 147.215 232.367 147.293 231.719 147.471C232.327 145.171 233.285 143.532 235.044 142.447C235.267 142.582 235.489 142.718 235.712 142.853C234.887 144.168 234.062 145.482 233.088 146.967Z" stroke="var(--stroke-0, #4CC7F4)" stroke-width="0.8" mask="url(#path-1-inside-1_0_17)"/>
<path d="M447.542 46.3477C448.714 46.6594 449.634 46.9549 451.051 47.4101C448.903 48.6039 447.36 48.5293 445.441 47.0841C446.263 46.7495 446.777 46.5405 447.542 46.3477Z" stroke="var(--stroke-0, #4CC7F4)" stroke-width="0.8" mask="url(#path-1-inside-1_0_17)"/>
<path d="M116.795 225.796C117.186 227.441 117.285 228.984 115.961 230.62C115.112 228.61 115.88 227.166 116.795 225.796Z" stroke="var(--stroke-0, #4CC7F4)" stroke-width="0.8" mask="url(#path-1-inside-1_0_17)"/>
<path d="M623.086 227.14C623.173 226.417 623.271 225.941 623.519 224.74C624.612 226.858 625.404 228.245 624.533 230.287C623.37 229.466 623.149 228.472 623.086 227.14Z" stroke="var(--stroke-0, #4CC7F4)" stroke-width="0.8" mask="url(#path-1-inside-1_0_17)"/>
<path d="M241.649 134.151C241.043 131.882 243.102 131.297 244.127 129.703C244.589 131.748 244.589 131.748 241.649 134.151Z" stroke="var(--stroke-0, #4CC7F4)" stroke-width="0.8" mask="url(#path-1-inside-1_0_17)"/>
<path d="M336.956 61.629C337.852 61.4351 338.525 61.309 339.614 61.1045C338.586 63.2078 336.908 63.3503 335.403 64.0403C334.536 62.3218 335.943 62.1946 336.956 61.629Z" stroke="var(--stroke-0, #4CC7F4)" stroke-width="0.8" mask="url(#path-1-inside-1_0_17)"/>
<path d="M360.998 55.2496C359.623 55.6989 358.432 55.9921 356.938 56.3604C357.899 54.3382 359.936 53.4703 361.252 54.2062C361.36 54.2671 361.212 54.7869 360.998 55.2496Z" stroke="var(--stroke-0, #4CC7F4)" stroke-width="0.8" mask="url(#path-1-inside-1_0_17)"/>
<path d="M263.909 109.746C262.817 110.77 261.879 111.632 260.625 112.783C260.972 110.271 261.661 109.491 264.684 107.978C264.397 108.72 264.229 109.153 263.909 109.746Z" stroke="var(--stroke-0, #4CC7F4)" stroke-width="0.8" mask="url(#path-1-inside-1_0_17)"/>
<path d="M349.574 58.0067C350.573 56.1212 352.072 56.0753 354.097 56.5052C352.78 58.1811 351.394 58.6933 349.574 58.0067Z" stroke="var(--stroke-0, #4CC7F4)" stroke-width="0.8" mask="url(#path-1-inside-1_0_17)"/>
<path d="M313.277 74.2948C312.319 74.6854 311.565 74.972 310.34 75.4376C311.271 72.8883 312.894 72.5552 314.484 72.168C314.639 72.3759 314.794 72.5837 314.948 72.7915C314.459 73.258 313.97 73.7244 313.277 74.2948Z" stroke="var(--stroke-0, #4CC7F4)" stroke-width="0.8" mask="url(#path-1-inside-1_0_17)"/>
<path d="M307.162 454.106C305.772 453.433 304.302 453.123 303.855 450.664C305.626 451.689 306.862 452.404 308.097 453.12C307.86 453.465 307.622 453.809 307.162 454.106Z" stroke="var(--stroke-0, #4CC7F4)" stroke-width="0.8" mask="url(#path-1-inside-1_0_17)"/>
<path d="M378.566 475.562C378.008 475.46 377.676 475.438 377.39 475.313C377.236 475.245 377.16 475 376.867 474.566C378.67 473.926 380.196 473.899 381.971 475.199C380.749 476.433 379.762 475.843 378.566 475.562Z" stroke="var(--stroke-0, #4CC7F4)" stroke-width="0.8" mask="url(#path-1-inside-1_0_17)"/>
<path d="M368.796 53.2376C367.29 53.6837 365.956 53.9649 364.156 54.3443C366.051 51.8946 367.092 51.7144 368.796 53.2376Z" stroke="var(--stroke-0, #4CC7F4)" stroke-width="0.8" mask="url(#path-1-inside-1_0_17)"/>
<path d="M481.338 54.1572C480.541 53.7823 479.983 53.4357 479.098 52.8859C482.066 52.4318 482.972 52.7617 483.812 54.5839C482.948 54.4298 482.263 54.3077 481.338 54.1572Z" stroke="var(--stroke-0, #4CC7F4)" stroke-width="0.8" mask="url(#path-1-inside-1_0_17)"/>
<path d="M241.547 402.197C242.908 403.046 244.294 403.758 244.013 405.979C242.435 404.893 240.521 404.57 241.547 402.197Z" stroke="var(--stroke-0, #4CC7F4)" stroke-width="0.8" mask="url(#path-1-inside-1_0_17)"/>
<path d="M626.166 237.414C625.479 238.45 624.818 237.959 624.711 237.365C624.481 236.094 624.537 234.771 624.477 233.469C624.734 233.438 624.991 233.406 625.249 233.374C625.564 234.642 625.879 235.91 626.166 237.414Z" stroke="var(--stroke-0, #4CC7F4)" stroke-width="0.8" mask="url(#path-1-inside-1_0_17)"/>
<path d="M490.117 56.5596C489.031 56.004 487.612 56.2626 487.531 54.7057C489.862 54.5819 489.991 54.6277 491.898 56.3854C491.236 56.497 490.787 56.5729 490.117 56.5596Z" stroke="var(--stroke-0, #4CC7F4)" stroke-width="0.8" mask="url(#path-1-inside-1_0_17)"/>
<path d="M472.446 51.9884C471.982 51.5873 471.738 51.2824 471.422 50.8876C474.195 50.4251 475.023 50.7239 475.862 52.5903C474.699 52.4063 473.683 52.2454 472.446 51.9884Z" stroke="var(--stroke-0, #4CC7F4)" stroke-width="0.8" mask="url(#path-1-inside-1_0_17)"/>
<path d="M121.491 341.908C122.443 343.286 123.19 344.54 122.645 346.184C120.491 344.522 120.145 343.316 121.491 341.908Z" stroke="var(--stroke-0, #4CC7F4)" stroke-width="0.8" mask="url(#path-1-inside-1_0_17)"/>
<path d="M116.057 232.908C115.928 234.512 116.338 236.239 114.098 237.4C114.557 235.414 113.386 233.451 116.057 232.908Z" stroke="var(--stroke-0, #4CC7F4)" stroke-width="0.8" mask="url(#path-1-inside-1_0_17)"/>
<path d="M260.498 420.627C261.098 421.37 261.526 421.95 262.168 422.822C259.666 423.088 258.912 421.713 257.875 419.553C259.079 420 259.702 420.232 260.498 420.627Z" stroke="var(--stroke-0, #4CC7F4)" stroke-width="0.8" mask="url(#path-1-inside-1_0_17)"/>
<path d="M112.424 263.097C112.207 264.578 112.989 266.172 110.637 267.292C110.839 265.078 110.987 263.444 111.136 261.81C111.324 261.772 111.511 261.733 111.699 261.694C111.94 262.071 112.181 262.448 112.424 263.097Z" stroke="var(--stroke-0, #4CC7F4)" stroke-width="0.8" mask="url(#path-1-inside-1_0_17)"/>
<path d="M229.867 149.275C230.338 148.881 230.68 148.669 231.289 148.291C231.533 150.667 230.196 151.695 229.122 152.877C228.852 152.746 228.582 152.616 228.313 152.485C228.787 151.476 229.262 150.467 229.867 149.275Z" stroke="var(--stroke-0, #4CC7F4)" stroke-width="0.8" mask="url(#path-1-inside-1_0_17)"/>
<path d="M294.945 84.6917C293.899 86.0852 292.78 87.1505 290.98 86.9149C292.152 85.8598 292.504 83.5275 294.945 84.6917Z" stroke="var(--stroke-0, #4CC7F4)" stroke-width="0.8" mask="url(#path-1-inside-1_0_17)"/>
<path d="M269.958 102.718C270.735 105.236 268.217 105.144 267.275 106.401C266.474 103.984 268.704 103.784 269.958 102.718Z" stroke="var(--stroke-0, #4CC7F4)" stroke-width="0.8" mask="url(#path-1-inside-1_0_17)"/>
<path d="M220.637 166.007C221.342 164.629 222.052 163.466 223.014 161.891C223.439 164.949 222.776 165.941 220.637 166.007Z" stroke="var(--stroke-0, #4CC7F4)" stroke-width="0.8" mask="url(#path-1-inside-1_0_17)"/>
<path d="M357.57 470.539C358.244 470.835 358.686 471.047 359.587 471.476C357.333 472.623 355.944 471.645 354.117 470.887C355.34 469.785 356.347 470.175 357.57 470.539Z" stroke="var(--stroke-0, #4CC7F4)" stroke-width="0.8" mask="url(#path-1-inside-1_0_17)"/>
<path d="M499.193 57.9801C499.339 58.4841 499.313 58.8406 499.287 59.1972C497.904 58.8918 496.418 58.7966 495.281 57.3922C496.866 56.4794 497.918 57.3446 499.193 57.9801Z" stroke="var(--stroke-0, #4CC7F4)" stroke-width="0.8" mask="url(#path-1-inside-1_0_17)"/>
<path d="M622.98 222.136C621.361 221.005 621.696 219.637 622.297 218.216C623.008 219.424 624.165 220.507 622.98 222.136Z" stroke="var(--stroke-0, #4CC7F4)" stroke-width="0.8" mask="url(#path-1-inside-1_0_17)"/>
<path d="M304.09 78.9399C304.339 76.8925 305.72 76.4017 307.723 76.0986C307.131 78.1488 305.75 78.6983 304.09 78.9399Z" stroke="var(--stroke-0, #4CC7F4)" stroke-width="0.8" mask="url(#path-1-inside-1_0_17)"/>
<path d="M117.727 218.634C118.093 218.437 118.386 218.494 118.902 218.58C118.912 220.131 119.226 221.857 117.473 223.037C116.522 221.45 117.363 220.18 117.727 218.634Z" stroke="var(--stroke-0, #4CC7F4)" stroke-width="0.8" mask="url(#path-1-inside-1_0_17)"/>
<path d="M448.699 473.8C449.261 471.309 450.972 472.431 453.155 472.319C451.507 473.73 450.299 474.106 448.699 473.8Z" stroke="var(--stroke-0, #4CC7F4)" stroke-width="0.8" mask="url(#path-1-inside-1_0_17)"/>
<path d="M335.099 464.013C335.716 464.253 336.119 464.392 336.523 464.532C334.189 465.757 332.864 465.196 332.066 463.065C333.006 463.348 333.945 463.63 335.099 464.013Z" stroke="var(--stroke-0, #4CC7F4)" stroke-width="0.8" mask="url(#path-1-inside-1_0_17)"/>
<path d="M290.07 444.263C290.16 443.795 290.357 443.303 290.481 443.321C292.035 443.546 293.251 444.224 293.351 446.348C292.282 445.724 291.213 445.1 290.07 444.263Z" stroke="var(--stroke-0, #4CC7F4)" stroke-width="0.8" mask="url(#path-1-inside-1_0_17)"/>
<path d="M233.471 394.064C232.714 393.061 232.13 392.204 231.547 391.348C233.47 391.109 234.312 392.194 234.783 393.448C235.102 394.299 234.459 394.585 233.471 394.064Z" stroke="var(--stroke-0, #4CC7F4)" stroke-width="0.8" mask="url(#path-1-inside-1_0_17)"/>
<path d="M297.739 81.7976C298.96 80.8741 299.904 79.7191 302.128 80.6177C300.394 81.7049 299.106 82.5125 297.328 83.6271C297.474 82.6884 297.529 82.3299 297.739 81.7976Z" stroke="var(--stroke-0, #4CC7F4)" stroke-width="0.8" mask="url(#path-1-inside-1_0_17)"/>
<path d="M313.117 456.921C312.35 456.407 311.802 455.985 310.82 455.229C313.084 454.944 314.42 455.439 315.591 456.762C314.834 457.928 314.072 457.336 313.117 456.921Z" stroke="var(--stroke-0, #4CC7F4)" stroke-width="0.8" mask="url(#path-1-inside-1_0_17)"/>
<path d="M320.966 460.226C319.756 459.704 318.782 459.202 317.809 458.7C319.528 457.785 320.74 458.421 321.87 459.293C321.885 459.304 321.435 459.915 320.966 460.226Z" stroke="var(--stroke-0, #4CC7F4)" stroke-width="0.8" mask="url(#path-1-inside-1_0_17)"/>
<path d="M239.389 138.094C238.676 138.71 238.12 139.156 237.105 139.969C237.389 137.734 238.213 136.62 240.326 135.48C239.932 136.712 239.739 137.318 239.389 138.094Z" stroke="var(--stroke-0, #4CC7F4)" stroke-width="0.8" mask="url(#path-1-inside-1_0_17)"/>
<path d="M429.427 45.6706C430.893 45.6608 432.102 45.697 433.31 45.7332C433.305 46.0065 433.3 46.2799 433.295 46.5532C431.937 47.3025 430.464 47.0861 428.988 46.6651C428.96 46.6573 429.105 46.0462 429.427 45.6706Z" stroke="var(--stroke-0, #4CC7F4)" stroke-width="0.8" mask="url(#path-1-inside-1_0_17)"/>
<path d="M407.151 46.2334C408.083 46.3429 408.752 46.4554 409.422 46.5679C407.996 47.9092 406.503 47.6321 404.871 47.3626C405.123 45.9212 406.164 46.3824 407.151 46.2334Z" stroke="var(--stroke-0, #4CC7F4)" stroke-width="0.8" mask="url(#path-1-inside-1_0_17)"/>
<path d="M362.348 472.222C363.708 472.061 365.05 472.142 366.818 472.249C364.687 473.819 364.592 473.815 362.348 472.222Z" stroke="var(--stroke-0, #4CC7F4)" stroke-width="0.8" mask="url(#path-1-inside-1_0_17)"/>
<path d="M725.036 135.106C725.039 135.381 725.042 135.656 725.045 136.136C723.48 136.411 721.915 136.479 720.062 136.494C719.77 136.2 719.766 135.961 720.049 135.495C721.902 135.215 723.469 135.161 725.036 135.106Z" stroke="var(--stroke-0, #4CC7F4)" stroke-width="0.8" mask="url(#path-1-inside-1_0_17)"/>
<path d="M286.918 441.956C285.334 441.61 283.968 441.051 283.332 439.148C285.508 439.095 286.481 440.185 286.918 441.956Z" stroke="var(--stroke-0, #4CC7F4)" stroke-width="0.8" mask="url(#path-1-inside-1_0_17)"/>
<path d="M425.066 45.8729C423.957 47.9568 422.353 46.7399 420.117 46.6414C421.996 45.1784 423.471 45.6579 425.066 45.8729Z" stroke="var(--stroke-0, #4CC7F4)" stroke-width="0.8" mask="url(#path-1-inside-1_0_17)"/>
<path d="M351.165 469.578C349.485 470.54 348.177 470.045 346.797 468.595C348.676 467.825 349.925 468.574 351.165 469.578Z" stroke="var(--stroke-0, #4CC7F4)" stroke-width="0.8" mask="url(#path-1-inside-1_0_17)"/>
<path d="M342.099 466.286C342.697 466.774 343.064 467.2 343.598 467.817C340.644 467.697 340.644 467.697 339.57 465.857C340.48 466.002 341.175 466.113 342.099 466.286Z" stroke="var(--stroke-0, #4CC7F4)" stroke-width="0.8" mask="url(#path-1-inside-1_0_17)"/>
<path d="M371.215 473.104C372.213 473.441 372.979 473.692 373.745 473.944C372.173 474.919 370.762 475.211 369.258 473.348C370.072 473.193 370.527 473.107 371.215 473.104Z" stroke="var(--stroke-0, #4CC7F4)" stroke-width="0.8" mask="url(#path-1-inside-1_0_17)"/>
<path d="M442.524 474.976C441.722 475.089 441.145 475.125 440.195 475.185C441.437 472.92 443.02 473.744 444.356 473.575C444.429 473.804 444.501 474.033 444.574 474.262C443.966 474.475 443.358 474.687 442.524 474.976Z" stroke="var(--stroke-0, #4CC7F4)" stroke-width="0.8" mask="url(#path-1-inside-1_0_17)"/>
<path d="M394.968 477.395C393.169 477.268 393.169 477.268 391.836 476.207C393.414 475.432 394.754 476.237 396.935 476.212C395.916 476.914 395.569 477.153 394.968 477.395Z" stroke="var(--stroke-0, #4CC7F4)" stroke-width="0.8" mask="url(#path-1-inside-1_0_17)"/>
<path d="M428.594 476.081C427.317 476.629 426.017 476.938 424.492 477.301C425.29 475.289 425.29 475.289 428.594 476.081Z" stroke="var(--stroke-0, #4CC7F4)" stroke-width="0.8" mask="url(#path-1-inside-1_0_17)"/>
<path d="M464.369 48.9873C465.706 49.24 466.801 49.5306 467.896 49.8212C467.835 50.0853 467.774 50.3493 467.712 50.6133C466.314 51.0502 464.964 50.9533 463.767 49.8005C463.7 49.736 463.998 49.2924 464.369 48.9873Z" stroke="var(--stroke-0, #4CC7F4)" stroke-width="0.8" mask="url(#path-1-inside-1_0_17)"/>
<path d="M254.314 416.937C253.23 415.922 252.343 415.011 251.168 413.804C253.429 414.003 254.863 415.109 255.238 416.624C255.256 416.698 254.766 416.899 254.314 416.937Z" stroke="var(--stroke-0, #4CC7F4)" stroke-width="0.8" mask="url(#path-1-inside-1_0_17)"/>
<path d="M110.336 280.619C110.423 279.449 110.512 278.562 110.601 277.674C112.12 279.247 112.019 280.809 111.055 283.226C110.665 281.961 110.501 281.431 110.336 280.619Z" stroke="var(--stroke-0, #4CC7F4)" stroke-width="0.8" mask="url(#path-1-inside-1_0_17)"/>
<path d="M229.155 385.874C229.65 386.735 229.992 387.42 230.334 388.105C230.071 388.269 229.808 388.432 229.546 388.596C228.672 387.517 227.799 386.438 226.926 385.359C227.074 385.168 227.222 384.977 227.37 384.786C227.914 385.09 228.458 385.394 229.155 385.874Z" stroke="var(--stroke-0, #4CC7F4)" stroke-width="0.8" mask="url(#path-1-inside-1_0_17)"/>
<path d="M327.419 463.023C326.534 462.502 325.86 462.077 324.887 461.462C326.662 460.54 327.912 461.321 328.642 462.093C329.379 462.874 328.659 463.414 327.419 463.023Z" stroke="var(--stroke-0, #4CC7F4)" stroke-width="0.8" mask="url(#path-1-inside-1_0_17)"/>
<path d="M434.358 474.845C435.234 474.889 435.856 474.941 436.91 475.028C435.39 476.621 433.998 475.89 432.74 476.077C432.686 475.865 432.632 475.652 432.578 475.44C433.087 475.244 433.595 475.048 434.358 474.845Z" stroke="var(--stroke-0, #4CC7F4)" stroke-width="0.8" mask="url(#path-1-inside-1_0_17)"/>
<path d="M345.767 59.061C345.285 61.0154 343.962 60.9159 342.188 60.5181C343.141 59.1098 344.242 58.7693 345.767 59.061Z" stroke="var(--stroke-0, #4CC7F4)" stroke-width="0.8" mask="url(#path-1-inside-1_0_17)"/>
<path d="M402.927 477.489C402.023 477.465 401.377 477.454 400.737 477.384C400.546 477.364 400.373 477.181 399.984 476.948C401.394 475.607 402.728 476.075 404.792 476.792C403.856 477.193 403.522 477.336 402.927 477.489Z" stroke="var(--stroke-0, #4CC7F4)" stroke-width="0.8" mask="url(#path-1-inside-1_0_17)"/>
<path d="M419.829 477.198C418.454 477.351 417.288 477.351 415.816 477.351C417.647 475.751 418.467 475.743 419.829 477.198Z" stroke="var(--stroke-0, #4CC7F4)" stroke-width="0.8" mask="url(#path-1-inside-1_0_17)"/>
<path d="M223.893 381.111C223.562 380.274 223.363 379.627 223.164 378.981C223.391 378.862 223.619 378.744 223.846 378.626C224.479 379.558 225.111 380.489 225.744 381.421C225.576 381.591 225.408 381.762 225.24 381.932C224.835 381.722 224.43 381.511 223.893 381.111Z" stroke="var(--stroke-0, #4CC7F4)" stroke-width="0.8" mask="url(#path-1-inside-1_0_17)"/>
<path d="M626.651 265.392C628.425 266.083 627.469 267.262 627.327 268.854C626.084 267.636 626.432 266.576 626.651 265.392Z" stroke="var(--stroke-0, #4CC7F4)" stroke-width="0.8" mask="url(#path-1-inside-1_0_17)"/>
<path d="M238.839 398.672C238.561 399.104 237.963 399.54 237.919 399.49C237.308 398.791 236.771 398.026 236.059 397.063C237.797 396.545 238.195 397.659 238.839 398.672Z" stroke="var(--stroke-0, #4CC7F4)" stroke-width="0.8" mask="url(#path-1-inside-1_0_17)"/>
<path d="M394.812 24.918C394.559 24.6381 394.554 24.3836 394.547 23.9379C395.699 23.5661 396.852 23.3854 398.253 23.2363C398.507 23.524 398.513 23.7801 398.52 24.2283C397.367 24.5947 396.213 24.769 394.812 24.918Z" stroke="var(--stroke-0, #4CC7F4)" stroke-width="0.8" mask="url(#path-1-inside-1_0_17)"/>
<path d="M280.816 93.4195C281.398 93.1069 281.827 92.9421 282.257 92.7773C282.397 92.9763 282.536 93.1753 282.675 93.3743C282.034 93.9868 281.392 94.5994 280.751 95.2119C280.564 95.0809 280.378 94.9498 280.191 94.8188C280.349 94.4016 280.507 93.9844 280.816 93.4195Z" stroke="var(--stroke-0, #4CC7F4)" stroke-width="0.8" mask="url(#path-1-inside-1_0_17)"/>
<path d="M245.613 127.771C246.1 127.218 246.54 126.883 247.168 126.405C246.966 128.886 246.966 128.886 245.613 127.771Z" stroke="var(--stroke-0, #4CC7F4)" stroke-width="0.8" mask="url(#path-1-inside-1_0_17)"/>
<path d="M323.855 68.0173C324.36 67.0036 324.964 66.5046 326.163 67.172C325.568 68.0787 325.249 69.1372 323.855 68.0173Z" stroke="var(--stroke-0, #4CC7F4)" stroke-width="0.8" mask="url(#path-1-inside-1_0_17)"/>
</g>
</g>
</svg>
