<svg preserveAspectRatio="none" width="100%" height="100%" overflow="visible" style="display: block;" viewBox="0 0 36 36" fill="none" xmlns="http://www.w3.org/2000/svg">
<g id="Shipment-Truck Streamline Ultimate">
<path id="Vector" fill-rule="evenodd" clip-rule="evenodd" d="M5.16881 4.51665C4.9158 4.5675 4.67471 4.76449 4.5666 5.00861C4.482 5.19975 4.48515 5.52083 4.57335 5.69228C4.65615 5.85304 4.82062 6.0246 4.96912 6.10504L5.08612 6.16838L9.51997 6.183L13.9539 6.19763L14.0753 6.28178C14.2132 6.3774 14.3836 6.61804 14.4692 6.8382C14.6103 7.20113 14.6049 6.9219 14.606 13.9264L14.607 20.5143L9.87581 20.5222L5.14462 20.5301L5.00861 20.593C4.83311 20.6741 4.64287 20.8654 4.5666 21.0376C4.48166 21.2291 4.48335 21.5415 4.5702 21.7211C4.65727 21.9009 4.81691 22.0589 4.99601 22.1423L5.14462 22.2114L9.87581 22.2117L14.607 22.212V23.5368V24.8616L14.4732 24.8974C14.2542 24.956 13.8777 25.1362 13.6136 25.3089C12.9942 25.7139 12.4812 26.3799 12.2645 27.0602L12.197 27.2723H11.6689L11.1409 27.2721L11.0872 27.0894C10.8513 26.2865 10.1788 25.5005 9.38587 25.1009C8.62785 24.7189 7.59926 24.6481 6.79882 24.9226C6.16072 25.1415 5.57055 25.572 5.16172 26.1169C4.96519 26.3789 4.71184 26.8938 4.62037 27.2173C4.47997 27.7138 4.46771 28.4294 4.59112 28.9249C4.89229 30.1345 5.86035 31.106 7.06196 31.4051C7.49531 31.5128 8.15929 31.5222 8.59612 31.4266C9.01867 31.3342 9.53944 31.0955 9.88796 30.8343C10.425 30.432 10.8474 29.8548 11.0709 29.2174L11.153 28.9834L11.6736 28.9754L12.194 28.9675L12.2627 29.1791C12.6755 30.4508 13.8159 31.3565 15.1627 31.4819C16.8684 31.6409 18.4281 30.4861 18.7741 28.8085C19.1185 27.139 18.156 25.4665 16.5372 24.9214L16.3181 24.8476L16.3118 17.146C16.3083 12.9102 16.301 8.89155 16.2955 8.21588L16.2854 6.98738L16.1954 6.651C16.1458 6.46605 16.0575 6.21045 15.9991 6.08299C15.7845 5.61521 15.4032 5.1318 15.0651 4.89926C14.887 4.77675 14.4907 4.59191 14.2999 4.54241C14.1837 4.51226 13.2433 4.50315 9.72225 4.49831C7.28505 4.49483 5.23597 4.50315 5.16881 4.51665ZM19.4722 6.21101C19.2295 6.26884 19.0239 6.45255 18.9075 6.71558C18.8481 6.8499 18.848 6.86295 18.8481 15.8959L18.8484 24.9417L18.9174 25.0905C19.0638 25.406 19.3384 25.5846 19.6791 25.5862C20.0285 25.5878 20.2962 25.4231 20.4486 25.113L20.5301 24.9469L20.5378 18.5192L20.5455 12.0915H22.2259H23.9064L23.9155 14.5851L23.9246 17.0786L23.9922 17.3273C24.1397 17.8695 24.5212 18.5115 24.8969 18.8498C25.1316 19.0611 25.4565 19.2762 25.7359 19.4054C26.3209 19.6756 26.5039 19.6962 28.3332 19.6963L29.8183 19.6965L29.8104 23.1553L29.8024 26.6141L29.7334 26.7667C29.6443 26.9636 29.4322 27.1619 29.2437 27.2244C29.1172 27.2665 28.9678 27.272 28.1385 27.2654L27.1794 27.2576L27.0958 27.0164C26.7499 26.018 25.9192 25.2134 24.9176 24.9067C24.5343 24.7894 24.3173 24.7572 23.905 24.757C22.821 24.7563 21.8555 25.2402 21.1915 26.1169C20.562 26.9484 20.366 28.1567 20.6961 29.1735C21.0505 30.2656 21.9757 31.1243 23.1041 31.4084C23.5962 31.5323 24.3145 31.5202 24.8116 31.3796C25.1175 31.2931 25.6477 31.0372 25.8847 30.8617C26.4534 30.4405 26.8904 29.8474 27.1075 29.2024L27.1812 28.9834L28.3017 28.9666C29.3379 28.951 29.438 28.945 29.6326 28.8865C30.086 28.7502 30.4346 28.5461 30.7491 28.2328C31.1745 27.8089 31.4166 27.3045 31.4837 26.7019C31.524 26.3402 31.5236 16.3958 31.4833 15.8648C31.3251 13.7773 30.0593 11.9091 28.1936 11.0091C27.5309 10.6894 27.1208 10.5681 26.2555 10.4361C26.171 10.4231 26.148 10.3974 26.0545 10.2108C25.0452 8.19686 23.6699 6.93551 21.9341 6.43185C21.5936 6.33296 21.315 6.27851 20.8811 6.22598C20.5167 6.18188 19.634 6.17254 19.4722 6.21101ZM20.5447 9.15188V10.395H22.3729C23.3783 10.395 24.201 10.3839 24.201 10.3703C24.201 10.3194 23.7899 9.72833 23.5948 9.4986C23.1833 9.01395 22.7349 8.64439 22.24 8.38204C21.8016 8.14961 20.9924 7.90875 20.6498 7.90875H20.5447V9.15188ZM6.86576 7.96815C6.60544 8.02035 6.39731 8.18246 6.26602 8.43525L6.19762 8.56688L6.18997 13.3545C6.18232 18.1106 6.18266 18.1432 6.24195 18.3016C6.32306 18.5183 6.55481 18.7383 6.76901 18.802C7.10471 18.9017 7.37561 18.8341 7.62075 18.5893C7.90402 18.3063 7.8813 18.7817 7.87252 13.3333L7.86487 8.56688L7.79659 8.43525C7.61332 8.08223 7.23757 7.89368 6.86576 7.96815ZM11.072 7.96939C10.8133 8.02035 10.593 8.2017 10.4708 8.4645L10.4096 8.59613V13.4078V18.2194L10.4875 18.3656C10.5808 18.5411 10.7142 18.6727 10.8922 18.7652C11.0771 18.8612 11.4361 18.8622 11.6154 18.7671C11.7886 18.6752 11.9409 18.5139 12.0225 18.3355L12.0922 18.1834L12.0845 13.3605L12.0769 8.53763L12.0135 8.42063C11.9479 8.29946 11.7819 8.12925 11.65 8.04791C11.5863 8.00865 11.2697 7.9308 11.2159 7.94126C11.2068 7.94295 11.1421 7.95566 11.072 7.96939ZM25.605 14.4252C25.605 16.9715 25.6026 16.9325 25.7742 17.2512C25.883 17.4535 26.1394 17.7027 26.358 17.8185C26.6814 17.9902 26.7795 17.9989 28.3798 17.9996L29.8239 18L29.8088 16.9397C29.7933 15.8454 29.7765 15.6585 29.6545 15.219C29.4432 14.457 29.089 13.8516 28.5406 13.314C27.7894 12.5778 26.9235 12.1942 25.8171 12.1077L25.605 12.0911V14.4252ZM7.4439 26.4995C6.86767 26.6545 6.4269 27.0871 6.25309 27.6684C6.17737 27.9215 6.18199 28.3399 6.26344 28.6031C6.43174 29.1471 6.85125 29.5666 7.39687 29.7363C7.77836 29.855 8.2764 29.8111 8.64056 29.6265C8.98436 29.4524 9.31601 29.0781 9.45304 28.7098C9.5508 28.4466 9.57442 27.9836 9.50377 27.713C9.3501 27.1248 8.87884 26.6482 8.30205 26.4979C8.08807 26.4422 7.65416 26.443 7.4439 26.4995ZM15.0343 26.4978C14.6083 26.6147 14.16 26.9759 13.9708 27.3546C13.7071 27.8825 13.7382 28.5424 14.0493 29.0192C14.4819 29.6819 15.2265 29.9531 15.9818 29.7228C16.2491 29.6414 16.4708 29.4984 16.6875 29.2678C16.913 29.0277 17.0173 28.8416 17.0939 28.5422C17.1621 28.2754 17.1666 28.0348 17.1087 27.7611C16.9828 27.1668 16.4913 26.6556 15.8926 26.4965C15.6953 26.4439 15.2279 26.4446 15.0343 26.4978ZM23.4697 26.4998C23.0964 26.5989 22.7464 26.8486 22.5242 27.1745C21.7593 28.2965 22.554 29.8033 23.9085 29.7992C24.6619 29.797 25.2821 29.3412 25.5071 28.6244C25.5754 28.4069 25.5816 28.3492 25.5689 28.054C25.5583 27.8081 25.5379 27.6815 25.4878 27.5501C25.2924 27.0383 24.8458 26.632 24.331 26.4979C24.1166 26.4421 23.6837 26.443 23.4697 26.4998Z" fill="var(--fill-0, #4CC7F4)"/>
</g>
</svg>
