<svg preserveAspectRatio="xMidYMid meet" width="100%" height="100%" overflow="visible" style="display: block;" viewBox="0 0 28.5 27" fill="none" xmlns="http://www.w3.org/2000/svg">
<g id="vector">
<path d="M3.74628 11.4709C3.74564 11.4762 3.74651 11.4817 3.74878 11.4866C3.75105 11.4914 3.75462 11.4955 3.75905 11.4983C3.76348 11.5012 3.76857 11.5026 3.77369 11.5024C3.77881 11.5022 3.78373 11.5004 3.78785 11.4973C4.00485 11.342 4.31529 11.1287 4.71919 10.8574C5.8596 10.0927 6.74342 11.6234 5.80615 12.2872C5.47828 12.5185 4.57387 13.1376 3.09291 14.1444C3.06142 14.1659 3.02657 14.1825 2.98956 14.1936C2.51439 14.3321 2.14732 14.2024 1.88835 13.8047C1.49237 13.1956 0.98988 12.4417 0.380868 11.5429C0.00548197 10.9883 -0.217848 10.4961 0.320284 10.0003C0.625186 9.71855 0.980774 9.68814 1.38705 9.90903C1.42378 9.92876 1.45548 9.9567 1.4797 9.99067L2.02734 10.7434C2.03171 10.7495 2.03782 10.7542 2.04486 10.7567C2.0519 10.7592 2.05953 10.7595 2.06675 10.7576C2.07397 10.7556 2.08043 10.7515 2.08527 10.7457C2.09012 10.74 2.09311 10.7329 2.09386 10.7254C2.11525 10.5333 2.15009 10.3464 2.1984 10.1647C2.91116 7.45881 4.25788 5.21546 6.23855 3.43472C7.98244 1.86686 9.96905 0.833225 12.1984 0.333816C14.4586 -0.172797 16.6935 -0.102767 18.9031 0.543904C20.6763 1.06252 22.3215 1.9685 23.8389 3.26184C25.6414 4.79849 26.9386 6.70049 27.7306 8.96784C28.4671 11.0771 28.7083 13.4661 28.3079 15.7375C27.7781 18.7483 26.4373 21.2806 24.2856 23.3343C22.2661 25.2607 19.7901 26.4496 16.8575 26.901C16.5423 26.949 15.8521 26.9818 14.7869 26.9994C14.2222 27.009 13.4022 26.9026 12.3267 26.6801C10.6881 26.3407 9.14027 25.6776 7.68308 24.6908C6.13956 23.6448 4.87204 22.3346 3.88051 20.7604C3.60491 20.3218 3.45682 20.0445 3.43623 19.9284C3.3507 19.4398 3.74865 18.8876 4.27847 18.8756C4.64594 18.8676 4.92629 19.0305 5.11952 19.3642C6.73273 22.1422 9.42102 24.1986 12.5583 24.9033C12.6486 24.9233 12.9781 24.9762 13.5467 25.0618C13.9498 25.1226 14.2816 25.1574 14.5422 25.1662C15.8093 25.2079 16.9121 25.1094 17.8506 24.8709C20.4189 24.2194 22.5152 22.8769 24.1395 20.8432C27.3897 16.7747 27.5916 10.9283 24.5398 6.69528C22.6922 4.13341 20.2217 2.55675 17.1283 1.9653C16.3431 1.81524 15.2466 1.76361 14.3996 1.83324C11.2049 2.09575 8.53166 3.42791 6.37992 5.82972C6.16371 6.07062 5.87742 6.46159 5.52104 7.00261C4.59683 8.404 4.00525 9.89343 3.74628 11.4709Z" fill="var(--fill-0, #4CC7F4)"/>
<path d="M11.7315 12.5093C11.7249 12.5181 11.721 12.5286 11.7201 12.5396C11.7192 12.5506 11.7214 12.5616 11.7266 12.5713C11.7317 12.5811 11.7395 12.5891 11.749 12.5945C11.7585 12.5999 11.7694 12.6024 11.7802 12.6018C12.3109 12.5786 12.826 12.577 13.3257 12.597C14.32 12.6366 14.6075 13.9523 13.6596 14.3293C13.54 14.3773 13.298 14.4013 12.9337 14.4013C11.5494 14.4021 10.5333 14.4021 9.8855 14.4013C9.26778 14.4001 8.78667 13.8839 8.9411 13.262C8.97436 13.1292 9.10978 12.9135 9.34737 12.615C10.1963 11.5489 11.098 10.4108 12.0523 9.20074C12.3089 8.8754 12.5358 8.31356 12.4372 7.90659C12.3029 7.34356 11.6662 7.00982 11.1637 7.30994C10.6885 7.59446 10.7539 7.91379 10.6398 8.32917C10.4961 8.85259 9.93421 9.1167 9.43409 8.89941C9.21392 8.80337 9.04959 8.61409 8.9411 8.33157C8.92773 8.29578 8.92011 8.2585 8.91853 8.22112C8.90031 7.62247 9.02346 7.11706 9.28797 6.70489C9.93817 5.69646 10.8596 5.27629 12.0523 5.44436C13.2949 5.61963 14.2535 6.81894 14.2369 8.09147C14.2258 8.95343 13.9312 9.74096 13.3531 10.4541C12.5271 11.4729 11.9866 12.158 11.7315 12.5093Z" fill="var(--fill-0, #4CC7F4)"/>
<path d="M19.6004 11.7338C19.6006 11.7281 19.5996 11.7225 19.5976 11.7172C19.5956 11.7119 19.5926 11.707 19.5887 11.7029C19.5849 11.6988 19.5802 11.6954 19.5751 11.6931C19.57 11.6908 19.5644 11.6895 19.5588 11.6894C19.4852 11.6878 18.736 11.691 17.3113 11.699C16.9018 11.7014 16.6139 11.6474 16.4476 11.5369C15.9309 11.1948 16.0473 10.6581 16.0307 10.1623C15.9725 8.43361 16.7648 6.95219 18.1832 6.04581C18.5103 5.83693 18.8785 5.67366 19.288 5.55601C19.604 5.46557 20.0047 5.41715 20.4902 5.41075C20.8164 5.40674 21.0691 5.5516 21.2481 5.84533C21.3399 5.99419 21.3855 6.28471 21.3847 6.71689C21.3807 10.192 21.3799 12.4209 21.3823 13.4037C21.3859 14.6798 19.6289 14.7086 19.5992 13.4313C19.585 12.8207 19.5854 12.2548 19.6004 11.7338ZM19.5933 9.85861L19.5945 7.42159C19.5944 7.41155 19.5918 7.40169 19.587 7.39291C19.5822 7.38413 19.5753 7.37672 19.5669 7.37134C19.5585 7.36597 19.5489 7.3628 19.539 7.36214C19.529 7.36149 19.5191 7.36335 19.5101 7.36757C18.4647 7.84937 17.8965 8.66331 17.8054 9.80939C17.8044 9.82038 17.8058 9.83145 17.8093 9.8419C17.8129 9.85236 17.8186 9.86196 17.8261 9.8701C17.8336 9.87823 17.8427 9.88472 17.8528 9.88915C17.863 9.89359 17.8739 9.89586 17.885 9.89583H19.5564C19.5662 9.89583 19.5756 9.89191 19.5825 9.88493C19.5894 9.87795 19.5933 9.86848 19.5933 9.85861Z" fill="var(--fill-0, #4CC7F4)"/>
<path d="M15.1421 17.9932C15.6703 17.9932 16.2833 17.9928 16.981 17.992C17.0049 17.9917 17.0281 17.9845 17.0481 17.9714C17.0681 17.9582 17.084 17.9395 17.0939 17.9176C17.5445 16.9156 18.2826 16.3489 19.3082 16.2177C19.5814 16.1825 19.7984 16.2057 19.9591 16.2873C20.6386 16.6319 20.6386 17.459 20.0185 17.8768C19.9821 17.9022 19.9408 17.9198 19.8974 17.9284C19.2987 18.0424 18.7427 18.1277 18.7427 18.896C18.7439 19.6631 19.2987 19.7484 19.8974 19.8624C19.9408 19.871 19.9821 19.8886 20.0185 19.914C20.6386 20.3318 20.6386 21.159 19.9591 21.5035C19.7984 21.5851 19.5814 21.6083 19.3082 21.5731C18.2826 21.4419 17.5445 20.8752 17.0939 19.8732C17.084 19.8513 17.0681 19.8326 17.0481 19.8195C17.0281 19.8063 17.0049 19.7991 16.981 19.7988C16.2833 19.798 15.6703 19.7976 15.1421 19.7976C14.6139 19.7976 14.0005 19.798 13.302 19.7988C13.2781 19.7991 13.2549 19.8063 13.2349 19.8195C13.2149 19.8326 13.199 19.8513 13.1891 19.8732C12.7385 20.8752 12.0004 21.4419 10.9748 21.5731C10.7016 21.6083 10.4846 21.5851 10.3238 21.5035C9.64435 21.159 9.64435 20.3318 10.2645 19.914C10.3014 19.8889 10.343 19.8717 10.3868 19.8636C10.9843 19.7484 11.5403 19.6631 11.5403 18.896C11.5403 18.1289 10.9843 18.0436 10.3868 17.9284C10.343 17.9203 10.3014 17.9032 10.2645 17.878C9.64435 17.4602 9.64435 16.6331 10.3238 16.2885C10.4846 16.2069 10.7016 16.1837 10.9748 16.2189C12.0004 16.3501 12.7385 16.9168 13.1891 17.9188C13.1992 17.9405 13.2151 17.9589 13.2351 17.9719C13.2551 17.9848 13.2783 17.9918 13.302 17.992C14.0005 17.9928 14.6139 17.9932 15.1421 17.9932Z" fill="var(--fill-0, #4CC7F4)"/>
</g>
</svg>
