<svg preserveAspectRatio="none" width="100%" height="100%" overflow="visible" style="display: block;" viewBox="0 0 80 80" fill="none" xmlns="http://www.w3.org/2000/svg">
<g id="Professions-Man-Telecommunicator Streamline Ultimate">
<path id="Vector" fill-rule="evenodd" clip-rule="evenodd" d="M38.635 11.9592C37.9983 12.0342 37.0398 12.2067 36.4808 12.3467C33.5 13.0932 30.7475 14.9277 28.9282 17.38C28.6762 17.7195 28.3587 18.1465 28.2225 18.3285C28.0865 18.5105 27.975 18.6837 27.975 18.7135C27.975 18.7432 27.8613 18.9892 27.7225 19.26C26.9895 20.689 26.587 21.9295 26.3185 23.5878C26.1972 24.3355 26.2237 24.5773 26.4577 24.8555C26.784 25.243 27.247 25.3497 27.6902 25.1395C28.046 24.9707 28.171 24.7287 28.3012 23.9577C28.4657 22.9825 28.5812 22.5195 28.855 21.735C29.2342 20.648 29.166 20.6945 29.6985 21.1577C32.2762 23.3997 35.7595 25.168 39.09 25.9253C41.0232 26.3648 41.8147 26.4472 44.095 26.4472C46.0962 26.4472 46.5227 26.4152 47.995 26.1542C49.0685 25.964 50.7025 25.541 51.3912 25.275C51.495 25.235 51.505 25.2892 51.505 25.896C51.505 28.2642 50.5625 30.8835 49 32.8568C48.5073 33.4793 47.6137 34.3595 46.9662 34.8603C46.376 35.3168 46.2005 35.608 46.2578 36.0352C46.3353 36.6122 46.9247 37.0283 47.4605 36.884C48.0277 36.7313 49.6998 35.2385 50.612 34.07C52.1868 32.0533 53.1825 29.6043 53.4627 27.0588C53.509 26.6398 53.5233 25.8755 53.5003 25.05C53.468 23.8867 53.4385 23.6085 53.2685 22.86C52.6337 20.067 51.4125 17.818 49.4828 15.8882C47.5058 13.9112 44.871 12.5677 42.015 12.0802C41.424 11.9795 39.1528 11.898 38.635 11.9592ZM38.5202 14.0022C36.2967 14.2827 34.1583 15.1955 32.425 16.604C31.5818 17.2892 30.265 18.781 30.3372 18.969C30.3845 19.0925 31.3985 19.9705 32.1213 20.5137C34.5528 22.342 37.6855 23.681 40.7475 24.2005C42.877 24.562 45.3108 24.562 47.4425 24.2008C48.9023 23.9535 51.1523 23.3127 51.2248 23.1237C51.2735 22.9972 50.9003 21.7805 50.5863 21.0417C49.1528 17.6685 46.2432 15.1945 42.6105 14.2595C41.6312 14.0075 39.5272 13.875 38.5202 14.0022ZM22.19 27.4413C22.065 27.5098 21.8967 27.6622 21.8162 27.78C21.6727 27.99 21.67 28.0307 21.6702 29.8857C21.6705 31.974 21.7287 32.5138 22.062 33.5138C22.7955 35.7143 24.431 37.5297 26.5125 38.4545C27.8302 39.0397 28.4745 39.1527 30.77 39.2005L32.6225 39.239L32.7755 39.714C32.9762 40.3373 33.4557 41.0572 34.0117 41.5695C34.922 42.4085 35.699 42.7323 36.9125 42.778C38.1965 42.8265 39.1005 42.548 40 41.827C41.161 40.8967 41.7562 39.6715 41.754 38.2183C41.7517 36.933 41.384 35.9615 40.5697 35.0898C39.6492 34.104 38.6677 33.6425 37.3675 33.5842C36.4407 33.5427 35.8735 33.6602 35.0603 34.0617C33.9773 34.5965 33.0732 35.658 32.7152 36.8147L32.6047 37.1725L31.4112 37.1915C29.3755 37.2243 28.326 37.0712 27.2845 36.59C25.8072 35.9075 24.6252 34.6415 24.0705 33.1477C23.7482 32.2805 23.7362 32.1827 23.6935 30.0875C23.6557 28.2317 23.6422 28.055 23.5225 27.8517C23.3347 27.533 23.0895 27.3757 22.731 27.3445C22.5047 27.3245 22.3542 27.3515 22.19 27.4413ZM36.3975 35.6835C34.7767 36.2 34.0535 38.0627 34.9067 39.5217C35.131 39.9052 35.6523 40.37 36.0858 40.5732C36.415 40.7275 36.5355 40.7475 37.14 40.7475C37.7705 40.7475 37.8548 40.732 38.245 40.5448C38.783 40.2865 39.2465 39.823 39.5047 39.285C39.6922 38.8945 39.7075 38.8108 39.7075 38.1785C39.7075 37.5373 39.6943 37.4675 39.495 37.0633C39.222 36.5088 38.6572 35.9728 38.1335 35.7715C37.643 35.5828 36.8405 35.5423 36.3975 35.6835ZM28.717 45.3615C28.436 45.4445 27.3922 46.029 26.4897 46.6088C23.3147 48.6485 20.3632 51.7837 18.5147 55.08C16.523 58.6312 15.5192 62.2047 15.3282 66.425C15.2802 67.4815 15.3327 67.6898 15.7225 67.9868C16.0355 68.2258 16.5557 68.251 16.8387 68.0415C17.2405 67.7443 17.2932 67.5865 17.3412 66.54C17.457 64.0092 17.8112 62.021 18.5087 59.9875C20.3115 54.73 23.8905 50.3695 28.5925 47.7023C29.841 46.994 29.9902 46.8432 29.9897 46.292C29.9892 45.6337 29.358 45.1722 28.717 45.3615ZM50.538 45.3355C50.05 45.4388 49.7247 45.8792 49.7682 46.378C49.8085 46.841 49.9907 47.0295 50.888 47.5377C54.635 49.6592 57.426 52.4375 59.5185 56.1287C61.3127 59.2942 62.2565 62.6427 62.4015 66.3575C62.4245 66.946 62.4777 67.4855 62.5242 67.6003C62.5692 67.7118 62.7147 67.8858 62.8475 67.9868C63.0402 68.134 63.1582 68.1715 63.4345 68.1742C63.8245 68.178 64.0447 68.0535 64.3012 67.684C64.4525 67.466 64.4545 67.4447 64.4155 66.3575C64.2925 62.9247 63.5285 59.7613 62.0815 56.6935C59.9192 52.1093 56.2722 48.2115 51.8435 45.7518C51.1075 45.3428 50.8668 45.266 50.538 45.3355Z" fill="var(--fill-0, #4CC7F4)"/>
</g>
</svg>
