<svg width="24" height="24" viewBox="0 0 24 24" fill="none" xmlns="http://www.w3.org/2000/svg">
  <path d="M20.52 3.48A11.84 11.84 0 0 0 12.08 0C5.52 0 .18 5.34.18 11.91c0 2.1.55 4.15 1.59 5.96L.08 24l6.27-1.65a11.9 11.9 0 0 0 5.73 1.46h.01C18.66 23.81 24 18.47 24 11.9c0-3.18-1.24-6.17-3.48-8.42Zm-8.44 18.32h-.01c-1.72 0-3.4-.46-4.87-1.33l-.35-.21-3.72.98 1-3.63-.23-.37a9.85 9.85 0 0 1-1.5-5.33c0-5.35 4.35-9.7 9.7-9.7 2.59 0 5.02 1.01 6.85 2.84a9.64 9.64 0 0 1 2.84 6.85c0 5.35-4.35 9.7-9.71 9.7Zm5.32-7.27c-.29-.15-1.72-.85-1.99-.94-.27-.1-.46-.15-.66.15-.19.29-.75.94-.92 1.13-.17.2-.34.22-.63.08-.29-.15-1.23-.45-2.34-1.44-.86-.77-1.45-1.72-1.62-2.01-.17-.29-.02-.45.13-.6.13-.13.29-.34.44-.51.15-.17.19-.29.29-.49.1-.19.05-.37-.02-.51-.08-.15-.66-1.59-.9-2.18-.24-.57-.48-.49-.66-.5h-.56c-.19 0-.51.07-.78.37-.27.29-1.02 1-1.02 2.44 0 1.43 1.05 2.82 1.19 3.01.15.19 2.06 3.15 5 4.42.7.3 1.25.48 1.67.62.7.22 1.34.19 1.85.12.56-.08 1.72-.7 1.96-1.38.24-.68.24-1.26.17-1.38-.07-.13-.26-.2-.56-.35Z" fill="var(--fill-0, white)"/>
</svg>
