<svg preserveAspectRatio="none" width="100%" height="100%" overflow="visible" style="display: block;" viewBox="0 0 80 80" fill="none" xmlns="http://www.w3.org/2000/svg">
<g id="Monitor-Shopping-Cart Streamline Ultimate">
<path id="Vector" fill-rule="evenodd" clip-rule="evenodd" d="M15.82 11.8567C14.7992 11.9845 13.9685 12.4022 13.1835 13.1822C12.5985 13.7635 12.2632 14.3017 11.9925 15.0942L11.8225 15.5925L11.8052 34.2787C11.787 54.4 11.7727 53.4835 12.114 54.3848C12.3187 54.9248 12.8335 55.662 13.3117 56.1C14.1082 56.8293 14.8835 57.1753 15.979 57.2908C16.328 57.3275 21.1225 57.3533 27.7638 57.354L38.96 57.355V59.9538V62.5523L34.7723 62.57C30.658 62.5873 30.5812 62.5898 30.405 62.7215C30.073 62.9693 29.9575 63.1865 29.9575 63.5625C29.9575 63.9537 30.085 64.1793 30.4442 64.4238L30.6592 64.57H40H49.3408L49.5557 64.4238C49.915 64.1793 50.0425 63.9537 50.0425 63.5625C50.0425 63.1865 49.927 62.9693 49.595 62.7215C49.4188 62.5898 49.342 62.5873 45.2277 62.57L41.04 62.5523V59.9538V57.355L52.2362 57.354C58.8775 57.3533 63.672 57.3275 64.021 57.2908C65.1165 57.1753 65.8917 56.8293 66.6882 56.1C67.1665 55.662 67.6812 54.9248 67.886 54.3848C68.2272 53.4835 68.213 54.4 68.1947 34.2787L68.1775 15.5925L68.0075 15.0942C67.7357 14.2982 67.4017 13.7632 66.8177 13.1875C65.9675 12.3492 65.1997 11.9797 64.0335 11.8472C63.7207 11.8117 62.6092 11.7917 61.5635 11.8025C59.3862 11.8252 59.3332 11.8375 59.0612 12.374C58.881 12.7297 58.8777 12.9087 59.046 13.2482C59.3102 13.7815 59.2427 13.7677 61.8075 13.8105C63.727 13.8425 64.1277 13.8657 64.3727 13.9587C65.3452 14.3285 65.9712 15.0757 66.1322 16.0592C66.1702 16.2912 66.1945 22.201 66.1945 31.3387L66.195 46.24H40H13.805L13.8055 31.3387C13.8055 22.201 13.8297 16.2912 13.8677 16.0592C14.0287 15.0757 14.6547 14.3285 15.6272 13.9587C15.8722 13.8657 16.273 13.8425 18.1925 13.8105C20.7572 13.7677 20.6897 13.7815 20.954 13.2482C21.1222 12.9087 21.119 12.7297 20.9388 12.374C20.663 11.83 20.6335 11.8237 18.29 11.8132C17.164 11.808 16.0522 11.8275 15.82 11.8567ZM52.2407 13.7445C52.0912 13.8187 51.924 13.9477 51.8687 14.032C51.8137 14.116 51.3182 15.686 50.7675 17.521L49.766 20.8575L39.2235 20.89L28.6807 20.9225L28.4295 21.1917C27.9587 21.6962 27.8627 21.2943 29.954 27.5733C31.9745 33.639 31.9378 33.549 32.4498 33.6972C32.6128 33.7445 35.0337 33.76 40.1415 33.7467C47.5535 33.7277 47.5965 33.7267 47.775 33.5935C47.8737 33.5197 48.0072 33.3882 48.0715 33.301C48.136 33.2137 49.434 28.9892 50.9562 23.9132C52.9962 17.11 53.714 14.6325 53.6867 14.4882C53.6242 14.1575 53.4042 13.87 53.1125 13.7377C52.759 13.5772 52.576 13.5787 52.2407 13.7445ZM31.994 27.325L33.467 31.745H39.9807H46.4945L46.6882 31.1112C46.795 30.7627 47.3677 28.854 47.961 26.87C48.5545 24.886 49.0665 23.182 49.099 23.0837L49.1582 22.905H39.8395H30.521L31.994 27.325ZM33.1095 37.262C32.5615 37.4415 32.0677 37.909 31.8682 38.4367C31.529 39.3355 31.9502 40.38 32.838 40.841C33.3327 41.098 34.2245 41.0257 34.6957 40.6905C35.3057 40.257 35.5452 39.795 35.5435 39.055C35.542 38.3597 35.2038 37.8032 34.5475 37.4157C34.3215 37.2822 34.1607 37.2435 33.7675 37.228C33.4952 37.2172 33.1992 37.2325 33.1095 37.262ZM45.7845 37.262C45.1012 37.4857 44.5512 38.1357 44.4507 38.8385C44.271 40.0927 45.4017 41.1782 46.6745 40.9735C48.1592 40.7345 48.7742 38.864 47.719 37.7962C47.3132 37.386 47.0108 37.252 46.435 37.2285C46.167 37.2175 45.8742 37.2325 45.7845 37.262ZM13.8185 50.7412C13.8407 53.141 13.8465 53.2403 13.988 53.595C14.271 54.3045 14.836 54.8703 15.55 55.159L15.9175 55.3075H39.935C62.591 55.3075 63.9732 55.301 64.3185 55.1943C65.048 54.9683 65.715 54.3418 66.0072 53.6073C66.1547 53.2373 66.159 53.1642 66.1815 50.7412L66.2045 48.255H40H13.7955L13.8185 50.7412Z" fill="var(--fill-0, #4CC7F4)"/>
</g>
</svg>
