<svg preserveAspectRatio="none" width="100%" height="100%" overflow="visible" style="display: block;" viewBox="0 0 32 32" fill="none" xmlns="http://www.w3.org/2000/svg">
<g id="Shopping-Cart-1 Streamline Ultimate">
<path id="Vector" fill-rule="evenodd" clip-rule="evenodd" d="M25.087 4.4171C24.4946 4.529 23.9706 4.8824 23.6231 5.4041C23.394 5.7483 23.3544 5.9003 23.089 7.4545L22.8486 8.863L14.3868 8.8761C7.3999 8.887 5.9069 8.8953 5.821 8.9242C5.65 8.9816 5.3871 9.1292 5.2567 9.241C5.0889 9.3851 4.8945 9.6849 4.8184 9.9173C4.7672 10.0738 4.7555 10.161 4.7575 10.371C4.7599 10.6214 4.7876 10.7411 5.5059 13.608C5.9162 15.2454 6.2813 16.6786 6.3173 16.793C6.411 17.0912 6.6345 17.5359 6.8259 17.8053C7.3586 18.5547 8.193 19.098 9.136 19.3093C9.3829 19.3646 9.3861 19.3646 15.2205 19.3788L21.058 19.393L20.8838 20.42C20.6505 21.795 20.6348 21.8722 20.5625 21.9959C20.4881 22.1231 20.3508 22.2488 20.2175 22.3116C20.127 22.3542 19.8028 22.3578 14.96 22.37L9.799 22.383L9.682 22.4437C9.1927 22.6977 9.104 23.3221 9.5061 23.6835C9.7404 23.8943 9.2814 23.878 15.0003 23.878C20.5722 23.878 20.344 23.8839 20.7298 23.7299C21.2687 23.5147 21.7329 23.0801 21.9646 22.5738C22.0878 22.3044 22.1093 22.2028 22.3825 20.596C22.5168 19.8056 22.6856 18.8139 22.7574 18.392C22.8293 17.9701 23.1756 15.9344 23.5271 13.868C23.8786 11.8016 24.2179 9.8068 24.2812 9.435C24.3444 9.0632 24.4782 8.2734 24.5785 7.68C24.8045 6.3428 24.8121 6.3126 24.9636 6.1441C25.1779 5.9058 25.1938 5.9018 25.984 5.8855C26.6284 5.8723 26.6816 5.8676 26.8058 5.8121C27.0815 5.6889 27.2424 5.4331 27.2415 5.119C27.2409 4.8952 27.1959 4.7846 27.0358 4.6134C26.8295 4.3929 26.7581 4.3776 25.9505 4.3803C25.504 4.3819 25.2062 4.3946 25.087 4.4171ZM7.0057 13.3805C7.7313 16.2814 7.7594 16.3855 7.8874 16.643C8.1176 17.1064 8.5825 17.5311 9.0617 17.7159C9.4882 17.8803 9.1435 17.872 15.5159 17.872L21.317 17.8719L21.949 14.1475C22.2965 12.099 22.5803 10.4142 22.5795 10.4035C22.5787 10.3928 18.9056 10.384 14.4171 10.384H6.2562L7.0057 13.3805ZM11.5128 24.6814C10.7289 24.9689 10.4957 25.9602 11.0761 26.5373C11.326 26.7856 11.5701 26.8792 11.9272 26.8635C12.2364 26.85 12.4508 26.7556 12.6685 26.5372C12.9294 26.2756 13.0402 25.937 12.9836 25.5745C12.9269 25.2111 12.6827 24.8896 12.3419 24.7294C12.1851 24.6558 12.1354 24.6456 11.905 24.6396C11.7033 24.6344 11.6154 24.6438 11.5128 24.6814ZM19.055 24.6685C18.7522 24.7645 18.4931 24.9891 18.362 25.2695C18.0979 25.8337 18.3414 26.5068 18.9049 26.7706C19.227 26.9215 19.6674 26.8981 19.9563 26.7149C20.59 26.313 20.6855 25.457 20.154 24.9412C20.021 24.8121 19.8709 24.7223 19.7028 24.6713C19.5486 24.6245 19.1984 24.623 19.055 24.6685Z" fill="var(--fill-0, #001E50)"/>
</g>
</svg>
