<svg preserveAspectRatio="xMidYMid meet" width="100%" height="100%" overflow="visible" style="display: block;" viewBox="0 0 17.9901 17.9947" fill="none" xmlns="http://www.w3.org/2000/svg">
<path id="Vector" fill-rule="evenodd" clip-rule="evenodd" d="M8.88472 0.010738C8.71117 0.045538 8.57242 0.153613 8.4849 0.322138L8.4393 0.409888L8.43427 4.42186L8.42917 8.43376L4.41727 8.43886L0.4053 8.44389L0.31755 8.48941C0.1119 8.59614 0 8.77591 0 8.99964C0 9.22336 0.1119 9.40314 0.31755 9.50986L0.4053 9.55539L4.41727 9.56041L8.42917 9.56551L8.43427 13.5774L8.4393 17.5894L8.48482 17.6771C8.59155 17.8828 8.77132 17.9947 8.99505 17.9947C9.21877 17.9947 9.39855 17.8828 9.50527 17.6771L9.5508 17.5894L9.55582 13.5774L9.56093 9.56551L13.5728 9.56041L17.5848 9.55539L17.6726 9.50986C17.8782 9.40314 17.9901 9.22336 17.9901 8.99964C17.9901 8.77591 17.8782 8.59614 17.6726 8.48941L17.5848 8.44389L13.5728 8.43886L9.56093 8.43376L9.55582 4.42186L9.5508 0.409888L9.50527 0.322138C9.3831 0.086788 9.1326 -0.038912 8.88472 0.010738Z" fill="var(--fill-0, #001E50)"/>
</svg>
