<svg preserveAspectRatio="none" width="100%" height="100%" overflow="visible" style="display: block;" viewBox="0 0 24 24" fill="none" xmlns="http://www.w3.org/2000/svg">
<g id="Style-Two-Pin-Marker Streamline Ultimate">
<path id="Vector" fill-rule="evenodd" clip-rule="evenodd" d="M11.6685 3.01215C10.2571 3.06907 8.8623 3.55417 7.72012 4.3854C7.08562 4.8471 6.50273 5.43225 6.0498 6.06225C5.43983 6.91072 5.0001 7.94475 4.806 8.98725C4.63553 9.90307 4.65375 11.0754 4.8558 12.1852C5.38418 15.0874 7.19858 17.769 10.0598 19.8763C10.5164 20.2126 11.2139 20.6632 11.5092 20.8126C11.6282 20.8729 11.8692 20.931 12 20.931C12.1304 20.931 12.3714 20.873 12.4908 20.8129C12.7786 20.6679 13.5319 20.1796 13.9801 19.8475C16.2878 18.1372 17.9179 16.0447 18.7266 13.755C19.2762 12.1985 19.4515 10.4183 19.195 8.997C18.8704 7.1976 17.8405 5.54475 16.3558 4.44067C15.2068 3.58627 13.7565 3.06502 12.3997 3.0189C12.2389 3.01342 12.0809 3.00675 12.0487 3.00405C12.0166 3.00142 11.8454 3.00502 11.6685 3.01215ZM11.805 4.1358C10.39 4.18087 9.0432 4.70385 7.97055 5.6247C7.7382 5.82412 7.31528 6.26655 7.13205 6.5019C6.44475 7.38442 6.01875 8.39872 5.8671 9.51375C5.79893 10.0147 5.80763 10.813 5.88833 11.4637C6.18143 13.8289 7.41855 16.0591 9.4863 17.9497C10.1624 18.568 11.0809 19.2558 11.7851 19.6713L11.9998 19.798L12.1998 19.6798C13.7353 18.7722 15.2591 17.3911 16.2856 15.9768C17.5629 14.217 18.2276 12.1783 18.1759 10.1788C18.1641 9.72225 18.1319 9.42742 18.0522 9.04575C17.7444 7.57102 16.9051 6.26422 15.6711 5.3385C14.5937 4.53022 13.1845 4.09185 11.805 4.1358ZM11.571 6.39697C11.2111 6.4533 11.0994 6.47587 10.908 6.53077C9.08632 7.05337 7.88955 8.82532 8.08148 10.7158C8.18325 11.7183 8.69003 12.6802 9.45405 13.3213C10.8095 14.4586 12.7336 14.5643 14.1966 13.5818C15.6623 12.5974 16.2913 10.7663 15.7414 9.08475C15.2781 7.66785 14.0369 6.62902 12.5522 6.41535C12.352 6.38655 11.7138 6.37455 11.571 6.39697ZM11.5515 7.54365C9.9342 7.8168 8.88345 9.39975 9.273 10.9762C9.47183 11.7809 9.9921 12.4391 10.726 12.8142C11.7437 13.3345 12.9762 13.1829 13.8427 12.4308C15.0569 11.3771 15.132 9.50377 14.0059 8.35717C13.5732 7.91655 13.0442 7.64182 12.4394 7.54372C12.2263 7.50915 11.7561 7.50915 11.5515 7.54365Z" fill="var(--fill-0, black)"/>
</g>
</svg>
