<svg preserveAspectRatio="none" width="100%" height="100%" overflow="visible" style="display: block;" viewBox="0 0 12 12" fill="none" xmlns="http://www.w3.org/2000/svg">
<g id="instagram">
<path id="vector" d="M6 2.91964C6.53571 2.91964 7.04464 3.08036 7.52679 3.34821C8.00893 3.61607 8.38393 3.99107 8.65179 4.47321C8.91964 4.95536 9.08036 5.46429 9.08036 6C9.08036 6.5625 8.91964 7.07143 8.65179 7.55357C8.38393 8.03571 8.00893 8.41071 7.52679 8.67857C7.04464 8.94643 6.53571 9.08036 6 9.08036C5.4375 9.08036 4.92857 8.94643 4.44643 8.67857C3.96429 8.41071 3.58929 8.03571 3.32143 7.55357C3.05357 7.07143 2.91964 6.5625 2.91964 6C2.91964 5.46429 3.05357 4.95536 3.32143 4.47321C3.58929 3.99107 3.96429 3.61607 4.44643 3.34821C4.92857 3.08036 5.4375 2.91964 6 2.91964ZM6 8.00893C6.53571 8.00893 7.01786 7.82143 7.41964 7.41964C7.79464 7.04464 8.00893 6.5625 8.00893 6C8.00893 5.46429 7.79464 4.98214 7.41964 4.58036C7.01786 4.20536 6.53571 3.99107 6 3.99107C5.4375 3.99107 4.95536 4.20536 4.58036 4.58036C4.17857 4.98214 3.99107 5.46429 3.99107 6C3.99107 6.5625 4.17857 7.04464 4.58036 7.41964C4.95536 7.82143 5.4375 8.00893 6 8.00893ZM9.9375 2.78571C9.9375 2.59821 9.85714 2.4375 9.72321 2.27679C9.5625 2.14286 9.40179 2.0625 9.21429 2.0625C9 2.0625 8.83929 2.14286 8.70536 2.27679C8.54464 2.4375 8.49107 2.59821 8.49107 2.78571C8.49107 3 8.54464 3.16071 8.70536 3.29464C8.83929 3.45536 9 3.50893 9.21429 3.50893C9.40179 3.50893 9.5625 3.45536 9.69643 3.29464C9.83036 3.16071 9.91071 3 9.9375 2.78571ZM11.9732 3.50893C11.9732 4.01786 12 4.84821 12 6C12 7.17857 11.9732 8.00893 11.9464 8.51786C11.9196 9.02679 11.8393 9.45536 11.7321 9.83036C11.5714 10.2857 11.3036 10.6875 10.9821 11.0089C10.6607 11.3304 10.2589 11.5714 9.83036 11.7321C9.45536 11.8661 9 11.9464 8.49107 11.9732C7.98214 12 7.15179 12 6 12C4.82143 12 3.99107 12 3.48214 11.9732C2.97321 11.9464 2.54464 11.8661 2.16964 11.7054C1.71429 11.5714 1.3125 11.3304 0.991071 11.0089C0.669643 10.6875 0.428571 10.2857 0.267857 9.83036C0.133929 9.45536 0.0535714 9.02679 0.0267857 8.51786C0 8.00893 0 7.17857 0 6C0 4.84821 0 4.01786 0.0267857 3.50893C0.0535714 3 0.133929 2.54464 0.267857 2.16964C0.428571 1.74107 0.669643 1.33929 0.991071 1.01786C1.3125 0.696429 1.71429 0.428571 2.16964 0.267857C2.54464 0.160714 2.97321 0.0803571 3.48214 0.0535714C3.99107 0.0267857 4.82143 0 6 0C7.15179 0 7.98214 0.0267857 8.49107 0.0535714C9 0.0803571 9.45536 0.160714 9.83036 0.267857C10.2589 0.428571 10.6607 0.696429 10.9821 1.01786C11.3036 1.33929 11.5714 1.74107 11.7321 2.16964C11.8393 2.54464 11.9196 3 11.9732 3.50893ZM10.6875 9.53571C10.7946 9.24107 10.8482 8.75893 10.9018 8.08929C10.9018 7.71429 10.9286 7.15179 10.9286 6.42857V5.57143C10.9286 4.84821 10.9018 4.28571 10.9018 3.91071C10.8482 3.24107 10.7946 2.75893 10.6875 2.46429C10.4732 1.92857 10.0714 1.52679 9.53571 1.3125C9.24107 1.20536 8.75893 1.15179 8.08929 1.09821C7.6875 1.09821 7.125 1.07143 6.42857 1.07143H5.57143C4.84821 1.07143 4.28571 1.09821 3.91071 1.09821C3.24107 1.15179 2.75893 1.20536 2.46429 1.3125C1.90179 1.52679 1.52679 1.92857 1.3125 2.46429C1.20536 2.75893 1.125 3.24107 1.09821 3.91071C1.07143 4.3125 1.07143 4.875 1.07143 5.57143V6.42857C1.07143 7.15179 1.07143 7.71429 1.09821 8.08929C1.125 8.75893 1.20536 9.24107 1.3125 9.53571C1.52679 10.0982 1.92857 10.4732 2.46429 10.6875C2.75893 10.7946 3.24107 10.875 3.91071 10.9018C4.28571 10.9286 4.84821 10.9286 5.57143 10.9286H6.42857C7.15179 10.9286 7.71429 10.9286 8.08929 10.9018C8.75893 10.875 9.24107 10.7946 9.53571 10.6875C10.0714 10.4732 10.4732 10.0714 10.6875 9.53571Z" fill="var(--fill-0, white)"/>
</g>
</svg>
