<svg preserveAspectRatio="none" width="100%" height="100%" overflow="visible" style="display: block;" viewBox="0 0 80 80" fill="none" xmlns="http://www.w3.org/2000/svg">
<g id="Earth-Pin-2 Streamline Ultimate">
<path id="Vector" fill-rule="evenodd" clip-rule="evenodd" d="M38.9275 11.8282C35.172 12.1097 32.6553 12.7797 29.6683 14.293C27.4403 15.4217 25.5108 16.8475 23.7123 18.694C21.2698 21.2015 19.5178 24.0705 18.4018 27.39C17.2663 30.768 16.9775 34.4442 17.5138 38.7C18.6718 47.8895 23.9018 56.5177 32.46 63.3575C34.9573 65.3532 38.2608 67.533 39.2378 67.8297C39.7825 67.9952 40.4235 67.971 40.9668 67.7642C41.9533 67.389 45.2065 65.2127 47.4425 63.4327C55.0185 57.4012 60.0205 49.9787 61.898 41.9825C62.8187 38.0605 62.9968 33.844 62.3853 30.445C61.3133 24.4893 57.7233 19.0362 52.6388 15.6407C49.541 13.572 45.9608 12.2855 42.2915 11.9222C41.554 11.8495 39.4355 11.79 38.9275 11.8282ZM38.589 13.8685C35.851 14.07 33.312 14.7525 30.8885 15.939C28.6765 17.0217 26.9005 18.3147 25.1475 20.1182C22.9048 22.4252 21.376 24.9162 20.3693 27.9032C19.644 30.0553 19.3543 31.6935 19.287 34.02C19.133 39.3497 20.5368 44.844 23.3275 49.8347C26.677 55.8245 32.357 61.4757 39.1225 65.55C39.916 66.0277 40.084 66.0277 40.8775 65.55C48.45 60.99 54.551 54.5528 57.7558 47.7413C60.519 41.869 61.4318 35.114 60.1838 29.775C59.5893 27.2312 58.2705 24.386 56.706 22.272C53.2943 17.6617 48.0918 14.6302 42.4615 13.9715C41.4223 13.85 39.526 13.7995 38.589 13.8685ZM38.31 19.1435C37.4993 19.2257 36.2157 19.4952 35.3942 19.7552C30.745 21.2275 27.0965 24.714 25.409 29.297C24.4313 31.9527 24.2373 35.2907 24.8985 38.0825C25.9785 42.642 29.0078 46.435 33.2075 48.4865C35.4473 49.5805 37.4493 50.0378 40 50.0378C42.5508 50.0378 44.5528 49.5805 46.7925 48.4865C49.9265 46.9555 52.425 44.456 53.9435 41.3325C55.1073 38.9385 55.6178 36.3682 55.467 33.6625C55.3478 31.5232 54.8833 29.7515 53.9163 27.7467C51.6183 22.9827 46.8468 19.6552 41.5693 19.1362C40.7848 19.059 39.1038 19.0627 38.31 19.1435ZM38.2775 21.1847C35.5378 21.5432 33.0085 22.7115 30.9573 24.5655C30.449 25.025 29.4065 26.1407 29.4055 26.2265C29.4053 26.248 29.9243 26.2825 30.5588 26.303C31.8845 26.3462 32.4348 26.4697 33.2083 26.898C33.8965 27.279 34.7073 28.1255 35.0523 28.823C35.4855 29.6987 35.5218 29.898 35.572 31.68C35.6158 33.234 35.6213 33.2817 35.7953 33.658C36.1053 34.3282 36.3328 34.5345 37.9825 35.6435C39.5643 36.7062 39.8668 36.9677 40.3105 37.6547C40.7943 38.4037 40.9828 39.0815 40.9803 40.065C40.9785 40.818 40.8625 41.2965 40.5123 41.9977C40.0325 42.9575 39.77 43.1827 36.8987 45.1L34.3385 46.8092L34.9105 47.0487C38.7378 48.6512 43.351 48.2965 46.955 46.1223C48.5907 45.1355 50.2153 43.5748 51.2635 41.9825C51.8855 41.038 52.7003 39.3047 52.9028 38.4955C52.9445 38.3287 52.8795 38.284 50.7465 37.0047C48.289 35.5307 48.001 35.3 47.466 34.3775C47.049 33.6585 46.5972 32.7478 46.474 32.3778C46.106 31.2733 46.2103 29.908 46.7428 28.8552C47.4175 27.5217 48.8173 26.526 50.2403 26.3667L50.6817 26.3175L50.3315 25.897C49.8828 25.358 49.0638 24.551 48.4818 24.0747C46.9945 22.8577 44.8843 21.831 43.018 21.416C41.5548 21.0907 39.691 20.9997 38.2775 21.1847ZM27.7865 28.8385C27.1785 30.1607 26.8085 31.4408 26.608 32.915C26.4988 33.72 26.5165 35.606 26.6415 36.4575C27.0008 38.905 28.0625 41.299 29.6103 43.1525C30.504 44.223 32.1988 45.7192 32.4208 45.634C32.4718 45.6145 33.7825 44.752 35.334 43.7173C38.3598 41.6993 38.577 41.5212 38.8263 40.855C38.9713 40.4675 39.0148 39.8258 38.9223 39.4425C38.8558 39.1675 38.6048 38.6862 38.4015 38.4445C38.3048 38.3297 37.5645 37.7937 36.7565 37.2535C35.826 36.6312 35.141 36.123 34.8878 35.8667C34.404 35.377 34.023 34.75 33.7855 34.0525C33.6198 33.5655 33.6055 33.4332 33.5613 31.9725C33.534 31.079 33.4802 30.3025 33.435 30.1547C33.244 29.5302 32.649 28.864 32.0285 28.58C31.534 28.3537 31.064 28.3027 29.4508 28.3012L28.034 28.3L27.7865 28.8385ZM50.4508 28.367C49.7355 28.4875 48.9815 29.0105 48.6093 29.6445C48.2323 30.2865 48.1695 31.1433 48.4453 31.8793C48.643 32.407 49.34 33.6335 49.5758 33.869C49.6895 33.9827 50.5868 34.558 51.57 35.1475L53.3575 36.2193L53.406 36.0132C53.4998 35.6167 53.4685 33.4347 53.3585 32.6875C53.1685 31.3967 52.7673 30.0417 52.2275 28.8687L51.966 28.3L51.3618 28.3077C51.0295 28.3117 50.6195 28.3385 50.4508 28.367Z" fill="var(--fill-0, #4CC7F4)"/>
</g>
</svg>
