<svg preserveAspectRatio="none" width="100%" height="100%" overflow="visible" style="display: block;" viewBox="0 0 16 16" fill="none" xmlns="http://www.w3.org/2000/svg">
<g id="Car-Engine-2 Streamline Ultimate">
<path id="Vector" fill-rule="evenodd" clip-rule="evenodd" d="M6.9229 2.00775C6.8047 2.03145 6.7674 2.06695 6.4069 2.49865C6.2177 2.72515 6.05085 2.9351 6.0361 2.96515C5.9974 3.04395 5.9903 3.1438 6.01685 3.2352C6.0344 3.2956 6.0538 3.3259 6.1127 3.3847C6.22425 3.49615 6.3404 3.5263 6.4886 3.4823C6.58015 3.4551 6.63405 3.40215 6.925 3.0535L7.1745 2.7545H8H8.8255L9.075 3.0535C9.36595 3.40215 9.41985 3.4551 9.5114 3.4823C9.6596 3.5263 9.77575 3.49615 9.8873 3.3847C9.9462 3.3259 9.9656 3.2956 9.98315 3.2352C10.0097 3.14385 10.0026 3.044 9.96395 2.96515C9.9492 2.9351 9.7806 2.7234 9.58935 2.4947C9.26965 2.11255 9.23525 2.07575 9.16445 2.0397L9.08735 2.0005L8.03345 1.99845C7.45375 1.99735 6.95405 2.0015 6.9229 2.00775ZM4.4445 2.9996C4.2863 3.0519 4.2866 3.0516 3.3283 4.00705C2.82165 4.5122 2.3818 4.9593 2.35085 5.00055C2.2142 5.183 2.1905 5.43435 2.28985 5.647C2.315 5.70075 2.37435 5.7703 2.52895 5.9271L2.7346 6.13575L2.5643 6.4276C2.1407 7.1536 2.12205 7.1908 2.05865 7.4362C1.94865 7.86195 1.99705 8.333 2.1903 8.71765C2.4161 9.167 2.79965 9.5001 3.27255 9.6575C3.4119 9.7039 3.6014 9.7419 3.69375 9.74195L3.749 9.742V10.143C3.749 10.4402 3.7535 10.5587 3.76635 10.6012C3.7844 10.6607 4.6172 12.2229 4.6895 12.3329C4.7348 12.4018 4.82015 12.4654 4.894 12.4853C4.92545 12.4938 6.01035 12.4971 8.0278 12.4949L11.1135 12.4915L11.1655 12.4635C11.2739 12.4052 11.2996 12.364 11.7642 11.5012C12.0127 11.0397 12.2237 10.6408 12.2329 10.6148C12.2454 10.5799 12.25 10.4591 12.2504 10.1548L12.251 9.742L12.3062 9.74195C12.4679 9.74185 12.7708 9.6581 12.9679 9.55905C13.9246 9.07835 14.2833 7.9125 13.7595 6.986C13.7251 6.9252 13.5998 6.70895 13.4811 6.50545L13.2651 6.1354L13.4648 5.93345C13.5745 5.82235 13.6795 5.7052 13.698 5.673C13.7675 5.55205 13.7919 5.35225 13.7543 5.2115C13.7102 5.0466 13.7229 5.0608 12.708 4.0463C11.7705 3.1091 11.7484 3.0881 11.6475 3.03895C11.5511 2.99205 11.5353 2.98845 11.4069 2.9841C11.2479 2.9787 11.1494 3.0042 11.0362 3.07995C11 3.10415 10.6605 3.4342 10.2816 3.81345L9.5926 4.503H8.0003H6.40805L5.69925 3.79615C5.0125 3.11115 4.9873 3.0877 4.8872 3.0389C4.78835 2.9907 4.77775 2.9884 4.6402 2.98545C4.54795 2.9835 4.4779 2.98855 4.4445 2.9996ZM3.82395 4.57775L3.03445 5.3675L3.74105 6.076C4.4059 6.7427 4.4492 6.78895 4.4753 6.85975L4.503 6.935V8.66945V10.4039L4.86315 11.074L5.2233 11.744H7.9999H10.7764L11.1365 11.0756L11.4965 10.4071L11.5 8.6543L11.5035 6.9015L11.5347 6.8365C11.5591 6.78565 11.7183 6.61865 12.2658 6.0693L12.9656 5.3671L12.1729 4.57445L11.3802 3.7818L10.6683 4.49175C10.0432 5.11515 9.9486 5.20465 9.8915 5.2261C9.82905 5.24955 9.755 5.2505 8 5.2505C6.245 5.2505 6.17095 5.24955 6.1085 5.2261C6.05145 5.20465 5.95705 5.11545 5.33475 4.49485C4.9449 4.1061 4.62315 3.788 4.6197 3.788C4.61625 3.788 4.25815 4.1434 3.82395 4.57775ZM7.8471 5.63545C7.66885 5.6651 7.4961 5.75235 7.3561 5.8833C7.2069 6.02285 7.1148 6.19045 7.06985 6.4041C7.05955 6.453 7.04265 6.50945 7.03225 6.52955C6.991 6.60935 6.88405 6.6737 6.79235 6.6739C6.7752 6.67395 6.705 6.65555 6.63635 6.63295C6.5256 6.59655 6.4939 6.59185 6.3555 6.5909C6.16755 6.58965 6.0823 6.6096 5.90705 6.69565C5.80385 6.74635 5.7654 6.77465 5.67305 6.8679C5.4049 7.1386 5.32235 7.4956 5.44445 7.85645C5.49165 7.99595 5.5486 8.0825 5.6889 8.22805C5.81985 8.36385 5.855 8.4215 5.855 8.5005C5.855 8.5795 5.81985 8.63715 5.6889 8.77295C5.55055 8.91645 5.49245 9.0039 5.44515 9.13995C5.3212 9.49635 5.4053 9.8628 5.67305 10.1331C5.7654 10.2264 5.80385 10.2547 5.90705 10.3054C6.0778 10.3892 6.16735 10.4104 6.349 10.4098C6.47565 10.4094 6.5164 10.4037 6.6155 10.3727C6.67985 10.3525 6.75045 10.3335 6.77235 10.3304C6.86425 10.3173 6.987 10.384 7.03225 10.4715C7.04265 10.4916 7.05965 10.5484 7.07005 10.5978C7.1622 11.036 7.4974 11.3348 7.9415 11.3746C8.191 11.397 8.4574 11.3028 8.6507 11.1238C8.80425 10.9816 8.89295 10.8263 8.9377 10.6213C8.95155 10.5579 8.97115 10.49 8.9813 10.4705C9.0219 10.3919 9.12945 10.3273 9.21995 10.3271C9.23675 10.3271 9.30985 10.3459 9.38245 10.3689C9.50105 10.4066 9.5304 10.4108 9.6705 10.4106C9.78205 10.4105 9.8506 10.4036 9.911 10.3865C10.5412 10.2083 10.8182 9.5121 10.4811 8.95405C10.4571 8.9144 10.3811 8.8253 10.3122 8.7562C10.2186 8.6622 10.1833 8.61735 10.1725 8.57845C10.1371 8.45095 10.1591 8.40065 10.3252 8.22835C10.5341 8.0117 10.6094 7.84675 10.6224 7.57725C10.6282 7.45835 10.6247 7.41525 10.6018 7.32375C10.5291 7.03385 10.3455 6.80415 10.088 6.6811C9.9369 6.6089 9.8482 6.59005 9.664 6.591C9.5179 6.59175 9.4889 6.59595 9.37665 6.6329C9.308 6.6555 9.2378 6.67395 9.22065 6.6739C9.1595 6.6738 9.0894 6.6456 9.0406 6.6015C8.98275 6.5492 8.9713 6.52415 8.93665 6.3731C8.88925 6.1665 8.8052 6.0206 8.65245 5.8798C8.54395 5.7798 8.4488 5.7208 8.32935 5.67935C8.17085 5.62435 8.0046 5.6092 7.8471 5.63545ZM7.9285 6.39335C7.85725 6.425 7.83045 6.46865 7.798 6.6058C7.7437 6.83555 7.65055 6.9994 7.4881 7.15085C7.3148 7.31235 7.10045 7.4049 6.85945 7.42225C6.729 7.43165 6.62505 7.4174 6.46395 7.3681C6.331 7.3274 6.27935 7.33205 6.2124 7.39085C6.15895 7.4378 6.13395 7.50975 6.14695 7.57915C6.15435 7.61865 6.17965 7.65205 6.2704 7.7422C6.44915 7.91975 6.54535 8.0889 6.58865 8.3017C6.6593 8.6494 6.54705 8.9882 6.2727 9.25505C6.15765 9.36695 6.1311 9.41855 6.14645 9.50055C6.159 9.56745 6.2198 9.6312 6.2897 9.65075C6.34235 9.6655 6.3575 9.66385 6.4532 9.633C6.85315 9.504 7.2538 9.5986 7.52625 9.88635C7.66295 10.0308 7.746 10.176 7.78545 10.34C7.8294 10.5225 7.8345 10.5354 7.8772 10.5729C8.00095 10.6815 8.17365 10.6095 8.2075 10.4351C8.2483 10.2248 8.3394 10.0431 8.47755 9.8967C8.75805 9.5993 9.15515 9.5025 9.55945 9.6329C9.68055 9.67195 9.73245 9.6683 9.7941 9.61645C9.8457 9.573 9.872 9.52095 9.872 9.4623C9.872 9.39615 9.85745 9.37365 9.7291 9.2415C9.49795 9.0035 9.4118 8.8023 9.4118 8.5005C9.4118 8.19955 9.51125 7.969 9.7342 7.753C9.84795 7.6428 9.872 7.60535 9.872 7.5385C9.872 7.48005 9.84565 7.42795 9.7941 7.38455C9.7308 7.33135 9.67505 7.3276 9.5541 7.36845C9.17635 7.4961 8.78105 7.4042 8.4994 7.1233C8.3446 6.96895 8.25105 6.79045 8.2076 6.5666C8.17855 6.41675 8.05225 6.33835 7.9285 6.39335ZM3.08005 7.0387C2.8579 7.41995 2.81165 7.51605 2.7793 7.66375C2.74865 7.8036 2.7518 8.03125 2.7862 8.1625C2.8719 8.48985 3.08475 8.74715 3.389 8.8913C3.48245 8.93555 3.66115 8.988 3.7186 8.988H3.749V8.0681V7.14825L3.5174 6.9169L3.2858 6.6856L3.08005 7.0387ZM12.4813 6.91815L12.251 7.14875V8.0684V8.988H12.2814C12.3388 8.988 12.5175 8.93555 12.611 8.8913C12.7397 8.8303 12.8412 8.75815 12.9349 8.6609C13.1386 8.4497 13.2402 8.20025 13.2411 7.909C13.2417 7.739 13.2186 7.61275 13.1624 7.47915C13.1326 7.40805 12.7509 6.7337 12.7198 6.697C12.7154 6.6918 12.608 6.7913 12.4813 6.91815ZM7.87525 7.8893C7.7662 7.91305 7.67795 7.96055 7.58835 8.0438C7.4525 8.1701 7.3887 8.3163 7.3893 8.5C7.38995 8.68035 7.4423 8.8063 7.571 8.937C7.8215 9.19135 8.2045 9.19135 8.455 8.937C8.58375 8.80625 8.63635 8.67965 8.63635 8.5005C8.63635 8.31935 8.58375 8.19195 8.4559 8.06355C8.3581 7.9654 8.26835 7.91495 8.1447 7.8887C8.0401 7.86655 7.97925 7.8667 7.87525 7.8893ZM4.8475 13.2829C4.76795 13.3205 4.69485 13.3925 4.65705 13.4706C4.61405 13.5594 4.61725 13.6941 4.66465 13.791C4.70435 13.8721 4.794 13.953 4.87655 13.9822C4.9168 13.9964 5.4734 13.9995 8.0065 13.9995H11.0875L11.1479 13.9716C11.2259 13.9355 11.3105 13.8505 11.3444 13.774C11.3821 13.689 11.3814 13.55 11.3429 13.4706C11.3087 13.3998 11.2361 13.3245 11.1655 13.2865L11.1135 13.2585L8.013 13.2553L4.9125 13.2522L4.8475 13.2829Z" fill="var(--fill-0, #001E50)"/>
</g>
</svg>
