<svg preserveAspectRatio="none" width="100%" height="100%" overflow="visible" style="display: block;" viewBox="0 0 104 33" fill="none" xmlns="http://www.w3.org/2000/svg">
<g id="Coca-Cola_logo 1" clip-path="url(#clip0_0_22)">
<path id="Vector" d="M72.8546 2.53302C72.8546 2.53302 70.9051 3.31808 68.6377 5.84602C66.3702 8.37396 65.0497 11.2166 66.027 11.9726C66.4024 12.2599 67.2681 12.3147 68.8389 10.8779C70.2885 9.60478 71.4264 8.00878 72.1631 6.21546C73.1776 3.71318 72.8546 2.56381 72.8546 2.53644M85.2637 7.08091C82.7443 5.77418 80.903 4.17327 78.9873 3.18296C77.1595 2.2337 75.9776 1.8369 74.4998 2.03701C74.2936 2.07418 74.0903 2.12562 73.8911 2.19095C73.8911 2.19095 74.652 4.81979 71.6237 9.23599C68.5565 13.7138 65.7734 13.683 64.9821 12.4532C64.1536 11.155 65.2239 8.50908 67.0111 6.15389C68.8828 3.69095 72.1698 1.64876 72.1698 1.64876C72.1698 1.64876 71.1215 1.00052 68.548 2.47658C66.0371 3.90987 61.7154 7.33063 57.7047 13.0997C53.694 18.8688 52.8993 22.0433 52.3245 24.5421C51.7496 27.041 52.272 29.7177 55.0112 29.7177C57.7504 29.7177 60.9393 25.4914 61.8388 24.0222C63.511 21.2856 64.6016 17.0883 62.3258 17.6647C61.2047 17.9486 60.2968 19.2041 59.7236 20.4133C59.3617 21.19 59.085 22.0044 58.8984 22.842C58.1032 23.1736 57.3563 23.6132 56.6784 24.1488C55.9242 24.7138 55.2194 25.3433 54.5716 26.0302C54.5716 26.0302 54.5817 24.0325 56.1559 20.7998C57.7301 17.5672 60.6197 16.0912 62.2564 15.9526C63.7308 15.8329 65.6499 17.0986 64.0234 21.7679C62.3968 26.4372 57.5982 32.114 52.5578 32.1841C47.9063 32.2491 44.8628 26.244 51.337 15.7645C58.5028 4.18695 66.9079 0.634503 69.6369 0.239406C72.366 -0.155691 73.2536 1.0621 73.2536 1.0621C74.8964 0.38035 76.6706 0.0844417 78.4428 0.196647C81.7755 0.424127 84.3523 2.8101 87.7543 4.48627C86.87 5.34146 86.0262 6.23941 85.2653 7.08091M100.236 3.18296C97.9263 4.68125 94.7307 6.03929 91.6601 5.74853C90.8823 6.56096 90.0504 7.50166 89.2168 8.52789C94.5413 9.59345 99.2063 6.25651 101.687 3.41557C102.591 2.39415 103.368 1.26426 104 0.0512646C102.871 1.24108 101.607 2.29222 100.234 3.18296M93.1447 18.3574C93.185 18.2864 93.2179 18.2113 93.2427 18.1334C93.2269 18.01 93.1698 17.8959 93.0809 17.81C92.9919 17.7241 92.8766 17.6716 92.7541 17.6613C92.2468 17.6374 91.5553 17.7348 89.741 19.7668C88.2359 21.4448 86.9406 23.3036 85.8842 25.3015C84.846 27.2206 84.425 28.6505 85.0219 29.0199C85.2158 29.1215 85.4406 29.1447 85.6509 29.0849C86.055 28.9874 86.5132 28.6043 87.2098 27.7884C87.5361 27.4053 87.898 26.8631 88.3308 26.2628C89.5313 24.6106 92.5478 19.4093 93.1447 18.3574ZM74.2986 20.5672C74.6012 19.7668 74.9867 18.1949 74.1853 17.5775C73.3247 16.9224 71.1299 18.46 71.1181 20.037C71.1029 21.6516 72.6635 22.3819 73.0372 22.4846C73.2503 22.5427 73.3247 22.5342 73.4278 22.3614C73.7588 21.7845 74.0498 21.185 74.2986 20.5672ZM72.6382 23.5039C72.0943 23.2499 71.587 22.9225 71.1299 22.5307C70.6717 22.1419 70.2887 21.6704 70.0005 21.1402C69.97 21.0889 69.9396 21.1282 69.9058 21.1744C69.872 21.2206 69.7367 21.3455 68.5666 23.0798C67.3966 24.8141 65.5992 28.4076 67.2258 29.0199C68.2674 29.4116 70.0005 27.5661 70.9456 26.3432C71.5896 25.4896 72.1733 24.5911 72.6923 23.6545C72.7413 23.5501 72.6923 23.5262 72.6399 23.5039M91.0903 27.655C90.649 28.37 90.1451 29.7417 91.5975 28.8882C93.3746 27.85 95.9058 23.9657 95.9058 23.9657H97.0539C96.0092 25.5906 94.8461 27.1342 93.5741 28.5838C91.7734 30.602 89.577 32.4355 88.0299 32.2542C86.2224 32.0404 86.7888 29.6408 86.7888 29.6408C86.7888 29.6408 84.2035 32.4253 82.4146 32.2252C79.9984 31.9549 80.7356 28.9344 80.7356 28.9344C80.7356 28.9344 78.0032 32.3261 76.1416 32.2217C73.2232 32.0507 73.957 28.4589 74.7686 25.9293C75.2032 24.5764 75.6056 23.5142 75.6056 23.5142C75.6056 23.5142 75.3165 23.5912 74.6942 23.6852C74.3696 23.7314 73.7778 23.7656 73.7778 23.7656C73.7778 23.7656 72.5621 25.9344 71.5899 27.2377C70.6176 28.541 66.4852 33.0342 64.0538 32.1345C61.805 31.3033 62.549 27.8209 63.8577 25.0535C65.7683 21.0188 71.1418 15.2223 74.2411 15.9886C77.4537 16.777 74.3138 22.7069 74.3138 22.7069C74.3138 22.7069 74.3138 22.7291 74.3476 22.7445C74.4119 22.7685 74.5793 22.7873 74.9665 22.7103C75.3677 22.6275 75.7609 22.5091 76.1416 22.3563C76.1416 22.3563 79.3711 15.5148 82.9388 11.0387C86.5064 6.56267 93.6232 -1.146 96.4164 0.718311C97.0928 1.17669 96.7884 2.75537 95.8686 4.67099C95.4543 4.80712 95.0333 4.9213 94.6072 5.01307C95.2227 3.88251 95.6302 2.92983 95.7519 2.26449C96.1729 -0.0479374 90.835 4.83006 87.0204 10.0706C84.7228 13.23 82.6815 16.5721 80.9165 20.0644C81.6056 19.6393 82.2634 19.1642 82.8846 18.6431C84.5861 17.2159 86.2031 15.6888 87.7272 14.0695C89.1948 12.5497 90.5714 10.9425 91.8495 9.25651C92.2555 9.23664 92.6603 9.19439 93.0618 9.12994C91.6683 11.0432 90.1487 12.8592 88.5134 14.5655C86.9917 16.122 85.3448 17.7964 83.9144 19.0125C82.6367 20.1116 81.289 21.1246 79.88 22.045C79.88 22.045 76.544 28.8506 78.3583 29.2867C79.4252 29.5467 81.532 26.2645 81.532 26.2645C81.532 26.2645 84.2813 22.021 85.9383 20.1071C88.1989 17.5074 90.1451 16.0022 92.0896 15.9749C93.2224 15.9543 93.8903 17.1721 93.8903 17.1721L94.4229 16.3375H97.7032C97.7032 16.3375 91.5772 26.8529 91.0869 27.6448M100.234 3.18296C97.9246 4.68125 94.729 6.03929 91.6584 5.74853C90.8806 6.56096 90.0487 7.50166 89.2151 8.52789C94.5396 9.59345 99.2046 6.25651 101.685 3.41557C102.59 2.39425 103.367 1.26435 104 0.0512646C102.871 1.24108 101.607 2.29222 100.234 3.18296ZM54.1675 8.34146H51.0479L49.2843 11.2234H52.4039L54.1675 8.34146ZM39.3963 18.3215C40.7236 16.4811 44.386 10.0313 44.386 10.0313C44.3705 9.90811 44.3137 9.79401 44.2251 9.70809C44.1365 9.62216 44.0214 9.56962 43.899 9.55925C43.3918 9.5353 42.5464 9.70805 40.8674 11.834C39.1884 13.96 37.8847 15.6516 36.9345 17.4116C35.8929 19.3323 35.4381 20.687 36.0366 21.0547C36.2309 21.1531 36.454 21.1762 36.6639 21.1197C37.0528 21.0205 37.5618 20.6254 38.2601 19.813C38.5881 19.4332 38.9601 18.9218 39.3963 18.3215ZM22.657 9.59859C21.7947 8.94009 19.6017 10.4811 19.5899 12.0547C19.5763 13.671 21.5631 14.1653 21.8201 14.1773C21.8957 14.1836 21.9715 14.1676 22.0382 14.1311C22.084 14.104 22.1206 14.0634 22.143 14.0148C22.3766 13.5505 22.5865 13.0744 22.772 12.5883C23.0747 11.7879 23.4585 10.216 22.657 9.59859ZM21.3568 15.1624C20.7622 14.9745 20.1939 14.7101 19.6659 14.3757C19.1543 14.0383 18.7383 13.572 18.4587 13.0228C18.4283 12.9714 18.3944 13.0108 18.364 13.057C18.3336 13.1031 18.1577 13.3255 16.9843 15.0667C15.8108 16.8078 14.0727 20.3688 15.7009 20.9811C16.7391 21.3797 18.4925 19.5188 19.4445 18.301C20.1568 17.344 20.815 16.3469 21.416 15.3147C21.4549 15.2103 21.416 15.1864 21.3585 15.1676M46.836 16.2348H47.979C47.979 16.2348 42.2521 24.6157 39.0176 24.2257C37.2118 24.0119 37.7478 21.7576 37.7478 21.7576C37.7478 21.7576 35.2115 24.7611 32.8815 24.1522C30.768 23.6031 32.1325 20.0473 32.1325 20.0473C31.8924 20.1448 27.3187 25.3597 24.1044 24.1094C20.7413 22.7959 22.488 18.4293 23.1271 17.1157C23.6699 16.0091 24.2701 14.9315 24.2701 14.9315C24.2701 14.9315 23.7544 15.0786 23.4247 15.1539C23.095 15.2291 22.6182 15.3249 22.6182 15.3249C22.6182 15.3249 21.0271 17.9401 20.0548 19.2451C19.0826 20.5501 14.9502 25.0347 12.5154 24.1419C10.0806 23.2491 10.6842 19.8027 12.0521 17.0661C14.2705 12.6277 19.5341 7.17327 22.7044 8.00109C25.9068 8.82721 23.2556 14.0815 23.2556 14.0815C23.2556 14.0815 23.893 14.1653 25.4199 13.1117C27.618 11.5946 30.5194 7.51364 33.661 7.99254C35.1422 8.21831 36.5219 9.7491 34.6349 12.6567C34.033 13.5906 33.0236 14.4253 32.2509 13.5992C31.769 13.086 32.19 12.1505 32.6955 11.5108C32.8923 11.25 33.1494 11.0422 33.4443 10.9056C33.7391 10.769 34.0627 10.7078 34.3864 10.7274C34.3864 10.7274 34.9055 9.53017 33.5849 9.54727C32.5163 9.5678 29.811 12.0872 28.2841 14.6322C26.8841 16.9686 24.7621 20.9486 26.8926 21.8158C28.8455 22.6128 32.562 18.1505 34.2832 15.8124C36.0045 13.4743 39.9273 8.17555 43.2176 7.96347C44.3505 7.88821 45.0251 8.93325 45.0251 8.93325L45.4056 8.32435H48.6959C48.6959 8.32435 42.499 18.785 42.0154 19.5769C41.635 20.1961 41.1294 21.5883 42.5227 20.8084C43.9159 20.0285 46.836 16.2348 46.836 16.2348ZM45.0454 32.9965C42.6227 31.3001 39.7217 30.4437 36.7772 30.5558C35.9803 30.5778 35.1997 30.7895 34.4987 31.1737C33.7978 31.558 33.1962 32.104 32.7429 32.7673C31.4883 30.5524 29.0078 29.1927 25.173 29.2234C18.9761 29.2953 12.8299 32.1858 7.96029 32.1824C3.29358 32.1824 -0.110077 29.2149 -0.000173106 23.9452C0.204418 14.6972 7.92985 6.36939 13.6956 2.62196C17.0198 0.468596 19.7995 -0.171084 21.6172 0.0358712C22.9428 0.184674 24.5373 1.73427 23.5312 4.01763C22.0534 7.35457 20.0126 7.08091 20.0887 5.48513C20.1309 4.44693 20.814 3.79357 21.328 3.43268C21.6544 3.2052 22.2309 3.1402 22.5319 3.13336C22.8244 2.88365 23.0392 1.05697 20.672 1.65731C18.3048 2.25765 15.4304 4.61797 12.7014 7.66757C9.97238 10.7172 5.72331 16.4811 4.6733 22.5342C4.18296 25.3409 4.50422 30.46 11.0833 30.4019C16.663 30.3557 24.8873 26.6391 32.4453 26.716C35.3789 26.7451 37.9321 27.5456 39.9222 28.7873C41.8768 30.0051 44.2203 31.7839 45.0522 32.9982" fill="var(--fill-0, #485770)"/>
</g>
<defs>
<clipPath id="clip0_0_22">
<rect width="104" height="33" fill="white"/>
</clipPath>
</defs>
</svg>
