<svg preserveAspectRatio="none" width="100%" height="100%" overflow="visible" style="display: block;" viewBox="0 0 116 30" fill="none" xmlns="http://www.w3.org/2000/svg">
<g id="mercado-livre-brasil-logo 1" clip-path="url(#clip0_0_4)">
<path id="Vector" d="M39.2539 6.65166C37.2286 4.54686 34.6654 3.02538 31.9755 1.9576C28.0196 0.403168 23.7158 -0.179057 19.4753 0.0472419C17.5134 0.143913 15.5827 0.436125 13.6842 0.921679C10.3929 1.76316 7.19727 3.18796 4.53851 5.42129C2.64108 7.0724 1.02713 9.1761 0.362441 11.6687C-0.0176895 12.9639 -0.0176895 14.2909 0.0456656 15.619C0.140161 17.5612 0.741497 19.5035 1.72296 21.1875C2.92564 23.2275 4.66629 24.9105 6.62815 26.1727C8.52665 27.4031 10.6786 28.3094 12.8616 28.9245C16.5953 29.9605 20.4879 30.1868 24.3482 29.8638C28.3675 29.5079 32.418 28.439 35.867 26.2375C38.4302 24.5864 40.6455 22.2234 41.7526 19.2772C42.5118 17.335 42.6385 15.1983 42.4807 13.1264C42.1639 10.6657 40.9301 8.43239 39.2528 6.65166H39.2539ZM41.5325 12.6079C38.4625 13.2879 35.488 14.2909 32.6091 15.5542C30.1726 13.3857 27.7673 11.2161 25.2674 9.14424C24.5394 8.56202 23.8113 7.91388 22.8943 7.65463C22.0718 7.46018 21.217 7.65463 20.4889 8.07537C19.3818 8.69055 18.4949 9.6298 17.4511 10.3087C17.071 10.568 16.6286 10.7294 16.1851 10.7294C15.5838 10.7613 14.9191 10.6976 14.4444 10.2439C14.6657 9.91981 14.9513 9.6287 15.2036 9.33759C16.1851 8.30166 17.1021 7.16907 18.2737 6.35945C19.5397 5.48501 21.1214 5.1939 22.6087 5.25871C23.9692 5.35538 25.2986 5.77722 26.5324 6.39131C28.6209 7.36241 30.9629 7.7513 33.2416 7.39537C34.6977 7.16907 36.1215 6.71537 37.4498 6.06833C39.4751 7.78425 41.0579 10.0176 41.5325 12.6079ZM15.6149 1.37428C19.7287 0.59761 24.0003 0.694281 28.083 1.63353C31.1841 2.34539 34.222 3.60871 36.8174 5.55092C34.7599 6.45722 32.5135 6.97573 30.2671 6.68352C28.9699 6.52203 27.7039 6.10129 26.5335 5.51797C24.7294 4.67649 22.6731 4.25575 20.679 4.61167C19.4452 4.80611 18.2425 5.32353 17.2611 6.13315C17.1032 6.29463 16.8498 6.26278 16.6286 6.29463C15.616 6.3913 14.6345 6.78019 13.6219 6.97463C12.6404 7.16907 11.6278 6.97463 10.6786 6.71537C9.10036 6.32748 7.54686 5.84102 6.02681 5.25871C8.90678 3.21872 12.2292 2.02132 15.6149 1.37428ZM5.36212 5.84204C7.10277 6.55389 8.90678 7.13721 10.7097 7.58981C11.4977 7.78241 12.3049 7.88011 13.1151 7.88092C14.1277 7.81611 15.1091 7.39537 16.0895 7.20093C15.3615 7.94574 14.6657 8.75536 13.9698 9.53203C13.7164 9.79128 13.5585 10.1791 13.7164 10.5361C13.9065 10.9898 14.3811 11.2479 14.8235 11.3776C15.7728 11.6687 16.8487 11.7016 17.7035 11.1513C18.9695 10.3746 20.0132 9.1761 21.406 8.62573C21.9751 8.39943 22.6087 8.43129 23.1778 8.69055C23.9058 9.04647 24.5072 9.59684 25.1396 10.1154C27.545 12.1553 29.8859 14.2272 32.2279 16.3309C32.6392 16.6868 32.8292 17.335 32.5447 17.7875C32.1967 18.3379 31.4376 18.5972 30.804 18.3698C30.5506 18.2731 30.3605 18.0457 30.1715 17.8842C29.3168 17.1076 28.4631 16.2979 27.6083 15.5531C27.4183 15.3587 26.9436 15.0028 26.8492 15.4564C26.8803 15.6509 27.007 15.7805 27.1026 15.8772C27.9251 16.6868 28.7165 17.5283 29.5391 18.3698C29.887 18.6938 30.2349 19.2113 30.0137 19.6968C29.6658 20.5064 28.5264 20.992 27.7984 20.4416C26.9759 19.665 26.2478 18.8235 25.3931 18.1435C25.2352 17.949 24.8239 18.0138 24.8862 18.3379C24.9807 18.5642 25.203 18.7587 25.3608 18.9531C25.8988 19.5683 26.4368 20.1835 26.9426 20.7657C27.1326 20.992 27.2905 21.2842 27.1638 21.5753C26.847 22.2553 25.9611 22.5146 25.3286 22.1905C24.6328 21.5435 23.9992 20.8305 23.2401 20.2153C23.1133 20.0857 22.8599 20.0538 22.7654 20.2472C22.7021 20.5383 22.9866 20.7009 23.1456 20.8942C23.6524 21.4764 24.1582 22.0268 24.665 22.6101C24.3482 22.9661 23.8736 23.0638 23.4312 23.0638C22.8932 23.032 22.4186 22.8375 21.944 22.6101C22.1974 21.995 22.2607 21.2831 22.0073 20.6679C21.6594 19.6968 20.6779 19.0168 19.6653 19.0498C19.6965 18.3698 19.5708 17.6579 19.064 17.1724C18.4315 16.5572 17.4823 16.3627 16.6587 16.622C16.0262 15.4246 14.3167 15.1005 13.2407 15.8772C12.8294 15.4235 12.2592 15.1005 11.659 15.1005C11.121 15.0687 10.583 15.3268 10.1717 15.6827C8.779 14.7116 7.16506 14.1613 5.58333 13.6428C4.09609 13.1572 2.57665 12.8661 1.05827 12.4124C1.59625 9.72537 3.30469 7.49204 5.36212 5.84094V5.84204ZM12.6082 18.0149C12.2914 18.3061 11.8802 18.5335 11.4378 18.4686C10.7097 18.4038 10.1406 17.5623 10.3618 16.8175C10.5519 16.0409 11.5011 15.5872 12.1658 15.9761C12.6727 16.2024 12.8939 16.8175 12.925 17.336C13.2096 16.8175 13.6842 16.332 14.2855 16.2353C14.8546 16.1386 15.5515 16.2672 15.8673 16.8175C16.0573 17.0768 16.0573 17.3998 16.1518 17.692C16.4686 17.7886 16.6264 17.336 16.9432 17.3031C17.4501 17.1416 18.0503 17.2712 18.4627 17.6272C18.8739 18.016 18.9373 18.6312 18.8428 19.1486C18.8116 19.4079 18.6849 19.6342 18.6849 19.8934C18.8116 20.0879 19.0329 19.9253 19.1918 19.8934C19.9832 19.5694 20.9002 20.0231 21.2492 20.7997C21.5338 21.4149 21.3759 22.1916 20.9013 22.6771C20.4267 23.1627 19.6675 23.2923 19.0661 23.0331C18.5593 22.8068 18.148 22.2883 18.0847 21.7379C18.0535 21.5764 18.0535 21.4138 17.9902 21.2842C17.8001 21.1875 17.6734 21.4138 17.5156 21.5105C16.9464 21.9961 16.0595 21.6401 15.6171 21.1216C15.3636 20.8305 15.427 20.4416 15.3958 20.0857C15.2058 19.9561 15.0479 20.1824 14.889 20.2472C14.0031 20.7657 12.8316 19.9561 12.7371 18.952C12.6104 18.6609 12.8316 18.272 12.6104 18.0127L12.6082 18.0149ZM40.1709 19.2124C38.7148 21.5105 36.5317 23.2264 34.1897 24.4897C30.6773 26.3353 26.7536 27.2734 22.8288 27.4679C18.3982 27.6623 13.9054 27.0142 9.82275 25.2345C7.1017 24.0371 4.53851 22.2883 2.7345 19.8286C1.37397 17.9831 0.614787 15.6201 0.867134 13.289C2.98684 13.7746 5.10763 14.2601 7.13284 15.0698C8.01874 15.4257 8.90464 15.8146 9.69604 16.3649C9.44262 16.9801 9.50597 17.7249 9.85389 18.3072C10.2974 19.019 11.1511 19.4079 11.9736 19.2464C12.227 20.4768 13.493 21.4149 14.7269 21.1568C15.1703 22.1608 16.4042 22.7749 17.4479 22.419C17.7958 23.2605 18.5872 23.8757 19.4731 23.9405C20.2012 24.0371 20.9292 23.7142 21.435 23.1957C22.2264 23.6164 23.1434 23.9723 24.0615 23.746C24.5362 23.6494 25.0108 23.3901 25.2953 22.9694C26.4347 23.3253 27.764 22.5805 28.0797 21.4149C29.3769 21.6742 30.8964 20.6383 30.8641 19.2135C31.75 19.3749 32.7315 18.9872 33.2061 18.1775C33.5863 17.5623 33.5229 16.7857 33.175 16.1705C35.9283 15.0049 38.776 14.1305 41.656 13.4516C41.8138 15.5235 41.2447 17.5305 40.1687 19.2146L40.1709 19.2124ZM104.157 1.24465C103.746 1.53576 103.588 2.05427 103.588 2.50687V5.09723C103.335 4.67649 102.987 4.32056 102.544 4.09316C101.816 3.67242 100.899 3.63946 100.076 3.83391C99.0632 4.06021 98.2084 4.83797 97.766 5.77612C97.228 6.87686 97.1013 8.13908 97.1335 9.36945C97.1969 10.535 97.6082 11.7324 98.4629 12.542C99.381 13.2868 100.583 13.5131 101.722 13.5131C102.861 13.5131 104.064 13.1891 104.886 12.3157C105.582 11.6039 105.93 10.568 105.962 9.56389V0.792051C105.361 0.792051 104.665 0.856865 104.158 1.24575L104.157 1.24465ZM103.114 10.7943C102.418 11.8302 100.645 11.8302 100.044 10.6976C99.569 9.82314 99.5367 8.78722 99.6634 7.81611C99.7902 7.03944 100.233 6.16501 101.056 5.97056C101.625 5.84094 102.29 5.90575 102.765 6.32649C103.303 6.78019 103.524 7.49204 103.619 8.20389C103.714 9.04538 103.619 10.0494 103.113 10.7943H103.114ZM115.738 6.87796C115.391 5.74536 114.695 4.67649 113.619 4.15907C112.637 3.67352 111.467 3.60871 110.391 3.73833C109.884 3.80315 109.378 3.96463 108.904 4.22389C108.049 4.67758 107.448 5.55092 107.068 6.45722C106.562 7.71944 106.53 9.14424 106.942 10.4394C107.29 11.5072 107.954 12.5442 108.936 13.0616C109.917 13.5801 111.056 13.6439 112.131 13.5472C113.144 13.4505 114.157 12.9968 114.821 12.1872C115.992 10.6976 116.245 8.65869 115.74 6.87796H115.738ZM112.985 10.6657C112.257 11.8313 110.327 11.7983 109.631 10.6339C109.124 9.79238 109.093 8.75646 109.219 7.78535C109.314 6.94387 109.821 6.06943 110.643 5.81018C111.339 5.61574 112.13 5.71351 112.668 6.23092C113.206 6.74943 113.396 7.5261 113.428 8.27091C113.491 9.08053 113.428 9.98682 112.984 10.6668L112.985 10.6657ZM57.7653 3.77019C56.9106 3.86686 56.1203 4.35242 55.5501 5.00055C54.2207 3.28464 51.4051 3.34945 50.0124 4.93574C49.3166 5.71241 48.9998 6.74833 48.9998 7.78425V13.3527H51.1829C51.214 11.4753 51.1829 9.56499 51.1829 7.68758C51.1829 7.00759 51.563 6.36055 52.1955 6.13315C52.8602 5.90685 53.7149 6.00352 54.1262 6.6187C54.4741 7.13721 54.4108 7.78425 54.4108 8.36648V13.3516H56.5938V8.17204C56.5938 7.68648 56.5938 7.20093 56.8472 6.78019C57.3219 5.97056 58.4612 5.77612 59.1892 6.26168C59.6327 6.55279 59.8217 7.13612 59.8217 7.68648V13.3516H62.0048V7.68648C62.0048 6.58575 61.6246 5.4202 60.8343 4.67539C60.0751 3.89872 58.8724 3.60761 57.7643 3.76909L57.7653 3.77019ZM69.3475 10.8272C69.0941 11.1513 68.7462 11.4424 68.3349 11.5072C67.6069 11.6368 66.7532 11.6039 66.1518 11.0865C65.645 10.6657 65.456 9.98573 65.4238 9.33869H72.0374C72.0374 8.17314 72.0374 6.97573 71.4361 5.93981C70.8981 4.93574 69.9488 4.15907 68.8417 3.93277C67.3857 3.60871 65.7406 3.77129 64.5701 4.77426C63.6209 5.55092 63.114 6.78129 63.0195 8.01165C62.925 9.1772 62.9884 10.4394 63.5575 11.5083C63.9376 12.2202 64.6013 12.7387 65.2982 13.0946C66.4053 13.6768 67.7346 13.7416 68.9685 13.4835C70.2656 13.1924 71.4372 12.1883 71.8484 10.8613C71.0259 10.8294 70.1711 10.8294 69.3486 10.8294L69.3475 10.8272ZM66.6265 5.93871C67.449 5.58278 68.4938 5.71241 69.0952 6.42426C69.4119 6.78019 69.5064 7.26574 69.5698 7.71944H65.4871C65.5816 7.00759 65.9306 6.26278 66.6265 5.93871ZM73.1456 9.59684V13.3516H75.5509V9.11129C75.5509 8.52906 75.5509 7.94574 75.7088 7.39537C75.8355 6.97463 76.1523 6.6187 76.5313 6.42426C77.1005 6.13315 77.7974 6.16501 78.3987 6.22982V3.73723C77.3549 3.67242 76.3101 3.83391 75.3609 4.2876C74.3171 4.80611 73.5569 5.84204 73.2723 6.97463C73.0822 7.84907 73.1456 8.72241 73.1456 9.59684ZM82.3224 13.5142C83.5562 13.6757 84.8856 13.579 85.9304 12.8342C86.8485 12.1542 87.5122 11.0535 87.6077 9.88796H85.0445C84.9812 10.3735 84.8233 10.9239 84.4121 11.2479C83.5573 11.7983 82.1968 11.572 81.7544 10.568C81.4064 9.82314 81.3742 8.98166 81.4376 8.17204C81.5009 7.49204 81.6588 6.74723 82.1656 6.26168C82.7036 5.74317 83.5584 5.67945 84.2231 5.97056C84.7299 6.19686 84.9822 6.78019 85.0778 7.2976H87.641C87.5465 6.39131 87.2931 5.45205 86.6284 4.80501C85.9637 4.18983 85.0778 3.89872 84.2231 3.80095C82.9893 3.67132 81.691 3.76909 80.6473 4.5128C79.6347 5.1928 79.0655 6.39021 78.8755 7.58871C78.6543 9.11019 78.8121 10.7932 79.7302 12.0565C80.3316 12.898 81.3442 13.3835 82.3256 13.5131L82.3224 13.5142ZM91.4992 13.5472C92.7653 13.579 94.1569 13.4505 95.2329 12.6728C95.9921 12.1224 96.3722 11.2161 96.4033 10.2768C96.4345 9.37054 96.4033 8.43129 96.4033 7.525C96.4033 6.845 96.4667 6.16501 96.2455 5.51797C96.0876 5.03241 95.7387 4.61167 95.2962 4.38537C94.2203 3.80315 92.9542 3.67352 91.7516 3.80315C90.929 3.89982 90.1065 4.15907 89.5052 4.7424C88.936 5.32462 88.6826 6.1672 88.6193 6.97573H90.929C91.0235 6.65166 91.0869 6.29573 91.3403 6.03648C91.6571 5.74536 92.0995 5.68055 92.4796 5.68055C92.8598 5.68055 93.2388 5.71241 93.5867 5.87499C93.9669 6.06943 94.0936 6.58684 93.9346 6.97573C93.7446 7.36461 93.2699 7.42943 92.8909 7.5261C91.8149 7.68758 90.6445 7.72054 89.663 8.23795C88.9983 8.59388 88.4926 9.27387 88.3658 10.0505C88.208 10.9568 88.3347 12.0576 89.0305 12.7046C89.7264 13.3846 90.6445 13.5461 91.4992 13.5461V13.5472ZM91.3414 9.56498C92.1961 9.14424 93.2087 9.27387 94.0313 8.75536C94.0313 9.4024 94.0946 10.1154 93.8101 10.7305C93.5889 11.249 93.0509 11.5402 92.5129 11.6698C92.0061 11.7994 91.3425 11.7994 90.9623 11.3457C90.5511 10.8272 90.7089 9.8561 91.3425 9.56498H91.3414ZM53.0824 17.4316H55.4878V15.0039H53.0824V17.4316ZM48.9998 16.655V27.4679H51.2462V15.0039C50.6449 15.0357 50.0124 15.1335 49.5378 15.5224C49.1899 15.8135 48.9998 16.2342 48.9998 16.655ZM67.2278 18.629C66.2463 19.1475 65.5505 20.1505 65.2659 21.2194C65.0125 22.0609 65.1081 22.9672 65.0759 23.8416V27.4679H67.4812V22.8705C67.5124 22.1905 67.5446 21.4138 68.0826 20.9283C68.6839 20.3779 69.602 20.3779 70.3612 20.4746V17.982C69.2852 17.9501 68.1781 18.0787 67.2289 18.629H67.2278ZM76.7525 18.2412C75.3598 17.8205 73.7781 17.8853 72.512 18.6949C71.4994 19.342 70.867 20.4757 70.708 21.6412C70.518 22.9034 70.5502 24.2316 71.0882 25.396C71.4361 26.2375 72.1641 26.8208 72.9555 27.2086C74.0948 27.759 75.4242 27.8238 76.6258 27.5327C77.8919 27.2086 78.9678 26.2375 79.3791 24.9753H76.847C76.5936 25.2994 76.2779 25.5575 75.8978 25.6223C75.1697 25.7838 74.2838 25.752 73.6825 25.2016C73.2079 24.7808 73.0178 24.1009 72.9867 23.4857H79.5369C79.5369 22.5464 79.5369 21.5435 79.189 20.6372C78.7778 19.5364 77.8919 18.5972 76.7525 18.2412ZM73.05 21.8994C73.1445 21.1875 73.4935 20.4746 74.126 20.1516C74.854 19.8275 75.7711 19.8924 76.4046 20.4109C76.8481 20.7668 77.0371 21.3501 77.1005 21.9005H73.05V21.8994ZM53.0824 18.2412V27.4997H55.4878V18.2412H53.0824ZM63.1774 18.2412C62.7339 18.2412 62.3548 18.6301 62.2281 19.0509C61.6901 20.9283 61.1522 22.8386 60.6142 24.716C60.0128 22.5475 59.4115 20.3779 58.8102 18.2412H56.2781C57.3219 21.349 58.3978 24.4249 59.4738 27.5327H61.9103C62.9862 24.4249 64.0622 21.349 65.1382 18.2412C64.4735 18.2412 63.8088 18.2094 63.1763 18.2412H63.1774Z" fill="var(--fill-0, #485770)"/>
</g>
<defs>
<clipPath id="clip0_0_4">
<rect width="116" height="30" fill="white"/>
</clipPath>
</defs>
</svg>
