<svg preserveAspectRatio="none" width="100%" height="100%" overflow="visible" style="display: block;" viewBox="0 0 84 34" fill="none" xmlns="http://www.w3.org/2000/svg">
<g id="Raizen 1" clip-path="url(#clip0_0_20)">
<path id="Vector" d="M18.3319 6.6063C13.4691 6.6063 9.72552 10.3824 9.72552 15.0853C9.72552 19.9939 13.0144 23.5643 17.8772 23.5643C19.5213 23.5643 21.3755 22.9117 22.7049 21.5388V23.3579H26.7982V14.7078C26.798 10.2107 23.2296 6.6063 18.3319 6.6063ZM18.2619 19.5821C15.708 19.5821 13.9238 17.7627 13.9238 15.0853C13.9238 12.4079 15.708 10.5539 18.2619 10.5539C20.8158 10.5539 22.6002 12.4079 22.6002 15.0853C22.6002 17.7627 20.8158 19.5821 18.2619 19.5821ZM28.9324 23.3582H33.1654V6.40079L28.9324 7.43027V23.3582ZM4.09332 8.5974V6.98408H0V23.3582H4.19832V14.7078C4.19832 12.4419 5.21304 10.6912 8.29136 10.6912H9.55108V6.77775H8.64136C6.82192 6.77775 5.49248 7.29262 4.09332 8.5974ZM43.3801 15.6688L49.2923 10.5198V6.98381H35.0888V10.7946H43.2754L38.0276 15.2913L41.526 19.2735C36.9782 19.548 34.1793 22.706 34.1793 26.4824C34.1793 30.7387 37.7126 34 42.0507 34C46.3534 34 49.957 30.7387 49.957 26.4824C49.957 24.2165 49.327 22.5345 47.8929 20.8871L43.3821 15.6688H43.3801ZM42.0165 30.1893C39.7776 30.1893 38.2735 28.5762 38.2735 26.4472C38.2735 24.3195 39.7779 22.7057 42.0165 22.7057C44.221 22.7057 45.7601 24.3195 45.7601 26.4472C45.7601 28.5765 44.2201 30.1893 42.0165 30.1893ZM58.1781 6.6063C53.2104 6.6063 49.817 10.4168 49.817 15.0853C49.817 19.7881 53.2456 23.5643 58.1781 23.5643C62.1664 23.5643 64.895 21.4015 65.9448 18.2432H61.6064C61.0117 19.2386 60.0676 19.7881 58.4234 19.7881C55.9392 19.7881 54.5051 18.5526 54.0851 16.4582H66.3995C66.4345 16.0461 66.4692 15.7373 66.4692 15.3254C66.4664 9.66149 62.7592 6.6063 58.1756 6.6063M54.1184 13.1972C54.7128 11.1718 56.287 10.2107 58.2112 10.2107C60.2053 10.2107 61.6745 11.069 62.1995 13.1972H54.1184ZM77.21 6.6063C75.3906 6.6063 73.9217 7.22448 72.5222 8.52899V6.98408H68.4289V23.3582H72.627V14.6734C72.627 12.4081 73.6417 10.5198 76.4753 10.5198C79.0992 10.5198 79.8339 12.4081 79.8339 14.6734V23.3582H84.0003V13.4033C84.0003 9.66149 81.7267 6.6063 77.2131 6.6063M34.6699 0L28.8274 2.609V5.49275L34.6699 3.70744V0Z" fill="var(--fill-0, #485770)"/>
</g>
<defs>
<clipPath id="clip0_0_20">
<rect width="84" height="34" fill="white"/>
</clipPath>
</defs>
</svg>
