<svg preserveAspectRatio="none" width="100%" height="100%" overflow="visible" style="display: block;" viewBox="0 0 82 21.9999" fill="none" xmlns="http://www.w3.org/2000/svg">
<g id="g3375">
<path id="path5" d="M67.2614 5.74331L72.2806 21.7147H77.0143L82 5.74331H77.4959L74.6974 16.6458H74.6643L71.8146 5.74331H67.2614Z" fill="var(--fill-0, #485770)"/>
<path id="path3340" d="M6.17702 5.42481C3.3451 5.44154 2.62652e-06 8.2072 2.62652e-06 13.7031C2.62652e-06 19.1923 3.36948 21.9572 6.19927 21.9806C8.04329 21.9734 9.47404 21.0726 10.1337 20.1031V21.7149H14.3407V5.72631H10.1337V7.34028C9.47136 6.36319 8.03193 5.42481 6.17702 5.42481ZM6.19927 21.9806C6.19176 21.9807 6.18453 21.9814 6.17702 21.9814H6.2097C6.20614 21.9814 6.20272 21.9806 6.19927 21.9806ZM7.27015 9.55502C8.9912 9.55502 10.2658 11.239 10.2658 13.7217C10.2658 16.2733 8.9912 17.8869 7.27015 17.8869C5.44826 17.8869 4.28908 16.3087 4.28908 13.7217C4.28908 11.2036 5.44826 9.55502 7.27015 9.55502Z" fill="var(--fill-0, #485770)"/>
<path id="path3348" d="M23.9103 5.42497C21.8415 5.42497 20.797 6.47095 20.2181 7.30473V5.72616H16.1955V21.7147H20.4007V12.6222C20.4007 10.6904 21.2286 9.50055 22.5046 9.50055C23.6624 9.50055 24.3902 10.3537 24.3902 12.0902V18.1884C24.3902 19.802 24.6895 20.9182 25.4179 21.7147H29.8056C28.9625 20.9703 28.5975 20.3868 28.5975 18.2055V12.6222C28.5975 10.6904 29.425 9.50055 30.6993 9.50055C31.8588 9.50055 32.5875 10.3537 32.5875 12.0902V18.1884C32.5875 19.802 32.9855 20.8996 33.8634 21.7147H38.2837C37.2407 20.9703 36.7943 20.174 36.7943 18.5604V11.5752C36.7943 6.66556 34.1607 5.42497 31.9581 5.42497C29.6564 5.42497 28.3992 6.71846 27.7038 7.74767C26.9737 6.3816 25.6487 5.42497 23.9103 5.42497Z" fill="var(--fill-0, #485770)"/>
<path id="path3356" d="M38.9308 2.20844e-07V21.7147H43.0703V20.103C43.7326 21.0764 45.2061 22.0003 47.0592 21.9816C49.8912 21.9649 53.269 19.1989 53.269 13.703C53.269 8.20711 49.9248 5.44169 47.0929 5.42497C45.2397 5.40637 43.7983 6.36308 43.1359 7.34017V2.20844e-07H38.9308ZM46.0011 9.55485C47.823 9.55485 48.9806 11.2038 48.9806 13.7219C48.9806 16.3088 47.823 17.8872 46.0011 17.8872C44.2784 17.8872 43.0041 16.2735 43.0041 13.7219C43.0041 11.2391 44.2784 9.55485 46.0011 9.55485Z" fill="var(--fill-0, #485770)"/>
<path id="path3365" d="M61.4504 5.42497C57.6084 5.42497 54.2636 8.40253 54.2636 13.703C54.2636 18.5792 57.5077 21.9999 61.7808 21.9999C63.7696 21.9999 65.7064 21.3972 66.8973 20.2619L67.2774 16.4338C65.871 17.5337 64.0664 18.0472 62.2602 18.0472C60.2575 18.0472 58.8345 17.0007 58.5355 15.4039H67.8256C67.8743 14.9795 67.8913 14.554 67.8913 14.1111C67.8913 8.40301 64.8612 5.42497 61.4504 5.42497ZM61.1685 9.21764C62.6914 9.21764 63.6024 10.511 63.7171 12.1079H58.5195C58.7177 10.3342 59.776 9.21764 61.1685 9.21764Z" fill="var(--fill-0, #485770)"/>
</g>
</svg>
