<svg preserveAspectRatio="none" width="100%" height="100%" overflow="visible" style="display: block;" viewBox="0 0 34.7529 36.0024" fill="none" xmlns="http://www.w3.org/2000/svg">
<g id="Group">
<path id="Vector" d="M32.5428 23.0847C30.8006 21.9068 29.3263 20.0105 28.1287 17.7522C29.933 16.9584 31.5741 15.9349 32.9987 14.7075C33.531 17.416 33.4174 20.2935 32.5428 23.0847ZM23.791 33.1139C21.5822 31.359 19.5845 29.3506 17.8228 27.1236C19.5615 27.4139 21.3072 27.5517 23.0015 27.5517C25.9803 27.5517 28.8065 27.1052 31.1927 26.236C29.4824 29.2992 26.8691 31.7063 23.791 33.1139ZM12.4738 33.7147C13.8044 31.8166 15.0392 29.6979 16.1569 27.4506C17.9168 29.7824 19.9216 31.9029 22.1481 33.7551C20.6277 34.2494 19.0221 34.5214 17.3757 34.5214C15.7098 34.5214 14.067 34.2476 12.4738 33.7147ZM2.90591 24.9222C4.19216 24.6503 5.55292 24.031 6.93674 23.0994C7.58962 26.1497 8.44475 29.2128 9.511 32.3641C6.55353 30.6259 4.28086 27.9927 2.90591 24.9222ZM1.43161 17.7522C2.62205 19.5273 4.19216 21.1149 6.10999 22.4912C4.8681 23.285 3.65814 23.794 2.52802 23.9906C1.78643 22.0208 1.40322 19.9095 1.43161 17.7522ZM5.3205 7.21041C5.30809 9.81417 5.41808 12.3573 5.66114 14.8747C4.4565 14.1544 3.34944 13.3367 2.3719 12.4124C2.37722 12.3904 2.38432 12.3701 2.39319 12.3499C3.0709 10.4279 4.06797 8.69879 5.3205 7.21041ZM18.8571 1.55638C18.662 3.50414 18.0375 5.76428 17.0511 8.11446C14.2834 6.94397 11.8103 5.40229 9.72745 3.52252C12.0303 2.21053 14.6436 1.48287 17.3757 1.48287C17.876 1.48287 18.3675 1.50676 18.8571 1.55638ZM23.4184 2.71585C23.4592 5.0109 23.7821 7.60547 24.3782 10.2166C23.5054 10.0677 22.6538 9.88215 21.8093 9.67819C22.2156 7.16263 22.4249 4.69485 22.4391 2.34467C22.5686 2.38877 22.7052 2.43103 22.8276 2.48064C23.0299 2.55782 23.2233 2.635 23.4184 2.71585ZM31.693 10.7513C29.5374 10.7825 27.4368 10.6631 25.425 10.3783C24.8164 7.87926 24.4723 5.37106 24.3889 3.16788C27.6639 4.82164 30.1814 7.54116 31.693 10.7513ZM25.6875 11.4073C27.4138 11.6315 29.1968 11.7454 31.0188 11.7454C31.3807 11.7454 31.7533 11.7417 32.1241 11.7307C32.2873 12.1533 32.4399 12.5888 32.5729 13.0261C31.1306 14.3969 29.3937 15.5196 27.451 16.3686C26.7485 14.7993 26.1595 13.1125 25.6875 11.4073ZM13.0149 19.2388C14.5478 19.5383 16.1303 19.711 17.7394 19.7386C17.1824 21.3482 16.5667 22.923 15.8997 24.4389C14.8174 22.8017 13.8523 21.0634 13.0149 19.2388ZM10.485 18.6324C9.52165 19.711 8.54055 20.6445 7.57188 21.4254C7.30221 20.0473 7.08399 18.6563 6.89416 17.269C8.03847 17.8018 9.24134 18.2667 10.485 18.6324ZM14.2586 24.698C13.8488 24.5731 13.4407 24.4389 13.038 24.2919C11.3011 23.6819 9.72035 22.9377 8.29572 22.0814C9.30698 21.2619 10.32 20.2825 11.3082 19.1543C12.1633 21.0892 13.1515 22.9377 14.2586 24.698ZM13.0131 15.4259C12.6725 15.9092 12.3319 16.3759 11.9841 16.8151C10.469 12.9214 9.48262 8.69512 9.09763 4.26671C11.2479 6.21447 13.8044 7.8076 16.6679 9.01668C15.6992 11.1666 14.4573 13.3624 13.0131 15.4259ZM20.1931 10.2662C19.7371 12.903 19.086 15.5693 18.2539 18.1877C16.3254 18.1859 14.4324 17.9746 12.6246 17.5777C13.0149 17.0705 13.3964 16.5487 13.7867 16.0084C15.2769 13.8824 16.5596 11.6076 17.5585 9.37316C18.4118 9.70575 19.2953 9.99975 20.1931 10.2662ZM21.6532 10.6539C22.6183 10.8928 23.6207 11.0912 24.6355 11.2566C25.1251 13.1437 25.7603 15.0051 26.5391 16.7342C24.4847 17.5097 22.2156 17.9948 19.8329 18.1381C20.5958 15.6611 21.2096 13.1437 21.6532 10.6539ZM20.3545 9.2868C19.5349 9.04241 18.7258 8.76862 17.9435 8.47094C18.9476 6.05277 19.5952 3.7081 19.8027 1.67765C20.186 1.73645 20.5638 1.8173 20.9364 1.90367C20.9542 4.25936 20.7501 6.74735 20.3545 9.2868ZM6.28918 6.14281C6.72029 5.71467 7.17092 5.31409 7.64994 4.92454C8.06686 9.16369 9.01247 13.2209 10.4336 16.9897C9.11005 16.5799 7.85219 16.058 6.67949 15.4443C6.36192 12.3995 6.23063 9.32171 6.28918 6.14281ZM6.49143 20.854C4.34651 19.2296 2.70721 17.2873 1.67821 15.1172C1.73676 14.7626 1.80772 14.4024 1.89643 14.0441C3.08687 15.0676 4.41037 15.9845 5.86871 16.7545C6.03725 18.1252 6.24838 19.4905 6.49143 20.854ZM11.0155 33.1396C10.9232 33.1065 10.8345 33.0587 10.7547 33.0201C9.63697 29.8468 8.74458 26.7708 8.05444 23.7315C9.42762 24.5124 10.925 25.196 12.5536 25.7656C13.3378 26.0486 14.1344 26.2875 14.9416 26.497C13.7618 28.9151 12.4436 31.1587 11.0155 33.1396ZM32.1773 24.1284C28.3274 26.0743 22.6573 26.5319 17.1149 25.4183C17.9364 23.5716 18.6797 21.6606 19.3255 19.7239C22.1393 19.6136 24.8093 19.0679 27.2204 18.1308C28.5403 20.6445 30.2116 22.7631 32.2128 24.0402C32.2022 24.0659 32.1968 24.1027 32.1773 24.1284ZM23.3155 1.08413C21.403 0.36199 19.4018 0 17.3757 0C10.0982 0 3.53573 4.75733 1.05017 11.8409C-2.22843 21.1755 2.42689 31.5189 11.4342 34.9128C13.3502 35.6368 15.355 36.0024 17.3757 36.0024C24.6497 36.0024 31.214 31.2414 33.7048 24.1633C36.9799 14.8251 32.3228 4.47802 23.3155 1.08413Z" fill="var(--fill-0, #485770)"/>
</g>
</svg>
