<svg preserveAspectRatio="none" width="100%" height="100%" overflow="visible" style="display: block;" viewBox="0 0 33.276 20.0095" fill="none" xmlns="http://www.w3.org/2000/svg">
<g id="Group">
<path id="Vector" d="M27.6321 6.21712C27.6321 5.18811 27.6694 4.54682 27.9603 3.92941C28.8066 4.03599 30.4423 4.25281 31.4252 3.96616C33.1869 3.44063 33.2951 1.28155 33.2738 0.0430666C32.2786 -0.0359466 31.0562 -0.0138966 29.8232 0.17353C26.4878 0.660472 24.0235 3.17419 24.0235 7.27185V19.9617H27.6321V10.3111H30.1017C31.7995 10.3111 32.0391 9.09466 32.0391 7.29023H27.6321V6.21712ZM18.027 13.5984C18.027 12.4702 18.027 11.3419 18.2842 10.6455C19.0577 10.7448 20.2216 10.833 20.9259 10.6125C22.7036 10.0557 22.6858 7.97929 22.6858 6.78123C21.6692 6.70773 20.7112 6.75735 19.6201 6.93191C16.5722 7.41518 14.4166 9.826 14.4166 13.92V19.9617H18.027V13.5984ZM8.63293 16.713C5.69674 17.505 3.6281 15.8916 3.6281 12.9167V10.3111C4.26147 9.9142 4.93386 9.65878 5.92738 9.65878C9.41177 9.65878 10.1019 13.4863 8.63293 16.713ZM6.94573 6.55889C5.63997 6.55889 4.43001 7.06789 3.6281 7.5879V0.0779794C2.2017 0.0614419 0.656429 0.77256 0 1.37343V12.8671C0 17.5564 2.84926 20.0095 6.44187 20.0095C10.0097 20.0095 12.9441 16.9721 12.9441 12.9038C12.9441 9.57977 10.7033 6.55889 6.94573 6.55889Z" fill="var(--fill-0, #485770)"/>
</g>
</svg>
