<svg preserveAspectRatio="none" width="100%" height="100%" overflow="visible" style="display: block;" viewBox="0 0 75 58" fill="none" xmlns="http://www.w3.org/2000/svg">
<g id="Natura Black 1">
<path id="Vector" d="M13.6082 40.5319C17.0876 40.5319 18.7113 42.8035 18.7113 44.9642V49.7448H16.5077V44.9642C16.5077 43.6029 15.7345 41.3946 13.6082 41.3946C11.482 41.3946 10.701 43.595 10.701 44.9642V49.7448H8.50515V44.9642C8.50515 42.7877 10.1211 40.5319 13.6082 40.5319Z" fill="var(--fill-0, #485770)"/>
<path id="Vector_2" d="M43.9175 49.911C40.4304 49.911 38.8144 47.6395 38.8144 45.4708V40.6823H41.0103V45.4708C41.0103 46.8322 41.7835 49.0404 43.9175 49.0404C46.0515 49.0404 46.817 46.8401 46.817 45.4708V40.6823H49.0206V45.4708C49.0206 47.6474 47.4046 49.911 43.9175 49.911Z" fill="var(--fill-0, #485770)"/>
<path id="Vector_3" d="M27.6031 49.1037C27.0851 49.5153 26.4742 49.7844 25.8247 49.8794C23.6057 50.2355 20.4974 48.7396 20.3737 45.4233C20.2577 42.0278 23.5206 40.5952 25.6546 40.6507C29.2577 40.7535 30.5412 43.5317 30.5412 45.1146V49.7527H28.3222V45.1384C28.3222 44.1332 27.8814 41.545 25.5928 41.4975C23.3119 41.4501 22.6469 43.5554 22.6392 45.1384C22.6392 46.1436 22.8479 48.6288 25.4149 48.7792C26.2036 48.8267 27.317 48.6051 27.6108 48.3281L27.6031 49.1037Z" fill="var(--fill-0, #485770)"/>
<path id="Vector_4" d="M37.4613 51.1141C36.8041 51.3278 36.1005 51.3436 35.4356 51.1616C34.4072 50.8846 32.683 50.4097 32.683 46.7609V36.6932H34.9021V40.6981H36.951V42.107H34.9021C34.9021 42.107 34.9562 44.9405 34.9021 47.2279C34.8557 49.2699 35.4665 49.9585 35.8995 50.196C36.3866 50.4018 36.9278 50.4334 37.4381 50.2989L37.4613 51.1141Z" fill="var(--fill-0, #485770)"/>
<path id="Vector_5" d="M51.1005 44.6714C51.1005 42.4315 52.2371 40.8485 54.2088 40.6427C55.616 40.5003 56.1186 40.7615 56.1186 40.7615V41.6717C55.6082 41.545 55.0747 41.5609 54.5722 41.7112C53.683 41.9962 53.3119 43.3971 53.3119 43.872V49.7844H51.0928L51.1005 44.6714Z" fill="var(--fill-0, #485770)"/>
<path id="Vector_6" d="M63.5644 49.1037C63.0464 49.5153 62.4356 49.7844 61.7861 49.8794C59.567 50.2355 56.4588 48.7396 56.3428 45.4233C56.2113 42.0199 59.482 40.5953 61.6082 40.6586C65.2036 40.7615 66.4948 43.5317 66.4948 45.1146V49.7448H64.2758V45.1305C64.2758 44.1253 63.8273 41.5371 61.5464 41.4896C59.2655 41.4421 58.6005 43.5475 58.6005 45.1305C58.6005 46.1356 58.817 48.6209 61.3763 48.7713C62.1649 48.8188 63.2861 48.5972 63.5722 48.3201L63.5644 49.1037Z" fill="var(--fill-0, #485770)"/>
<path id="Vector_7" d="M36.1778 10.5742C35.3351 12.2443 34.3454 15.8297 34.3454 15.8297C34.3454 15.8297 34.2603 16.0988 34.0747 15.7901C33.9588 15.5922 32.5515 13.6294 31.8557 12.7508C31.0438 11.7377 27.433 7.84361 23.2887 10.0519C19.5541 12.0543 20.9845 16.9219 22.1366 18.7582C22.8325 19.8663 24.1778 21.6075 24.5567 22.0903C24.6263 22.1774 24.6031 22.2091 24.4948 22.1774C24.1778 22.0903 23.3428 21.8608 21.8273 21.4651C20.4588 21.1089 19.1366 21.1564 18.7423 21.7658C18.4639 22.2249 18.2938 22.8818 18.8428 23.9187C19.9407 25.9449 22.9639 29.1583 27.9201 30.211C28.0206 30.211 28.0052 30.3139 27.9201 30.4642C27.6727 30.8758 27.7036 31.3982 27.9897 31.7702C28.732 32.6804 29.5515 33.0128 32.8376 33.5906C37.4149 34.3979 39.0232 32.807 39.2088 32.6013C39.2242 32.5933 39.2474 32.5933 39.2629 32.6013C41.6289 33.1711 44.1186 32.9337 46.3454 31.9285C49.5309 30.5671 50.7448 29.2849 50.7912 28.5172C50.8376 27.7495 49.1443 27.8998 48.6572 27.7732C48.5026 27.7336 48.549 27.6624 48.6572 27.607C48.8814 27.4645 49.4459 27.2271 49.8943 26.9817C50.3428 26.7364 55.0129 24.3382 55.933 20.2778C56.8531 16.2175 53.2655 16.1779 51.3325 17.0328C49.3995 17.8796 47.5825 18.8057 47.1727 19.0035C47.1031 19.0352 47.0876 19.0035 47.1186 18.9402C47.6289 17.6659 48.0464 16.3521 48.3634 15.0066C48.7655 13.0753 48.5799 7.80404 43.4768 6.8226C43.1057 6.75136 42.7345 6.71971 42.3557 6.71971C39.7577 6.72762 37.3763 8.21561 36.1778 10.5742ZM36.3789 18.8532C36.7809 17.6976 36.9201 17.0961 37.5851 14.8641C38.4124 12.0781 40.2062 9.89356 43.0979 10.7721C46.4845 11.8327 45.6959 15.3231 45.1469 16.7636C44.6985 17.9113 44.3582 19.0827 43.6314 20.9823C43.0515 22.5257 44.2964 22.5652 44.9613 22.4148C45.7191 22.2407 47.9227 21.0772 49.3067 20.4124C50.3351 19.9296 52.2294 18.7582 53.3041 19.8979C54.3789 21.0377 53.1727 23.0085 51.8814 24.1878C50.5902 25.3671 47.1649 26.8392 46.1057 27.2746C45.0464 27.7099 44.6521 28.3272 45.1701 28.6597C45.6881 28.9921 47.2036 29.2612 47.6598 29.3245C48.0387 29.372 48.4098 29.467 48.4098 29.7361C48.4098 30.0764 47.5206 30.765 45.433 31.4853C44.0258 31.9364 42.549 32.0868 41.0876 31.9443C39.2629 31.5961 38.9768 31.2953 38.1263 31.6277C37.4923 31.8889 37.4381 32.4034 36.5258 32.7754C35.6134 33.1474 34.2526 33.0682 33.2088 32.8862C32.1649 32.7042 30.3557 32.53 30.1701 31.6831C30.0928 31.3428 30.4562 31.1291 30.7577 30.7729C31.0593 30.4168 31.3222 29.7757 30.0155 29.4907C29.6675 29.4195 26.0412 28.8259 23.799 27.6703C21.5567 26.5147 20.6907 24.6785 20.9072 24.0295C21.1005 23.5071 21.6108 23.4596 22.299 23.5783C23.0954 23.7366 26.567 24.7022 27.6263 24.7181C28.067 24.7181 28.3918 24.631 28.5464 24.3619C28.9562 23.6258 27.6959 22.7394 26.6521 21.4492C25.1521 19.6288 22.2912 16.5737 24.433 13.8431C25.8557 12.0227 28.6701 13.2178 29.8376 14.6029C30.7268 15.6714 32.2887 17.848 33.4871 19.3201C33.8273 19.8109 34.3686 20.1275 34.9562 20.1749C35.5593 20.1749 36.1005 19.7238 36.4098 18.8136" fill="var(--fill-0, #485770)"/>
</g>
</svg>
